<svg width="338" height="394" viewBox="0 0 338 394" fill="none" xmlns="http://www.w3.org/2000/svg">
<path fill-rule="evenodd" clip-rule="evenodd" d="M9.5514 203.443C9.52965 203.493 10.3698 206.303 10.4072 214.534C10.4752 229.484 10.4755 229.5 10.752 230.822C11.4887 234.345 13.9333 238.4 17.6027 242.183C18.5683 243.179 20.1779 244.605 20.9097 245.114C22.6356 246.313 23.9905 247.126 25.7714 248.031C27.8562 249.091 28.2003 249.215 28.4286 248.991C28.5251 248.897 30.1532 247.956 32.576 246.596C32.8447 246.445 33.7517 245.925 34.5916 245.441C35.4314 244.957 36.3303 244.443 36.589 244.298C36.8476 244.154 37.2986 243.898 37.5911 243.73C40.7054 241.941 42.6828 240.814 44.7554 239.646C45.5818 239.18 46.4777 238.661 46.7465 238.493C47.0152 238.324 47.4825 238.055 47.7848 237.896C48.4143 237.563 49.0178 237.222 50.62 236.291C51.2442 235.928 52.0289 235.488 52.3637 235.313C53.3271 234.811 54.6407 233.435 55.1174 232.43C55.4739 231.679 55.53 231.423 55.5791 230.323C55.648 228.78 55.4974 228.187 54.7948 227.232C54.2804 226.533 52.6341 225.167 52.2938 225.156C52.1991 225.153 51.9016 225.069 51.6328 224.969C49.7885 224.282 47.6212 223.863 44.7308 223.635C40.7187 223.319 37.3265 222.924 36.8515 222.718C36.7172 222.659 36.1489 222.523 35.5886 222.415C33.671 222.044 29.9532 220.813 27.7507 219.819C25.8425 218.958 25.1452 218.579 22.2132 216.814C21.6836 216.495 19.8952 215.016 18.9261 214.095C18.4734 213.664 18.0473 213.312 17.9794 213.312C17.9113 213.312 17.8557 213.254 17.8557 213.182C17.8557 213.111 17.4552 212.63 16.9657 212.114C14.7177 209.742 12.6762 206.699 11.6293 204.16C11.1989 203.115 12.1371 202.88 12.0586 201.771C12.0115 201.104 9.67563 203.156 9.5514 203.443ZM232.001 214.149C231.879 214.622 231.024 216.633 230.473 217.405C229.748 218.418 228.544 219.614 227.7 220.16C226.646 220.842 225.042 221.469 223.521 221.794C222.776 221.953 222.058 222.087 221.923 222.093C221.789 222.098 221.486 222.135 221.251 222.174C221.016 222.214 219.257 222.35 217.342 222.476C211.068 222.891 208.777 223.309 203.905 224.93C199.658 226.342 196.327 227.906 194.437 229.376C193.967 229.742 193.472 230.092 193.338 230.155C192.968 230.327 190.845 232.587 190.225 233.47C188.717 235.619 187.678 238.68 187.661 241.026C187.654 242.062 188.166 243.026 188.846 244.463C189.383 245.596 190.158 246.57 191.741 248.1C193.694 249.988 196.259 251.696 198.652 252.703C199.089 252.887 199.556 253.097 199.69 253.169C199.969 253.32 201.184 253.775 202.244 254.125L202.965 254.363L204.504 253.882C208.833 252.531 211.276 252.06 215.651 251.733C217.018 251.631 218.796 251.494 219.602 251.429C220.408 251.364 221.454 251.287 221.927 251.259C223.154 251.186 225.379 250.531 226.866 249.805C229.416 248.559 231.274 246.238 232.169 243.179L232.491 242.078L232.46 227.972C232.431 214.648 232.631 213.516 232.429 213.477C232.279 213.448 232.185 213.843 232.001 214.149ZM0.0204471 269.793C-0.0264622 269.979 0.0162907 276.409 0.0590465 284.037C0.144314 299.25 0.152378 299.419 0.875929 301.226C1.276 302.225 2.32731 303.919 2.90268 304.491C4.07199 305.653 5.57846 306.543 22.3756 315.989C32.0171 321.411 45.6776 329.095 52.7323 333.065C59.787 337.035 66.4935 340.803 67.6357 341.439C68.7779 342.075 69.7399 342.628 69.7735 342.668C69.8509 342.759 67.5015 341.433 89.845 354.002C100.515 360.004 109.53 365.059 109.879 365.235C110.228 365.411 113.139 367.032 116.348 368.837C119.557 370.642 122.205 372.12 122.233 372.12C122.276 372.12 133.581 378.459 139.649 381.886C149.947 387.702 154.921 390.454 155.914 390.885C158.584 392.044 161.883 392.997 164.309 393.311C169.899 394.033 174.058 393.727 177.824 392.315C178.548 392.043 181.621 390.354 188.451 386.472C190.218 385.468 201.38 379.155 207.936 375.452C210.791 373.839 213.485 372.327 213.922 372.092C214.825 371.607 224.269 366.305 224.55 366.127C224.65 366.062 224.87 365.943 225.038 365.862C225.314 365.729 230.627 362.745 234.017 360.82C234.756 360.401 238.302 358.396 241.896 356.365C245.491 354.334 248.844 352.436 249.348 352.147C249.852 351.859 253.205 349.961 256.8 347.931C266.234 342.602 267.776 341.725 271.703 339.453C272.543 338.967 273.917 338.181 274.757 337.707C275.597 337.233 277.301 336.269 278.544 335.565C282.232 333.477 291.582 328.189 298.578 324.237C302.173 322.206 305.526 320.308 306.03 320.019C306.534 319.731 309.887 317.833 313.482 315.803C317.076 313.773 320.622 311.768 321.361 311.348C322.1 310.928 325.261 309.14 328.385 307.373C331.509 305.607 334.395 303.901 334.799 303.583C335.814 302.78 336.974 301.544 337.285 300.936C337.515 300.485 337.624 299.842 337.807 297.847C337.823 297.679 337.839 291.554 337.844 284.236C337.85 274.554 338.074 270.131 337.975 270.098C337.9 270.073 337.437 271.143 337.262 271.513C336.914 272.248 335.597 273.71 334.568 274.504C334.211 274.779 332.963 275.533 331.794 276.179C330.625 276.825 329.53 277.448 329.362 277.563C329.095 277.745 325.976 279.507 324.053 280.561C323.685 280.763 322.187 281.608 320.724 282.44C319.26 283.272 317.273 284.399 316.308 284.944C315.343 285.49 314.298 286.084 313.987 286.264C313.675 286.444 313.137 286.746 312.79 286.936C311.511 287.633 309.124 288.978 308.426 289.394C308.03 289.629 307.5 289.937 307.248 290.078C306.434 290.532 303.342 292.278 302.753 292.617C302.439 292.798 301.895 293.1 301.544 293.289C301.193 293.478 299.544 294.41 297.88 295.361C294.756 297.146 293.559 297.825 292.676 298.312C292.137 298.61 292.016 298.679 289.283 300.229C287.272 301.369 286.777 301.648 284.752 302.782C283.924 303.245 282.917 303.822 282.514 304.064C282.111 304.306 281.589 304.602 281.354 304.721C280.918 304.942 280.371 305.251 278.487 306.337C276.513 307.474 276.285 307.604 275.645 307.948C274.651 308.483 272.087 309.93 271.276 310.414C270.872 310.655 270.378 310.941 270.176 311.049C269.975 311.158 268.995 311.709 268 312.273C267.005 312.838 265.878 313.474 265.496 313.687C265.114 313.9 264.573 314.202 264.293 314.359C264.014 314.515 263.052 315.052 262.156 315.551C261.259 316.05 260.388 316.551 260.22 316.664C260.052 316.776 259.64 317.021 259.304 317.208C258.968 317.394 257.852 318.021 256.823 318.6C255.795 319.179 254.64 319.826 254.258 320.039C253.403 320.515 252.886 320.807 251.374 321.668C250.725 322.037 249.952 322.477 249.656 322.645C249.173 322.919 244.698 325.446 243.059 326.371C242.702 326.572 241.634 327.177 240.686 327.715C239.738 328.252 238.718 328.829 238.419 328.997C238.121 329.165 237.035 329.776 236.008 330.354C234.98 330.932 233.864 331.559 233.528 331.748C233.192 331.936 232.725 332.209 232.49 332.354C232.056 332.622 229.569 334.027 228.418 334.656C228.071 334.845 227.533 335.147 227.222 335.327C226.911 335.508 225.922 336.062 225.023 336.56C224.124 337.058 223.252 337.559 223.084 337.675C222.916 337.79 221.661 338.51 220.295 339.274C217.371 340.91 217.048 341.092 214.788 342.374C213.84 342.911 212.819 343.489 212.518 343.656C211.597 344.171 203.285 348.876 202.337 349.42C201.679 349.797 201.342 349.986 199.121 351.22C198.225 351.718 197.216 352.298 196.88 352.508C196.545 352.718 195.239 353.465 193.98 354.167C192.72 354.87 191.443 355.582 191.142 355.75C190.841 355.918 189.783 356.518 188.79 357.083C187.798 357.647 186.821 358.199 186.619 358.308C186.418 358.418 185.868 358.733 185.397 359.008C184.572 359.491 182.727 360.537 181.315 361.32C180.94 361.529 180.139 361.978 179.534 362.319C178.048 363.158 175.812 363.882 173.933 364.132C173.117 364.24 172.353 364.378 172.237 364.437C171.965 364.576 166.926 364.58 166.841 364.442C166.806 364.385 166.274 364.303 165.659 364.259C164.332 364.165 162.165 363.846 161.821 363.694C161.686 363.635 161.274 363.519 160.905 363.438C159.38 363.101 155.744 361.749 154.552 361.076C154.384 360.981 153.435 360.444 152.443 359.884C151.45 359.324 150.378 358.717 150.061 358.536C149.743 358.356 149.199 358.053 148.852 357.865C147.386 357.066 145.138 355.801 144.23 355.262C143.692 354.944 142.345 354.181 141.237 353.568C139.16 352.42 138.875 352.258 137.939 351.708C137.636 351.53 136.654 350.979 135.755 350.483C134.856 349.987 133.88 349.444 133.586 349.276C133.107 349.002 130.512 347.538 128.674 346.505C128.294 346.29 127.79 346.015 127.555 345.892C127.32 345.769 126.99 345.577 126.822 345.466C126.564 345.296 124.783 344.301 122.546 343.078C122.244 342.913 121.942 342.734 121.875 342.68C121.807 342.626 120.873 342.103 119.798 341.518C118.723 340.932 117.458 340.22 116.988 339.936C116.518 339.651 115.147 338.873 113.943 338.208C112.738 337.543 111.465 336.834 111.115 336.632C110.505 336.282 107.341 334.503 106.263 333.904C105.016 333.212 104.254 332.783 102.643 331.868C101.697 331.331 100.624 330.726 100.258 330.524C99.8916 330.323 98.7237 329.668 97.6623 329.07C96.6009 328.472 95.5675 327.899 95.3659 327.799C95.1644 327.698 94.862 327.52 94.6941 327.404C94.5261 327.288 93.3167 326.603 92.0066 325.882C90.6964 325.161 89.487 324.476 89.319 324.36C89.1511 324.244 88.8487 324.067 88.6472 323.966C88.4456 323.865 87.4123 323.293 86.3508 322.695C83.7103 321.206 83.1068 320.869 82.5392 320.568C82.2704 320.425 81.5008 319.985 80.829 319.59C80.1571 319.195 79.3325 318.729 78.9966 318.553C78.6606 318.378 78.1292 318.087 77.8155 317.905C77.502 317.724 76.4107 317.108 75.3905 316.537C74.3705 315.966 73.2471 315.334 72.8943 315.132C72.5414 314.931 71.2689 314.222 70.0663 313.557C68.8639 312.892 67.5379 312.136 67.1196 311.877C66.7012 311.618 66.3213 311.406 66.2751 311.406C66.229 311.406 65.9391 311.249 65.6309 311.056C65.3225 310.863 64.3351 310.3 63.4365 309.804C62.5379 309.308 61.5484 308.755 61.2376 308.576C60.9269 308.396 60.4253 308.115 60.1229 307.951C59.4973 307.611 57.3191 306.378 56.4735 305.885C56.1628 305.703 55.6336 305.41 55.2976 305.233C54.9617 305.056 54.3793 304.738 54.0036 304.525C52.8085 303.848 50.9713 302.805 50.3761 302.466C50.0594 302.285 49.5133 301.983 49.1622 301.794C48.8112 301.605 47.7118 300.989 46.719 300.425C45.7263 299.861 44.6117 299.237 44.2422 299.039C43.8727 298.841 43.5153 298.635 43.4482 298.581C43.381 298.528 42.254 297.894 40.9439 297.174C39.6337 296.453 38.4243 295.769 38.2564 295.653C38.0884 295.537 37.7861 295.36 37.5845 295.258C37.3829 295.158 36.3496 294.585 35.2881 293.987C34.2267 293.389 33.0587 292.734 32.6925 292.533C32.3263 292.331 31.2549 291.726 30.3116 291.189C29.3682 290.651 28.2824 290.038 27.8987 289.825C26.2728 288.923 25.2709 288.36 19.0162 284.835C16.1058 283.195 14.634 282.368 10.2109 279.889C9.91109 279.721 8.5291 278.952 7.13966 278.179C4.74106 276.845 4.55122 276.712 3.38106 275.553C2.12501 274.308 1.71883 273.701 0.966571 271.949C0.779057 271.512 0.620413 270.831 0.509085 270.403C-0.0072815 268.42 0.0204471 269.06 0.0204471 269.793Z" fill="#742DED"/>
<path fill-rule="evenodd" clip-rule="evenodd" d="M165.284 171.643C164.948 171.704 164.194 171.836 163.608 171.935C162.179 172.178 160.991 172.654 159.268 173.675C158.478 174.142 146.179 181.181 131.935 189.315L106.037 204.105L104.539 204.417C103.311 204.673 102.704 204.729 101.179 204.728C96.9012 204.726 93.4349 203.407 90.7517 200.759C89.4596 199.485 88.9443 198.716 87.4856 195.888C84.9708 191.014 83.364 188.616 81.5963 187.103C79.4916 185.3 75.71 183.069 72.4249 181.691C65.5602 178.811 55.9985 177.015 47.5226 177.012C43.4992 177.011 40.4799 177.313 36.6504 178.099C33.1841 178.811 30.3204 179.657 27.6795 180.75C26.0153 181.439 21.1127 183.966 19.9756 184.721C16.4333 187.073 17.6384 191.312 16.1786 195.086C15.6872 196.357 19.2155 200.16 19.2231 201.175C19.2357 202.845 10.7555 203.221 11.6345 205.096C13.9246 209.98 18.6776 215.149 23.5455 218.048C27.5964 220.461 33.6321 222.6 38.1774 223.234C38.8829 223.332 39.8174 223.467 40.2541 223.534C40.6908 223.601 41.5429 223.688 42.1476 223.726C45.4 223.935 46.7057 224.081 48.2556 224.407C50.4593 224.871 52.1069 225.394 52.8375 225.863C53.6719 226.399 54.6324 227.464 54.9947 228.255C55.2775 228.873 55.3027 229.052 55.2591 230.137C55.2148 231.241 55.1732 231.411 54.7363 232.272C53.8213 234.074 55.134 233.254 32.2792 246.308C20.8849 252.816 11.38 258.264 11.1574 258.415C10.9347 258.566 9.76311 259.239 8.55373 259.91C4.59429 262.106 3.54103 262.827 2.12679 264.311C0.643165 265.867 0.00354269 267.38 0.0218666 269.29C0.0386025 271.027 0.652203 272.733 1.91973 274.566C2.59149 275.538 3.86219 276.668 5.16893 277.457C5.55239 277.688 19.6916 285.654 36.5893 295.158C53.487 304.662 73.909 316.149 81.9716 320.685C90.0341 325.221 103.914 333.026 112.817 338.031C158.353 363.63 154.716 361.612 156.758 362.419C160.209 363.783 162.767 364.374 166.934 364.768C170.764 365.13 175.508 364.498 178.322 363.25C178.933 362.979 215.098 342.558 271.38 310.703C277.528 307.223 285.663 302.619 289.46 300.472C293.256 298.324 297.406 295.974 298.683 295.25C299.959 294.526 303.752 292.381 307.112 290.483C310.471 288.585 314.017 286.58 314.991 286.027C315.965 285.474 319.703 283.358 323.298 281.325C326.892 279.292 330.713 277.131 331.788 276.523C334.145 275.189 334.478 274.967 335.569 274.001C338.714 271.216 338.789 268.832 335.831 265.721C334.013 263.809 332.026 262.482 324.573 258.2C322.292 256.89 315.287 252.866 309.005 249.257C302.723 245.648 296.126 241.855 294.346 240.828C292.565 239.801 288.69 237.571 285.734 235.873C282.777 234.176 279.534 232.31 278.526 231.727C274.791 229.569 274.495 229.415 273.945 229.338C273.643 229.295 273.066 229.149 272.663 229.012C271.739 228.698 268.737 228.57 267.349 228.785C263.472 229.385 259.862 231.363 256.538 234.71C254.615 236.644 253.396 238.222 250.958 241.927C248.877 245.091 247.639 246.693 246.375 247.86C243.649 250.376 240.315 252.521 237.204 253.761C235.907 254.277 233.51 254.943 232.289 255.126C231.986 255.172 231.684 255.248 231.617 255.297C231.267 255.549 228.215 256.134 225.509 256.466C224.77 256.557 222.994 256.698 221.562 256.779C216.064 257.091 210.618 256.593 204.333 254.767C198.484 253.068 194.83 250.762 191.695 247.743C190.086 246.193 189.292 244.975 188.302 242.537C187.958 241.689 187.908 241.431 187.925 240.583C187.965 238.679 188.903 235.92 190.173 233.97C191.088 232.565 193.322 230.385 194.969 229.289C198.684 226.817 204.268 224.737 210.747 223.413C212.082 223.14 220.998 222.358 222.022 222.424C222.618 222.463 225.512 221.577 226.731 220.984C229.395 219.686 231.169 217.55 232.167 214.441C232.492 213.425 232.569 212.961 232.623 211.685C232.696 209.963 232.563 208.944 232.082 207.544C231.648 206.286 231.053 205.248 230.244 204.34C229.505 203.511 230.403 204.043 208.895 191.689C186.896 179.052 180.671 175.474 179.149 174.589C176.148 172.843 174.469 172.267 170.872 171.745C169.089 171.487 166.401 171.438 165.284 171.643Z" fill="#9E80FA"/>
<path fill-rule="evenodd" clip-rule="evenodd" d="M10.4468 145.061C10.4468 148.591 10.3698 149.132 10.4072 157.362C10.4752 172.312 10.4755 172.328 10.752 173.65C11.4887 177.174 13.9333 181.228 17.6027 185.012C18.5683 186.007 20.1779 187.434 20.9097 187.942C22.6356 189.141 23.9905 189.954 25.7714 190.86C27.8562 191.919 28.2003 192.043 28.4286 191.82C28.5251 191.725 30.1532 190.785 32.576 189.424C32.8447 189.273 33.7517 188.753 34.5916 188.269C35.4314 187.786 36.3303 187.271 36.589 187.127C36.8476 186.982 37.2986 186.726 37.5911 186.558C40.7054 184.77 42.6828 183.642 44.7554 182.474C45.5818 182.009 46.4777 181.49 46.7465 181.321C47.0152 181.152 47.4825 180.884 47.7848 180.724C48.4143 180.392 49.0178 180.05 50.62 179.119C51.2442 178.756 52.0289 178.316 52.3637 178.142C53.3271 177.639 54.6407 176.263 55.1174 175.259C55.4739 174.507 55.53 174.251 55.5791 173.152C55.648 171.609 55.4974 171.015 54.7948 170.061C54.2804 169.362 52.6341 167.995 52.2938 167.985C52.1991 167.982 51.9016 167.897 51.6328 167.797C49.7885 167.11 47.6212 166.692 44.7308 166.464C40.7187 166.147 37.3265 165.752 36.8515 165.546C36.7172 165.488 36.1489 165.351 35.5886 165.243C33.671 164.873 29.9532 163.641 27.7507 162.647C25.8425 161.786 25.1452 161.408 22.2132 159.642C21.6836 159.323 19.8952 157.844 18.9261 156.923C18.4734 156.493 18.0473 156.141 17.9794 156.141C17.9113 156.141 17.8557 156.082 17.8557 156.011C17.8557 155.939 17.4552 155.458 16.9657 154.942C14.7177 152.57 12.6762 149.527 11.6293 146.988C11.1989 145.944 10.8237 146.17 10.7453 145.061C10.6982 144.393 10.5711 144.774 10.4468 145.061ZM232.001 156.977C231.879 157.45 231.024 159.461 230.473 160.233C229.748 161.246 228.544 162.443 227.7 162.988C226.646 163.67 225.042 164.297 223.521 164.622C222.776 164.781 222.058 164.915 221.923 164.921C221.789 164.926 221.486 164.963 221.251 165.003C221.016 165.042 219.257 165.178 217.342 165.305C211.068 165.719 208.777 166.138 203.905 167.758C199.658 169.17 196.327 170.735 194.437 172.205C193.967 172.57 193.472 172.921 193.338 172.983C192.968 173.155 190.845 175.415 190.225 176.299C188.717 178.447 187.678 181.508 187.661 183.854C187.654 184.891 188.166 185.854 188.846 187.291C189.383 188.424 190.158 189.399 191.741 190.928C193.694 192.816 196.259 194.524 198.652 195.531C199.089 195.715 199.556 195.925 199.69 195.998C199.969 196.148 201.184 196.603 202.244 196.953L202.965 197.191L204.504 196.711C208.833 195.359 211.276 194.888 215.651 194.562C217.018 194.46 218.796 194.323 219.602 194.257C220.408 194.192 221.454 194.115 221.927 194.087C223.154 194.014 225.379 193.359 226.866 192.633C229.416 191.388 231.274 189.066 232.169 186.007L232.491 184.906L232.46 170.8C232.431 157.477 232.631 156.344 232.429 156.305C232.279 156.277 232.185 156.672 232.001 156.977ZM0.0204471 212.621C-0.0264622 212.807 0.0162907 219.237 0.0590465 226.866C0.144314 242.078 0.152378 242.248 0.875929 244.055C1.276 245.054 2.32731 246.747 2.90268 247.319C4.07199 248.481 5.57846 249.371 22.3756 258.817C32.0171 264.24 45.6776 271.924 52.7323 275.893C59.787 279.863 66.4935 283.631 67.6357 284.268C68.7779 284.904 69.7399 285.457 69.7735 285.496C69.8509 285.588 67.5015 284.261 89.845 296.83C100.515 302.832 109.53 307.887 109.879 308.063C110.228 308.239 113.139 309.86 116.348 311.665C119.557 313.471 122.205 314.948 122.233 314.948C122.276 314.948 133.581 321.287 139.649 324.714C149.947 330.53 154.921 333.282 155.914 333.713C158.584 334.872 161.883 335.825 164.309 336.139C169.899 336.861 174.058 336.555 177.824 335.143C178.548 334.872 181.621 333.182 188.451 329.3C190.218 328.297 201.38 321.983 207.936 318.28C210.791 316.667 213.485 315.155 213.922 314.921C214.825 314.435 224.269 309.133 224.55 308.955C224.65 308.891 224.87 308.772 225.038 308.691C225.314 308.557 230.627 305.574 234.017 303.649C234.756 303.229 238.302 301.224 241.896 299.193C245.491 297.162 248.844 295.264 249.348 294.975C249.852 294.687 253.205 292.789 256.8 290.759C266.234 285.431 267.776 284.553 271.703 282.281C272.543 281.795 273.917 281.01 274.757 280.536C275.597 280.062 277.301 279.098 278.544 278.394C282.232 276.305 291.582 271.018 298.578 267.065C302.173 265.034 305.526 263.136 306.03 262.848C306.534 262.559 309.887 260.661 313.482 258.631C317.076 256.601 320.622 254.596 321.361 254.176C322.1 253.757 325.261 251.968 328.385 250.202C331.509 248.436 334.395 246.73 334.799 246.411C335.814 245.608 336.974 244.373 337.285 243.765C337.515 243.313 337.624 242.67 337.807 240.675C337.823 240.507 337.839 234.382 337.844 227.064C337.85 217.383 338.074 212.959 337.975 212.926C337.9 212.901 337.437 213.971 337.262 214.341C336.914 215.076 335.597 216.538 334.568 217.332C334.211 217.607 332.963 218.361 331.794 219.007C330.625 219.654 329.53 220.276 329.362 220.391C329.095 220.573 325.976 222.335 324.053 223.389C323.685 223.591 322.187 224.437 320.724 225.268C319.26 226.1 317.273 227.227 316.308 227.773C315.343 228.318 314.298 228.912 313.987 229.092C313.675 229.272 313.137 229.575 312.79 229.764C311.511 230.461 309.124 231.806 308.426 232.222C308.03 232.458 307.5 232.766 307.248 232.906C306.434 233.36 303.342 235.107 302.753 235.446C302.439 235.626 301.895 235.929 301.544 236.117C301.193 236.306 299.544 237.239 297.88 238.19C294.756 239.974 293.559 240.653 292.676 241.141C292.137 241.438 292.016 241.507 289.283 243.057C287.272 244.197 286.777 244.477 284.752 245.61C283.924 246.074 282.917 246.651 282.514 246.893C282.111 247.135 281.589 247.43 281.354 247.55C280.918 247.771 280.371 248.079 278.487 249.165C276.513 250.303 276.285 250.432 275.645 250.776C274.651 251.311 272.087 252.758 271.276 253.243C270.872 253.483 270.378 253.769 270.176 253.877C269.975 253.986 268.995 254.537 268 255.102C267.005 255.666 265.878 256.302 265.496 256.515C265.114 256.728 264.573 257.03 264.293 257.187C264.014 257.344 263.052 257.88 262.156 258.379C261.259 258.879 260.388 259.379 260.22 259.492C260.052 259.605 259.64 259.849 259.304 260.036C258.968 260.223 257.852 260.849 256.823 261.428C255.795 262.007 254.64 262.655 254.258 262.867C253.403 263.343 252.886 263.635 251.374 264.496C250.725 264.866 249.952 265.305 249.656 265.473C249.173 265.748 244.698 268.275 243.059 269.199C242.702 269.401 241.634 270.005 240.686 270.543C239.738 271.08 238.718 271.658 238.419 271.826C238.121 271.994 237.035 272.604 236.008 273.182C234.98 273.76 233.864 274.388 233.528 274.576C233.192 274.764 232.725 275.037 232.49 275.182C232.056 275.45 229.569 276.856 228.418 277.484C228.071 277.673 227.533 277.975 227.222 278.156C226.911 278.336 225.922 278.891 225.023 279.388C224.124 279.886 223.252 280.388 223.084 280.503C222.916 280.619 221.661 281.338 220.295 282.102C217.371 283.738 217.048 283.92 214.788 285.202C213.84 285.74 212.819 286.317 212.518 286.485C211.597 287 203.285 291.705 202.337 292.248C201.679 292.626 201.342 292.814 199.121 294.048C198.225 294.547 197.216 295.126 196.88 295.336C196.545 295.546 195.239 296.293 193.98 296.995C192.72 297.698 191.443 298.411 191.142 298.579C190.841 298.746 189.783 299.346 188.79 299.911C187.798 300.476 186.821 301.027 186.619 301.137C186.418 301.246 185.868 301.561 185.397 301.836C184.572 302.32 182.727 303.365 181.315 304.149C180.94 304.357 180.139 304.806 179.534 305.148C178.048 305.987 175.812 306.71 173.933 306.96C173.117 307.068 172.353 307.206 172.237 307.266C171.965 307.404 166.926 307.409 166.841 307.27C166.806 307.213 166.274 307.131 165.659 307.088C164.332 306.993 162.165 306.674 161.821 306.522C161.686 306.463 161.274 306.347 160.905 306.266C159.38 305.929 155.744 304.577 154.552 303.904C154.384 303.809 153.435 303.273 152.443 302.712C151.45 302.152 150.378 301.546 150.061 301.365C149.743 301.184 149.199 300.882 148.852 300.693C147.386 299.895 145.138 298.629 144.23 298.09C143.692 297.772 142.345 297.009 141.237 296.396C139.16 295.248 138.875 295.087 137.939 294.536C137.636 294.358 136.654 293.807 135.755 293.311C134.856 292.815 133.88 292.272 133.586 292.104C133.107 291.831 130.512 290.367 128.674 289.333C128.294 289.119 127.79 288.843 127.555 288.72C127.32 288.597 126.99 288.406 126.822 288.295C126.564 288.124 124.783 287.129 122.546 285.907C122.244 285.741 121.942 285.562 121.875 285.508C121.807 285.455 120.873 284.931 119.798 284.346C118.723 283.761 117.458 283.049 116.988 282.764C116.518 282.479 115.147 281.702 113.943 281.037C112.738 280.371 111.465 279.662 111.115 279.461C110.505 279.11 107.341 277.331 106.263 276.732C105.016 276.04 104.254 275.612 102.643 274.696C101.697 274.159 100.624 273.554 100.258 273.353C99.8916 273.151 98.7237 272.497 97.6623 271.898C96.6009 271.3 95.5675 270.728 95.3659 270.627C95.1644 270.526 94.862 270.348 94.6941 270.233C94.5261 270.117 93.3167 269.432 92.0066 268.711C90.6964 267.989 89.487 267.304 89.319 267.188C89.1511 267.073 88.8487 266.895 88.6472 266.794C88.4456 266.693 87.4123 266.121 86.3508 265.523C83.7103 264.034 83.1068 263.698 82.5392 263.396C82.2704 263.253 81.5008 262.813 80.829 262.418C80.1571 262.023 79.3325 261.557 78.9966 261.382C78.6606 261.207 78.1292 260.915 77.8155 260.734C77.502 260.552 76.4107 259.936 75.3905 259.365C74.3705 258.794 73.2471 258.162 72.8943 257.961C72.5414 257.759 71.2689 257.05 70.0663 256.385C68.8639 255.72 67.5379 254.964 67.1196 254.705C66.7012 254.446 66.3213 254.235 66.2751 254.235C66.229 254.235 65.9391 254.077 65.6309 253.884C65.3225 253.691 64.3351 253.128 63.4365 252.632C62.5379 252.136 61.5484 251.584 61.2376 251.404C60.9269 251.224 60.4253 250.943 60.1229 250.779C59.4973 250.44 57.3191 249.206 56.4735 248.713C56.1628 248.532 55.6336 248.239 55.2976 248.062C54.9617 247.885 54.3793 247.566 54.0036 247.353C52.8085 246.676 50.9713 245.634 50.3761 245.294C50.0594 245.114 49.5133 244.811 49.1622 244.622C48.8112 244.433 47.7118 243.817 46.719 243.253C45.7263 242.689 44.6117 242.066 44.2422 241.867C43.8727 241.669 43.5153 241.463 43.4482 241.41C43.381 241.356 42.254 240.722 40.9439 240.002C39.6337 239.281 38.4243 238.597 38.2564 238.481C38.0884 238.365 37.7861 238.188 37.5845 238.087C37.3829 237.986 36.3496 237.414 35.2881 236.815C34.2267 236.217 33.0587 235.563 32.6925 235.361C32.3263 235.159 31.2549 234.555 30.3116 234.017C29.3682 233.48 28.2824 232.866 27.8987 232.653C26.2728 231.751 25.2709 231.189 19.0162 227.664C16.1058 226.023 14.634 225.197 10.2109 222.718C9.91109 222.55 8.5291 221.78 7.13966 221.007C4.74106 219.673 4.55122 219.541 3.38106 218.381C2.12501 217.136 1.71883 216.53 0.966571 214.777C0.779057 214.34 0.620413 213.659 0.509085 213.232C-0.0072815 211.248 0.0204471 211.888 0.0204471 212.621Z" fill="#DB1C71"/>
<path fill-rule="evenodd" clip-rule="evenodd" d="M165.282 114.471C164.946 114.532 164.192 114.664 163.606 114.764C162.177 115.006 160.989 115.482 159.266 116.503C158.477 116.971 146.177 124.009 131.933 132.143L106.035 146.934L104.537 147.245C103.309 147.501 102.702 147.557 101.177 147.556C96.8992 147.554 93.433 146.235 90.7497 143.588C89.4576 142.313 88.9424 141.544 87.4837 138.716C84.9689 133.842 83.362 131.445 81.5944 129.931C79.4897 128.129 75.7081 125.897 72.423 124.519C65.5582 121.639 55.9966 119.843 47.5207 119.84C43.4972 119.839 40.4779 120.141 36.6485 120.927C33.1822 121.639 30.3184 122.485 27.6776 123.578C26.0134 124.267 21.1107 126.794 19.9737 127.549C16.4313 129.901 20.8004 134.243 19.3406 138.017C18.8491 139.287 16.3481 144.404 16.3558 145.419C16.3684 147.089 10.7536 146.049 11.6325 147.924C13.9226 152.809 18.6756 157.977 23.5436 160.876C27.5945 163.289 33.6301 165.428 38.1755 166.062C38.8809 166.16 39.8154 166.295 40.2522 166.362C40.6889 166.429 41.5409 166.516 42.1456 166.554C45.398 166.763 46.7038 166.909 48.2536 167.235C50.4574 167.699 52.1049 168.223 52.8356 168.691C53.6699 169.227 54.6305 170.292 54.9928 171.083C55.2756 171.701 55.3008 171.88 55.2571 172.965C55.2128 174.069 55.1713 174.239 54.7343 175.1C53.8193 176.902 55.132 176.082 32.2772 189.136C20.8829 195.644 11.3781 201.092 11.1555 201.243C10.9328 201.394 9.76115 202.067 8.55177 202.738C4.59234 204.934 3.53908 205.655 2.12484 207.139C0.641211 208.695 0.00158957 210.208 0.0199135 212.118C0.0366493 213.855 0.65025 215.561 1.91778 217.394C2.58953 218.366 3.86024 219.496 5.16698 220.285C5.55044 220.516 19.6897 228.482 36.5874 237.986C53.4851 247.49 73.9071 258.977 81.9696 263.513C90.0322 268.049 103.913 275.855 112.815 280.859C158.351 306.458 154.714 304.44 156.757 305.247C160.207 306.611 162.765 307.202 166.932 307.596C170.762 307.958 175.506 307.326 178.32 306.078C178.932 305.807 215.097 285.386 271.378 253.531C277.526 250.052 285.661 245.448 289.458 243.3C293.254 241.152 297.404 238.803 298.681 238.078C299.957 237.354 303.75 235.209 307.11 233.311C310.469 231.414 314.015 229.408 314.989 228.855C315.963 228.302 319.701 226.186 323.296 224.153C326.89 222.12 330.711 219.959 331.786 219.351C334.143 218.017 334.476 217.795 335.567 216.829C338.712 214.044 338.787 211.66 335.829 208.549C334.011 206.637 332.024 205.31 324.571 201.028C322.29 199.718 315.285 195.694 309.003 192.085C302.721 188.476 296.124 184.684 294.344 183.656C292.563 182.629 288.688 180.4 285.732 178.702C282.775 177.004 279.532 175.138 278.524 174.556C274.789 172.397 274.493 172.243 273.943 172.166C273.641 172.123 273.064 171.977 272.661 171.84C271.737 171.526 268.735 171.398 267.347 171.613C263.47 172.213 259.86 174.191 256.536 177.538C254.614 179.472 253.394 181.05 250.957 184.755C248.875 187.919 247.637 189.522 246.373 190.688C243.647 193.204 240.313 195.349 237.202 196.589C235.905 197.105 233.508 197.771 232.287 197.954C231.985 198 231.682 198.076 231.615 198.125C231.265 198.377 228.213 198.962 225.507 199.294C224.768 199.385 222.992 199.526 221.56 199.607C216.062 199.919 210.616 199.421 204.331 197.595C198.482 195.897 194.828 193.59 191.693 190.571C190.084 189.021 189.29 187.803 188.3 185.366C187.956 184.518 187.906 184.259 187.923 183.411C187.963 181.507 188.901 178.748 190.171 176.798C191.087 175.393 193.32 173.213 194.967 172.117C198.682 169.645 204.266 167.565 210.745 166.241C212.08 165.968 220.996 165.187 222.02 165.252C222.616 165.291 225.51 164.405 226.729 163.812C229.393 162.514 231.168 160.378 232.165 157.269C232.49 156.253 232.567 155.789 232.621 154.513C232.695 152.791 232.561 151.772 232.08 150.373C231.647 149.114 231.051 148.076 230.242 147.168C229.503 146.339 230.401 146.871 208.893 134.517C186.894 121.88 180.669 118.302 179.148 117.417C176.146 115.672 174.467 115.095 170.87 114.574C169.087 114.315 166.399 114.266 165.282 114.471Z" fill="#F466B1"/>
<path fill-rule="evenodd" clip-rule="evenodd" d="M10.4072 89.3648C10.3854 89.4153 10.3698 91.9601 10.4072 100.191C10.4752 115.14 10.4755 115.156 10.752 116.479C11.4887 120.002 13.9333 124.056 17.6027 127.84C18.5683 128.836 20.1779 130.262 20.9097 130.771C22.6356 131.97 23.9905 132.783 25.7714 133.688C27.8562 134.747 28.2003 134.872 28.4286 134.648C28.5251 134.553 30.1532 133.613 32.576 132.252C32.8447 132.101 33.7517 131.582 34.5916 131.098C35.4314 130.614 36.3303 130.1 36.589 129.955C36.8476 129.81 37.2986 129.555 37.5911 129.387C40.7054 127.598 42.6828 126.471 44.7554 125.303C45.5818 124.837 46.4777 124.318 46.7465 124.149C47.0152 123.981 47.4825 123.712 47.7848 123.552C48.4143 123.22 49.0178 122.878 50.62 121.947C51.2442 121.584 52.0289 121.145 52.3637 120.97C53.3271 120.467 54.6407 119.092 55.1174 118.087C55.4739 117.336 55.53 117.08 55.5791 115.98C55.648 114.437 55.4974 113.843 54.7948 112.889C54.2804 112.19 52.6341 110.824 52.2938 110.813C52.1991 110.81 51.9016 110.726 51.6328 110.626C49.7885 109.939 47.6212 109.52 44.7308 109.292C40.7187 108.976 37.3265 108.581 36.8515 108.374C36.7172 108.316 36.1489 108.18 35.5886 108.072C33.671 107.701 29.9532 106.47 27.7507 105.476C25.8425 104.614 25.1452 104.236 22.2132 102.471C21.6836 102.152 19.8952 100.672 18.9261 99.7513C18.4734 99.321 18.0473 98.969 17.9794 98.969C17.9113 98.969 17.8557 98.9106 17.8557 98.8391C17.8557 98.7676 17.4552 98.2866 16.9657 97.7702C14.7177 95.3986 12.6762 92.3557 11.6293 89.8163C11.1989 88.7721 11.7077 88.9812 11.6293 87.8724C11.5821 87.2047 10.5314 89.0777 10.4072 89.3648ZM232.001 99.8055C231.879 100.278 231.024 102.29 230.473 103.061C229.748 104.075 228.544 105.271 227.7 105.817C226.646 106.498 225.042 107.125 223.521 107.45C222.776 107.609 222.058 107.744 221.923 107.749C221.789 107.755 221.486 107.791 221.251 107.831C221.016 107.871 219.257 108.007 217.342 108.133C211.068 108.548 208.777 108.966 203.905 110.586C199.658 111.998 196.327 113.563 194.437 115.033C193.967 115.399 193.472 115.749 193.338 115.811C192.968 115.983 190.845 118.244 190.225 119.127C188.717 121.276 187.678 124.337 187.661 126.682C187.654 127.719 188.166 128.683 188.846 130.12C189.383 131.252 190.158 132.227 191.741 133.756C193.694 135.644 196.259 137.353 198.652 138.36C199.089 138.544 199.556 138.753 199.69 138.826C199.969 138.977 201.184 139.431 202.244 139.781L202.965 140.019L204.504 139.539C208.833 138.187 211.276 137.717 215.651 137.39C217.018 137.288 218.796 137.151 219.602 137.086C220.408 137.02 221.454 136.944 221.927 136.916C223.154 136.843 225.379 136.188 226.866 135.461C229.416 134.216 231.274 131.894 232.169 128.835L232.491 127.734L232.46 113.628C232.431 100.305 232.631 99.1726 232.429 99.1337C232.279 99.1049 232.185 99.5001 232.001 99.8055ZM0.0204471 155.449C-0.0264622 155.636 0.0162907 162.065 0.0590465 169.694C0.144314 184.907 0.152378 185.076 0.875929 186.883C1.276 187.882 2.32731 189.575 2.90268 190.147C4.07199 191.31 5.57846 192.199 22.3756 201.646C32.0171 207.068 45.6776 214.752 52.7323 218.722C59.787 222.691 66.4935 226.46 67.6357 227.096C68.7779 227.732 69.7399 228.285 69.7735 228.325C69.8509 228.416 67.5015 227.089 89.845 239.659C100.515 245.661 109.53 250.716 109.879 250.892C110.228 251.067 113.139 252.688 116.348 254.494C119.557 256.299 122.205 257.776 122.233 257.776C122.276 257.776 133.581 264.116 139.649 267.542C149.947 273.358 154.921 276.11 155.914 276.541C158.584 277.7 161.883 278.653 164.309 278.967C169.899 279.69 174.058 279.383 177.824 277.971C178.548 277.7 181.621 276.011 188.451 272.129C190.218 271.125 201.38 264.811 207.936 261.108C210.791 259.496 213.485 257.984 213.922 257.749C214.825 257.263 224.269 251.962 224.55 251.783C224.65 251.719 224.87 251.6 225.038 251.519C225.314 251.386 230.627 248.402 234.017 246.477C234.756 246.058 238.302 244.052 241.896 242.021C245.491 239.99 248.844 238.092 249.348 237.804C249.852 237.515 253.205 235.618 256.8 233.587C266.234 228.259 267.776 227.382 271.703 225.109C272.543 224.624 273.917 223.838 274.757 223.364C275.597 222.89 277.301 221.926 278.544 221.222C282.232 219.133 291.582 213.846 298.578 209.893C302.173 207.862 305.526 205.965 306.03 205.676C306.534 205.387 309.887 203.49 313.482 201.46C317.076 199.429 320.622 197.425 321.361 197.005C322.1 196.585 325.261 194.796 328.385 193.03C331.509 191.264 334.395 189.558 334.799 189.239C335.814 188.437 336.974 187.201 337.285 186.593C337.515 186.142 337.624 185.498 337.807 183.503C337.823 183.335 337.839 177.211 337.844 169.893C337.85 160.211 338.074 155.788 337.975 155.755C337.9 155.73 337.437 156.799 337.262 157.169C336.914 157.905 335.597 159.366 334.568 160.161C334.211 160.436 332.963 161.189 331.794 161.836C330.625 162.482 329.53 163.105 329.362 163.219C329.095 163.402 325.976 165.164 324.053 166.218C323.685 166.419 322.187 167.265 320.724 168.097C319.26 168.929 317.273 170.056 316.308 170.601C315.343 171.147 314.298 171.74 313.987 171.92C313.675 172.101 313.137 172.403 312.79 172.592C311.511 173.29 309.124 174.634 308.426 175.051C308.03 175.286 307.5 175.594 307.248 175.735C306.434 176.188 303.342 177.935 302.753 178.274C302.439 178.455 301.895 178.757 301.544 178.946C301.193 179.134 299.544 180.067 297.88 181.018C294.756 182.802 293.559 183.482 292.676 183.969C292.137 184.267 292.016 184.336 289.283 185.885C287.272 187.026 286.777 187.305 284.752 188.438C283.924 188.902 282.917 189.479 282.514 189.721C282.111 189.963 281.589 190.259 281.354 190.378C280.918 190.599 280.371 190.907 278.487 191.993C276.513 193.131 276.285 193.26 275.645 193.604C274.651 194.139 272.087 195.587 271.276 196.071C270.872 196.312 270.378 196.597 270.176 196.706C269.975 196.814 268.996 197.365 268 197.93C267.005 198.495 265.878 199.131 265.496 199.343C265.114 199.556 264.573 199.859 264.293 200.015C264.014 200.172 263.052 200.709 262.156 201.208C261.259 201.707 260.388 202.208 260.22 202.32C260.052 202.433 259.64 202.678 259.304 202.865C258.968 203.051 257.852 203.677 256.823 204.256C255.795 204.835 254.64 205.483 254.258 205.696C253.403 206.172 252.886 206.463 251.374 207.324C250.725 207.694 249.952 208.134 249.656 208.302C249.173 208.576 244.698 211.103 243.059 212.028C242.702 212.229 241.634 212.834 240.686 213.371C239.738 213.909 238.718 214.486 238.419 214.654C238.121 214.822 237.035 215.433 236.008 216.011C234.98 216.589 233.864 217.216 233.528 217.404C233.192 217.593 232.725 217.866 232.49 218.011C232.056 218.278 229.569 219.684 228.418 220.312C228.071 220.502 227.533 220.804 227.222 220.984C226.911 221.164 225.922 221.719 225.023 222.217C224.124 222.714 223.252 223.216 223.084 223.332C222.916 223.447 221.661 224.167 220.295 224.931C217.371 226.567 217.048 226.749 214.788 228.03C213.84 228.568 212.819 229.145 212.518 229.313C211.597 229.828 203.285 234.533 202.337 235.076C201.679 235.454 201.342 235.642 199.121 236.877C198.225 237.375 197.216 237.954 196.88 238.164C196.545 238.374 195.239 239.121 193.98 239.824C192.72 240.527 191.443 241.239 191.142 241.407C190.841 241.575 189.783 242.174 188.79 242.739C187.798 243.304 186.821 243.856 186.619 243.965C186.418 244.075 185.868 244.389 185.397 244.665C184.572 245.148 182.727 246.193 181.315 246.977C180.94 247.185 180.139 247.635 179.534 247.976C178.048 248.815 175.812 249.538 173.933 249.788C173.117 249.897 172.353 250.034 172.237 250.094C171.965 250.232 166.926 250.237 166.841 250.099C166.806 250.042 166.274 249.96 165.659 249.916C164.332 249.822 162.165 249.503 161.821 249.351C161.686 249.291 161.274 249.176 160.905 249.094C159.38 248.757 155.744 247.405 154.552 246.732C154.384 246.637 153.435 246.101 152.443 245.541C151.45 244.98 150.378 244.374 150.061 244.193C149.743 244.012 149.199 243.71 148.852 243.521C147.386 242.723 145.138 241.457 144.23 240.919C143.692 240.6 142.345 239.838 141.237 239.225C139.16 238.076 138.875 237.915 137.939 237.365C137.636 237.187 136.654 236.635 135.755 236.14C134.856 235.644 133.88 235.1 133.586 234.932C133.107 234.659 130.512 233.195 128.674 232.161C128.294 231.947 127.79 231.671 127.555 231.548C127.32 231.425 126.99 231.234 126.822 231.123C126.564 230.953 124.783 229.958 122.546 228.735C122.244 228.57 121.942 228.39 121.875 228.337C121.807 228.283 120.873 227.76 119.798 227.174C118.723 226.589 117.458 225.877 116.988 225.592C116.518 225.307 115.147 224.53 113.943 223.865C112.738 223.2 111.465 222.491 111.115 222.289C110.505 221.939 107.341 220.16 106.263 219.561C105.016 218.868 104.254 218.44 102.643 217.525C101.697 216.987 100.624 216.383 100.258 216.181C99.8916 215.979 98.7237 215.325 97.6623 214.727C96.6008 214.128 95.5675 213.556 95.3659 213.455C95.1644 213.354 94.862 213.177 94.6941 213.061C94.5261 212.945 93.3167 212.26 92.0066 211.539C90.6964 210.818 89.487 210.133 89.319 210.017C89.1511 209.901 88.8487 209.724 88.6472 209.623C88.4456 209.522 87.4123 208.95 86.3508 208.351C83.7103 206.863 83.1068 206.526 82.5392 206.225C82.2704 206.082 81.5008 205.642 80.829 205.247C80.1571 204.852 79.3325 204.385 78.9966 204.21C78.6606 204.035 78.1292 203.743 77.8155 203.562C77.502 203.381 76.4107 202.765 75.3905 202.194C74.3705 201.623 73.2471 200.99 72.8943 200.789C72.5414 200.587 71.2689 199.878 70.0663 199.213C68.8639 198.549 67.5379 197.793 67.1196 197.534C66.7012 197.275 66.3213 197.063 66.2751 197.063C66.229 197.063 65.9391 196.905 65.6309 196.713C65.3225 196.52 64.3351 195.956 63.4365 195.46C62.5379 194.964 61.5484 194.412 61.2376 194.232C60.9269 194.053 60.4253 193.772 60.1229 193.608C59.4973 193.268 57.3191 192.035 56.4735 191.541C56.1628 191.36 55.6336 191.067 55.2976 190.89C54.9617 190.713 54.3793 190.394 54.0036 190.181C52.8085 189.505 50.9713 188.462 50.3761 188.123C50.0594 187.942 49.5133 187.64 49.1622 187.451C48.8112 187.262 47.7118 186.646 46.719 186.082C45.7263 185.518 44.6117 184.894 44.2422 184.696C43.8727 184.498 43.5153 184.292 43.4482 184.238C43.381 184.184 42.254 183.551 40.9439 182.83C39.6337 182.11 38.4243 181.425 38.2564 181.309C38.0884 181.194 37.7861 181.016 37.5845 180.915C37.3829 180.814 36.3496 180.242 35.2881 179.644C34.2267 179.045 33.0587 178.391 32.6925 178.189C32.3263 177.988 31.2549 177.383 30.3116 176.846C29.3682 176.308 28.2824 175.694 27.8987 175.482C26.2728 174.58 25.2709 174.017 19.0162 170.492C16.1058 168.852 14.634 168.025 10.2109 165.546C9.91109 165.378 8.5291 164.608 7.13966 163.836C4.74106 162.502 4.55122 162.369 3.38106 161.209C2.12501 159.964 1.71883 159.358 0.966571 157.606C0.779057 157.169 0.620413 156.488 0.509085 156.06C-0.00728154 154.077 0.0204471 154.716 0.0204471 155.449Z" fill="#EA5000"/>
<path fill-rule="evenodd" clip-rule="evenodd" d="M165.284 57.2989C164.948 57.3606 164.194 57.4924 163.608 57.5917C162.179 57.8339 160.991 58.3102 159.268 59.3309C158.478 59.7987 146.179 66.837 131.935 74.9716L106.037 89.7617L104.539 90.0735C103.311 90.329 102.704 90.3852 101.179 90.3843C96.9012 90.3822 93.4349 89.0628 90.7517 86.4156C89.4596 85.1408 88.9443 84.3723 87.4856 81.5445C84.9708 76.6699 83.364 74.2727 81.5963 72.7591C79.4916 70.9567 75.71 68.7252 72.4249 67.3471C65.5602 64.4675 55.9985 62.671 47.5226 62.6684C43.4992 62.6671 40.4799 62.969 36.6504 63.7554C33.1841 64.4671 30.3204 65.3134 27.6795 66.4064C26.0153 67.0951 31.2846 77.4466 30.1476 78.2016C26.6052 80.554 21.4354 82.9642 19.9756 86.7382C19.4842 88.0088 12.1713 87.7529 12.179 88.7679C12.1916 90.4374 10.7555 88.8768 11.6345 90.7518C13.9246 95.6367 18.6776 100.805 23.5455 103.705C27.5964 106.117 33.6321 108.256 38.1774 108.89C38.8829 108.988 39.8174 109.124 40.2541 109.19C40.6908 109.257 41.5429 109.344 42.1476 109.383C45.4 109.591 46.7057 109.737 48.2556 110.063C50.4593 110.527 52.1069 111.051 52.8375 111.52C53.6719 112.055 54.6324 113.12 54.9947 113.911C55.2775 114.529 55.3027 114.708 55.2591 115.793C55.2148 116.897 55.1732 117.067 54.7363 117.928C53.8213 119.731 55.134 118.91 32.2792 131.964C20.8849 138.472 11.38 143.921 11.1574 144.072C10.9347 144.223 9.76311 144.895 8.55373 145.566C4.59429 147.762 3.54103 148.484 2.12679 149.967C0.643165 151.523 0.00354269 153.037 0.0218666 154.947C0.0386025 156.683 0.652203 158.389 1.91973 160.222C2.59149 161.194 3.86219 162.325 5.16893 163.113C5.55239 163.344 19.6916 171.31 36.5893 180.814C53.487 190.318 73.909 201.806 81.9716 206.341C90.0341 210.877 103.914 218.683 112.817 223.687C158.353 249.287 154.716 247.268 156.758 248.075C160.209 249.44 162.767 250.03 166.934 250.424C170.764 250.786 175.508 250.154 178.322 248.906C178.933 248.635 215.098 228.214 271.38 196.359C277.528 192.88 285.663 188.276 289.46 186.128C293.256 183.98 297.406 181.631 298.683 180.906C299.959 180.182 303.752 178.037 307.112 176.139C310.471 174.242 314.017 172.236 314.991 171.683C315.965 171.13 319.703 169.014 323.298 166.981C326.892 164.948 330.713 162.787 331.788 162.179C334.145 160.845 334.478 160.623 335.569 159.657C338.714 156.872 338.789 154.488 335.831 151.377C334.013 149.466 332.026 148.138 324.573 143.856C322.292 142.546 315.287 138.522 309.005 134.913C302.723 131.305 296.126 127.512 294.346 126.485C292.565 125.457 288.69 123.228 285.734 121.53C282.777 119.832 279.534 117.966 278.526 117.384C274.791 115.225 274.495 115.071 273.945 114.994C273.643 114.952 273.066 114.805 272.663 114.668C271.739 114.354 268.737 114.226 267.349 114.441C263.472 115.041 259.862 117.02 256.538 120.366C254.615 122.3 253.396 123.878 250.958 127.583C248.877 130.747 247.639 132.35 246.375 133.516C243.649 136.032 240.315 138.178 237.204 139.417C235.907 139.934 233.51 140.599 232.289 140.782C231.986 140.828 231.684 140.905 231.617 140.953C231.267 141.206 228.215 141.79 225.509 142.122C224.77 142.213 222.994 142.354 221.562 142.435C216.064 142.747 210.618 142.249 204.333 140.424C198.484 138.725 194.83 136.418 191.695 133.399C190.086 131.849 189.292 130.632 188.302 128.194C187.958 127.346 187.908 127.087 187.925 126.239C187.965 124.335 188.903 121.576 190.173 119.626C191.088 118.221 193.322 116.041 194.969 114.945C198.684 112.473 204.268 110.393 210.747 109.069C212.082 108.796 220.998 108.015 222.022 108.081C222.618 108.119 225.512 107.233 226.731 106.64C229.395 105.342 231.169 103.206 232.167 100.097C232.492 99.0813 232.569 98.6169 232.623 97.3412C232.696 95.6191 232.563 94.6001 232.082 93.2007C231.648 91.9419 231.053 90.904 230.244 89.9958C229.505 89.1673 200.103 85.8427 200.103 85.8427C200.103 85.8427 180.671 61.1301 179.149 60.2454C176.148 58.4997 174.469 57.9229 170.872 57.4017C169.089 57.1433 166.401 57.0939 165.284 57.2989Z" fill="#FB8B30"/>
<path fill-rule="evenodd" clip-rule="evenodd" d="M10.3787 27.9617C10.357 28.0122 10.3698 34.7874 10.4072 43.0179C10.4752 57.9676 10.4755 57.9838 10.752 59.3061C11.4887 62.8292 13.9333 66.8836 17.6027 70.6673C18.5683 71.6631 20.1779 73.0894 20.9097 73.5979C22.6356 74.7972 23.9905 75.6102 25.7714 76.5152C27.8562 77.5746 28.2003 77.699 28.4286 77.4753C28.5251 77.3807 30.1532 76.4404 32.576 75.0796C32.8447 74.9286 33.7517 74.4091 34.5916 73.9251C35.4314 73.4412 36.3303 72.9269 36.589 72.7823C36.8476 72.6377 37.2986 72.382 37.5911 72.214C40.7054 70.4253 42.6828 69.2982 44.7554 68.13C45.5818 67.6643 46.4777 67.1452 46.7465 66.9767C47.0152 66.808 47.4825 66.5393 47.7848 66.3797C48.4143 66.0473 49.0178 65.7056 50.62 64.7746C51.2442 64.4118 52.0289 63.972 52.3637 63.7973C53.3271 63.2945 54.6406 61.9191 55.1174 60.9143C55.4739 60.163 55.53 59.9072 55.5791 58.8074C55.648 57.2645 55.4974 56.6707 54.7948 55.7162C54.2804 55.0175 52.6341 53.651 52.2938 53.6404C52.199 53.6375 51.9016 53.5532 51.6328 53.4531C49.7885 52.7661 47.6212 52.3475 44.7308 52.1195C40.7187 51.8031 37.3265 51.408 36.8515 51.2017C36.7172 51.1434 36.1489 51.0071 35.5886 50.8989C33.671 50.5285 29.9532 49.2971 27.7507 48.303C25.8425 47.4416 25.1452 47.0633 22.2132 45.298C21.6836 44.9792 19.8952 43.4996 18.9261 42.5786C18.4734 42.1484 18.0473 41.7963 17.9794 41.7963C17.9113 41.7963 17.8557 41.7379 17.8557 41.6664C17.8557 41.595 17.4552 41.1139 16.9657 40.5975C14.7177 38.2259 12.6762 35.1831 11.6293 32.6436C11.1989 31.5994 10.7599 29.7424 10.6814 28.6336C10.6343 27.966 10.503 27.6747 10.3787 27.9617ZM232.001 42.6329C231.879 43.1056 231.024 45.1171 230.473 45.8886C229.748 46.9019 228.544 48.0985 227.7 48.6439C226.646 49.3257 225.042 49.9525 223.521 50.2776C222.776 50.4366 222.058 50.5711 221.923 50.5765C221.789 50.5819 221.486 50.6186 221.251 50.6583C221.016 50.6979 219.257 50.8339 217.342 50.9605C211.068 51.3751 208.777 51.7933 203.905 53.4135C199.658 54.8256 196.327 56.3903 194.437 57.8603C193.967 58.2261 193.472 58.5765 193.338 58.6388C192.968 58.8105 190.845 61.071 190.225 61.9544C188.717 64.1031 187.678 67.1639 187.661 69.5095C187.654 70.5463 188.166 71.5099 188.846 72.947C189.383 74.0796 190.158 75.0542 191.74 76.5837C193.694 78.4715 196.259 80.18 198.652 81.187C199.089 81.3708 199.556 81.5806 199.69 81.6533C199.969 81.8041 201.184 82.2586 202.244 82.6086L202.965 82.8468L204.504 82.3663C208.833 81.0147 211.276 80.5438 215.651 80.2173C217.018 80.1153 218.796 79.9783 219.602 79.913C220.408 79.8476 221.454 79.7712 221.927 79.7431C223.154 79.6701 225.379 79.015 226.866 78.2888C229.416 77.0432 231.274 74.7216 232.169 71.6627L232.491 70.5618L232.46 56.4556C232.431 43.1323 232.631 42 232.429 41.961C232.279 41.9323 232.185 42.3275 232.001 42.6329ZM0.0204471 98.2765C-0.0264621 98.4632 0.0162907 104.893 0.0590465 112.521C0.144314 127.734 0.152378 127.903 0.875929 129.71C1.276 130.709 2.32731 132.403 2.90268 132.975C4.07199 134.137 5.57846 135.027 22.3756 144.473C32.0171 149.895 45.6776 157.579 52.7323 161.549C59.787 165.519 66.4935 169.287 67.6357 169.923C68.7779 170.559 69.7399 171.112 69.7735 171.152C69.8509 171.243 67.5015 169.917 89.8449 182.486C100.515 188.488 109.53 193.543 109.879 193.719C110.228 193.895 113.139 195.516 116.348 197.321C119.557 199.126 122.205 200.604 122.233 200.604C122.276 200.604 133.581 206.943 139.649 210.37C149.947 216.186 154.921 218.938 155.914 219.369C158.584 220.528 161.883 221.481 164.309 221.795C169.899 222.517 174.058 222.211 177.824 220.799C178.548 220.527 181.621 218.838 188.451 214.956C190.218 213.952 201.38 207.639 207.936 203.936C210.791 202.323 213.485 200.811 213.922 200.576C214.825 200.091 224.269 194.789 224.55 194.611C224.65 194.546 224.87 194.427 225.038 194.346C225.314 194.213 230.627 191.229 234.017 189.305C234.756 188.885 238.302 186.88 241.896 184.849C245.491 182.818 248.844 180.92 249.348 180.631C249.852 180.343 253.205 178.445 256.8 176.415C266.234 171.086 267.776 170.209 271.703 167.937C272.543 167.451 273.917 166.665 274.757 166.191C275.597 165.717 277.301 164.753 278.544 164.049C282.232 161.961 291.582 156.674 298.578 152.721C302.173 150.69 305.526 148.792 306.03 148.503C306.534 148.215 309.887 146.317 313.482 144.287C317.076 142.257 320.622 140.252 321.361 139.832C322.1 139.412 325.261 137.624 328.385 135.857C331.509 134.091 334.395 132.385 334.799 132.067C335.814 131.264 336.974 130.028 337.285 129.42C337.515 128.969 337.624 128.326 337.807 126.331C337.823 126.163 337.839 120.038 337.844 112.72C337.85 103.038 338.074 98.615 337.975 98.5819C337.9 98.557 337.437 99.6267 337.262 99.9966C336.913 100.732 335.597 102.194 334.568 102.988C334.211 103.263 332.963 104.017 331.794 104.663C330.624 105.309 329.53 105.932 329.362 106.047C329.095 106.229 325.976 107.991 324.053 109.045C323.685 109.247 322.187 110.092 320.724 110.924C319.26 111.756 317.273 112.883 316.308 113.428C315.343 113.974 314.298 114.568 313.987 114.748C313.675 114.928 313.137 115.23 312.79 115.42C311.511 116.117 309.124 117.462 308.426 117.878C308.03 118.113 307.5 118.421 307.248 118.562C306.434 119.016 303.342 120.762 302.753 121.101C302.439 121.282 301.895 121.584 301.544 121.773C301.193 121.962 299.544 122.894 297.879 123.845C294.756 125.63 293.559 126.309 292.676 126.796C292.137 127.094 292.016 127.163 289.283 128.713C287.272 129.853 286.777 130.132 284.752 131.266C283.924 131.729 282.917 132.306 282.514 132.548C282.111 132.79 281.589 133.086 281.354 133.205C280.918 133.426 280.371 133.735 278.487 134.821C276.513 135.958 276.285 136.088 275.645 136.432C274.651 136.967 272.087 138.414 271.276 138.898C270.872 139.139 270.378 139.425 270.176 139.533C269.975 139.642 268.995 140.193 268 140.757C267.005 141.322 265.878 141.958 265.496 142.171C265.114 142.384 264.573 142.686 264.293 142.843C264.014 142.999 263.052 143.536 262.156 144.035C261.259 144.534 260.388 145.035 260.22 145.148C260.052 145.26 259.64 145.505 259.304 145.692C258.968 145.878 257.852 146.505 256.823 147.083C255.795 147.663 254.64 148.31 254.258 148.523C253.403 148.999 252.886 149.291 251.374 150.152C250.725 150.521 249.952 150.961 249.656 151.129C249.173 151.403 244.698 153.93 243.059 154.855C242.702 155.056 241.634 155.661 240.686 156.199C239.738 156.736 238.718 157.313 238.419 157.481C238.121 157.649 237.035 158.26 236.008 158.838C234.98 159.416 233.864 160.043 233.528 160.232C233.192 160.42 232.725 160.693 232.49 160.838C232.056 161.106 229.569 162.512 228.418 163.14C228.071 163.329 227.533 163.631 227.222 163.811C226.911 163.992 225.922 164.546 225.023 165.044C224.124 165.542 223.252 166.044 223.084 166.159C222.916 166.274 221.661 166.994 220.295 167.758C217.371 169.394 217.048 169.576 214.788 170.858C213.84 171.395 212.819 171.973 212.518 172.14C211.597 172.655 203.285 177.36 202.337 177.904C201.679 178.281 201.342 178.47 199.121 179.704C198.225 180.202 197.216 180.782 196.88 180.992C196.545 181.202 195.239 181.949 193.98 182.651C192.72 183.354 191.443 184.066 191.142 184.234C190.841 184.402 189.783 185.002 188.79 185.567C187.798 186.131 186.821 186.683 186.619 186.792C186.418 186.902 185.868 187.217 185.397 187.492C184.572 187.975 182.727 189.021 181.315 189.804C180.94 190.013 180.139 190.462 179.534 190.803C178.048 191.642 175.812 192.366 173.933 192.616C173.117 192.724 172.353 192.862 172.236 192.921C171.965 193.06 166.926 193.064 166.841 192.926C166.806 192.869 166.274 192.787 165.659 192.743C164.332 192.649 162.165 192.33 161.821 192.178C161.686 192.119 161.274 192.003 160.904 191.922C159.38 191.585 155.743 190.233 154.552 189.56C154.384 189.465 153.435 188.928 152.443 188.368C151.45 187.808 150.378 187.201 150.061 187.02C149.743 186.84 149.199 186.537 148.852 186.349C147.386 185.55 145.138 184.285 144.23 183.746C143.692 183.428 142.345 182.665 141.237 182.052C139.16 180.904 138.875 180.742 137.939 180.192C137.636 180.014 136.654 179.463 135.755 178.967C134.856 178.471 133.88 177.928 133.586 177.76C133.107 177.486 130.512 176.022 128.674 174.988C128.294 174.774 127.79 174.499 127.555 174.376C127.32 174.253 126.99 174.061 126.822 173.95C126.564 173.78 124.783 172.785 122.546 171.562C122.244 171.397 121.942 171.218 121.875 171.164C121.807 171.11 120.873 170.587 119.798 170.002C118.723 169.416 117.458 168.704 116.988 168.42C116.518 168.135 115.147 167.357 113.943 166.692C112.738 166.027 111.465 165.318 111.115 165.116C110.505 164.766 107.341 162.987 106.263 162.388C105.016 161.696 104.254 161.267 102.643 160.352C101.697 159.815 100.624 159.21 100.258 159.008C99.8916 158.807 98.7237 158.152 97.6623 157.554C96.6008 156.956 95.5675 156.383 95.3659 156.283C95.1644 156.182 94.862 156.004 94.6941 155.888C94.5261 155.772 93.3167 155.088 92.0066 154.366C90.6964 153.645 89.487 152.96 89.319 152.844C89.1511 152.728 88.8487 152.551 88.6472 152.45C88.4456 152.349 87.4123 151.777 86.3508 151.179C83.7103 149.69 83.1067 149.353 82.5392 149.052C82.2704 148.909 81.5008 148.469 80.829 148.074C80.1571 147.679 79.3325 147.212 78.9966 147.037C78.6606 146.862 78.1292 146.571 77.8155 146.389C77.5019 146.208 76.4107 145.592 75.3905 145.021C74.3705 144.45 73.2471 143.818 72.8943 143.616C72.5414 143.415 71.2689 142.706 70.0663 142.041C68.8639 141.376 67.5379 140.62 67.1196 140.361C66.7012 140.102 66.3213 139.89 66.2751 139.89C66.229 139.89 65.9391 139.733 65.6309 139.54C65.3225 139.347 64.3351 138.784 63.4365 138.288C62.5379 137.792 61.5484 137.239 61.2376 137.06C60.9269 136.88 60.4253 136.599 60.1229 136.435C59.4973 136.095 57.3191 134.862 56.4735 134.369C56.1628 134.187 55.6336 133.894 55.2976 133.717C54.9617 133.54 54.3793 133.222 54.0036 133.009C52.8085 132.332 50.9713 131.289 50.3761 130.95C50.0594 130.769 49.5132 130.467 49.1622 130.278C48.8112 130.089 47.7118 129.473 46.719 128.909C45.7263 128.345 44.6117 127.721 44.2422 127.523C43.8727 127.325 43.5153 127.119 43.4482 127.065C43.381 127.012 42.254 126.378 40.9439 125.658C39.6337 124.937 38.4243 124.253 38.2564 124.137C38.0884 124.021 37.7861 123.843 37.5845 123.742C37.3829 123.642 36.3496 123.069 35.2881 122.471C34.2267 121.873 33.0587 121.218 32.6925 121.017C32.3263 120.815 31.2549 120.21 30.3116 119.673C29.3682 119.135 28.2824 118.522 27.8987 118.309C26.2728 117.407 25.2709 116.844 19.0162 113.319C16.1058 111.679 14.634 110.852 10.2109 108.373C9.91109 108.205 8.5291 107.436 7.13966 106.663C4.74106 105.329 4.55122 105.196 3.38106 104.037C2.12501 102.792 1.71883 102.185 0.966571 100.433C0.779057 99.9961 0.620413 99.3149 0.509085 98.8873C-0.00728151 96.9042 0.0204471 97.5436 0.0204471 98.2765Z" fill="#069487"/>
<path fill-rule="evenodd" clip-rule="evenodd" d="M165.284 0.126067C164.948 0.187758 164.194 0.319568 163.608 0.418884C162.179 0.661004 160.991 1.1373 159.268 2.15807C158.479 2.62582 146.179 9.66416 131.935 17.7988L106.037 32.5889L104.539 32.9006C103.311 33.1562 102.704 33.2124 101.179 33.2115C96.9012 33.2093 93.4349 31.89 90.7517 29.2428C89.4596 27.9679 88.9443 27.1994 87.4856 24.3717C84.9708 19.497 83.364 17.0999 81.5963 15.5862C79.4916 13.7839 75.7101 11.5524 72.4249 10.1743C65.5602 7.29463 55.9985 5.49816 47.5226 5.49559C43.4992 5.49425 40.4799 5.7961 36.6504 6.58256C33.1841 7.29426 30.3204 8.14059 27.6795 9.23355C26.0153 9.92228 21.1127 12.4493 19.9756 13.2043C16.4333 15.5568 12.76 20.0557 11.3002 23.8297C10.8088 25.1002 10.3247 27.3874 10.3324 28.4023C10.345 30.0719 10.7555 31.7039 11.6345 33.579C13.9246 38.4639 18.6776 43.6326 23.5455 46.5317C27.5964 48.9443 33.6321 51.0833 38.1774 51.7172C38.8829 51.8155 39.8174 51.9508 40.2541 52.0176C40.6908 52.0844 41.5429 52.1709 42.1476 52.2097C45.4 52.4186 46.7057 52.5642 48.2556 52.8904C50.4593 53.3541 52.1069 53.8778 52.8375 54.3467C53.6719 54.8821 54.6324 55.9471 54.9947 56.7384C55.2775 57.3561 55.3027 57.5355 55.2591 58.6204C55.2148 59.7245 55.1732 59.8941 54.7363 60.755C53.8213 62.5577 55.134 61.7372 32.2792 74.7912C20.8849 81.2993 11.38 86.7477 11.1574 86.8988C10.9347 87.0498 9.76311 87.7221 8.55373 88.393C4.59429 90.5894 3.54103 91.3107 2.12679 92.7942C0.643165 94.3505 0.00354269 95.8637 0.0218666 97.7738C0.0386025 99.51 0.652204 101.216 1.91973 103.049C2.59149 104.021 3.86219 105.152 5.16893 105.94C5.55239 106.172 19.6916 114.137 36.5893 123.641C53.487 133.145 73.9091 144.633 81.9716 149.168C90.0341 153.704 103.914 161.51 112.817 166.515C158.353 192.114 154.716 190.095 156.758 190.902C160.209 192.267 162.767 192.857 166.934 193.251C170.764 193.613 175.508 192.981 178.322 191.733C178.934 191.463 215.098 171.041 271.38 139.186C277.528 135.707 285.663 131.103 289.46 128.955C293.256 126.807 297.406 124.458 298.683 123.734C299.959 123.009 303.752 120.864 307.112 118.967C310.471 117.069 314.017 115.063 314.991 114.51C315.965 113.957 319.703 111.841 323.298 109.808C326.892 107.775 330.713 105.614 331.788 105.006C334.145 103.672 334.478 103.45 335.569 102.484C338.714 99.6994 338.789 97.3156 335.831 94.2043C334.013 92.2927 332.026 90.965 324.573 86.6832C322.292 85.3734 315.287 81.3491 309.005 77.7403C302.723 74.1318 296.126 70.3388 294.346 69.3117C292.565 68.2846 288.69 66.0548 285.734 64.3568C282.777 62.6589 279.534 60.7932 278.526 60.2108C274.791 58.0523 274.495 57.898 273.945 57.821C273.643 57.7787 273.066 57.632 272.663 57.4951C271.739 57.1814 268.737 57.0531 267.349 57.268C263.472 57.8684 259.862 59.8467 256.538 63.193C254.615 65.1276 253.396 66.7054 250.959 70.41C248.877 73.5742 247.639 75.1768 246.375 76.343C243.649 78.8596 240.315 81.0047 237.204 82.244C235.907 82.7607 233.51 83.4266 232.289 83.6096C231.987 83.6549 231.684 83.7317 231.617 83.7802C231.267 84.0327 228.215 84.6171 225.509 84.9496C224.77 85.0405 222.994 85.1812 221.562 85.2623C216.064 85.5741 210.618 85.0761 204.333 83.2507C198.484 81.5518 194.83 79.2451 191.695 76.2259C190.086 74.6763 189.292 73.4586 188.302 71.0208C187.958 70.1728 187.908 69.9143 187.925 69.0663C187.965 67.1623 188.903 64.4032 190.173 62.4531C191.088 61.0482 193.322 58.8684 194.969 57.7723C198.684 55.3004 204.268 53.2205 210.747 51.896C212.082 51.6234 220.998 50.8418 222.022 50.9078C222.618 50.9461 225.512 50.0604 226.731 49.4669C229.395 48.1693 231.17 46.0336 232.167 42.9242C232.492 41.9084 232.569 41.4441 232.623 40.1684C232.697 38.4463 232.563 37.4272 232.082 36.0279C231.648 34.769 231.053 33.7312 230.244 32.8229C229.505 31.9944 230.403 32.5263 208.895 20.1723C186.896 7.53577 180.671 3.95723 179.149 3.07255C176.148 1.32689 174.469 0.750058 170.872 0.228804C169.089 -0.0295636 166.401 -0.0789165 165.284 0.126067Z" fill="#22D4BE"/>
</svg>
