<svg width="807" height="669" viewBox="0 0 807 669" fill="none" xmlns="http://www.w3.org/2000/svg">
<path d="M316.964 592.936C313.286 586.762 309.753 580.329 305.091 575.043C290.901 558.998 272.049 562.066 254.123 563.619C203.619 567.981 151.117 593.823 101.047 572.27C86.1331 565.837 70.6691 551.9 70.2057 532.047C69.337 495.336 115.439 485.871 124.793 451.083C127.052 442.654 126.531 432.376 121.463 426.202C118.162 422.209 113.557 420.546 109.184 418.956C85.2933 410.305 61.5181 399.214 41.4786 380.655C22.3657 363.021 6.64108 337.474 1.48641 307.935C-1.35155 291.632 -0.309037 273.886 6.2067 259.394C13.2437 243.719 26.0435 233.146 39.6831 227.822C76.316 213.515 132.004 245.9 161.281 207.451C175.558 188.708 167.247 156.174 157.256 133.438C129.861 71.1806 162.845 25.5968 210.888 5.26339C242.076 -7.93484 276.769 6.81613 302.224 30.7356C319.425 46.9284 352.439 103.681 372.97 111.592C395.211 120.169 429.382 64.3782 450.232 51.4387C491.846 25.5968 498.13 25.6338 544.754 11.6222C599.921 -4.94028 681.903 0.19854 709.646 80.6449C725.37 126.192 683.67 188.253 652.655 240.307C642.056 258.089 617.94 295.66 623.5 316.807C631.898 348.749 689.925 357.29 701.943 388.862C726.76 453.929 697.078 519.551 652.655 554.746C631.109 571.789 605.104 583.952 579.505 584.433C547.447 585.061 519.154 562.325 487.908 556.853C462.598 552.417 436.101 560.107 414.874 578.037C400.829 589.904 388.811 606.171 372.97 613.565C360.779 619.222 346.936 618.704 334.889 612.715C326.781 608.574 321.742 600.958 316.964 592.936Z" fill="#FFE8C9"/>
<path d="M135.619 189.418C140.634 173.534 139.394 154.243 135.95 142.91C134.241 137.243 131.624 131.969 127.325 129.196C119.969 124.494 110.049 130.04 103.657 139.414C97.623 148.245 94.8676 159.006 92.9389 169.284C88.8059 191.317 92.3052 225.106 117.875 212.416C126.912 207.925 132.505 199.335 135.619 189.418Z" fill="#FFE8C9"/>
<path d="M664.755 257.64C657.454 263.699 651.309 272.409 646.846 279.764C641.721 288.204 637.615 297.909 638.029 308.037C638.442 318.164 644.476 328.503 653.514 330.613C663.819 333.024 673.545 324.645 680.24 315.753C689.719 303.244 696.91 288.023 697.571 271.807C698.04 260.021 691.014 248.567 679.056 250.527C673.931 251.371 669.136 254.023 664.755 257.64Z" fill="#FFE8C9"/>
<path d="M472.982 668.096C473.132 668.247 473.057 668.697 472.832 668.81C472.606 668.961 472.343 668.923 472.23 668.735C472.118 668.547 472.08 668.247 472.305 668.059C472.568 667.908 472.832 667.908 472.982 668.096Z" fill="#FED19D"/>
<path d="M285.542 303.659C271.939 310.574 227.973 311.288 218.39 297.121C207.793 281.413 224.102 267.434 236.352 261.121C257.058 250.449 279.755 242.257 301.926 235.192L285.542 303.659Z" fill="#FDB468"/>
<path d="M588.796 557.459L596.575 444.049C593.23 375.055 567.377 348.525 553.435 331.315L477.678 228.088L378.81 339.168L320.527 289.904C308.652 292.647 282.385 306.814 270.511 309.557C252.736 313.691 233.196 318.989 223.275 334.321C220.419 338.755 218.503 344.091 219.292 349.315C220.645 358.296 229.438 364.346 238.194 366.863C243.755 368.442 252.06 368.329 260.552 367.164C249.241 371.147 237.93 376.408 233.91 382.27C231.129 386.366 228.498 397.264 229.926 402.036C237.367 426.838 269.609 423.606 344.351 414.362C359.796 460.545 394.631 506.804 410.376 526.232C415.674 532.77 419.244 540.474 420.823 548.741V645.858H588.796V557.459Z" fill="#FDB468"/>
<path d="M295.836 511.878L463.772 511.803C480.72 511.803 494.624 497.899 494.586 480.952L494.436 136.324C494.436 119.376 480.532 105.472 463.584 105.51L295.648 105.585C278.7 105.585 264.796 119.489 264.834 136.437L264.984 481.064C264.984 498.012 278.888 511.916 295.836 511.878Z" fill="#292524"/>
<path d="M301.249 496.961L458.363 496.886C470.463 496.886 480.383 486.966 480.383 474.865L480.233 141.661C480.233 129.561 470.313 119.641 458.212 119.641L301.099 119.716C288.999 119.716 279.078 129.636 279.078 141.736L279.228 474.941C279.228 487.078 289.111 496.961 301.249 496.961Z" fill="#BFFBEE"/>
<mask id="mask0_685_30720" style="mask-type:luminance" maskUnits="userSpaceOnUse" x="279" y="119" width="202" height="378">
<path d="M301.249 496.956L458.363 496.881C470.463 496.881 480.383 486.961 480.383 474.861L480.233 141.656C480.233 129.556 470.313 119.636 458.212 119.636L301.099 119.711C288.999 119.711 279.078 129.631 279.078 141.732L279.228 474.936C279.228 487.073 289.111 496.956 301.249 496.956Z" fill="white"/>
</mask>
<g mask="url(#mask0_685_30720)">
<path d="M386.212 148.462C387.302 152.257 391.623 154.061 395.08 152.107C399.477 149.627 404.813 153.272 404.099 158.307C403.535 162.215 406.767 165.635 410.713 165.259C415.748 164.808 419.13 170.295 416.425 174.579C414.32 177.923 415.899 182.357 419.619 183.597C424.429 185.213 425.256 191.639 421.047 194.457C417.778 196.637 417.402 201.334 420.295 204.002C424.015 207.422 422.174 213.622 417.214 214.486C413.306 215.163 411.089 219.296 412.629 222.904C414.621 227.564 410.45 232.486 405.527 231.246C401.694 230.269 397.974 233.125 397.936 237.071C397.861 242.144 392.037 244.925 388.053 241.806C384.934 239.363 380.387 240.453 378.734 244.06C376.63 248.645 370.166 248.833 367.799 244.361C365.957 240.866 361.335 240.002 358.367 242.632C354.571 245.977 348.596 243.497 348.258 238.461C347.995 234.516 344.125 231.847 340.367 233.05C335.519 234.553 331.085 229.856 332.814 225.121C334.166 221.401 331.724 217.418 327.778 216.967C322.743 216.365 320.601 210.278 324.096 206.633C326.839 203.814 326.238 199.155 322.818 197.125C318.459 194.533 318.985 188.107 323.682 186.228C327.365 184.762 328.68 180.253 326.388 177.021C323.457 172.888 326.538 167.213 331.611 167.401C335.557 167.552 338.601 163.982 337.812 160.111C336.835 155.151 341.945 151.205 346.492 153.422C350.024 155.151 354.271 153.122 355.135 149.289C356.262 144.366 362.538 142.825 365.77 146.733C368.287 149.777 372.985 149.627 375.352 146.47C378.433 142.449 384.822 143.614 386.212 148.462Z" fill="#292524"/>
<path d="M444.722 297.009C427.661 279.159 417.29 263.339 387.904 259.168C371.332 256.8 357.052 259.318 342.961 268.036C336.009 272.358 321.804 284.758 321.09 292.612C319.249 312.792 337.361 328.762 358.029 327.109C361.9 326.808 380.05 336.015 383.545 337.743C381.854 335.188 386.288 339.096 383.545 337.743C408.572 375.134 467.381 397.192 508.041 416.394C520.404 396.102 532.466 375.697 543.589 354.804C542.312 354.39 541.072 353.939 539.832 353.489C507.176 341.802 471.665 325.23 444.722 297.009Z" fill="white"/>
<path d="M307.146 421.126C307.146 418.421 307.41 415.828 307.898 413.31C307.41 410.793 307.146 408.2 307.146 405.607C307.184 376.258 314.023 344.618 339.877 328.534C368.812 310.497 400.077 324.213 423.976 344.092C452.686 367.954 469.934 404.63 483.425 439.615C496.314 473.022 503.041 508.232 506.197 544.044H384.069H307.146C307.146 503.084 307.146 462.124 307.146 421.126Z" fill="white"/>
<path d="M426.232 420.9C426.345 421.539 427.322 423.08 429.239 424.245C429.239 424.207 429.201 424.207 429.201 424.17C428.186 423.456 427.209 422.216 426.232 420.9Z" fill="#FDB468"/>
<path d="M270.358 335.414C260.851 349.769 253.674 366.792 249.127 382.199C242.438 404.708 239.92 429.397 245.181 452.583C252.847 486.553 280.692 516.165 314.588 522.816C335.481 526.912 368.024 510.114 386.174 502.035C376.253 480.09 371.218 467.726 363.627 445.104C357.276 448.223 333.903 452.77 328.191 450.779C325.034 449.651 322.479 448.073 320.45 446.119C320.487 446.157 320.525 446.232 320.563 446.269C319.849 445.631 319.172 444.954 318.759 444.278C307.974 430.787 316.354 398.245 325.861 382.236C325.936 382.124 326.011 382.011 326.087 381.861C348.295 339.848 375.427 338.947 371.631 335.753C390.345 319.406 380.725 278.446 363.514 260.296C307.373 272.509 274.417 329.289 270.358 335.414ZM325.147 449.952C325.147 449.952 325.185 449.952 325.222 449.99C325.185 449.99 325.185 449.99 325.147 449.952C325.936 450.628 326.312 451.042 325.072 449.952C324.396 449.764 323.907 449.614 323.794 449.426C324.245 449.614 324.659 449.764 325.034 449.914C324.696 449.651 324.245 449.238 323.719 448.75C324.133 449.088 324.696 449.576 325.147 449.952ZM323.569 448.674C323.419 448.562 323.231 448.487 323.043 448.411C323.08 448.336 323.268 448.449 323.569 448.674Z" fill="white"/>
<path d="M402.07 276.867L398.537 381.484L349.498 283.894L402.07 276.867Z" fill="#22D4BE"/>
<path d="M350.324 261.347L362.574 226.249C359.192 226.925 355.547 225.948 352.917 223.318C348.708 219.071 348.708 212.119 352.879 207.798C357.05 203.476 363.89 203.439 368.098 207.685C368.361 207.948 368.587 208.211 368.812 208.474L374.111 193.33C374.75 191.451 376.666 190.324 378.583 190.7C388.09 192.466 414.507 200.207 415.334 231.134C415.409 233.464 413.53 235.418 411.238 235.343L399.476 234.929L401.994 268.336C402.933 280.962 395.342 292.837 383.43 296.482C382.866 296.67 382.303 296.82 381.739 296.97C361.071 302.307 343.184 281.714 350.324 261.347Z" fill="#FDB468"/>
<path d="M396.055 204.264C400.827 206.519 405.299 209.187 409.545 212.268C409.432 211.367 409.32 210.465 409.207 209.563C407.816 210.728 406.426 211.893 405.036 213.058C403.345 214.486 405.787 216.891 407.478 215.5C408.869 214.335 410.259 213.17 411.649 212.005C412.589 211.216 412.1 209.901 411.311 209.3C407.065 206.181 402.555 203.513 397.821 201.296C395.791 200.356 394.025 203.325 396.055 204.264Z" fill="#292524"/>
<path d="M356.525 217.159C358.968 218.324 361.41 219.451 363.853 220.616C365.845 221.555 367.573 218.587 365.582 217.647C363.139 216.482 360.697 215.355 358.254 214.19C356.262 213.251 354.534 216.219 356.525 217.159Z" fill="#292524"/>
<path d="M400.981 277.506C409.399 292.349 417.779 307.155 426.196 321.998C426.459 321.36 426.722 320.721 426.948 320.119C418.117 321.66 409.248 323.163 400.418 324.704C398.802 324.967 399.478 327.485 401.094 327.184C409.925 325.643 418.793 324.14 427.624 322.6C428.451 322.449 428.751 321.36 428.376 320.721C419.958 305.877 411.578 291.072 403.161 276.228C402.372 274.763 400.154 276.04 400.981 277.506Z" fill="#292524"/>
<path d="M349.121 282.505C347.467 301.031 342.244 318.88 337.509 336.767C337.246 337.782 338.148 338.534 339.087 338.346C349.459 336.504 359.793 334.701 370.164 332.859C371.78 332.559 371.104 330.078 369.488 330.379C359.117 332.22 348.783 334.024 338.411 335.866C338.937 336.392 339.463 336.918 339.989 337.444C344.799 319.331 349.985 301.256 351.676 282.505C351.826 280.851 349.271 280.851 349.121 282.505Z" fill="#292524"/>
<path d="M408.346 326.463C411.201 330.296 414.17 334.092 416.763 338.113C418.266 340.442 421.798 344.877 421.31 347.507C420.634 351.152 416.763 355.699 414.922 358.856C408.909 369.227 402.183 379.824 398.463 391.286C397.936 392.864 400.454 393.54 400.943 391.962C405.114 379.073 413.08 367.236 419.807 355.549C421.084 353.294 424.128 349.687 424.166 346.906C424.203 344.088 420.934 339.879 419.469 337.549C416.763 333.228 413.606 329.207 410.563 325.111C409.586 323.871 407.331 325.148 408.346 326.463Z" fill="#292524"/>
<path d="M400.114 391.026C392.072 381.97 383.692 373.214 374.974 364.796C371.705 361.64 363.625 356.567 363.099 351.907C362.761 348.901 363.964 345.143 364.377 342.137C364.79 338.868 365.204 335.636 365.655 332.367C365.88 330.713 363.287 330.751 363.062 332.367C362.611 335.974 362.122 339.619 361.671 343.227C361.296 346.158 360.056 350.103 360.394 352.997C360.882 357.318 366.895 360.663 370.051 363.669C379.897 372.988 389.291 382.721 398.272 392.867C399.4 394.107 401.203 392.266 400.114 391.026Z" fill="#292524"/>
<path d="M363.552 496.698C371.857 496.698 371.932 483.809 363.628 483.809C355.323 483.809 355.248 496.698 363.552 496.698Z" fill="#292524"/>
<path d="M341.156 506.803C349.461 506.803 349.536 493.914 341.231 493.914C332.926 493.877 332.851 506.803 341.156 506.803Z" fill="#292524"/>
<path d="M344.125 262.702C321.54 280.965 313.987 311.704 311.958 339.324C311.582 344.472 319.624 344.434 320 339.324C321.879 313.658 328.831 285.286 349.799 268.376C353.82 265.145 348.108 259.47 344.125 262.702Z" fill="#292524"/>
<path d="M448.818 299.377C444.045 277.055 426.534 261.724 405.34 254.997C400.417 253.419 398.313 261.16 403.198 262.738C421.837 268.638 436.868 281.903 441.077 301.481C442.167 306.554 449.908 304.45 448.818 299.377Z" fill="#292524"/>
<path d="M486.773 330.942C481.812 312.266 466.931 292.5 445.061 297.01C435.742 298.926 429.09 305.953 425.896 314.671C421.65 326.245 424.393 338.721 427.136 350.333C428.339 355.368 436.08 353.226 434.877 348.191C431.571 334.287 427.099 308.433 447.203 304.751C464.602 301.594 475.236 318.767 479.032 333.084C480.347 338.045 488.088 335.94 486.773 330.942Z" fill="#292524"/>
<path d="M496.127 349.844C495.112 344.809 494.06 339.773 493.045 334.738C492.106 330.191 486.807 327.523 482.523 328.65C477.789 329.928 475.496 334.625 476.436 339.172C477.45 344.208 478.503 349.243 479.517 354.279C480.457 358.826 485.755 361.494 490.039 360.366C494.774 359.089 497.066 354.391 496.127 349.844Z" fill="#57534E"/>
<path d="M443.481 362.917C442.767 355.627 440.963 348.976 437.92 342.324C435.966 338.116 429.878 337.063 426.158 339.281C421.836 341.836 421.16 346.834 423.114 351.042C424.73 354.5 425.932 359.009 426.308 362.804C426.759 367.426 429.84 371.447 434.838 371.447C439.084 371.485 443.932 367.539 443.481 362.917Z" fill="#57534E"/>
<path d="M308.238 333.686C308.276 339.811 308.314 345.936 308.351 352.099C308.426 363.185 325.599 363.297 325.562 352.212C325.524 346.087 325.487 339.961 325.449 333.799C325.374 322.751 308.201 322.638 308.238 333.686Z" fill="#57534E"/>
<path d="M392.899 218.773C391.734 220.915 392.26 223.733 394.327 225.123C396.281 226.439 399.137 226.025 400.64 224.221C401.241 223.507 401.354 222.493 400.64 221.779C400.039 221.178 398.799 221.065 398.198 221.779C397.747 222.343 396.995 222.718 396.281 222.305C395.68 221.929 395.567 221.102 395.868 220.501C396.92 218.547 393.951 216.819 392.899 218.773Z" fill="#292524"/>
<path d="M380.122 418.984L386.021 399.518C387.487 394.182 394.213 389.598 399.925 393.356C405.524 397.076 406.351 405.343 404.472 412.145L401.767 423.907L404.096 423.38L437.917 409.101C445.846 405.756 454.188 407.635 456.48 413.234L456.781 414.024C458.885 419.247 455.09 425.898 448.251 429.506C455.616 427.138 462.906 429.092 465.048 434.316L465.349 435.105C466.889 438.863 465.311 443.372 461.741 446.942C465.987 447.205 469.67 449.384 471.173 453.067C473.954 459.906 469.369 468.361 460.914 471.931L386.172 501.918L363.625 444.988L380.122 418.984Z" fill="#FDB468"/>
<path d="M365.091 445.929C368.736 440.18 372.381 434.431 376.026 428.681C378.77 424.36 381.4 420.677 382.903 415.792C384.744 409.667 388.314 388.135 399.062 394.899C407.893 400.46 401.955 415.529 400.114 423.495C399.813 424.811 400.941 425.9 402.218 425.6C411.049 423.608 419.654 418.685 427.922 415.191C431.491 413.688 435.061 411.997 438.706 410.644C443.78 408.727 451.558 407.976 454.677 413.575C457.984 419.55 452.122 425.337 447.349 428.08C445.658 429.057 446.786 431.725 448.665 431.236C453.287 429.959 459.75 429.433 462.869 434.017C465.612 438.038 463.358 442.585 460.502 445.817C459.45 447.019 460.239 448.56 461.704 448.748C469.182 449.65 472.113 456.602 468.731 462.99C466.928 466.372 463.771 468.852 460.351 470.43C458.698 471.182 456.969 471.783 455.278 472.46C446.823 475.842 438.368 479.261 429.913 482.643C415.183 488.543 400.452 494.48 385.684 500.38C383.655 501.207 384.557 504.514 386.586 503.687C399.738 498.388 412.928 493.127 426.08 487.829C434.686 484.372 443.329 480.915 451.934 477.457C456.556 475.579 462.005 474.038 466.063 471.032C476.435 463.366 476.247 447.019 461.704 445.291C462.118 446.268 462.531 447.245 462.907 448.222C466.89 443.788 469.333 437.775 465.838 432.289C462.005 426.239 453.888 426.239 447.763 427.93C448.214 428.982 448.665 430.034 449.078 431.086C456.143 426.99 462.756 418.009 456.594 410.268C451.558 403.917 442.314 405.496 435.813 408.201C429.199 410.944 422.586 413.763 416.009 416.581C411.237 418.61 406.239 421.241 401.316 422.331C402.03 423.044 402.744 423.758 403.421 424.435C405.488 415.491 410.034 403.955 404.36 395.5C401.241 390.878 395.567 388.961 390.494 391.592C386.285 393.771 384.744 397.717 383.467 401.963C381.175 409.516 379.709 416.393 375.914 422.406C371.292 429.658 366.707 436.948 362.085 444.238C360.958 446.042 363.926 447.771 365.091 445.929Z" fill="#292524"/>
<path d="M402.069 421.317C397.447 423.271 392.787 425.225 388.165 427.179C386.136 428.044 387.902 431.012 389.894 430.148C394.516 428.194 399.175 426.24 403.797 424.286C405.827 423.422 404.061 420.453 402.069 421.317Z" fill="#292524"/>
<path d="M452.683 425.488C440.433 430.636 428.22 435.822 415.97 440.97C413.94 441.834 415.669 444.803 417.698 443.938C429.949 438.79 442.161 433.604 454.412 428.456C456.441 427.63 454.712 424.661 452.683 425.488Z" fill="#292524"/>
<path d="M460.99 445.815C449.153 450.813 437.316 455.811 425.517 460.809C423.487 461.673 425.254 464.642 427.245 463.777C439.082 458.78 450.919 453.782 462.719 448.784C464.748 447.92 462.982 444.951 460.99 445.815Z" fill="#292524"/>
<path d="M470.459 464.19C462.717 445.1 454.976 426.048 447.235 406.958C446.409 404.929 443.102 405.831 443.928 407.86C451.67 426.95 459.411 446.002 467.152 465.091C467.978 467.121 471.323 466.219 470.459 464.19Z" fill="#292524"/>
<path d="M404.397 402.712C398.648 402.073 393.049 400.683 387.6 398.691C385.533 397.94 384.631 401.247 386.698 401.998C392.448 404.065 398.347 405.455 404.397 406.132C406.614 406.395 406.577 402.938 404.397 402.712Z" fill="#292524"/>
<path d="M393.878 193.14C398.087 202.647 394.517 213.996 384.934 218.58C375.578 223.052 364.004 218.994 359.494 209.637C355.022 200.28 359.081 188.706 368.438 184.196C378.095 179.537 388.955 183.971 393.878 193.14C394.93 195.094 397.899 193.365 396.847 191.411C391.06 180.589 377.983 175.704 366.709 181.228C355.699 186.639 351.114 200.393 356.525 211.365C361.937 222.338 375.69 226.998 386.663 221.549C397.974 215.912 401.807 202.647 396.847 191.411C395.945 189.382 392.976 191.111 393.878 193.14Z" fill="#FB647A"/>
<path d="M430.743 175.136C434.951 184.643 431.381 195.992 421.799 200.576C412.442 205.048 400.868 200.99 396.359 191.633C391.887 182.276 395.945 170.702 405.302 166.192C414.997 161.57 425.857 165.967 430.743 175.136C431.795 177.09 434.763 175.362 433.711 173.407C427.924 162.585 414.847 157.7 403.574 163.224C392.601 168.635 387.979 182.389 393.39 193.361C398.801 204.334 412.555 208.994 423.528 203.545C434.839 197.908 438.672 184.643 433.711 173.407C432.809 171.378 429.841 173.144 430.743 175.136Z" fill="#FB647A"/>
<path d="M320.038 175.252C318.347 174.387 316.994 173.147 315.979 171.531C314.176 169.615 314.514 168.225 316.919 167.398C320.188 164.88 323.232 166.308 326.727 167.999C328.079 168.675 329.282 169.389 330.484 170.254C333.528 172.433 336.422 174.951 339.39 177.281C345.027 181.715 350.626 186.112 356.263 190.546C357.991 191.899 360.434 189.494 358.705 188.103C350.326 181.49 341.908 174.913 333.528 168.3C328.793 164.579 322.067 161.085 315.904 162.813C307.073 165.331 313.086 175.064 318.272 178.183C320.226 179.348 321.954 176.379 320.038 175.252Z" fill="#FB647A"/>
<path d="M378.51 203.136C379.187 205.466 379.863 207.833 380.577 210.163C381.178 212.267 384.523 211.365 383.884 209.261C383.207 206.931 382.531 204.564 381.817 202.234C381.216 200.13 377.909 201.031 378.51 203.136Z" fill="#292524"/>
</g>
<path d="M495.413 558.022C495.413 558.022 444.007 487.601 457.159 417.781C457.159 417.781 397.936 304.258 429.163 279.457C429.163 279.457 453.364 265.252 470.236 311.924C479.706 338.116 514.541 375.356 543.288 403.013C566.248 425.109 568.991 460.921 549.751 486.323L495.413 558.022Z" fill="#FDB468"/>
<path d="M453.74 417.82C451.974 442.208 451.898 468.438 458.099 492.225C463.247 512.066 474.633 532.283 488.048 547.652C490.979 550.997 495.789 546.112 492.896 542.805C480.082 528.112 469.034 508.271 464.449 489.219C458.888 466.221 458.925 441.307 460.616 417.82C460.917 413.386 454.04 413.424 453.74 417.82Z" fill="#292524"/>
<path d="M460.052 415.786C449.756 392.826 439.459 369.791 432.357 345.59C428.75 333.34 425.706 320.639 424.541 307.9C423.789 299.858 423.714 288.472 430.704 282.91C441.677 274.192 454.34 286.63 459.752 295.612C465.276 304.743 468.733 315.077 473.918 324.472C484.252 343.298 497.405 360.434 511.346 376.667C527.392 395.344 544.678 412.93 560.987 431.381C563.918 434.688 568.765 429.84 565.834 426.533C533.404 389.82 496.165 355.812 474.67 311.019C469.522 300.271 465.539 288.622 456.257 280.543C449.23 274.418 438.896 270.923 430.065 275.244C410.336 284.864 418.002 315.904 421.685 332.175C428.562 362.5 441.376 391.06 454.077 419.318C455.956 423.264 461.856 419.769 460.052 415.786Z" fill="#292524"/>
<path d="M422.626 303.506C437.282 307.94 452.989 301.476 457.837 286.483C459.19 282.274 452.576 280.47 451.223 284.642C447.503 296.14 435.365 300.161 424.468 296.854C420.221 295.577 418.38 302.228 422.626 303.506Z" fill="#292524"/>
<path d="M474.521 351.079C478.956 347.96 483.39 344.841 487.862 341.722C491.469 339.204 488.012 333.229 484.405 335.785C479.97 338.904 475.536 342.023 471.064 345.142C467.457 347.659 470.876 353.634 474.521 351.079Z" fill="#292524"/>
<path d="M482.225 359.649C486.246 356.304 490.267 352.922 494.288 349.578C497.707 346.722 492.784 341.912 489.44 344.73C485.419 348.075 481.398 351.457 477.377 354.801C473.958 357.619 478.843 362.467 482.225 359.649Z" fill="#292524"/>
<path d="M491.431 575.46C491.581 580.27 491.732 585.043 491.844 589.853C491.995 594.287 498.872 594.287 498.721 589.853C498.571 585.043 498.421 580.27 498.308 575.46C498.195 571.026 491.318 571.026 491.431 575.46Z" fill="#292524"/>
<path d="M479.142 576.435C479.33 581.094 479.518 585.716 479.706 590.376C479.894 594.773 486.771 594.81 486.583 590.376C486.395 585.716 486.207 581.094 486.019 576.435C485.831 572.038 478.955 572 479.142 576.435Z" fill="#292524"/>
<path d="M230.788 81.307L90.7724 81.6076C86.7516 81.6076 83.4823 84.8769 83.5199 88.8977L83.6326 143.123C83.6326 147.144 86.9019 150.413 90.9227 150.375L193.248 150.15C205.235 172.734 226.241 210.65 226.241 210.65L214.179 150.112L230.976 150.075C234.997 150.075 238.266 146.805 238.266 142.785L238.153 88.5595C238.078 84.5387 234.809 81.2694 230.788 81.307Z" fill="#FB8B30"/>
<path d="M100.092 107.568C138.571 107.493 177.051 107.38 215.531 107.305C220.679 107.305 220.717 99.2633 215.531 99.3009C177.051 99.3761 138.571 99.4888 100.092 99.564C94.9434 99.564 94.9434 107.568 100.092 107.568Z" fill="white"/>
<path d="M100.129 129.783C117.152 129.746 134.175 129.708 151.198 129.671C156.346 129.671 156.383 121.629 151.198 121.629C134.175 121.666 117.152 121.704 100.129 121.742C94.981 121.779 94.9434 129.783 100.129 129.783Z" fill="white"/>
<path d="M170.063 129.63C178.217 129.63 186.334 129.592 194.488 129.592C199.637 129.592 199.674 121.551 194.488 121.551C186.334 121.551 178.217 121.588 170.063 121.588C164.915 121.626 164.877 129.63 170.063 129.63Z" fill="white"/>
<path d="M523.859 252.816L555.575 225.308C565.232 229.442 576.168 230.832 587.253 228.653C616.714 222.941 635.954 194.457 630.205 164.996C624.493 135.535 596.009 116.295 566.548 122.044C537.086 127.756 517.846 156.24 523.596 185.701C525.851 197.426 531.75 207.497 539.867 215.087L523.859 252.816Z" fill="#FB8B30"/>
<path d="M545.244 169.956C566.701 170.144 588.195 170.332 609.652 170.52C614.086 170.557 614.086 163.681 609.652 163.643C588.195 163.455 566.701 163.267 545.244 163.079C540.809 163.042 540.809 169.918 545.244 169.956Z" fill="white"/>
<path d="M546.371 187.657C560.688 187.77 575.005 187.92 589.322 188.033C593.756 188.071 593.756 181.194 589.322 181.156C575.005 181.043 560.688 180.893 546.371 180.78C541.936 180.743 541.936 187.62 546.371 187.657Z" fill="white"/>
<path d="M178.782 447.803L199.224 393.729L157.701 444.271C151.763 443.67 145.563 443.331 139.212 443.331C92.6907 443.331 55 460.505 55 481.661C55 502.817 92.6907 519.991 139.212 519.991C185.734 519.991 223.425 502.817 223.425 481.661C223.425 466.968 205.312 454.229 178.782 447.803Z" fill="#FB8B30"/>
<path d="M93.1775 477.642C124.405 477.642 155.595 477.642 186.822 477.642C191.97 477.642 192.008 469.601 186.822 469.601C155.595 469.601 124.405 469.601 93.1775 469.601C88.0294 469.638 88.0294 477.642 93.1775 477.642Z" fill="white"/>
<path d="M95.5456 496.322C103.362 496.322 111.14 496.322 118.957 496.322C124.105 496.322 124.142 488.317 118.957 488.317C111.14 488.317 103.362 488.317 95.5456 488.317C90.3598 488.317 90.3598 496.322 95.5456 496.322Z" fill="white"/>
<path d="M134.138 496.4C145.449 496.4 156.76 496.4 168.071 496.4C173.22 496.4 173.257 488.396 168.071 488.396C156.76 488.396 145.449 488.396 134.138 488.396C128.99 488.358 128.99 496.4 134.138 496.4Z" fill="white"/>
</svg>
