<svg width="757" height="679" viewBox="0 0 757 679" fill="none" xmlns="http://www.w3.org/2000/svg">
<path d="M163.785 52.3235C160.24 56.5297 167.362 48.1792 163.785 52.3235C135.072 85.8187 139.1 125.345 93.9201 165.706C61.5656 194.655 18.9955 237.8 15.354 280.635C10.7135 335.007 36.6552 389.1 84.5102 418.142C110.935 434.193 152.539 432.307 181.155 443.441C213.928 456.214 251.761 471.926 286.082 480.307C347.181 495.215 396.197 503.163 454.138 476.287C500.576 454.73 527.677 418.234 576.467 402.245C601.184 394.141 638.92 391.543 663.573 383.317C698.86 371.564 729.603 345.522 745.555 312.831C764.375 274.264 755.835 234.336 732.02 199.634C715.327 175.294 692.254 156.366 674.529 133.015C656.064 108.675 641.402 81.9526 624.129 56.9009C615.17 43.9111 605.373 31.1996 592.87 21.3335C566.96 0.859129 526.292 -2.60486 494.195 1.53951C458.972 6.08594 425.491 114.743 389.527 113.599C353.918 112.454 321.659 8.52926 286.339 4.72511C259.721 1.84879 231.556 3.24058 207.161 14.9005C189.147 23.5294 176.192 37.6636 163.785 52.3235Z" fill="#FEC9E6"/>
<path d="M453.32 168.352C473.999 156.91 503.194 165.083 514.902 185.61C522.543 198.991 523.304 216.06 533.263 227.806C540.486 236.321 551.434 240.617 562.078 243.962C572.722 247.307 583.822 250.196 592.832 256.811C601.841 263.425 608.265 274.982 605.186 285.702C599.826 304.253 570.365 310.487 570.517 329.798C570.593 337.933 576.409 344.852 578.386 352.759C582.834 370.701 565.651 387.884 547.519 391.495C522.847 396.361 498.366 384.158 476.166 372.336C456.551 361.882 436.897 351.428 417.282 340.936C408.805 336.413 399.644 331.167 396.412 322.119C390.9 306.876 404.965 292.164 409.869 276.73C413.709 264.642 411.846 251.565 409.717 239.058C407.588 226.552 405.232 213.665 408.159 201.348C411.086 189.032 420.969 177.323 433.628 176.677L453.32 168.352Z" fill="#292524"/>
<path d="M756.059 518.505C742.373 528.655 727.244 536.752 711.316 542.264C682.197 552.376 637.721 555.569 608.564 565.529C551.01 585.182 519.002 630.077 464.262 656.535C395.912 689.569 338.093 679.799 266.018 661.477C252.333 657.979 238.154 653.456 223.86 648.4L241.841 544.507C74.9588 617.608 -5.17504 500.411 17.3294 340.637C20.1424 320.566 42.3427 499.84 242.145 345.579C272.1 322.428 301.257 307.451 329.464 297.757C354.819 356.793 379.68 415.981 417.086 468.897C425.639 457.455 423.739 443.313 433.508 430.731C468.443 381.464 500.908 334.479 533.904 288.596C567.546 296.275 599.706 310.036 624.225 332.882C642.7 350.103 666.725 371.391 681.627 391.69C719.793 443.655 742.83 485.927 756.059 518.505Z" fill="#F9A8D4"/>
<path d="M433.546 430.733C468.443 381.467 500.945 334.481 533.903 288.598C509.232 282.972 483.762 280.577 459.927 280.235C458.255 280.197 456.544 280.197 454.872 280.197C415.831 280.311 373.825 282.478 329.463 297.722C354.818 356.758 379.68 415.946 417.086 468.862C425.677 457.419 423.776 443.316 433.546 430.733ZM458.027 322.735C457.951 322.887 457.837 323.039 457.799 323.153C457.647 323.381 457.495 323.647 457.343 323.876C457.571 323.495 457.799 323.115 458.027 322.735ZM434.344 353.451C433.85 353.945 433.394 354.477 432.899 354.971C432.367 355.503 431.797 355.998 431.265 356.53C432.329 355.503 433.356 354.477 434.344 353.451Z" fill="#F466B1"/>
<path d="M682.468 549.715C657.378 554.809 629.134 558.458 608.568 565.491C605.641 566.479 602.79 567.544 600.015 568.684C586.254 542.454 585.265 516.529 599.331 505.695C616.703 492.314 650.536 507.025 674.827 538.615C677.602 542.264 680.187 545.99 682.468 549.715Z" fill="#292524"/>
<path d="M669.275 578.142C665.321 571.185 661.368 564.267 657.414 557.31C637.761 522.793 613.204 491.888 588.001 461.248C562.455 430.229 519.727 415.517 481.257 425.249C479.508 425.705 475.023 428.936 473.806 430.267C471.335 433.042 473.084 437.832 476.315 439.694C479.546 441.557 483.538 441.291 487.225 440.835C493.383 440.074 499.694 438.934 505.776 440.074C511.896 441.215 517.94 445.32 519.233 451.403C516.344 457.523 507.297 456.078 500.91 453.759C477.836 445.396 454.267 435.893 430.242 430.875C424.578 429.697 416.329 433.004 415.72 438.782C415.34 442.431 418.609 445.282 421.575 447.411C439.555 460.184 460.007 468.015 480.154 476.986C464.036 468.889 446.664 463.947 430.546 455.85C426.212 453.683 420.624 449.996 415.758 449.806C410.893 449.616 405.609 452.125 404.088 456.725C402.758 460.83 404.772 465.392 407.927 468.357C411.083 471.284 416.215 474.439 420.206 476.112C438.377 483.791 455.901 493.066 472.438 503.748C458.524 496.259 443.889 490.177 428.797 485.539C423.817 484.019 418.001 482.802 413.82 485.881C408.84 489.531 409.334 497.59 413.097 502.494C416.823 507.397 422.753 510.02 428.303 512.719C471.639 533.741 512.999 580.043 543.828 634.023L669.275 578.142Z" fill="#FDB468"/>
<path d="M670.79 577.268C660.602 559.364 650.49 541.497 638.82 524.505C627.568 508.083 615.365 492.307 602.897 476.797C591.758 462.96 581 449.161 566.099 439.163C552.718 430.192 537.322 424.185 521.356 421.752C513.753 420.612 506.074 420.232 498.396 420.764C491.933 421.22 483.76 421.562 478.058 424.832C474.181 427.074 470.037 430.154 471.063 435.133C472.394 441.824 479.541 443.23 485.357 442.812C494.86 442.09 506.417 438.631 514.248 446.158C516.528 448.362 517.669 451.251 514.704 453.266C512.841 454.559 509.344 454.027 507.291 453.684C502.805 452.924 498.472 451.023 494.252 449.465C474.751 442.28 455.25 434.791 434.988 430.116C428.564 428.633 421.455 428.139 416.475 433.461C411.837 438.479 414.612 444.067 419.25 447.83C436.661 461.781 459.127 469.536 479.312 478.508C481.327 479.42 483.152 476.493 481.099 475.466C464.943 467.522 447.533 462.504 431.491 454.331C425.903 451.48 420.238 447.488 413.624 448.172C408.986 448.667 404.311 451.289 402.638 455.851C397.81 468.928 416.437 476.265 425.18 480.142C441.298 487.289 456.77 495.766 471.596 505.27C472.204 504.243 472.774 503.255 473.382 502.228C464.373 497.439 455.097 493.143 445.594 489.456C437.611 486.377 427.347 481.207 418.528 482.309C412.826 483.031 408.872 487.289 408.53 492.991C408.112 499.415 411.875 504.775 416.893 508.387C423.888 513.481 432.403 516.484 439.816 520.931C447.685 525.645 455.135 530.967 462.282 536.707C476.804 548.454 489.956 561.911 501.893 576.204C517.175 594.489 530.518 614.256 542.378 634.898C543.518 636.875 546.56 635.088 545.419 633.111C528.275 603.308 507.937 574.988 483.38 550.849C472.736 540.395 461.256 530.701 448.825 522.452C442.781 518.423 436.509 514.773 430.008 511.542C422.633 507.893 411.837 503.559 412.065 493.713C412.37 479.268 433.391 488.695 440.69 491.356C451.334 495.272 461.674 499.948 471.672 505.27C473.686 506.334 475.359 503.445 473.458 502.228C462.206 495.006 450.536 488.353 438.523 482.461C432.555 479.534 426.473 476.987 420.429 474.212C414.802 471.627 405.793 467.027 405.565 459.843C405.261 449.845 417.654 451.137 423.432 453.988C429.172 456.802 434.684 459.805 440.576 462.276C453.501 467.75 466.806 472.235 479.388 478.432C479.997 477.405 480.567 476.417 481.175 475.39C464.715 468.092 447.875 461.439 432.365 452.164C428.64 449.959 424.838 447.678 421.493 444.941C418.984 442.926 417.197 439.201 418.832 436.236C420.124 433.879 423.85 432.739 426.397 432.472C430.692 432.016 435.292 433.651 439.436 434.715C444.035 435.894 448.559 437.186 453.083 438.593C462.168 441.406 471.139 444.599 480.073 447.868C488.018 450.757 495.963 454.445 504.174 456.535C508.849 457.714 514.894 458.436 518.809 454.939C522.383 451.746 520.71 448.058 517.897 444.751C513.943 440.075 507.747 438.099 501.817 437.832C496.191 437.566 473.002 443.345 475.245 432.891C476.766 425.592 490.185 425.022 495.963 424.489C503.147 423.805 510.446 423.881 517.631 424.756C533.483 426.618 548.84 432.244 562.297 440.76C576.515 449.807 586.702 462.124 597.194 475.048C610.461 491.394 623.424 508.007 635.361 525.379C647.259 542.638 657.561 560.808 667.939 579.055C668.851 580.994 671.892 579.245 670.79 577.268Z" fill="#292524"/>
<path d="M404.505 458.888C411.918 460.751 417.43 466.643 418.875 474.132C419.293 476.336 422.676 475.424 422.258 473.181C420.585 464.552 413.971 457.634 405.418 455.467C403.251 454.935 402.301 458.318 404.505 458.888Z" fill="#292524"/>
<path d="M418.609 439.625C425.452 439.892 430.926 445.175 431.914 451.866C432.218 454.109 435.639 453.158 435.297 450.916C434.119 442.667 426.896 436.432 418.609 436.09C416.328 436.014 416.328 439.549 418.609 439.625Z" fill="#292524"/>
<path d="M411.16 491.284C416.71 492.729 421.233 496.34 423.856 501.472C425.111 503.867 425.871 506.566 425.985 509.265C426.061 510.861 425.529 512.458 426.479 513.864C427.012 514.663 428 515.005 428.874 514.511C429.026 514.435 429.14 514.359 429.292 514.283C430.167 513.788 430.357 512.724 429.939 511.888C429.901 511.774 429.825 511.66 429.787 511.546C428.798 509.531 425.757 511.279 426.746 513.332C426.784 513.446 426.86 513.56 426.898 513.674C427.126 512.876 427.316 512.078 427.544 511.279C427.392 511.355 427.278 511.432 427.126 511.508C427.924 511.736 428.722 511.926 429.521 512.154C428.722 511.013 429.292 506.718 428.912 505.045C428.228 502.156 426.898 499.419 425.187 497.024C421.956 492.5 417.432 489.421 412.072 488.015C409.905 487.331 408.955 490.714 411.16 491.284Z" fill="#292524"/>
<path d="M475.514 431.559C481.749 432.661 495.054 433.003 494.027 423.196C493.799 420.953 490.264 420.953 490.53 423.196C491.252 430.076 480.532 428.898 476.503 428.176C474.26 427.796 473.31 431.179 475.514 431.559Z" fill="#292524"/>
<path d="M38.8539 160.335C55.6964 155.451 73.8345 140.951 84.2988 127.497C98.1017 109.658 109.164 89.7258 119.578 68.7474C125.857 56.0906 130.84 41.5901 129.594 27.6876C125.757 -14.8671 79.1165 8.35359 60.1313 24.9469C38.8041 43.6331 16.0817 75.9727 4.57097 105.472C0.933393 114.79 -0.96014 125.454 0.933395 134.822C6.21536 160.385 21.8619 165.268 38.8539 160.335Z" fill="#FEC9E6"/>
<path d="M180.413 413.81C167.831 440.648 121.491 445.476 76.9007 424.53C32.3101 403.622 6.3844 364.924 18.9671 338.048C31.5498 311.21 77.9271 306.42 122.518 327.328C167.07 348.235 193.034 386.934 180.413 413.81Z" fill="#292524"/>
<path d="M119.898 432.401C120.544 432.553 121.191 432.705 121.837 432.857C169.316 443.729 166.085 388.685 167.112 360.896C168.29 328.356 169.621 295.892 167.568 289.734C154.263 250.009 168.594 274.756 168.594 274.756C136.928 243.585 66.1081 197.93 41.855 232.941C34.4803 243.585 33.2638 299.389 31.021 347.211C28.8922 391.916 77.2462 422.061 119.898 432.401Z" fill="#FDB468"/>
<path d="M138.47 322.414C149.837 320.703 157.858 316.863 166.411 300.593C171.353 291.204 173.101 276.987 178.385 267.521C184.353 256.801 190.322 246.081 196.328 235.361C197.126 233.917 197.963 232.32 197.544 230.685C196.898 227.948 193.477 226.846 190.702 226.732C181.578 226.314 173.063 230.685 166.791 236.844C160.519 243.002 156.185 250.871 152.269 258.778C154.018 219.471 158.504 183.244 149.532 144.203C148.734 140.744 147.784 137.056 145.237 134.472C142.69 131.887 137.634 123.828 129.271 133.521C127.864 135.118 128.13 137.627 128.321 139.832C129.499 153.441 129.195 163.59 130.373 177.199C130.449 178.036 130.525 178.91 130.601 179.746C130.525 178.872 130.449 178.036 130.373 177.199C129.157 164.883 126.306 152.604 121.82 140.82C120.3 136.79 117.639 132.077 113.381 131.811C107.831 131.468 105.854 138.539 105.588 144.051C104.828 158.192 104.068 172.334 103.345 186.475C103.459 173.094 101.026 159.523 96.2746 146.674C94.8681 142.949 92.8534 138.843 89.0899 137.513C85.2125 136.144 81.069 138.463 79.0922 141.846C77.1155 145.192 76.8114 149.335 76.5833 153.327C76.0511 161.842 75.5189 170.319 74.9867 178.834C74.9487 180.317 74.8727 181.761 74.7206 183.244C74.7966 181.761 74.9107 180.317 74.9867 178.834C75.1387 171.915 73.9983 164.883 71.6415 158.23C70.463 154.923 67.9921 151.046 64.5708 151.312C63.0122 151.426 61.7578 152.414 60.6554 153.441C43.9291 169.483 41.4202 243.306 41.4202 243.306C41.4202 243.306 40.5459 337.011 138.47 322.414Z" fill="#FDB468"/>
<path d="M153.562 319.067C164.548 311.426 169.794 298.767 173.444 286.375C175.839 278.239 178.538 270.865 182.681 263.452C187.357 255.089 192.071 246.726 196.67 238.325C198.761 234.561 201.004 230.342 196.936 226.996C192.489 223.347 184.506 225.02 179.64 226.692C165.271 231.634 157.136 245.053 150.711 257.94C151.814 258.244 152.878 258.548 153.98 258.814C154.931 238.249 156.679 217.683 156.679 197.079C156.679 186.853 156.223 176.628 155.083 166.478C154.056 157.545 153.03 147.889 150.027 139.412C146.91 130.631 137.596 122.952 129.423 130.783C123.911 136.067 127.028 145.798 127.294 152.565C127.675 161.65 128.017 170.735 128.777 179.783C129.955 179.783 131.134 179.783 132.274 179.783C131.248 168.15 129.043 156.67 125.318 145.57C123.341 139.716 120.072 128.768 111.785 130.136C104.714 131.315 103.954 140.666 103.65 146.254C102.889 159.635 102.205 173.054 101.521 186.435C102.699 186.435 103.878 186.435 105.018 186.435C104.98 175.601 103.574 164.805 100.57 154.389C98.7458 148.003 96.3509 137.359 88.634 135.61C80.9552 133.862 76.2794 141.274 75.253 147.813C73.4283 159.407 73.8085 171.458 72.8581 183.166C74.0366 183.166 75.215 183.166 76.3554 183.166C76.8876 174.575 76.3174 165.832 73.2003 157.697C71.7557 153.933 68.9427 149.067 64.1909 149.524C56.9682 150.208 52.9387 161.346 50.8859 166.972C44.0434 185.941 42.0667 206.963 40.4701 226.958C40.0519 232.394 39.6718 237.792 39.4817 243.228C39.4057 245.509 42.903 245.471 42.979 243.228C43.5112 227.605 44.9937 211.905 47.4647 196.471C49.1753 185.827 51.2281 174.917 55.3716 164.919C56.7021 161.688 58.6788 156.67 61.72 154.617C72.2499 147.395 73.0862 178.072 72.7821 183.166C72.63 185.447 76.1274 185.409 76.2794 183.166C76.9257 175.525 77.2298 167.884 77.7239 160.244C77.99 156.176 77.876 151.804 78.7123 147.775C79.2445 145.152 80.461 140.818 83.35 139.792C86.7333 138.575 89.9645 139.602 91.9793 142.301C95.9707 147.737 97.5293 156.138 98.9358 162.638C100.646 170.469 101.407 178.452 101.407 186.473C101.407 188.754 104.79 188.716 104.904 186.473C105.36 177.54 105.854 168.607 106.349 159.673C106.577 155.568 106.767 151.5 106.995 147.395C107.185 143.897 106.995 138.613 109.466 135.762C117.221 126.753 122.923 149.676 124.101 153.971C126.458 162.448 127.903 171.078 128.663 179.821C128.853 182.064 132.35 182.064 132.16 179.821C131.552 172.75 131.172 165.68 130.906 158.571C130.754 154.884 130.64 151.158 130.412 147.471C130.145 143.061 128.473 137.055 131.742 133.291C136.57 127.779 141.74 132.721 144.705 137.017C149.267 143.631 149.799 154.541 150.863 162.296C155.235 194.342 151.814 226.692 150.331 258.814C150.255 260.525 152.84 261.247 153.6 259.689C159.188 248.512 165.803 236.842 177.549 231.254C180.78 229.733 184.24 228.821 187.775 228.555C188.915 228.479 191.88 228.137 192.869 228.935C195.036 230.684 194.237 234.523 193.477 236.538C190.968 243.114 186.254 249.463 182.833 255.621C177.169 265.771 172.911 275.16 169.604 286.298C166.335 297.437 161.469 309.145 151.623 316.026C149.951 317.318 151.7 320.359 153.562 319.067Z" fill="#292524"/>
<path d="M127.261 168.27C129.579 186.251 129.503 204.688 128.667 222.783C128.553 225.026 132.088 225.026 132.164 222.783C133.001 204.688 133.077 186.251 130.758 168.27C130.492 166.066 126.994 166.028 127.261 168.27Z" fill="#292524"/>
<path d="M101.22 169.898C101.41 185.978 101.068 202.096 100.497 218.176C100.421 220.457 103.919 220.419 103.995 218.176C104.527 202.096 104.869 186.016 104.717 169.898C104.717 167.655 101.182 167.655 101.22 169.898Z" fill="#292524"/>
<path d="M73.1295 178.798C72.7493 190.621 73.8137 202.785 71.5709 214.494C71.1527 216.698 74.536 217.649 74.9541 215.444C77.235 203.432 76.2466 191.001 76.6268 178.798C76.7028 176.556 73.2055 176.556 73.1295 178.798Z" fill="#292524"/>
<path d="M196.181 231.343C187.399 232.674 181.013 241.037 183.028 249.856C183.522 252.061 186.943 251.111 186.411 248.906C184.776 241.797 190.326 235.753 197.093 234.727C199.336 234.422 198.385 231.001 196.181 231.343Z" fill="#292524"/>
<path d="M140.077 249.851C125.898 252.284 111.376 257.758 102.139 269.352C92.2934 281.707 91.343 298.167 96.8551 312.574C97.6534 314.665 101.037 313.753 100.238 311.624C94.8403 297.445 95.9427 281.289 106.435 269.694C115.33 259.887 128.293 255.363 141.028 253.196C143.232 252.854 142.32 249.471 140.077 249.851Z" fill="#292524"/>
<path d="M481.405 177.932C481.481 207.963 457.228 232.368 427.197 232.483C397.166 232.559 372.761 208.306 372.647 178.274C372.571 148.243 396.824 123.838 426.855 123.724C456.886 123.61 481.291 147.901 481.405 177.932Z" fill="#292524"/>
<path d="M416.746 141.9C418.115 138.136 420.244 134.829 423.057 131.978C424.653 130.343 422.144 127.873 420.586 129.507C417.355 132.814 414.96 136.654 413.363 140.987C412.565 143.078 415.948 143.991 416.746 141.9Z" fill="#FDB468"/>
<path d="M403.827 269.207C403.751 271.753 403.675 274.262 403.599 276.809C403.523 279.09 407.058 279.052 407.096 276.809C407.172 274.262 407.248 271.753 407.324 269.207C407.4 266.964 403.903 266.964 403.827 269.207Z" fill="#292524"/>
<path d="M383.786 247.725L346.608 258.103C340.374 211.346 373.256 173.217 396.065 152.88C407.621 142.578 416.554 136.838 416.554 136.838L428.719 184.09L463.464 312.501C474.488 348.007 451.831 366.9 425.069 371.689C424.651 371.765 424.233 371.842 423.777 371.918C391.503 377.582 363.638 349.071 369.987 316.949C376.829 282.622 383.786 247.725 383.786 247.725Z" fill="#FDB468"/>
<path d="M460.804 210.777C453.81 219.254 441.265 220.433 432.788 213.438C424.311 206.444 423.132 193.899 430.127 185.422C437.122 176.945 449.666 175.766 458.143 182.761C466.621 189.755 467.837 202.3 460.804 210.777Z" fill="#FDB468"/>
<path d="M438.223 204.124C444.457 200.323 450.691 196.559 457.002 192.872C458.94 191.731 457.192 188.69 455.215 189.831C448.905 193.518 442.67 197.281 436.436 201.083C434.535 202.261 436.284 205.302 438.223 204.124Z" fill="#292524"/>
<path d="M383.793 247.724L370.107 318.469L410.669 238.183L383.793 247.724Z" fill="#292524"/>
<path d="M379.989 168.125C370.219 176.336 360.602 185.65 352.657 195.609C351.668 196.826 352.315 198.46 353.911 198.612C358.967 199.031 364.061 199.487 369.117 199.905C371.36 200.095 371.36 196.598 369.117 196.408C364.061 195.989 358.967 195.533 353.911 195.115C354.329 196.103 354.747 197.13 355.166 198.118C363.149 188.158 372.766 178.845 382.498 170.634C384.208 169.151 381.7 166.68 379.989 168.125Z" fill="#292524"/>
<path d="M395.685 182.421C402.604 178.088 410.891 178.164 417.733 182.612C419.634 183.828 421.421 180.787 419.52 179.57C411.689 174.515 401.843 174.439 393.936 179.38C391.998 180.597 393.784 183.638 395.685 182.421Z" fill="#292524"/>
<path d="M403.518 181.283C403.822 183.146 405.798 184.59 407.661 184.286C409.524 184.02 410.968 182.043 410.74 180.181C409.828 182.005 406.711 181.929 405.836 180.105C407.091 179.534 408.649 179.61 409.866 180.371L403.518 181.283Z" fill="#292524"/>
<path d="M401.819 181.731C402.427 184.43 405.126 186.407 407.901 185.989C410.676 185.57 412.691 182.909 412.501 180.172C412.387 178.5 410.182 177.701 409.231 179.298C408.813 179.982 407.749 179.906 407.369 179.222C407.027 180.096 406.685 180.933 406.304 181.807C407.255 181.427 408.053 181.389 408.965 181.883C410.942 182.947 412.729 179.944 410.752 178.842C409.079 177.93 407.179 177.701 405.392 178.424C404.328 178.842 403.719 179.944 404.328 181.009C406.038 183.974 410.524 183.974 412.273 181.085C411.17 180.781 410.106 180.476 409.003 180.21C409.193 182.795 405.848 183.442 405.24 180.819C404.708 178.576 401.324 179.526 401.819 181.731Z" fill="#292524"/>
<path d="M405.268 189.034C407.853 187.856 410.59 187.058 413.365 186.601C415.607 186.221 414.657 182.838 412.414 183.218C409.297 183.75 406.332 184.701 403.481 185.993C401.428 186.906 403.215 189.947 405.268 189.034Z" fill="#292524"/>
<path d="M316.163 392.789C324.526 350.897 342.887 311.629 380.559 288.782C385.082 286.045 380.939 278.936 376.415 281.711C336.956 305.66 316.999 346.602 308.256 390.622C307.229 395.754 315.136 397.959 316.163 392.789Z" fill="#292524"/>
<path d="M452.746 276.958C463.428 281.14 473.426 285.626 481.523 293.989C488.67 301.363 494.714 310.031 500.264 318.66C511.554 336.298 520.069 355.876 521.248 377.012C521.552 382.258 529.763 382.296 529.459 377.012C528.166 353.747 518.929 332.155 506.27 312.882C500.112 303.492 493.345 293.837 485.172 286.082C476.543 277.909 465.861 273.347 454.913 269.051C450.009 267.113 447.88 275.058 452.746 276.958Z" fill="#292524"/>
<path d="M274.872 491.282C277.038 473.15 280.232 455.169 284.451 437.416C287.758 423.465 292.434 400.961 310.263 399.288C327.711 397.653 335.466 418.257 339.344 431.562C344.361 448.783 347.973 466.345 350.482 484.098C351.204 489.306 359.111 487.101 358.389 481.931C355.462 461.099 351.546 439.507 344.171 419.74C338.621 404.838 326.457 388.948 308.552 391.305C290.419 393.662 282.398 412.175 278.407 427.761C273.009 448.63 269.283 469.918 266.698 491.32C266.052 496.49 274.225 496.452 274.872 491.282Z" fill="#292524"/>
<path d="M260.051 496.039C256.326 507.215 254.957 518.771 263.054 528.351C267.502 533.597 275.979 530.29 277.728 524.436C280.465 515.16 281.453 505.543 280.389 495.925C279.856 491.211 276.815 487.106 271.645 487.068C267.35 487.03 262.256 491.059 262.788 495.811C263.7 504.022 263.092 511.853 260.773 519.798C265.677 518.505 270.543 517.175 275.447 515.882C272.444 512.309 275.827 504.364 277.043 500.715C280.617 489.957 263.624 485.357 260.051 496.039Z" fill="#292524"/>
<path d="M345.628 485.547C343.575 494.367 343.879 503.49 347.186 511.967C350.189 519.684 361.594 521.053 364.141 512.005C366.802 502.578 365.661 493.188 361.404 484.445C359.313 480.187 353.231 479.047 349.391 481.328C345.02 483.875 344.183 489.083 346.274 493.34C348.441 497.788 348.555 502.616 347.224 507.33C352.888 507.33 358.553 507.368 364.179 507.368C361.974 501.703 361.214 496.077 362.62 490.147C365.129 479.161 348.175 474.485 345.628 485.547Z" fill="#292524"/>
<path d="M550.062 377.776C549.644 391.423 538.202 402.143 524.555 401.725C510.907 401.307 500.187 389.865 500.606 376.218C501.024 362.571 512.466 351.851 526.113 352.269C539.76 352.725 550.48 364.129 550.062 377.776Z" fill="#292524"/>
<path d="M540.705 377.553C539.185 397.244 509.42 396.408 509.952 376.488C510.18 368.087 517.555 361.359 525.88 361.625C534.547 361.891 540.591 369.189 540.705 377.553C540.743 379.795 544.24 379.833 544.202 377.553C544.05 367.289 536.448 358.393 525.842 358.127C515.578 357.861 506.682 366.186 506.416 376.488C506.15 386.79 514.475 395.609 524.777 395.913C535.421 396.218 543.442 387.778 544.202 377.553C544.393 375.31 540.895 375.31 540.705 377.553Z" fill="#57534E"/>
<path d="M239.492 547.543C240.975 532.109 243.332 516.827 246.525 501.659C246.981 499.455 243.598 498.504 243.142 500.709C239.872 516.181 237.516 531.805 235.995 547.543C235.767 549.785 239.302 549.785 239.492 547.543Z" fill="#292524"/>
<path d="M414.009 518.427C413.667 559.939 410.626 601.831 413.819 643.304C414.009 645.547 417.507 645.547 417.317 643.304C414.123 601.831 417.164 559.939 417.507 518.427C417.545 516.147 414.047 516.147 414.009 518.427Z" fill="#292524"/>
<path d="M326.872 301.367C330.179 357.209 345.195 411.836 370.93 461.52C371.539 462.737 373.325 462.585 373.971 461.52C379.712 452.093 386.668 443.73 394.879 436.393C396.552 434.872 394.081 432.401 392.408 433.922C383.969 441.487 376.822 450.116 370.93 459.772C371.957 459.772 372.945 459.772 373.971 459.772C348.54 410.657 333.676 356.601 330.369 301.405C330.255 299.124 326.758 299.086 326.872 301.367Z" fill="#292524"/>
<path d="M461.602 439.703C487.717 391.159 513.187 342.273 537.934 293.007C538.96 290.992 535.919 289.205 534.893 291.22C510.146 340.487 484.676 389.411 458.56 437.955C457.496 439.932 460.537 441.718 461.602 439.703Z" fill="#292524"/>
<path d="M386.494 443.388C385.848 451.371 384.822 459.316 383.263 467.185C382.237 472.355 381.438 475.776 384.442 480.3C393.413 493.871 403.373 506.872 412.838 520.139C413.751 521.431 415.499 521.165 416.069 519.721C417.096 517.022 418.122 514.361 419.149 511.662C419.947 509.533 416.564 508.62 415.765 510.711C414.739 513.41 413.712 516.071 412.686 518.77C413.75 518.618 414.815 518.504 415.917 518.352C407.364 506.34 398.811 494.327 390.258 482.315C388.091 479.273 385.658 476.574 385.886 472.659C386.076 469.39 387.179 466.083 387.711 462.851C388.813 456.389 389.573 449.889 390.106 443.35C390.22 441.145 386.684 441.145 386.494 443.388Z" fill="#292524"/>
<path d="M382.34 232.824C389.106 232.178 399.826 230.201 401.575 223.815C394.048 222.256 386.673 224.385 382.34 232.824Z" fill="#FB647A"/>
<path d="M401.657 220.128C401.277 218.417 400.098 216.82 398.388 216.364C394.814 215.376 393.826 218.189 389.264 218.949C378.506 220.736 368.509 216.136 366.798 225.716C365.962 230.201 370.713 232.216 374.515 232.9C376.073 233.167 377.708 233.205 379.267 233.129C380.141 233.091 381.205 233.014 382.384 232.9C386.717 224.461 394.092 222.333 401.619 223.891C401.885 222.713 401.923 221.496 401.657 220.128Z" fill="#292524"/>
<path d="M394.852 167.033C401.086 166.234 407.321 165.93 413.593 166.044C415.874 166.082 415.874 162.585 413.593 162.547C407.321 162.395 401.086 162.737 394.852 163.535C392.609 163.801 392.609 167.337 394.852 167.033Z" fill="#292524"/>
<path d="M260.924 195.192C301.717 195.192 334.786 175.382 334.786 150.944C334.786 126.506 301.717 106.695 260.924 106.695C220.131 106.695 187.062 126.506 187.062 150.944C187.062 175.382 220.131 195.192 260.924 195.192Z" fill="white"/>
<path d="M280.314 178.542C280.999 189.946 286.473 200.97 295.14 208.345C303.807 215.758 315.554 219.445 326.92 218.304C319.735 216.822 313.045 213.021 308.065 207.661C296.128 194.85 294.988 175.691 294.456 158.204L280.314 178.542Z" fill="white"/>
<path d="M217.326 141.896C229.3 141.896 241.275 141.896 253.211 141.896C255.492 141.896 255.492 138.398 253.211 138.398C241.237 138.398 229.262 138.398 217.326 138.398C215.045 138.398 215.045 141.896 217.326 141.896Z" fill="#57534E"/>
<path d="M267.577 141.896C282.326 141.896 297.114 141.896 311.863 141.896C314.144 141.896 314.144 138.398 311.863 138.398C297.114 138.398 282.326 138.398 267.577 138.398C265.334 138.398 265.334 141.896 267.577 141.896Z" fill="#57534E"/>
<path d="M218.502 156.269C236.445 156.269 254.388 156.269 272.369 156.269C274.611 156.269 274.649 152.771 272.369 152.771C254.426 152.771 236.483 152.771 218.502 152.771C216.26 152.771 216.26 156.269 218.502 156.269Z" fill="#57534E"/>
<path d="M121.907 135.247C122.401 134.639 122.705 134.297 122.857 134.106C122.439 134.639 120.842 136.577 120.576 136.881C120.614 136.843 120.652 136.767 120.728 136.653C120.766 136.577 120.804 136.539 120.88 136.463C120.918 136.425 120.918 136.425 120.956 136.387C120.994 136.349 121.032 136.311 121.07 136.235C121.184 136.083 121.336 135.893 121.527 135.665C121.603 135.589 121.679 135.475 121.755 135.399C121.831 135.399 121.869 135.323 121.907 135.247Z" fill="white" stroke="#292524" stroke-width="2.95426" stroke-miterlimit="10"/>
</svg>
