<svg width="926" height="600" viewBox="0 0 926 600" fill="none" xmlns="http://www.w3.org/2000/svg">
<path d="M378.825 5.19276C296.135 23.8678 258.299 78.0219 236.341 131.326C221.514 167.281 171.742 192.827 144.567 222.285C122.008 246.743 80.907 262.323 50.3157 297.938C32.4864 318.688 16.5339 364.984 19.837 391.075C23.1401 417.199 28.0197 434.003 44.0848 455.91C91.6421 520.779 156.503 528.195 250.154 521.187C286.45 518.466 287.126 516.119 323.46 514.316C380.139 511.493 445.225 513.67 490.117 527.583C535.009 541.461 578.4 549.387 625.62 545.339C672.839 541.291 721.147 512.581 728.241 470.095C730.493 456.556 728.541 442.508 732.295 429.241C739.802 402.776 768.441 385.496 797.269 377.366C825.232 369.474 860.065 360.426 881.986 342.805C916.481 315.048 927.216 276.916 925.114 246.301C919.333 161.804 877.819 104.487 802.373 89.3493C735.898 76.0149 677.081 84.4169 616.011 57.1018C584.969 43.2231 576.786 38.971 547.283 22.6091C504.606 -1.16831 421.24 -4.39987 378.825 5.19276Z" fill="#BFFBEE"/>
<path d="M854.055 395.087C831.722 393.114 803.908 408.693 792.61 422.64C778.534 439.989 773.392 462.371 775.043 483.836C775.381 488.02 775.982 492.34 778.534 495.843C783.564 502.817 794.9 504.177 803.27 500.776C826.054 491.591 831.985 462.745 846.548 446.384C856.157 435.566 888.438 425.43 878.528 409.578C872.673 400.223 863.89 395.937 854.055 395.087Z" fill="#BFFBEE"/>
<path d="M17.2077 275.384C32.7473 278.82 54.1424 269.805 63.7139 260.519C75.6126 248.987 81.806 232.931 83.0446 216.91C83.3074 213.814 83.3449 210.549 81.9561 207.759C79.1785 202.147 71.3336 200.174 65.0277 201.908C47.9116 206.671 40.442 227.421 28.3181 238.204C20.2856 245.347 -3.62444 249.94 1.55544 262.526C4.63334 269.907 10.3762 273.853 17.2077 275.384Z" fill="#BFFBEE"/>
<path d="M364.877 118.199C357.951 96.6361 379.106 64.1217 416.162 70.6041C444.039 75.4829 456.357 98.2055 499.247 99.1949C521.938 99.7067 545.038 89.8125 566.91 94.8961C598.95 102.3 610.995 142.661 643.069 149.894C654.397 152.453 666.476 150.338 678.179 151.122C712.778 153.477 739.939 182.989 743.249 214.923C744.306 225.158 743.419 235.906 747.616 245.322C755.362 262.756 778.018 270.535 787.572 287.117C796.819 303.22 791.223 324.271 779.144 339.42C755.259 369.443 706.398 379.542 672.583 361.46C654.977 352.043 641.192 336.144 621.333 331.504C599.393 326.352 575.815 336.383 553.227 334.063C536.917 332.391 521.801 323.964 512.759 311.477C494.88 286.776 500.646 249.143 476.249 229.833C461.646 218.267 437.726 214.821 431.516 197.864C426.262 183.637 367.948 161.392 364.877 118.199Z" fill="#292524"/>
<path d="M372.761 90.8023C381.701 78.1787 396.168 70.2633 411.523 68.8304C418.791 68.148 426.161 68.8986 433.087 71.2527C440.901 73.9139 447.248 78.9975 454.208 83.2623C460.384 87.0494 467.038 89.7788 474.442 89.4376C482.666 89.0282 490.309 85.514 497.611 81.9999C515.286 73.5045 533.779 66.4421 553.774 67.568C571.791 68.6256 587.896 76.4387 599.258 90.4611C604.786 97.2506 609.563 104.757 616.182 110.591C621.608 115.367 628.057 118.984 634.983 121.167C642.251 123.487 649.997 124.17 657.537 123.112C666.784 121.816 675.997 117.619 685.449 119.325C699.95 121.918 709.163 136.009 720.048 144.606C726.019 149.349 733.287 153.477 741.169 152.965C747.515 152.522 753.418 148.462 755.295 142.218C756.899 136.896 754.885 131.198 749.563 129.083C744.888 127.206 739.292 128.503 737.108 133.279C736.289 135.087 738.951 136.691 739.804 134.849C741.373 131.403 745.263 130.686 748.539 132.085C754.203 134.507 753.452 141.604 749.904 145.63C743.284 153.102 732.434 149.451 725.371 144.709C714.588 137.442 707.013 126.046 695.48 119.734C681.32 111.99 668.251 119.53 653.545 120.417C636.758 121.44 621.71 113.593 611.201 100.833C605.946 94.4871 601.476 87.4588 595.539 81.6928C590.557 76.8481 584.654 72.9927 578.308 70.1951C565.069 64.3609 550.362 63.1668 536.168 65.3162C518.868 67.9433 504.503 76.0975 488.603 82.614C479.697 86.2646 470.45 87.7999 461.442 83.6034C454.516 80.3963 448.681 75.3469 441.993 71.6963C417.767 58.5267 385.864 66.9197 370.099 89.1647C368.905 90.8706 371.601 92.44 372.761 90.8023Z" fill="#292524"/>
<path d="M674.999 596.819C674.999 618.056 701.007 525.77 703.191 520.447C710.185 503.627 715.747 486.227 719.842 468.52C723.561 452.45 750.244 488.001 751.541 471.044C755.772 415.057 719.125 306.152 663.815 278.244C659.004 275.821 641.499 266.951 612.496 263.914C602.055 262.822 590.147 262.481 576.771 263.471C550.088 265.45 517.707 272.717 479.969 289.844C473.315 287.387 468.368 285.545 467.208 285.17C436.191 275.651 403.844 269.339 371.327 270.124C362.114 270.328 352.765 271.181 343.484 272.683C325.502 275.548 307.725 280.871 291.551 288.923C266.813 301.239 245.794 319.902 233.408 345.9C204.166 407.21 234.416 534.861 250.999 596.819L343.484 582.319L674.999 596.819Z" fill="#0C5E59"/>
<path d="M551.829 262.926L468.641 169.341C479.765 168.829 489.558 160.743 491.98 149.143C494.846 135.359 486.214 121.814 472.702 118.914C459.19 115.98 445.916 124.817 443.084 138.566C442.982 139.112 442.88 139.692 442.811 140.238L440.764 137.952L399.716 91.5176C399.716 91.5176 393.097 103.357 386.238 121.917C372.726 158.559 358.327 221.405 392.517 270.773L427.832 236.894C427.832 236.894 440.423 280.668 452.877 323.69C464.547 363.949 512.18 379.712 544.766 354.089C545.209 353.748 545.619 353.407 546.062 353.066C573.018 331.742 574.69 288.788 551.829 262.926Z" fill="#FDB468"/>
<path d="M462.465 154.602C467.173 146.584 471.916 138.566 476.796 130.651C477.853 128.945 475.158 127.376 474.1 129.082C469.221 136.997 464.512 145.015 459.769 153.032C458.745 154.738 461.441 156.308 462.465 154.602Z" fill="#292524"/>
<path d="M426.023 238.905L453.866 325.36L452.16 210.109L426.023 238.905Z" fill="#292524"/>
<path d="M129.681 441.432C246.614 372.923 236.003 310.009 257.977 282.101C268.827 268.283 274.628 262.381 301.686 266.236C323.251 244.912 335.193 228.706 353.448 199.467C354.813 197.318 356.656 194.588 361.74 192.439C370.065 188.925 373.955 199.672 371.089 208.27C362.729 233.415 346.18 256.854 331.645 272.65C348.876 265.758 367.097 286.093 373.341 292.916C379.585 299.74 388.388 322.292 377.333 346.004C357.44 388.719 309.159 495.099 201.745 546.447C105.659 592.37 62.1546 470.159 129.681 441.432Z" fill="#FDB468"/>
<path d="M286.059 414.476C302.676 407.175 314.107 387.932 316.529 370.395C318.952 352.825 319.361 329.693 303.017 318.502C302.505 319.389 301.959 320.31 301.448 321.197C312.059 327.68 322.944 333.548 334.204 338.836C334.034 338.12 333.829 337.403 333.658 336.687C330.178 342.692 323.49 346.717 321.682 353.712C320.521 358.215 321.75 363.196 326.22 365.312C331.099 367.598 335.876 365.312 339.902 362.48C345.771 358.318 349.388 354.326 352.8 348.014C356.008 342.043 359.386 335.595 358.567 328.601C357.953 323.244 354.575 318.707 350.992 314.885C340.414 303.695 326.868 298.099 312.366 293.869C310.422 293.323 309.603 296.325 311.548 296.871C322.193 299.976 332.225 303.524 341.131 310.314C349.866 316.967 358.294 325.53 354.438 337.301C351.162 347.297 344.918 356.578 335.569 361.695C332.396 363.435 327.414 364.015 325.162 360.296C323.183 356.987 325.162 352.518 327.175 349.72C330.041 345.694 333.897 342.623 336.422 338.29C336.831 337.608 336.627 336.516 335.876 336.141C324.65 330.853 313.731 324.984 303.12 318.502C301.379 317.444 299.912 320.071 301.55 321.197C308.988 326.281 312.947 334.708 313.97 343.476C315.028 352.483 314.857 362.855 313.288 371.794C310.456 387.83 299.878 405.059 284.592 411.746C282.647 412.565 284.25 415.261 286.059 414.476Z" fill="#292524"/>
<path d="M350.174 347.951C357.34 354.911 368.327 352.625 373.888 344.846C380.917 335.054 378.017 321.884 373.411 311.786C368.838 301.755 361.4 293.089 352.392 286.709C347.786 283.468 342.736 280.841 337.413 278.964C333.83 277.668 327.927 275.075 324.31 277.326C322.604 278.384 324.174 281.079 325.88 280.022C328.575 278.35 335.263 281.421 337.993 282.478C342.053 284.048 345.943 286.129 349.594 288.551C356.418 293.123 362.355 299.162 366.791 306.088C371.534 313.526 375.39 322.84 374.98 331.813C374.503 342.56 362.731 355.764 352.392 345.699C350.925 344.334 348.741 346.552 350.174 347.951Z" fill="#292524"/>
<path d="M302.266 266.166C313.355 267.633 324.308 269.715 335.159 272.376C337.104 272.854 337.957 269.851 335.978 269.373C324.854 266.644 313.594 264.563 302.232 263.028C300.287 262.755 300.287 265.893 302.266 266.166Z" fill="#292524"/>
<path d="M330.792 363.267C333.624 357.535 339.152 353.918 345.567 353.782C347.58 353.748 347.58 350.609 345.567 350.643C338.128 350.779 331.372 354.976 328.097 361.663C327.21 363.505 329.905 365.075 330.792 363.267Z" fill="#292524"/>
<path d="M352.697 347.846C357.542 344.298 363.206 346.175 368.222 348.256C370.064 349.041 370.883 346.004 369.041 345.254C363.274 342.831 356.587 341.125 351.093 345.151C349.523 346.311 351.059 349.041 352.697 347.846Z" fill="#292524"/>
<path d="M272.068 439.11C275.003 436.654 277.937 434.197 280.872 431.741C282.407 430.444 280.189 428.261 278.654 429.523C275.719 431.98 272.785 434.436 269.85 436.893C268.315 438.223 270.533 440.407 272.068 439.11Z" fill="#292524"/>
<path d="M276.81 445.968C280.632 442.829 284.454 439.691 288.275 436.586C289.845 435.323 287.627 433.106 286.057 434.368C282.236 437.507 278.414 440.646 274.593 443.751C273.057 445.047 275.275 447.231 276.81 445.968Z" fill="#292524"/>
<path d="M349.695 213.18C358.225 210.963 364.196 202.911 363.787 194.108C363.684 192.095 360.579 192.095 360.682 194.108C361.023 201.58 356.144 208.301 348.876 210.178C346.931 210.656 347.75 213.658 349.695 213.18Z" fill="#292524"/>
<path d="M270.6 294.314C272.545 292.54 274.695 291.039 276.981 289.776C278.721 288.787 277.152 286.092 275.412 287.081C272.887 288.48 270.566 290.186 268.417 292.13C266.915 293.461 269.099 295.645 270.6 294.314Z" fill="#292524"/>
<path d="M290.357 280.155C293.121 277.732 296.124 275.719 299.4 274.082C301.174 273.16 299.604 270.465 297.83 271.386C294.315 273.16 291.108 275.378 288.174 277.971C286.638 279.268 288.822 281.485 290.357 280.155Z" fill="#292524"/>
<path d="M372.283 106.497C370.133 99.9463 366.243 92.611 358.532 91.8945C352.561 91.3486 347.886 95.1698 347.511 101.175C347.272 104.859 348.569 108.408 348.807 112.024C349.012 115.368 348.603 118.507 344.849 119.905C342.256 120.895 339.697 119.905 337.172 119.428C328.13 117.722 330.826 126.422 329.631 131.949C330.143 131.574 330.621 131.198 331.133 130.789C327.72 130.482 324.752 131.164 321.715 132.802C319.941 133.757 321.51 136.453 323.285 135.497C325.878 134.064 328.164 133.655 331.098 133.894C331.747 133.962 332.463 133.382 332.6 132.734C333.078 130.516 331.917 125.501 332.975 123.829C334.715 121.099 339.868 123.488 342.495 123.385C346.76 123.215 350.479 120.792 351.605 116.562C352.97 111.376 350.002 106.258 350.582 101.106C351.128 95.9887 355.836 93.8392 360.443 95.4087C365.39 97.1146 367.745 102.744 369.212 107.248C369.894 109.226 372.897 108.408 372.283 106.497Z" fill="#292524"/>
<path d="M312.638 215.841L306.94 218.946C303.494 221.539 303.938 222.357 303.153 226.588L301.174 239.212C301.105 239.621 300.491 239.621 300.423 239.212L298.478 226.69C297.693 222.46 297.762 221.539 294.349 218.946L288.958 215.841C288.754 215.67 288.754 215.363 288.958 215.227L295.032 212.327C298.444 209.734 298.239 208.028 299.024 203.831L300.423 191.924C300.491 191.515 301.105 191.515 301.174 191.924L302.811 204.275C303.562 208.437 304.006 210.177 307.35 212.77L312.638 215.227C312.843 215.397 312.843 215.704 312.638 215.841Z" fill="#FB8B30"/>
<path d="M345.054 171.764L339.356 174.869C335.91 177.461 336.354 178.28 335.569 182.511L333.59 195.135C333.521 195.544 332.907 195.544 332.839 195.135L330.894 182.613C330.109 178.383 330.178 177.461 326.765 174.869L321.374 171.764C321.17 171.593 321.17 171.286 321.374 171.15L327.448 168.25C330.86 165.657 330.655 163.951 331.44 159.754L332.839 147.847C332.907 147.438 333.521 147.438 333.59 147.847L335.228 160.198C335.978 164.394 336.422 166.1 339.766 168.693L345.054 171.15C345.259 171.286 345.259 171.593 345.054 171.764Z" fill="#FB8B30"/>
<path d="M542.718 184.832L536.133 188.414C532.141 191.382 532.652 192.372 531.765 197.285L529.479 211.887C529.377 212.365 528.694 212.365 528.592 211.887L526.34 197.387C525.419 192.508 525.521 191.416 521.563 188.448L515.353 184.866C515.114 184.695 515.114 184.32 515.353 184.149L522.382 180.772C526.306 177.769 526.101 175.79 526.988 170.946L528.626 157.162C528.729 156.684 529.411 156.684 529.513 157.162L531.424 171.457C532.311 176.302 532.789 178.315 536.679 181.317L542.787 184.183C542.957 184.32 542.957 184.661 542.718 184.832Z" fill="#FB8B30"/>
<path d="M400.399 168.452C405.892 159.821 416.197 155.658 426.126 158.012C428.071 158.49 428.924 155.453 426.945 155.01C415.583 152.28 403.947 157.023 397.669 166.883C396.611 168.589 399.307 170.158 400.399 168.452Z" fill="#292524"/>
<path d="M397.942 123.351C404.698 121.474 411.42 122.6 417.221 126.49C418.893 127.615 420.462 124.92 418.79 123.794C412.342 119.461 404.596 118.233 397.089 120.348C395.179 120.894 395.997 123.897 397.942 123.351Z" fill="#292524"/>
<path d="M368.596 199.809C368.698 212.433 370.916 225.023 374.465 237.1C377.706 248.155 382.04 259.584 389.001 268.898C390.331 270.672 391.321 272.856 393.641 271.969C395.313 271.321 397.019 269.001 398.282 267.807C404.765 261.699 411.145 255.49 417.628 249.417C425.34 242.184 433.017 234.712 441.513 228.4C443.117 227.206 441.547 224.511 439.944 225.705C423.634 237.783 409.644 252.999 394.801 266.783C394.119 267.431 393.129 268.694 392.242 269.103C391.116 269.615 393.368 269.342 392.89 268.83C391.935 267.772 391.082 266.51 390.263 265.35C386.066 259.209 382.961 252.317 380.436 245.323C375.147 230.823 371.837 215.299 371.701 199.809C371.701 197.831 368.562 197.796 368.596 199.809Z" fill="#292524"/>
<path d="M410.328 438.838C411.761 444.809 414.013 452.383 420.394 454.772C427.354 457.399 433.496 452.076 438.034 447.436C437.147 447.061 436.26 446.686 435.373 446.344C435.339 459.65 453.491 462.039 456.869 449.176C455.88 449.176 454.856 449.176 453.867 449.176C455.607 455.42 461.373 458.934 467.72 457.91C469.699 457.603 468.846 454.601 466.901 454.908C462.26 455.659 458.132 452.827 456.869 448.357C456.46 446.89 454.242 446.856 453.867 448.357C451.41 457.637 438.478 456.034 438.512 446.379C438.512 445.048 436.806 444.297 435.851 445.287C431.688 449.517 425.068 455.488 419.131 450.473C415.617 447.539 414.388 442.284 413.365 438.054C412.887 436.075 409.884 436.894 410.328 438.838Z" fill="#0C5E59"/>
<path d="M378.324 203.287C399.923 200.319 420.976 194.144 440.459 185.068C435.273 195.781 430.018 206.563 422.204 215.843C414.39 225.089 403.642 232.765 391.086 234.949L378.324 203.287Z" fill="white"/>
<path d="M385.318 221.471C402.447 216.114 419.473 210.144 434.589 200.284C436.261 199.192 434.691 196.497 433.019 197.588C418.108 207.312 401.355 213.146 384.499 218.469C382.554 219.049 383.373 222.085 385.318 221.471Z" fill="#292524"/>
<path d="M569.881 471.453C548.487 453.882 470.997 386.567 442.711 326.588C441.312 323.62 436.91 323.961 436.023 327.134C433.873 334.878 431.723 344.397 430.12 349.276C427.492 357.294 418.143 364.834 410.602 358.522C407.361 355.793 405.825 351.596 406.235 347.434C409.033 319.048 408.794 306.833 426.298 296.598C423.705 294.858 424.592 290.866 426.162 288.205C431.894 278.55 448.716 263.845 459.839 261.729C465.947 260.569 476.422 260.638 486.147 262.207C489.593 262.753 495.019 259.375 492.494 257.021C412.65 182.405 448.784 176.912 455.54 184.316C483.247 214.715 523.544 251.255 531.46 257.704C550.807 273.568 575.101 299.259 622.837 341.19C631.128 348.457 701.896 388.273 736.973 425.189C753.897 442.998 759.186 480.699 735.847 511.439C722.232 529.351 663.817 548.627 569.881 471.453Z" fill="#FDB468"/>
<path d="M426.742 298.102C436.398 294.86 444.69 300.763 451.855 306.563C458.646 312.056 464.446 318.607 469.223 325.874C470.315 327.545 473.045 325.976 471.919 324.304C466.289 315.741 459.328 308.235 451.105 302.093C443.598 296.464 435.443 291.892 425.889 295.099C424.012 295.713 424.831 298.716 426.742 298.102Z" fill="#292524"/>
<path d="M439.673 276.437C448.34 273.23 458.986 274.765 466.97 279.235C475.603 284.08 481.71 292.575 487.067 300.661C488.193 302.333 490.889 300.763 489.763 299.091C483.86 290.255 477.036 280.77 467.277 275.891C458.747 271.627 447.93 270.091 438.854 273.435C436.977 274.117 437.796 277.154 439.673 276.437Z" fill="#292524"/>
<path d="M485.395 263.54C495.7 268.623 505.425 276.573 512.897 285.273C514.194 286.808 516.412 284.59 515.115 283.055C507.506 274.184 497.474 265.996 486.965 260.81C485.156 259.957 483.587 262.653 485.395 263.54Z" fill="#292524"/>
<path d="M534.804 277.255C537.807 274.286 540.776 271.318 543.778 268.35C545.211 266.917 542.993 264.733 541.56 266.132C538.558 269.1 535.589 272.069 532.586 275.037C531.153 276.47 533.371 278.653 534.804 277.255Z" fill="#292524"/>
<path d="M504.777 310.482C507.848 306.422 511.943 303.385 516.617 301.406C518.46 300.622 516.856 297.926 515.048 298.711C509.827 300.929 505.494 304.409 502.082 308.912C500.887 310.516 503.583 312.085 504.777 310.482Z" fill="#292524"/>
<path d="M481.915 333.653C483.451 330.514 485.771 328.023 488.808 326.283C490.548 325.294 488.978 322.598 487.238 323.588C483.792 325.567 480.994 328.501 479.254 332.083C478.332 333.857 481.028 335.461 481.915 333.653Z" fill="#292524"/>
<path d="M406.815 336.21C409.613 341.976 410.466 348.219 409.272 354.531C408.897 356.51 411.9 357.329 412.275 355.35C413.64 348.185 412.718 341.225 409.511 334.64C408.624 332.832 405.928 334.402 406.815 336.21Z" fill="#292524"/>
<path d="M570.972 470.363C542.139 446.651 514.91 420.585 490.309 392.472C474.613 374.526 459.736 355.42 448.374 334.369C446.736 331.367 445.132 325.396 441.959 323.622C438.956 321.95 436.022 323.622 434.657 326.351C429.778 336.143 432.371 354.772 419.302 358.9C412.922 360.913 407.974 354.908 407.735 348.971C407.599 345.764 408.281 342.387 408.588 339.214C409.168 333.209 409.68 327.17 410.84 321.268C412.922 310.793 417.869 303.458 427.082 297.931C427.935 297.419 428.14 296.191 427.389 295.474C422.169 290.459 435.954 278.518 439.229 275.584C444.518 270.875 450.762 266.031 457.587 263.881C466.322 261.152 477.138 262.926 486.112 263.745C487.613 263.881 487.989 262.005 487.204 261.084C475.773 247.163 464.547 232.936 454.789 217.788C449.807 210.009 444.586 201.718 442.027 192.745C440.253 186.468 441.243 180.019 449.09 182.408C453.424 183.704 455.608 186.843 458.678 190.084C470.996 203.288 483.894 216.014 496.963 228.467C513.17 243.888 530.333 258.184 546.746 273.366C570.938 295.713 594.618 318.504 619.322 340.271C625.395 345.628 632.39 349.756 639.214 354.089C650.986 361.595 662.758 369.169 674.325 377.016C688.417 386.569 702.236 396.532 715.339 407.416C726.497 416.696 738.883 426.59 744.786 440.203C751.576 455.897 751.303 474.15 745.605 490.117C742.09 499.943 736.631 510.622 727.759 516.695C714.213 525.907 696.265 527.135 680.467 525.293C650.372 521.813 622.222 507.142 597.518 490.356C588.442 484.113 579.57 477.391 570.972 470.363C569.436 469.101 567.218 471.284 568.754 472.581C596.494 495.269 627.852 516.15 662.963 525.157C681.695 529.967 702.816 531.503 721.037 523.826C741.92 515.024 751.917 490.834 752.975 469.306C753.691 454.567 749.972 438.872 740.691 427.136C730.796 414.614 717.045 404.379 704.454 394.758C680.638 376.539 655.115 360.981 630.138 344.468C617.616 336.211 606.901 325.021 595.88 314.956C583.324 303.458 570.972 291.756 558.586 280.087C541.662 264.154 523.816 249.313 506.824 233.414C493.039 220.517 479.527 207.382 466.458 193.735C461.92 188.992 457.86 182.476 451.513 179.917C445.644 177.529 438.547 178.723 437.967 186.126C437.523 192.234 440.594 198.648 443.222 203.97C449.397 216.491 457.655 228.023 465.98 239.18C472.122 247.368 478.469 255.352 484.986 263.267C485.361 262.38 485.737 261.493 486.078 260.606C473.794 259.48 460.658 257.774 449.5 264.12C441.993 268.385 435.135 274.355 429.505 280.906C425.888 285.103 419.746 292.54 425.103 297.692C425.205 296.873 425.308 296.054 425.41 295.236C418.484 299.398 412.922 304.789 409.953 312.431C406.336 321.814 405.995 332.458 405.04 342.387C404.528 347.743 403.914 352.759 407.258 357.33C410.226 361.39 415.106 363.403 419.985 361.902C430.563 358.695 432.507 346.413 434.828 337.303C435.305 335.461 436.807 324.543 441.208 327.409C442.641 328.33 444.04 333.141 444.893 334.744C447.794 340.203 450.967 345.56 454.311 350.746C460.93 361.049 468.267 370.909 475.978 380.462C491.367 399.534 508.325 417.378 525.932 434.369C539.682 447.607 553.843 460.469 568.583 472.581C570.323 473.843 572.541 471.626 570.972 470.363Z" fill="#292524"/>
<path d="M377.811 149.075C371.703 164.19 366.414 180.532 363.412 196.533C363.139 197.966 364.435 198.853 365.698 198.308C371.601 195.783 377.47 193.258 383.373 190.733C385.215 189.949 383.612 187.253 381.803 188.038C375.9 190.563 370.031 193.088 364.128 195.612C364.879 196.192 365.664 196.772 366.414 197.386C369.451 181.385 374.74 165.043 380.814 149.928C381.564 148.018 378.562 147.233 377.811 149.075Z" fill="#292524"/>
<path d="M442.674 182.031C444.96 190.833 454.104 194.825 462.566 194.893C464.58 194.893 464.58 191.789 462.566 191.789C455.469 191.754 447.621 188.684 445.676 181.246C445.165 179.267 442.162 180.086 442.674 182.031Z" fill="#292524"/>
<path d="M397.566 160.575C398.999 161.428 400.228 162.486 401.251 163.816C401.763 164.465 402.923 164.362 403.469 163.816C404.118 163.168 403.981 162.281 403.469 161.599C402.275 160.097 400.808 158.835 399.136 157.88C397.396 156.89 395.826 159.586 397.566 160.575Z" fill="#292524"/>
<path d="M407.461 153.235C407.836 154.43 408.211 155.59 408.587 156.784C409.201 158.694 412.204 157.875 411.589 155.965C411.214 154.771 410.839 153.611 410.463 152.417C409.883 150.506 406.881 151.325 407.461 153.235Z" fill="#292524"/>
<path d="M421.997 154.604C421.997 153.171 421.997 151.738 421.997 150.339C421.997 148.326 418.857 148.326 418.857 150.339C418.857 151.772 418.857 153.205 418.857 154.604C418.892 156.582 421.997 156.617 421.997 154.604Z" fill="#292524"/>
<path d="M364.877 118.199C357.951 96.6361 379.106 64.1217 416.162 70.6041C444.039 75.4829 456.357 98.2055 499.247 99.1949C521.938 99.7067 545.038 89.8125 566.91 94.8961C598.95 102.3 610.995 142.661 643.069 149.894C654.397 152.453 666.476 150.338 678.179 151.122C712.778 153.477 739.939 182.989 743.249 214.923C744.306 225.158 743.419 235.906 747.616 245.322C755.362 262.756 778.018 270.535 787.572 287.117C796.819 303.22 791.223 324.271 779.144 339.42C755.259 369.443 706.398 379.542 672.583 361.46C654.977 352.043 641.192 336.144 621.333 331.504C599.393 326.352 575.815 336.383 553.227 334.063C536.917 332.391 521.801 323.964 512.759 311.477C494.88 286.776 500.646 249.143 476.249 229.833C461.646 218.267 437.726 214.821 431.516 197.864C426.262 183.637 367.948 161.392 364.877 118.199Z" fill="#292524"/>
<path d="M372.761 90.8023C381.701 78.1787 396.168 70.2633 411.523 68.8304C418.791 68.148 426.161 68.8986 433.087 71.2527C440.901 73.9139 447.248 78.9975 454.208 83.2623C460.384 87.0494 467.038 89.7788 474.442 89.4376C482.666 89.0282 490.309 85.514 497.611 81.9999C515.286 73.5045 533.779 66.4421 553.774 67.568C571.791 68.6256 587.896 76.4387 599.258 90.4611C604.786 97.2506 609.563 104.757 616.182 110.591C621.608 115.367 628.057 118.984 634.983 121.167C642.251 123.487 649.997 124.17 657.537 123.112C666.784 121.816 675.997 117.619 685.449 119.325C699.95 121.918 709.163 136.009 720.048 144.606C726.019 149.349 733.287 153.477 741.169 152.965C747.515 152.522 753.418 148.462 755.295 142.218C756.899 136.896 754.885 131.198 749.563 129.083C744.888 127.206 739.292 128.503 737.108 133.279C736.289 135.087 738.951 136.691 739.804 134.849C741.373 131.403 745.263 130.686 748.539 132.085C754.203 134.507 753.452 141.604 749.904 145.63C743.284 153.102 732.434 149.451 725.371 144.709C714.588 137.442 707.013 126.046 695.48 119.734C681.32 111.99 668.251 119.53 653.545 120.417C636.758 121.44 621.71 113.593 611.201 100.833C605.946 94.4871 601.476 87.4588 595.539 81.6928C590.557 76.8481 584.654 72.9927 578.308 70.1951C565.069 64.3609 550.362 63.1668 536.168 65.3162C518.868 67.9433 504.503 76.0975 488.603 82.614C479.697 86.2646 470.45 87.7999 461.442 83.6034C454.516 80.3963 448.681 75.3469 441.993 71.6963C417.767 58.5267 385.864 66.9197 370.099 89.1647C368.905 90.8706 371.601 92.44 372.761 90.8023Z" fill="#292524"/>
<path d="M674.999 596.819C674.999 618.056 701.007 525.77 703.191 520.447C710.185 503.627 715.747 486.227 719.842 468.52C723.561 452.45 750.244 488.001 751.541 471.044C755.772 415.057 719.125 306.152 663.815 278.244C659.004 275.821 641.499 266.951 612.496 263.914C602.055 262.822 590.147 262.481 576.771 263.471C550.088 265.45 517.707 272.717 479.969 289.844C473.315 287.387 468.368 285.545 467.208 285.17C436.191 275.651 403.844 269.339 371.327 270.124C362.114 270.328 352.765 271.181 343.484 272.683C325.502 275.548 307.725 280.871 291.551 288.923C266.813 301.239 245.794 319.902 233.408 345.9C204.166 407.21 234.416 534.861 250.999 596.819L343.484 582.319L674.999 596.819Z" fill="#0C5E59"/>
<path d="M551.829 262.926L468.641 169.341C479.765 168.829 489.558 160.743 491.98 149.143C494.846 135.359 486.214 121.814 472.702 118.914C459.19 115.98 445.916 124.817 443.084 138.566C442.982 139.112 442.88 139.692 442.811 140.238L440.764 137.952L399.716 91.5176C399.716 91.5176 393.097 103.357 386.238 121.917C372.726 158.559 358.327 221.405 392.517 270.773L427.832 236.894C427.832 236.894 440.423 280.668 452.877 323.69C464.547 363.949 512.18 379.712 544.766 354.089C545.209 353.748 545.619 353.407 546.062 353.066C573.018 331.742 574.69 288.788 551.829 262.926Z" fill="#FDB468"/>
<path d="M462.465 154.602C467.173 146.584 471.916 138.566 476.796 130.651C477.853 128.945 475.158 127.376 474.1 129.082C469.221 136.997 464.512 145.015 459.769 153.032C458.745 154.738 461.441 156.308 462.465 154.602Z" fill="#292524"/>
<path d="M426.023 238.905L453.866 325.36L452.16 210.109L426.023 238.905Z" fill="#292524"/>
<path d="M129.681 441.432C246.614 372.923 236.003 310.009 257.977 282.101C268.827 268.283 274.628 262.381 301.686 266.236C323.251 244.912 335.193 228.706 353.448 199.467C354.813 197.318 356.656 194.588 361.74 192.439C370.065 188.925 373.955 199.672 371.089 208.27C362.729 233.415 346.18 256.854 331.645 272.65C348.876 265.758 367.097 286.093 373.341 292.916C379.585 299.74 388.388 322.292 377.333 346.004C357.44 388.719 309.159 495.099 201.745 546.447C105.659 592.37 62.1546 470.159 129.681 441.432Z" fill="#FDB468"/>
<path d="M286.059 414.476C302.676 407.175 314.107 387.932 316.529 370.395C318.952 352.825 319.361 329.693 303.017 318.502C302.505 319.389 301.959 320.31 301.448 321.197C312.059 327.68 322.944 333.548 334.204 338.836C334.034 338.12 333.829 337.403 333.658 336.687C330.178 342.692 323.49 346.717 321.682 353.712C320.521 358.215 321.75 363.196 326.22 365.312C331.099 367.598 335.876 365.312 339.902 362.48C345.771 358.318 349.388 354.326 352.8 348.014C356.008 342.043 359.386 335.595 358.567 328.601C357.953 323.244 354.575 318.707 350.992 314.885C340.414 303.695 326.868 298.099 312.366 293.869C310.422 293.323 309.603 296.325 311.548 296.871C322.193 299.976 332.225 303.524 341.131 310.314C349.866 316.967 358.294 325.53 354.438 337.301C351.162 347.297 344.918 356.578 335.569 361.695C332.396 363.435 327.414 364.015 325.162 360.296C323.183 356.987 325.162 352.518 327.175 349.72C330.041 345.694 333.897 342.623 336.422 338.29C336.831 337.608 336.627 336.516 335.876 336.141C324.65 330.853 313.731 324.984 303.12 318.502C301.379 317.444 299.912 320.071 301.55 321.197C308.988 326.281 312.947 334.708 313.97 343.476C315.028 352.483 314.857 362.855 313.288 371.794C310.456 387.83 299.878 405.059 284.592 411.746C282.647 412.565 284.25 415.261 286.059 414.476Z" fill="#292524"/>
<path d="M350.174 347.951C357.34 354.911 368.327 352.625 373.888 344.846C380.917 335.054 378.017 321.884 373.411 311.786C368.838 301.755 361.4 293.089 352.392 286.709C347.786 283.468 342.736 280.841 337.413 278.964C333.83 277.668 327.927 275.075 324.31 277.326C322.604 278.384 324.174 281.079 325.88 280.022C328.575 278.35 335.263 281.421 337.993 282.478C342.053 284.048 345.943 286.129 349.594 288.551C356.418 293.123 362.355 299.162 366.791 306.088C371.534 313.526 375.39 322.84 374.98 331.813C374.503 342.56 362.731 355.764 352.392 345.699C350.925 344.334 348.741 346.552 350.174 347.951Z" fill="#292524"/>
<path d="M302.266 266.166C313.355 267.633 324.308 269.715 335.159 272.376C337.104 272.854 337.957 269.851 335.978 269.373C324.854 266.644 313.594 264.563 302.232 263.028C300.287 262.755 300.287 265.893 302.266 266.166Z" fill="#292524"/>
<path d="M330.792 363.267C333.624 357.535 339.152 353.918 345.567 353.782C347.58 353.748 347.58 350.609 345.567 350.643C338.128 350.779 331.372 354.976 328.097 361.663C327.21 363.505 329.905 365.075 330.792 363.267Z" fill="#292524"/>
<path d="M352.697 347.846C357.542 344.298 363.206 346.175 368.222 348.256C370.064 349.041 370.883 346.004 369.041 345.254C363.274 342.831 356.587 341.125 351.093 345.151C349.523 346.311 351.059 349.041 352.697 347.846Z" fill="#292524"/>
<path d="M272.068 439.11C275.003 436.654 277.937 434.197 280.872 431.741C282.407 430.444 280.189 428.261 278.654 429.523C275.719 431.98 272.785 434.436 269.85 436.893C268.315 438.223 270.533 440.407 272.068 439.11Z" fill="#292524"/>
<path d="M276.81 445.968C280.632 442.829 284.454 439.691 288.275 436.586C289.845 435.323 287.627 433.106 286.057 434.368C282.236 437.507 278.414 440.646 274.593 443.751C273.057 445.047 275.275 447.231 276.81 445.968Z" fill="#292524"/>
<path d="M349.695 213.18C358.225 210.963 364.196 202.911 363.787 194.108C363.684 192.095 360.579 192.095 360.682 194.108C361.023 201.58 356.144 208.301 348.876 210.178C346.931 210.656 347.75 213.658 349.695 213.18Z" fill="#292524"/>
<path d="M270.6 294.314C272.545 292.54 274.695 291.039 276.981 289.776C278.721 288.787 277.152 286.092 275.412 287.081C272.887 288.48 270.566 290.186 268.417 292.13C266.915 293.461 269.099 295.645 270.6 294.314Z" fill="#292524"/>
<path d="M290.357 280.155C293.121 277.732 296.124 275.719 299.4 274.082C301.174 273.16 299.604 270.465 297.83 271.386C294.315 273.16 291.108 275.378 288.174 277.971C286.638 279.268 288.822 281.485 290.357 280.155Z" fill="#292524"/>
<path d="M372.283 106.497C370.133 99.9463 366.243 92.611 358.532 91.8945C352.561 91.3486 347.886 95.1698 347.511 101.175C347.272 104.859 348.569 108.408 348.807 112.024C349.012 115.368 348.603 118.507 344.849 119.905C342.256 120.895 339.697 119.905 337.172 119.428C328.13 117.722 330.826 126.422 329.631 131.949C330.143 131.574 330.621 131.198 331.133 130.789C327.72 130.482 324.752 131.164 321.715 132.802C319.941 133.757 321.51 136.453 323.285 135.497C325.878 134.064 328.164 133.655 331.098 133.894C331.747 133.962 332.463 133.382 332.6 132.734C333.078 130.516 331.917 125.501 332.975 123.829C334.715 121.099 339.868 123.488 342.495 123.385C346.76 123.215 350.479 120.792 351.605 116.562C352.97 111.376 350.002 106.258 350.582 101.106C351.128 95.9887 355.836 93.8392 360.443 95.4087C365.39 97.1146 367.745 102.744 369.212 107.248C369.894 109.226 372.897 108.408 372.283 106.497Z" fill="#292524"/>
<path d="M312.638 215.841L306.94 218.946C303.494 221.539 303.938 222.357 303.153 226.588L301.174 239.212C301.105 239.621 300.491 239.621 300.423 239.212L298.478 226.69C297.693 222.46 297.762 221.539 294.349 218.946L288.958 215.841C288.754 215.67 288.754 215.363 288.958 215.227L295.032 212.327C298.444 209.734 298.239 208.028 299.024 203.831L300.423 191.924C300.491 191.515 301.105 191.515 301.174 191.924L302.811 204.275C303.562 208.437 304.006 210.177 307.35 212.77L312.638 215.227C312.843 215.397 312.843 215.704 312.638 215.841Z" fill="#FB8B30"/>
<path d="M345.054 171.764L339.356 174.869C335.91 177.461 336.354 178.28 335.569 182.511L333.59 195.135C333.521 195.544 332.907 195.544 332.839 195.135L330.894 182.613C330.109 178.383 330.178 177.461 326.765 174.869L321.374 171.764C321.17 171.593 321.17 171.286 321.374 171.15L327.448 168.25C330.86 165.657 330.655 163.951 331.44 159.754L332.839 147.847C332.907 147.438 333.521 147.438 333.59 147.847L335.228 160.198C335.978 164.394 336.422 166.1 339.766 168.693L345.054 171.15C345.259 171.286 345.259 171.593 345.054 171.764Z" fill="#FB8B30"/>
<path d="M542.718 184.832L536.133 188.414C532.141 191.382 532.652 192.372 531.765 197.285L529.479 211.887C529.377 212.365 528.694 212.365 528.592 211.887L526.34 197.387C525.419 192.508 525.521 191.416 521.563 188.448L515.353 184.866C515.114 184.695 515.114 184.32 515.353 184.149L522.382 180.772C526.306 177.769 526.101 175.79 526.988 170.946L528.626 157.162C528.729 156.684 529.411 156.684 529.513 157.162L531.424 171.457C532.311 176.302 532.789 178.315 536.679 181.317L542.787 184.183C542.957 184.32 542.957 184.661 542.718 184.832Z" fill="#FB8B30"/>
<path d="M400.399 168.452C405.892 159.821 416.197 155.658 426.126 158.012C428.071 158.49 428.924 155.453 426.945 155.01C415.583 152.28 403.947 157.023 397.669 166.883C396.611 168.589 399.307 170.158 400.399 168.452Z" fill="#292524"/>
<path d="M397.942 123.351C404.698 121.474 411.42 122.6 417.221 126.49C418.893 127.615 420.462 124.92 418.79 123.794C412.342 119.461 404.596 118.233 397.089 120.348C395.179 120.894 395.997 123.897 397.942 123.351Z" fill="#292524"/>
<path d="M368.596 199.809C368.698 212.433 370.916 225.023 374.465 237.1C377.706 248.155 382.04 259.584 389.001 268.898C390.331 270.672 391.321 272.856 393.641 271.969C395.313 271.321 397.019 269.001 398.282 267.807C404.765 261.699 411.145 255.49 417.628 249.417C425.34 242.184 433.017 234.712 441.513 228.4C443.117 227.206 441.547 224.511 439.944 225.705C423.634 237.783 409.644 252.999 394.801 266.783C394.119 267.431 393.129 268.694 392.242 269.103C391.116 269.615 393.368 269.342 392.89 268.83C391.935 267.772 391.082 266.51 390.263 265.35C386.066 259.209 382.961 252.317 380.436 245.323C375.147 230.823 371.837 215.299 371.701 199.809C371.701 197.831 368.562 197.796 368.596 199.809Z" fill="#292524"/>
<path d="M410.328 438.838C411.761 444.809 414.013 452.383 420.394 454.772C427.354 457.399 433.496 452.076 438.034 447.436C437.147 447.061 436.26 446.686 435.373 446.344C435.339 459.65 453.491 462.039 456.869 449.176C455.88 449.176 454.856 449.176 453.867 449.176C455.607 455.42 461.373 458.934 467.72 457.91C469.699 457.603 468.846 454.601 466.901 454.908C462.26 455.659 458.132 452.827 456.869 448.357C456.46 446.89 454.242 446.856 453.867 448.357C451.41 457.637 438.478 456.034 438.512 446.379C438.512 445.048 436.806 444.297 435.851 445.287C431.688 449.517 425.068 455.488 419.131 450.473C415.617 447.539 414.388 442.284 413.365 438.054C412.887 436.075 409.884 436.894 410.328 438.838Z" fill="#0C5E59"/>
<path d="M378.324 203.287C399.923 200.319 420.976 194.144 440.459 185.068C435.273 195.781 430.018 206.563 422.204 215.843C414.39 225.089 403.642 232.765 391.086 234.949L378.324 203.287Z" fill="white"/>
<path d="M385.318 221.471C402.447 216.114 419.473 210.144 434.589 200.284C436.261 199.192 434.691 196.497 433.019 197.588C418.108 207.312 401.355 213.146 384.499 218.469C382.554 219.049 383.373 222.085 385.318 221.471Z" fill="#292524"/>
<path d="M569.881 471.453C548.487 453.882 470.997 386.567 442.711 326.588C441.312 323.62 436.91 323.961 436.023 327.134C433.873 334.878 431.723 344.397 430.12 349.276C427.492 357.294 418.143 364.834 410.602 358.522C407.361 355.793 405.825 351.596 406.235 347.434C409.033 319.048 408.794 306.833 426.298 296.598C423.705 294.858 424.592 290.866 426.162 288.205C431.894 278.55 448.716 263.845 459.839 261.729C465.947 260.569 476.422 260.638 486.147 262.207C489.593 262.753 495.019 259.375 492.494 257.021C412.65 182.405 448.784 176.912 455.54 184.316C483.247 214.715 523.544 251.255 531.46 257.704C550.807 273.568 575.101 299.259 622.837 341.19C631.128 348.457 701.896 388.273 736.973 425.189C753.897 442.998 759.186 480.699 735.847 511.439C722.232 529.351 663.817 548.627 569.881 471.453Z" fill="#FDB468"/>
<path d="M426.742 298.102C436.398 294.86 444.69 300.763 451.855 306.563C458.646 312.056 464.446 318.607 469.223 325.874C470.315 327.545 473.045 325.976 471.919 324.304C466.289 315.741 459.328 308.235 451.105 302.093C443.598 296.464 435.443 291.892 425.889 295.099C424.012 295.713 424.831 298.716 426.742 298.102Z" fill="#292524"/>
<path d="M439.673 276.437C448.34 273.23 458.986 274.765 466.97 279.235C475.603 284.08 481.71 292.575 487.067 300.661C488.193 302.333 490.889 300.763 489.763 299.091C483.86 290.255 477.036 280.77 467.277 275.891C458.747 271.627 447.93 270.091 438.854 273.435C436.977 274.117 437.796 277.154 439.673 276.437Z" fill="#292524"/>
<path d="M485.395 263.54C495.7 268.623 505.425 276.573 512.897 285.273C514.194 286.808 516.412 284.59 515.115 283.055C507.506 274.184 497.474 265.996 486.965 260.81C485.156 259.957 483.587 262.653 485.395 263.54Z" fill="#292524"/>
<path d="M534.804 277.255C537.807 274.286 540.776 271.318 543.778 268.35C545.211 266.917 542.993 264.733 541.56 266.132C538.558 269.1 535.589 272.069 532.586 275.037C531.153 276.47 533.371 278.653 534.804 277.255Z" fill="#292524"/>
<path d="M504.777 310.482C507.848 306.422 511.943 303.385 516.617 301.406C518.46 300.622 516.856 297.926 515.048 298.711C509.827 300.929 505.494 304.409 502.082 308.912C500.887 310.516 503.583 312.085 504.777 310.482Z" fill="#292524"/>
<path d="M481.915 333.653C483.451 330.514 485.771 328.023 488.808 326.283C490.548 325.294 488.978 322.598 487.238 323.588C483.792 325.567 480.994 328.501 479.254 332.083C478.332 333.857 481.028 335.461 481.915 333.653Z" fill="#292524"/>
<path d="M406.815 336.21C409.613 341.976 410.466 348.219 409.272 354.531C408.897 356.51 411.9 357.329 412.275 355.35C413.64 348.185 412.718 341.225 409.511 334.64C408.624 332.832 405.928 334.402 406.815 336.21Z" fill="#292524"/>
<path d="M570.972 470.363C542.139 446.651 514.91 420.585 490.309 392.472C474.613 374.526 459.736 355.42 448.374 334.369C446.736 331.367 445.132 325.396 441.959 323.622C438.956 321.95 436.022 323.622 434.657 326.351C429.778 336.143 432.371 354.772 419.302 358.9C412.922 360.913 407.974 354.908 407.735 348.971C407.599 345.764 408.281 342.387 408.588 339.214C409.168 333.209 409.68 327.17 410.84 321.268C412.922 310.793 417.869 303.458 427.082 297.931C427.935 297.419 428.14 296.191 427.389 295.474C422.169 290.459 435.954 278.518 439.229 275.584C444.518 270.875 450.762 266.031 457.587 263.881C466.322 261.152 477.138 262.926 486.112 263.745C487.613 263.881 487.989 262.005 487.204 261.084C475.773 247.163 464.547 232.936 454.789 217.788C449.807 210.009 444.586 201.718 442.027 192.745C440.253 186.468 441.243 180.019 449.09 182.408C453.424 183.704 455.608 186.843 458.678 190.084C470.996 203.288 483.894 216.014 496.963 228.467C513.17 243.888 530.333 258.184 546.746 273.366C570.938 295.713 594.618 318.504 619.322 340.271C625.395 345.628 632.39 349.756 639.214 354.089C650.986 361.595 662.758 369.169 674.325 377.016C688.417 386.569 702.236 396.532 715.339 407.416C726.497 416.696 738.883 426.59 744.786 440.203C751.576 455.897 751.303 474.15 745.605 490.117C742.09 499.943 736.631 510.622 727.759 516.695C714.213 525.907 696.265 527.135 680.467 525.293C650.372 521.813 622.222 507.142 597.518 490.356C588.442 484.113 579.57 477.391 570.972 470.363C569.436 469.101 567.218 471.284 568.754 472.581C596.494 495.269 627.852 516.15 662.963 525.157C681.695 529.967 702.816 531.503 721.037 523.826C741.92 515.024 751.917 490.834 752.975 469.306C753.691 454.567 749.972 438.872 740.691 427.136C730.796 414.614 717.045 404.379 704.454 394.758C680.638 376.539 655.115 360.981 630.138 344.468C617.616 336.211 606.901 325.021 595.88 314.956C583.324 303.458 570.972 291.756 558.586 280.087C541.662 264.154 523.816 249.313 506.824 233.414C493.039 220.517 479.527 207.382 466.458 193.735C461.92 188.992 457.86 182.476 451.513 179.917C445.644 177.529 438.547 178.723 437.967 186.126C437.523 192.234 440.594 198.648 443.222 203.97C449.397 216.491 457.655 228.023 465.98 239.18C472.122 247.368 478.469 255.352 484.986 263.267C485.361 262.38 485.737 261.493 486.078 260.606C473.794 259.48 460.658 257.774 449.5 264.12C441.993 268.385 435.135 274.355 429.505 280.906C425.888 285.103 419.746 292.54 425.103 297.692C425.205 296.873 425.308 296.054 425.41 295.236C418.484 299.398 412.922 304.789 409.953 312.431C406.336 321.814 405.995 332.458 405.04 342.387C404.528 347.743 403.914 352.759 407.258 357.33C410.226 361.39 415.106 363.403 419.985 361.902C430.563 358.695 432.507 346.413 434.828 337.303C435.305 335.461 436.807 324.543 441.208 327.409C442.641 328.33 444.04 333.141 444.893 334.744C447.794 340.203 450.967 345.56 454.311 350.746C460.93 361.049 468.267 370.909 475.978 380.462C491.367 399.534 508.325 417.378 525.932 434.369C539.682 447.607 553.843 460.469 568.583 472.581C570.323 473.843 572.541 471.626 570.972 470.363Z" fill="#292524"/>
<path d="M377.811 149.075C371.703 164.19 366.414 180.532 363.412 196.533C363.139 197.966 364.435 198.853 365.698 198.308C371.601 195.783 377.47 193.258 383.373 190.733C385.215 189.949 383.612 187.253 381.803 188.038C375.9 190.563 370.031 193.088 364.128 195.612C364.879 196.192 365.664 196.772 366.414 197.386C369.451 181.385 374.74 165.043 380.814 149.928C381.564 148.018 378.562 147.233 377.811 149.075Z" fill="#292524"/>
<path d="M442.674 182.031C444.96 190.833 454.104 194.825 462.566 194.893C464.58 194.893 464.58 191.789 462.566 191.789C455.469 191.754 447.621 188.684 445.676 181.246C445.165 179.267 442.162 180.086 442.674 182.031Z" fill="#292524"/>
<path d="M397.566 160.575C398.999 161.428 400.228 162.486 401.251 163.816C401.763 164.465 402.923 164.362 403.469 163.816C404.118 163.168 403.981 162.281 403.469 161.599C402.275 160.097 400.808 158.835 399.136 157.88C397.396 156.89 395.826 159.586 397.566 160.575Z" fill="#292524"/>
<path d="M407.461 153.235C407.836 154.43 408.211 155.59 408.587 156.784C409.201 158.694 412.204 157.875 411.589 155.965C411.214 154.771 410.839 153.611 410.463 152.417C409.883 150.506 406.881 151.325 407.461 153.235Z" fill="#292524"/>
<path d="M421.997 154.604C421.997 153.171 421.997 151.738 421.997 150.339C421.997 148.326 418.857 148.326 418.857 150.339C418.857 151.772 418.857 153.205 418.857 154.604C418.892 156.582 421.997 156.617 421.997 154.604Z" fill="#292524"/>
<path d="M364.877 118.199C357.951 96.6361 379.106 64.1217 416.162 70.6041C444.039 75.4829 456.357 98.2055 499.247 99.1949C521.938 99.7067 545.038 89.8125 566.91 94.8961C598.95 102.3 610.995 142.661 643.069 149.894C654.397 152.453 666.476 150.338 678.179 151.122C712.778 153.477 739.939 182.989 743.249 214.923C744.306 225.158 743.419 235.906 747.616 245.322C755.362 262.756 778.018 270.535 787.572 287.117C796.819 303.22 791.223 324.271 779.144 339.42C755.259 369.443 706.398 379.542 672.583 361.46C654.977 352.043 641.192 336.144 621.333 331.504C599.393 326.352 575.815 336.383 553.227 334.063C536.917 332.391 521.801 323.964 512.759 311.477C494.88 286.776 500.646 249.143 476.249 229.833C461.646 218.267 437.726 214.821 431.516 197.864C426.262 183.637 367.948 161.392 364.877 118.199Z" fill="#292524"/>
<path d="M372.761 90.8023C381.701 78.1787 396.168 70.2633 411.523 68.8304C418.791 68.148 426.161 68.8986 433.087 71.2527C440.901 73.9139 447.248 78.9975 454.208 83.2623C460.384 87.0494 467.038 89.7788 474.442 89.4376C482.666 89.0282 490.309 85.514 497.611 81.9999C515.286 73.5045 533.779 66.4421 553.774 67.568C571.791 68.6256 587.896 76.4387 599.258 90.4611C604.786 97.2506 609.563 104.757 616.182 110.591C621.608 115.367 628.057 118.984 634.983 121.167C642.251 123.487 649.997 124.17 657.537 123.112C666.784 121.816 675.997 117.619 685.449 119.325C699.95 121.918 709.163 136.009 720.048 144.606C726.019 149.349 733.287 153.477 741.169 152.965C747.515 152.522 753.418 148.462 755.295 142.218C756.899 136.896 754.885 131.198 749.563 129.083C744.888 127.206 739.292 128.503 737.108 133.279C736.289 135.087 738.951 136.691 739.804 134.849C741.373 131.403 745.263 130.686 748.539 132.085C754.203 134.507 753.452 141.604 749.904 145.63C743.284 153.102 732.434 149.451 725.371 144.709C714.588 137.442 707.013 126.046 695.48 119.734C681.32 111.99 668.251 119.53 653.545 120.417C636.758 121.44 621.71 113.593 611.201 100.833C605.946 94.4871 601.476 87.4588 595.539 81.6928C590.557 76.8481 584.654 72.9927 578.308 70.1951C565.069 64.3609 550.362 63.1668 536.168 65.3162C518.868 67.9433 504.503 76.0975 488.603 82.614C479.697 86.2646 470.45 87.7999 461.442 83.6034C454.516 80.3963 448.681 75.3469 441.993 71.6963C417.767 58.5267 385.864 66.9197 370.099 89.1647C368.905 90.8706 371.601 92.44 372.761 90.8023Z" fill="#292524"/>
<path d="M674.999 596.819C674.999 618.056 701.007 525.77 703.191 520.447C710.185 503.627 715.747 486.227 719.842 468.52C723.561 452.45 750.244 488.001 751.541 471.044C755.772 415.057 719.125 306.152 663.815 278.244C659.004 275.821 641.499 266.951 612.496 263.914C602.055 262.822 590.147 262.481 576.771 263.471C550.088 265.45 517.707 272.717 479.969 289.844C473.315 287.387 468.368 285.545 467.208 285.17C436.191 275.651 403.844 269.339 371.327 270.124C362.114 270.328 352.765 271.181 343.484 272.683C325.502 275.548 307.725 280.871 291.551 288.923C266.813 301.239 245.794 319.902 233.408 345.9C204.166 407.21 234.416 534.861 250.999 596.819L343.484 582.319L674.999 596.819Z" fill="#0C5E59"/>
<path d="M551.829 262.926L468.641 169.341C479.765 168.829 489.558 160.743 491.98 149.143C494.846 135.359 486.214 121.814 472.702 118.914C459.19 115.98 445.916 124.817 443.084 138.566C442.982 139.112 442.88 139.692 442.811 140.238L440.764 137.952L399.716 91.5176C399.716 91.5176 393.097 103.357 386.238 121.917C372.726 158.559 358.327 221.405 392.517 270.773L427.832 236.894C427.832 236.894 440.423 280.668 452.877 323.69C464.547 363.949 512.18 379.712 544.766 354.089C545.209 353.748 545.619 353.407 546.062 353.066C573.018 331.742 574.69 288.788 551.829 262.926Z" fill="#FDB468"/>
<path d="M462.465 154.602C467.173 146.584 471.916 138.566 476.796 130.651C477.853 128.945 475.158 127.376 474.1 129.082C469.221 136.997 464.512 145.015 459.769 153.032C458.745 154.738 461.441 156.308 462.465 154.602Z" fill="#292524"/>
<path d="M426.023 238.905L453.866 325.36L452.16 210.109L426.023 238.905Z" fill="#292524"/>
<path d="M129.681 441.432C246.614 372.923 236.003 310.009 257.977 282.101C268.827 268.283 274.628 262.381 301.686 266.236C323.251 244.912 335.193 228.706 353.448 199.467C354.813 197.318 356.656 194.588 361.74 192.439C370.065 188.925 373.955 199.672 371.089 208.27C362.729 233.415 346.18 256.854 331.645 272.65C348.876 265.758 367.097 286.093 373.341 292.916C379.585 299.74 388.388 322.292 377.333 346.004C357.44 388.719 309.159 495.099 201.745 546.447C105.659 592.37 62.1546 470.159 129.681 441.432Z" fill="#FDB468"/>
<path d="M286.059 414.476C302.676 407.175 314.107 387.932 316.529 370.395C318.952 352.825 319.361 329.693 303.017 318.502C302.505 319.389 301.959 320.31 301.448 321.197C312.059 327.68 322.944 333.548 334.204 338.836C334.034 338.12 333.829 337.403 333.658 336.687C330.178 342.692 323.49 346.717 321.682 353.712C320.521 358.215 321.75 363.196 326.22 365.312C331.099 367.598 335.876 365.312 339.902 362.48C345.771 358.318 349.388 354.326 352.8 348.014C356.008 342.043 359.386 335.595 358.567 328.601C357.953 323.244 354.575 318.707 350.992 314.885C340.414 303.695 326.868 298.099 312.366 293.869C310.422 293.323 309.603 296.325 311.548 296.871C322.193 299.976 332.225 303.524 341.131 310.314C349.866 316.967 358.294 325.53 354.438 337.301C351.162 347.297 344.918 356.578 335.569 361.695C332.396 363.435 327.414 364.015 325.162 360.296C323.183 356.987 325.162 352.518 327.175 349.72C330.041 345.694 333.897 342.623 336.422 338.29C336.831 337.608 336.627 336.516 335.876 336.141C324.65 330.853 313.731 324.984 303.12 318.502C301.379 317.444 299.912 320.071 301.55 321.197C308.988 326.281 312.947 334.708 313.97 343.476C315.028 352.483 314.857 362.855 313.288 371.794C310.456 387.83 299.878 405.059 284.592 411.746C282.647 412.565 284.25 415.261 286.059 414.476Z" fill="#292524"/>
<path d="M350.174 347.951C357.34 354.911 368.327 352.625 373.888 344.846C380.917 335.054 378.017 321.884 373.411 311.786C368.838 301.755 361.4 293.089 352.392 286.709C347.786 283.468 342.736 280.841 337.413 278.964C333.83 277.668 327.927 275.075 324.31 277.326C322.604 278.384 324.174 281.079 325.88 280.022C328.575 278.35 335.263 281.421 337.993 282.478C342.053 284.048 345.943 286.129 349.594 288.551C356.418 293.123 362.355 299.162 366.791 306.088C371.534 313.526 375.39 322.84 374.98 331.813C374.503 342.56 362.731 355.764 352.392 345.699C350.925 344.334 348.741 346.552 350.174 347.951Z" fill="#292524"/>
<path d="M302.266 266.166C313.355 267.633 324.308 269.715 335.159 272.376C337.104 272.854 337.957 269.851 335.978 269.373C324.854 266.644 313.594 264.563 302.232 263.028C300.287 262.755 300.287 265.893 302.266 266.166Z" fill="#292524"/>
<path d="M330.792 363.267C333.624 357.535 339.152 353.918 345.567 353.782C347.58 353.748 347.58 350.609 345.567 350.643C338.128 350.779 331.372 354.976 328.097 361.663C327.21 363.505 329.905 365.075 330.792 363.267Z" fill="#292524"/>
<path d="M352.697 347.846C357.542 344.298 363.206 346.175 368.222 348.256C370.064 349.041 370.883 346.004 369.041 345.254C363.274 342.831 356.587 341.125 351.093 345.151C349.523 346.311 351.059 349.041 352.697 347.846Z" fill="#292524"/>
<path d="M272.068 439.11C275.003 436.654 277.937 434.197 280.872 431.741C282.407 430.444 280.189 428.261 278.654 429.523C275.719 431.98 272.785 434.436 269.85 436.893C268.315 438.223 270.533 440.407 272.068 439.11Z" fill="#292524"/>
<path d="M276.81 445.968C280.632 442.829 284.454 439.691 288.275 436.586C289.845 435.323 287.627 433.106 286.057 434.368C282.236 437.507 278.414 440.646 274.593 443.751C273.057 445.047 275.275 447.231 276.81 445.968Z" fill="#292524"/>
<path d="M349.695 213.18C358.225 210.963 364.196 202.911 363.787 194.108C363.684 192.095 360.579 192.095 360.682 194.108C361.023 201.58 356.144 208.301 348.876 210.178C346.931 210.656 347.75 213.658 349.695 213.18Z" fill="#292524"/>
<path d="M270.6 294.314C272.545 292.54 274.695 291.039 276.981 289.776C278.721 288.787 277.152 286.092 275.412 287.081C272.887 288.48 270.566 290.186 268.417 292.13C266.915 293.461 269.099 295.645 270.6 294.314Z" fill="#292524"/>
<path d="M290.357 280.155C293.121 277.732 296.124 275.719 299.4 274.082C301.174 273.16 299.604 270.465 297.83 271.386C294.315 273.16 291.108 275.378 288.174 277.971C286.638 279.268 288.822 281.485 290.357 280.155Z" fill="#292524"/>
<path d="M372.283 106.497C370.133 99.9463 366.243 92.611 358.532 91.8945C352.561 91.3486 347.886 95.1698 347.511 101.175C347.272 104.859 348.569 108.408 348.807 112.024C349.012 115.368 348.603 118.507 344.849 119.905C342.256 120.895 339.697 119.905 337.172 119.428C328.13 117.722 330.826 126.422 329.631 131.949C330.143 131.574 330.621 131.198 331.133 130.789C327.72 130.482 324.752 131.164 321.715 132.802C319.941 133.757 321.51 136.453 323.285 135.497C325.878 134.064 328.164 133.655 331.098 133.894C331.747 133.962 332.463 133.382 332.6 132.734C333.078 130.516 331.917 125.501 332.975 123.829C334.715 121.099 339.868 123.488 342.495 123.385C346.76 123.215 350.479 120.792 351.605 116.562C352.97 111.376 350.002 106.258 350.582 101.106C351.128 95.9887 355.836 93.8392 360.443 95.4087C365.39 97.1146 367.745 102.744 369.212 107.248C369.894 109.226 372.897 108.408 372.283 106.497Z" fill="#292524"/>
<path d="M312.638 215.841L306.94 218.946C303.494 221.539 303.938 222.357 303.153 226.588L301.174 239.212C301.105 239.621 300.491 239.621 300.423 239.212L298.478 226.69C297.693 222.46 297.762 221.539 294.349 218.946L288.958 215.841C288.754 215.67 288.754 215.363 288.958 215.227L295.032 212.327C298.444 209.734 298.239 208.028 299.024 203.831L300.423 191.924C300.491 191.515 301.105 191.515 301.174 191.924L302.811 204.275C303.562 208.437 304.006 210.177 307.35 212.77L312.638 215.227C312.843 215.397 312.843 215.704 312.638 215.841Z" fill="#FB8B30"/>
<path d="M345.054 171.764L339.356 174.869C335.91 177.461 336.354 178.28 335.569 182.511L333.59 195.135C333.521 195.544 332.907 195.544 332.839 195.135L330.894 182.613C330.109 178.383 330.178 177.461 326.765 174.869L321.374 171.764C321.17 171.593 321.17 171.286 321.374 171.15L327.448 168.25C330.86 165.657 330.655 163.951 331.44 159.754L332.839 147.847C332.907 147.438 333.521 147.438 333.59 147.847L335.228 160.198C335.978 164.394 336.422 166.1 339.766 168.693L345.054 171.15C345.259 171.286 345.259 171.593 345.054 171.764Z" fill="#FB8B30"/>
<path d="M542.718 184.832L536.133 188.414C532.141 191.382 532.652 192.372 531.765 197.285L529.479 211.887C529.377 212.365 528.694 212.365 528.592 211.887L526.34 197.387C525.419 192.508 525.521 191.416 521.563 188.448L515.353 184.866C515.114 184.695 515.114 184.32 515.353 184.149L522.382 180.772C526.306 177.769 526.101 175.79 526.988 170.946L528.626 157.162C528.729 156.684 529.411 156.684 529.513 157.162L531.424 171.457C532.311 176.302 532.789 178.315 536.679 181.317L542.787 184.183C542.957 184.32 542.957 184.661 542.718 184.832Z" fill="#FB8B30"/>
<path d="M400.399 168.452C405.892 159.821 416.197 155.658 426.126 158.012C428.071 158.49 428.924 155.453 426.945 155.01C415.583 152.28 403.947 157.023 397.669 166.883C396.611 168.589 399.307 170.158 400.399 168.452Z" fill="#292524"/>
<path d="M397.942 123.351C404.698 121.474 411.42 122.6 417.221 126.49C418.893 127.615 420.462 124.92 418.79 123.794C412.342 119.461 404.596 118.233 397.089 120.348C395.179 120.894 395.997 123.897 397.942 123.351Z" fill="#292524"/>
<path d="M368.596 199.809C368.698 212.433 370.916 225.023 374.465 237.1C377.706 248.155 382.04 259.584 389.001 268.898C390.331 270.672 391.321 272.856 393.641 271.969C395.313 271.321 397.019 269.001 398.282 267.807C404.765 261.699 411.145 255.49 417.628 249.417C425.34 242.184 433.017 234.712 441.513 228.4C443.117 227.206 441.547 224.511 439.944 225.705C423.634 237.783 409.644 252.999 394.801 266.783C394.119 267.431 393.129 268.694 392.242 269.103C391.116 269.615 393.368 269.342 392.89 268.83C391.935 267.772 391.082 266.51 390.263 265.35C386.066 259.209 382.961 252.317 380.436 245.323C375.147 230.823 371.837 215.299 371.701 199.809C371.701 197.831 368.562 197.796 368.596 199.809Z" fill="#292524"/>
<path d="M410.328 438.838C411.761 444.809 414.013 452.383 420.394 454.772C427.354 457.399 433.496 452.076 438.034 447.436C437.147 447.061 436.26 446.686 435.373 446.344C435.339 459.65 453.491 462.039 456.869 449.176C455.88 449.176 454.856 449.176 453.867 449.176C455.607 455.42 461.373 458.934 467.72 457.91C469.699 457.603 468.846 454.601 466.901 454.908C462.26 455.659 458.132 452.827 456.869 448.357C456.46 446.89 454.242 446.856 453.867 448.357C451.41 457.637 438.478 456.034 438.512 446.379C438.512 445.048 436.806 444.297 435.851 445.287C431.688 449.517 425.068 455.488 419.131 450.473C415.617 447.539 414.388 442.284 413.365 438.054C412.887 436.075 409.884 436.894 410.328 438.838Z" fill="#0C5E59"/>
<path d="M378.324 203.287C399.923 200.319 420.976 194.144 440.459 185.068C435.273 195.781 430.018 206.563 422.204 215.843C414.39 225.089 403.642 232.765 391.086 234.949L378.324 203.287Z" fill="white"/>
<path d="M385.318 221.471C402.447 216.114 419.473 210.144 434.589 200.284C436.261 199.192 434.691 196.497 433.019 197.588C418.108 207.312 401.355 213.146 384.499 218.469C382.554 219.049 383.373 222.085 385.318 221.471Z" fill="#292524"/>
<path d="M569.881 471.453C548.487 453.882 470.997 386.567 442.711 326.588C441.312 323.62 436.91 323.961 436.023 327.134C433.873 334.878 431.723 344.397 430.12 349.276C427.492 357.294 418.143 364.834 410.602 358.522C407.361 355.793 405.825 351.596 406.235 347.434C409.033 319.048 408.794 306.833 426.298 296.598C423.705 294.858 424.592 290.866 426.162 288.205C431.894 278.55 448.716 263.845 459.839 261.729C465.947 260.569 476.422 260.638 486.147 262.207C489.593 262.753 495.019 259.375 492.494 257.021C412.65 182.405 448.784 176.912 455.54 184.316C483.247 214.715 523.544 251.255 531.46 257.704C550.807 273.568 575.101 299.259 622.837 341.19C631.128 348.457 701.896 388.273 736.973 425.189C753.897 442.998 759.186 480.699 735.847 511.439C722.232 529.351 663.817 548.627 569.881 471.453Z" fill="#FDB468"/>
<path d="M426.742 298.102C436.398 294.86 444.69 300.763 451.855 306.563C458.646 312.056 464.446 318.607 469.223 325.874C470.315 327.545 473.045 325.976 471.919 324.304C466.289 315.741 459.328 308.235 451.105 302.093C443.598 296.464 435.443 291.892 425.889 295.099C424.012 295.713 424.831 298.716 426.742 298.102Z" fill="#292524"/>
<path d="M439.673 276.437C448.34 273.23 458.986 274.765 466.97 279.235C475.603 284.08 481.71 292.575 487.067 300.661C488.193 302.333 490.889 300.763 489.763 299.091C483.86 290.255 477.036 280.77 467.277 275.891C458.747 271.627 447.93 270.091 438.854 273.435C436.977 274.117 437.796 277.154 439.673 276.437Z" fill="#292524"/>
<path d="M485.395 263.54C495.7 268.623 505.425 276.573 512.897 285.273C514.194 286.808 516.412 284.59 515.115 283.055C507.506 274.184 497.474 265.996 486.965 260.81C485.156 259.957 483.587 262.653 485.395 263.54Z" fill="#292524"/>
<path d="M534.804 277.255C537.807 274.286 540.776 271.318 543.778 268.35C545.211 266.917 542.993 264.733 541.56 266.132C538.558 269.1 535.589 272.069 532.586 275.037C531.153 276.47 533.371 278.653 534.804 277.255Z" fill="#292524"/>
<path d="M504.777 310.482C507.848 306.422 511.943 303.385 516.617 301.406C518.46 300.622 516.856 297.926 515.048 298.711C509.827 300.929 505.494 304.409 502.082 308.912C500.887 310.516 503.583 312.085 504.777 310.482Z" fill="#292524"/>
<path d="M481.915 333.653C483.451 330.514 485.771 328.023 488.808 326.283C490.548 325.294 488.978 322.598 487.238 323.588C483.792 325.567 480.994 328.501 479.254 332.083C478.332 333.857 481.028 335.461 481.915 333.653Z" fill="#292524"/>
<path d="M406.815 336.21C409.613 341.976 410.466 348.219 409.272 354.531C408.897 356.51 411.9 357.329 412.275 355.35C413.64 348.185 412.718 341.225 409.511 334.64C408.624 332.832 405.928 334.402 406.815 336.21Z" fill="#292524"/>
<path d="M570.972 470.363C542.139 446.651 514.91 420.585 490.309 392.472C474.613 374.526 459.736 355.42 448.374 334.369C446.736 331.367 445.132 325.396 441.959 323.622C438.956 321.95 436.022 323.622 434.657 326.351C429.778 336.143 432.371 354.772 419.302 358.9C412.922 360.913 407.974 354.908 407.735 348.971C407.599 345.764 408.281 342.387 408.588 339.214C409.168 333.209 409.68 327.17 410.84 321.268C412.922 310.793 417.869 303.458 427.082 297.931C427.935 297.419 428.14 296.191 427.389 295.474C422.169 290.459 435.954 278.518 439.229 275.584C444.518 270.875 450.762 266.031 457.587 263.881C466.322 261.152 477.138 262.926 486.112 263.745C487.613 263.881 487.989 262.005 487.204 261.084C475.773 247.163 464.547 232.936 454.789 217.788C449.807 210.009 444.586 201.718 442.027 192.745C440.253 186.468 441.243 180.019 449.09 182.408C453.424 183.704 455.608 186.843 458.678 190.084C470.996 203.288 483.894 216.014 496.963 228.467C513.17 243.888 530.333 258.184 546.746 273.366C570.938 295.713 594.618 318.504 619.322 340.271C625.395 345.628 632.39 349.756 639.214 354.089C650.986 361.595 662.758 369.169 674.325 377.016C688.417 386.569 702.236 396.532 715.339 407.416C726.497 416.696 738.883 426.59 744.786 440.203C751.576 455.897 751.303 474.15 745.605 490.117C742.09 499.943 736.631 510.622 727.759 516.695C714.213 525.907 696.265 527.135 680.467 525.293C650.372 521.813 622.222 507.142 597.518 490.356C588.442 484.113 579.57 477.391 570.972 470.363C569.436 469.101 567.218 471.284 568.754 472.581C596.494 495.269 627.852 516.15 662.963 525.157C681.695 529.967 702.816 531.503 721.037 523.826C741.92 515.024 751.917 490.834 752.975 469.306C753.691 454.567 749.972 438.872 740.691 427.136C730.796 414.614 717.045 404.379 704.454 394.758C680.638 376.539 655.115 360.981 630.138 344.468C617.616 336.211 606.901 325.021 595.88 314.956C583.324 303.458 570.972 291.756 558.586 280.087C541.662 264.154 523.816 249.313 506.824 233.414C493.039 220.517 479.527 207.382 466.458 193.735C461.92 188.992 457.86 182.476 451.513 179.917C445.644 177.529 438.547 178.723 437.967 186.126C437.523 192.234 440.594 198.648 443.222 203.97C449.397 216.491 457.655 228.023 465.98 239.18C472.122 247.368 478.469 255.352 484.986 263.267C485.361 262.38 485.737 261.493 486.078 260.606C473.794 259.48 460.658 257.774 449.5 264.12C441.993 268.385 435.135 274.355 429.505 280.906C425.888 285.103 419.746 292.54 425.103 297.692C425.205 296.873 425.308 296.054 425.41 295.236C418.484 299.398 412.922 304.789 409.953 312.431C406.336 321.814 405.995 332.458 405.04 342.387C404.528 347.743 403.914 352.759 407.258 357.33C410.226 361.39 415.106 363.403 419.985 361.902C430.563 358.695 432.507 346.413 434.828 337.303C435.305 335.461 436.807 324.543 441.208 327.409C442.641 328.33 444.04 333.141 444.893 334.744C447.794 340.203 450.967 345.56 454.311 350.746C460.93 361.049 468.267 370.909 475.978 380.462C491.367 399.534 508.325 417.378 525.932 434.369C539.682 447.607 553.843 460.469 568.583 472.581C570.323 473.843 572.541 471.626 570.972 470.363Z" fill="#292524"/>
<path d="M377.811 149.075C371.703 164.19 366.414 180.532 363.412 196.533C363.139 197.966 364.435 198.853 365.698 198.308C371.601 195.783 377.47 193.258 383.373 190.733C385.215 189.949 383.612 187.253 381.803 188.038C375.9 190.563 370.031 193.088 364.128 195.612C364.879 196.192 365.664 196.772 366.414 197.386C369.451 181.385 374.74 165.043 380.814 149.928C381.564 148.018 378.562 147.233 377.811 149.075Z" fill="#292524"/>
<path d="M442.674 182.031C444.96 190.833 454.104 194.825 462.566 194.893C464.58 194.893 464.58 191.789 462.566 191.789C455.469 191.754 447.621 188.684 445.676 181.246C445.165 179.267 442.162 180.086 442.674 182.031Z" fill="#292524"/>
<path d="M397.566 160.575C398.999 161.428 400.228 162.486 401.251 163.816C401.763 164.465 402.923 164.362 403.469 163.816C404.118 163.168 403.981 162.281 403.469 161.599C402.275 160.097 400.808 158.835 399.136 157.88C397.396 156.89 395.826 159.586 397.566 160.575Z" fill="#292524"/>
<path d="M407.461 153.235C407.836 154.43 408.211 155.59 408.587 156.784C409.201 158.694 412.204 157.875 411.589 155.965C411.214 154.771 410.839 153.611 410.463 152.417C409.883 150.506 406.881 151.325 407.461 153.235Z" fill="#292524"/>
<path d="M421.997 154.604C421.997 153.171 421.997 151.738 421.997 150.339C421.997 148.326 418.857 148.326 418.857 150.339C418.857 151.772 418.857 153.205 418.857 154.604C418.892 156.582 421.997 156.617 421.997 154.604Z" fill="#292524"/>
</svg>
