<svg width="931" height="682" viewBox="0 0 931 682" fill="none" xmlns="http://www.w3.org/2000/svg">
<path d="M117.581 188.053C162.639 189.276 224.893 151.498 240.641 113.503C250.3 90.1665 216.405 105.466 200.197 113.543C178.673 124.262 156.878 134.412 134.882 143.91C120.54 150.098 96.8869 158.034 92.5611 171.93C90.7997 177.515 94.6292 181.537 99.4065 183.987C104.568 186.6 110.744 187.859 117.581 188.053Z" fill="#E3DDFE"/>
<path d="M768.759 125.619C767.869 125.538 766.98 125.418 766.128 125.337C712.392 119.909 648.462 159.396 595.356 147.575C535.284 134.186 452.592 6.23128 403.155 1.32596C316.622 -7.27844 301.927 99.5241 236.036 157.141C198.903 189.629 138.052 212.387 85.3537 235.466C34.4347 257.7 0.710969 319.62 0.00684792 380.856C-0.400801 417.244 17.4616 449.49 34.8794 480.329C48.2206 503.972 163.559 550.17 168.413 577.431C173.824 607.506 137.02 583.807 159.7 604.674C182.343 625.462 180.504 573.731 209.929 577.431C265.258 584.386 295.701 671.476 348.584 655.996C395.612 642.205 435.138 605.559 484.648 604.674C528.119 603.87 575.496 634.003 617.002 646.547C662.288 660.258 646.914 587.617 694.276 585.767C773.249 582.752 955.944 608.31 928.15 503.73C911.251 440.042 861.443 381.741 877.675 311.578C887.273 270.084 896.464 219.946 875.007 180.985C853.216 141.38 808.968 129.921 768.759 125.619Z" fill="#E3DDFE"/>
<path d="M194.113 324.722C219.48 322.63 244.651 327.861 265.965 341.198C266.292 341.394 266.586 341.59 266.913 341.786C270.247 392.422 265.769 443.548 257.4 493.334C248.247 433.742 224.482 377.189 194.113 324.722Z" fill="white"/>
<path d="M146.353 339.432C155.67 334.039 164.79 330.083 173.289 328.024C180.187 326.389 187.15 325.278 194.112 324.689C224.481 377.156 248.246 433.709 257.399 493.302C265.735 443.516 270.246 392.389 266.912 341.753C284.499 350.743 298.719 369.997 310.225 394.612C313.658 402 316.861 409.845 319.836 418.05C347.589 494.609 355.5 601.34 357.494 629.878L110.722 674.041C120.986 628.57 130.041 572.443 126.674 520.63C166.098 471.236 164.169 399.941 146.353 339.432Z" fill="#BBAAFD"/>
<path d="M512.617 360.975C521.182 349.37 523.405 343.682 529.845 331.947C541.155 311.418 555.114 292.589 567.111 272.452C567.634 271.569 567.666 270.458 567.143 269.608C566.163 268.104 564.397 268.823 563.155 269.673C555.342 274.969 549.164 286.149 542.332 291.02C539.848 292.785 536.775 290.104 538.017 287.26C538.017 287.228 538.05 287.228 538.05 287.195C544.032 273.498 546.451 252.969 543.443 238.586C542.561 234.401 538.148 236.199 537.821 238.193V238.226C536.35 247.902 536.317 256.434 534.846 266.143C534.258 270.066 532.95 275.263 530.76 279.48C529.322 282.259 525.039 280.886 525.464 277.78C526.935 266.404 528.341 254.407 529.845 243.456C530.302 240.22 530.662 236.69 530.008 233.584C529.354 230.479 525.203 230.283 524.189 233.323L524.157 233.388C520.397 244.764 521.182 259.932 516.769 271.341C515.821 273.792 512.16 273.008 512.356 270.36C512.813 263.855 513.827 256.892 514.709 251.335C515.755 244.764 515.755 237.54 513.01 231.786C511.865 229.4 508.368 230.086 508.073 232.8V232.865C507.093 241.659 507.093 255.159 502.81 265.554C501.405 269.02 496.174 267.352 496.992 263.724C498.659 256.303 500.097 247.837 499.411 241.92C498.92 237.768 493.167 237.834 492.546 242.018C492.513 242.149 492.513 242.28 492.481 242.378C490.127 261.926 480.941 273.498 469.108 289.091C466.1 293.046 456.359 305.239 446.454 319.329C439.654 329.037 459.203 360.419 482.445 364.44C497.319 367.055 500.882 366.728 512.617 360.975Z" fill="#FDB468"/>
<path d="M543.277 241.92C540.695 243.554 537.524 243.228 535.236 241.266C533.797 240.024 535.889 237.965 537.328 239.174C538.635 240.286 540.401 240.253 541.806 239.37C543.408 238.357 544.879 240.874 543.277 241.92Z" fill="#292524"/>
<path d="M529.807 237.212C526.996 239.598 522.844 239.075 520.785 235.97C519.739 234.401 522.289 232.93 523.335 234.499C524.283 235.937 526.407 236.264 527.748 235.12C529.153 233.911 531.245 235.97 529.807 237.212Z" fill="#292524"/>
<path d="M515.201 237.41C513.076 239.6 509.284 239.633 507.323 237.214C506.146 235.742 508.205 233.65 509.415 235.121C510.396 236.331 512.063 236.462 513.142 235.318C514.449 233.945 516.509 236.037 515.201 237.41Z" fill="#292524"/>
<path d="M499.079 246.431C496.726 247.02 494.307 246.922 492.051 246.006C490.318 245.287 491.07 242.443 492.835 243.162C494.633 243.882 496.431 244.078 498.295 243.587C500.125 243.13 500.91 245.974 499.079 246.431Z" fill="#292524"/>
<path d="M564.561 276.309C564.169 274.642 563.94 272.812 564.234 271.112C564.496 269.575 566.62 268.627 567.83 267.777C569.366 266.666 570.837 269.216 569.301 270.327C568.353 271.014 567.405 271.7 566.457 272.387C566.686 271.962 566.947 271.537 567.176 271.112C567.013 272.615 567.045 274.054 567.405 275.525C567.83 277.355 564.986 278.14 564.561 276.309Z" fill="#292524"/>
<path d="M504.802 284.023C507.45 295.759 505.456 307.691 499.016 317.857C498.003 319.459 495.453 317.988 496.466 316.386C502.481 306.873 504.475 295.792 501.958 284.808C501.566 282.945 504.41 282.16 504.802 284.023Z" fill="#292524"/>
<path d="M529.708 302.69C523.758 306.319 519.247 311.484 516.338 317.826C515.553 319.558 513.004 318.054 513.788 316.355C516.894 309.588 521.862 304.063 528.204 300.173C529.839 299.16 531.31 301.71 529.708 302.69Z" fill="#292524"/>
<path d="M346.516 583.72C343.868 583.295 341.22 582.838 338.605 582.38L344.652 551.064C250.572 564.662 291.401 436.291 299.966 405.955C304.869 388.564 322.031 348.553 335.205 336C344.096 327.501 356.747 323.578 369.137 323.414C381.526 323.251 392.836 324.853 404.408 329.2C415.556 333.417 427.52 340.576 435.365 349.468C451.252 323.643 499.241 309.064 535.166 323.97C548.242 329.397 556.414 334.136 560.599 346.983C566.45 364.897 569.784 384.021 566.417 402.523C564.031 415.566 558.408 427.759 552.459 439.658C545.529 453.551 532.388 524.095 517.645 572.475C463.151 589.735 404.507 592.873 346.516 583.72Z" fill="white"/>
<path d="M346.515 583.72C404.506 592.873 463.151 589.735 517.611 572.508C509.962 597.679 504.928 645.928 497.05 648.02L329.549 638.214C333.733 619.809 336.741 601.144 338.571 582.38C341.219 582.87 343.867 583.295 346.515 583.72Z" fill="#742DED"/>
<path d="M689.593 327.369C699.695 324.525 710.613 327.206 720.06 331.75C734.084 338.517 745.852 349.173 756.934 360.092C777.168 380.032 796.521 402.294 805.151 429.36C813.781 456.427 809.302 489.378 787.727 507.88C775.24 518.57 759.353 523.016 742.779 524.977C745.362 534.195 748.042 543.348 751.246 552.338C762.883 585.093 774.357 619.123 788.381 649.458L709.044 657.271C700.25 553.384 682.14 450.282 666.842 346.95C672.203 337.797 679.46 330.213 689.593 327.369Z" fill="#9E80FA"/>
<path d="M583.481 587.512C584.102 582.151 584.756 576.79 585.41 571.462C623.526 573.587 661.74 574.273 699.921 571.952C700.608 577.542 701.294 583.132 701.98 588.722C662.361 590.03 622.839 589.866 583.481 587.512Z" fill="#926247"/>
<path d="M701.947 588.689C704.66 611.539 707.079 634.389 709.008 657.304L575.21 670.478C577.433 642.757 580.244 615.102 583.48 587.479C622.838 589.866 662.36 590.029 701.947 588.689Z" fill="#292524"/>
<path d="M585.414 571.429C595.286 491.601 608.754 412.133 623.072 332.927C625.622 335.019 628.009 337.34 630.166 339.824C633.435 343.649 638.763 349.271 643.83 354.567C649.453 356.104 654.912 358.523 660.011 361.628C661.875 356.594 664.098 351.592 666.778 347.016C677.893 421.973 690.445 496.832 699.893 571.952C661.744 574.24 623.53 573.586 585.414 571.429Z" fill="white"/>
<mask id="mask0_685_31412" style="mask-type:luminance" maskUnits="userSpaceOnUse" x="585" y="332" width="115" height="242">
<path d="M585.418 571.428C595.29 491.6 608.758 412.132 623.076 332.926C625.626 335.018 628.012 337.339 630.17 339.823C633.439 343.648 638.767 349.27 643.834 354.566C649.457 356.103 654.916 358.522 660.015 361.627C661.879 356.593 664.102 351.591 666.782 347.015C677.896 421.972 690.449 496.831 699.896 571.951C661.748 574.239 623.534 573.585 585.418 571.428Z" fill="white"/>
</mask>
<g mask="url(#mask0_685_31412)">
<path d="M692.013 597.842C693.027 539.393 691.785 480.944 688.287 422.594C688.189 420.698 691.131 420.698 691.229 422.594C694.727 480.944 695.969 539.393 694.955 597.842C694.923 599.738 691.981 599.738 692.013 597.842Z" fill="#E3DDFE"/>
</g>
<mask id="mask1_685_31412" style="mask-type:luminance" maskUnits="userSpaceOnUse" x="585" y="332" width="115" height="242">
<path d="M585.418 571.428C595.29 491.6 608.758 412.132 623.076 332.926C625.626 335.018 628.012 337.339 630.17 339.823C633.439 343.648 638.767 349.27 643.834 354.566C649.457 356.103 654.916 358.522 660.015 361.627C661.879 356.593 664.102 351.591 666.782 347.015C677.896 421.972 690.449 496.831 699.896 571.951C661.748 574.239 623.534 573.585 585.418 571.428Z" fill="white"/>
</mask>
<g mask="url(#mask1_685_31412)">
<path d="M679.43 601.83C683.059 527.494 683.19 453.027 679.757 378.692C678.776 357.607 677.534 336.522 675.998 315.438C675.867 313.542 678.809 313.542 678.94 315.438C684.334 389.643 686.262 464.109 684.628 538.51C684.17 559.628 683.418 580.745 682.372 601.83C682.274 603.726 679.332 603.726 679.43 601.83Z" fill="#E3DDFE"/>
</g>
<mask id="mask2_685_31412" style="mask-type:luminance" maskUnits="userSpaceOnUse" x="585" y="332" width="115" height="242">
<path d="M585.418 571.428C595.29 491.6 608.758 412.132 623.076 332.926C625.626 335.018 628.012 337.339 630.17 339.823C633.439 343.648 638.767 349.27 643.834 354.566C649.457 356.103 654.916 358.522 660.015 361.627C661.879 356.593 664.102 351.591 666.782 347.015C677.896 421.972 690.449 496.831 699.896 571.951C661.748 574.239 623.534 573.585 585.418 571.428Z" fill="white"/>
</mask>
<g mask="url(#mask2_685_31412)">
<path d="M664.916 583.948C671.421 506.147 671.715 427.856 665.57 350.022C663.837 328.153 661.614 306.317 658.901 284.578C658.672 282.715 661.614 282.715 661.843 284.578C671.454 362.052 674.853 440.278 671.879 518.275C671.029 540.177 669.688 562.079 667.858 583.948C667.694 585.811 664.752 585.811 664.916 583.948Z" fill="#E3DDFE"/>
</g>
<mask id="mask3_685_31412" style="mask-type:luminance" maskUnits="userSpaceOnUse" x="585" y="332" width="115" height="242">
<path d="M585.418 571.428C595.29 491.6 608.758 412.132 623.076 332.926C625.626 335.018 628.012 337.339 630.17 339.823C633.439 343.648 638.767 349.27 643.834 354.566C649.457 356.103 654.916 358.522 660.015 361.627C661.879 356.593 664.102 351.591 666.782 347.015C677.896 421.972 690.449 496.831 699.896 571.951C661.748 574.239 623.534 573.585 585.418 571.428Z" fill="white"/>
</mask>
<g mask="url(#mask3_685_31412)">
<path d="M646.87 591.793C652.885 511.769 655.631 431.517 655.01 351.297C654.846 328.643 654.389 306.022 653.702 283.368C653.637 281.472 656.579 281.472 656.644 283.368C659.129 363.555 658.312 443.873 654.127 523.995C652.95 546.616 651.512 569.205 649.812 591.793C649.682 593.656 646.739 593.689 646.87 591.793Z" fill="#E3DDFE"/>
</g>
<mask id="mask4_685_31412" style="mask-type:luminance" maskUnits="userSpaceOnUse" x="585" y="332" width="115" height="242">
<path d="M585.418 571.428C595.29 491.6 608.758 412.132 623.076 332.926C625.626 335.018 628.012 337.339 630.17 339.823C633.439 343.648 638.767 349.27 643.834 354.566C649.457 356.103 654.916 358.522 660.015 361.627C661.879 356.593 664.102 351.591 666.782 347.015C677.896 421.972 690.449 496.831 699.896 571.951C661.748 574.239 623.534 573.585 585.418 571.428Z" fill="white"/>
</mask>
<g mask="url(#mask4_685_31412)">
<path d="M626.409 586.727C633.111 515.889 636.151 444.724 635.366 373.559C635.137 353.521 634.614 333.449 633.83 313.443C633.764 311.547 636.707 311.547 636.772 313.443C639.649 384.543 638.799 455.773 634.157 526.775C632.849 546.781 631.247 566.787 629.351 586.727C629.188 588.59 626.246 588.623 626.409 586.727Z" fill="#E3DDFE"/>
</g>
<mask id="mask5_685_31412" style="mask-type:luminance" maskUnits="userSpaceOnUse" x="585" y="332" width="115" height="242">
<path d="M585.418 571.428C595.29 491.6 608.758 412.132 623.076 332.926C625.626 335.018 628.012 337.339 630.17 339.823C633.439 343.648 638.767 349.27 643.834 354.566C649.457 356.103 654.916 358.522 660.015 361.627C661.879 356.593 664.102 351.591 666.782 347.015C677.896 421.972 690.449 496.831 699.896 571.951C661.748 574.239 623.534 573.585 585.418 571.428Z" fill="white"/>
</mask>
<g mask="url(#mask5_685_31412)">
<path d="M613.008 586.759C616.571 503.826 620.102 420.86 623.665 337.927C624.678 314.423 625.691 290.919 626.672 267.383C626.737 265.487 629.68 265.487 629.614 267.383C626.051 350.316 622.521 433.282 618.957 516.215C617.944 539.719 616.931 563.222 615.95 586.759C615.852 588.655 612.91 588.655 613.008 586.759Z" fill="#E3DDFE"/>
</g>
<mask id="mask6_685_31412" style="mask-type:luminance" maskUnits="userSpaceOnUse" x="585" y="332" width="115" height="242">
<path d="M585.418 571.428C595.29 491.6 608.758 412.132 623.076 332.926C625.626 335.018 628.012 337.339 630.17 339.823C633.439 343.648 638.767 349.27 643.834 354.566C649.457 356.103 654.916 358.522 660.015 361.627C661.879 356.593 664.102 351.591 666.782 347.015C677.896 421.972 690.449 496.831 699.896 571.951C661.748 574.239 623.534 573.585 585.418 571.428Z" fill="white"/>
</mask>
<g mask="url(#mask6_685_31412)">
<path d="M597.186 577.869C603.952 507.652 605.489 436.978 601.795 366.499C601.697 364.603 604.639 364.603 604.737 366.499C608.431 436.945 606.862 507.619 600.128 577.869C599.931 579.765 596.989 579.765 597.186 577.869Z" fill="#E3DDFE"/>
</g>
<path d="M564.847 319.949C572.561 315.895 580.995 314.293 590.148 314.588C605.185 315.045 612.05 323.904 623.066 332.926C602.832 444.855 584.297 557.274 575.209 670.51L467.105 681.167C488.582 583.262 493.257 481.14 523.919 385.295C530.751 363.916 539.218 339.464 557.361 324.885C559.747 322.956 562.264 321.322 564.847 319.949Z" fill="#9E80FA"/>
<path d="M705.937 500.363C698.614 488.431 705.839 463.064 695.149 455.284C720.876 449.923 746.014 441.75 766.903 426.158L797.565 372.547C816.198 404.877 828.686 473.1 827.215 511.019C825.972 543.022 773.931 610.918 705.937 500.363Z" fill="#9E80FA"/>
<path d="M666.22 367.152C668.313 375.194 669.686 383.366 670.372 391.637C670.503 393.042 668.738 393.369 667.855 392.683C663.965 389.61 660.108 386.504 656.218 383.432C654.289 381.895 652.36 380.326 650.399 378.822C647.424 376.501 645.397 376.665 643.534 379.967C640.036 386.178 634.871 390.983 628.53 394.219C627.549 394.709 626.307 394.121 626.307 392.944C626.339 384.478 626.372 375.978 626.405 367.512C626.405 365.616 629.347 365.616 629.347 367.512C629.314 375.978 629.281 384.478 629.249 392.944C628.497 392.519 627.778 392.094 627.026 391.669C632.223 389.054 636.669 385.328 639.84 380.424C641.377 378.038 642.488 374.148 645.724 373.559C649.287 372.906 652.949 377.155 655.368 379.084C660.206 382.941 665.044 386.799 669.914 390.656C669.064 391.016 668.247 391.342 667.397 391.702C666.744 383.66 665.371 375.782 663.344 368.002C662.886 366.073 665.73 365.289 666.22 367.152Z" fill="#292524"/>
<path d="M234.455 219.102L237.888 222.175C239.882 224.529 239.424 225.019 239.293 228.092L238.64 237.179C238.64 237.474 239.032 237.572 239.163 237.31L242.53 228.909C243.739 226.098 243.837 225.444 246.649 224.202L250.866 222.927C251.029 222.861 251.094 222.633 250.964 222.502L247.204 219.494C245.276 217.141 245.668 215.997 245.799 212.956L246.747 204.457C246.747 204.163 246.354 204.065 246.224 204.326L243.085 212.63C241.876 215.408 241.32 216.552 238.542 217.795L234.488 218.644C234.357 218.743 234.325 218.971 234.455 219.102Z" fill="white"/>
<path d="M224.455 295.171C217.1 289.287 203.011 281.278 204.907 269.934C205.398 266.992 207.065 264.541 208.045 261.795C209.941 256.434 206.051 253.819 201.769 251.923C198.075 250.255 193.825 248.621 189.739 249.732C187.222 250.419 185.261 251.857 184.64 254.472C184.084 255.813 184.215 257.12 184.999 258.46C188.399 260.781 190.458 260.16 191.145 256.597C191.08 254.701 194.022 254.701 194.087 256.597C194.348 263.168 185.13 265.26 182.221 259.441C178.298 251.596 187.124 245.908 194.054 246.529C201.409 247.15 213.897 252.021 211.347 261.304C209.582 267.777 205.528 272.288 210.236 278.826C214.387 284.579 221.088 288.796 226.548 293.144C228.019 294.288 225.926 296.347 224.455 295.171Z" fill="#292524"/>
<path d="M270.773 275.394C275.48 270.883 276.788 264.672 277.246 258.396C277.67 252.446 278.684 244.306 274.402 239.468C270.773 235.382 265.608 233.65 262.503 228.877C260.214 225.379 259.266 221.097 260.41 217.011C262.405 209.982 271.329 206.092 276.788 212.173C281.299 217.207 275.546 226.621 270.381 220.77C269.139 219.364 271.198 217.272 272.473 218.678C275.873 216.488 276.134 214.624 273.257 213.055C272.113 212.401 270.871 212.075 269.564 212.107C266.621 212.238 264.725 214.232 263.679 216.782C261.751 221.456 263.712 226.327 267.014 229.825C271.427 234.532 277.605 236.297 279.599 242.933C281.364 248.85 280.711 255.846 279.926 261.893C279.142 267.81 277.344 273.269 272.931 277.453C271.492 278.761 269.4 276.702 270.773 275.394Z" fill="#292524"/>
<path d="M240.045 297.59C246.387 302.395 256.455 297.132 262.731 291.052C273.192 280.918 281.037 265.946 276.167 253.622C275.382 251.661 274.238 249.732 272.277 248.784C270.348 247.836 267.471 248.261 266.131 250.124C264.987 251.726 265.085 254.08 263.418 255.191C261.031 256.826 258.449 254.08 257.599 251.595C254.461 242.508 255.017 232.374 253.578 222.763C252.14 213.153 247.792 203.182 238.541 199.75C234.815 198.377 230.042 198.344 226.806 201.09C223.537 203.869 222.916 208.478 223.406 212.401C223.896 216.324 225.237 220.148 224.779 224.136C224.354 228.157 221.347 232.603 217.162 232.995C212.945 233.387 209.153 229.595 205.133 231.165C202.55 232.178 201.144 235.153 201.373 237.67C201.602 240.22 203.138 242.377 204.838 244.175C208.238 247.771 212.618 250.582 215.103 254.864C217.587 259.147 217.228 265.783 212.553 268.627C211.54 269.248 210.33 269.673 209.676 270.653C208.728 271.961 209.219 273.661 209.774 275.001C214.416 286.181 222.785 295.628 233.507 301.676L240.045 297.59Z" fill="#292524"/>
<path d="M220.894 362.051L234.983 275.457C234.983 275.457 273.034 297.163 270.353 330.081L252.832 326.158L261.429 360.613C264.567 373.264 255.12 385.555 242.109 385.784C241.881 385.784 241.652 385.784 241.456 385.784C228.674 385.947 218.835 374.637 220.894 362.051Z" fill="#926247"/>
<path d="M216.22 310.827C219.685 314.587 225.536 314.848 229.295 311.383C233.055 307.918 233.316 302.066 229.851 298.307C226.386 294.548 220.535 294.286 216.775 297.751C213.016 301.217 212.787 307.068 216.22 310.827Z" fill="#926247"/>
<path d="M226.188 307.722C223.213 306.12 220.206 304.485 217.199 302.949C215.531 302.066 217.002 299.549 218.67 300.399C221.677 301.968 224.652 303.57 227.659 305.172C229.326 306.087 227.855 308.637 226.188 307.722Z" fill="#292524"/>
<path d="M252.863 326.158L260.904 358.651L240.179 322.366L252.863 326.158Z" fill="#292524"/>
<path d="M252.933 288.434C257.738 292.096 262.543 296.247 266.597 300.758C267.251 301.477 267.12 303.046 265.943 303.21C263.589 303.537 261.268 303.864 258.915 304.191C257.052 304.452 256.267 301.608 258.13 301.347C260.484 301.02 262.805 300.693 265.159 300.366C264.93 301.183 264.734 302 264.505 302.818C260.647 298.503 256.071 294.449 251.462 290.951C249.958 289.84 251.429 287.29 252.933 288.434Z" fill="#292524"/>
<path d="M262.96 307.56C253.316 310.861 247.792 311.123 239.391 308.409C241.613 312.724 245.242 316.288 249.59 318.445C253.937 320.603 258.971 321.322 263.744 320.439L262.96 307.56Z" fill="white"/>
<path d="M245.533 296.413C242.656 295.007 239.061 296.053 237.328 298.734C236.315 300.303 233.765 298.832 234.778 297.263C237.426 293.177 242.656 291.771 247.004 293.896C248.704 294.713 247.2 297.263 245.533 296.413Z" fill="#292524"/>
<path d="M239.26 283.599C237.004 283.566 235.141 285.135 234.683 287.325C234.291 289.188 231.48 288.404 231.839 286.541C232.526 283.108 235.762 280.591 239.227 280.657C241.156 280.689 241.156 283.631 239.26 283.599Z" fill="#292524"/>
<path d="M146.364 339.432C164.18 399.94 166.108 471.203 126.685 520.662C126.26 514.124 125.639 507.651 124.789 501.277C72.2242 578.751 14.5601 494.183 29.4338 461.919C42.1173 434.46 97.4604 367.643 146.364 339.432Z" fill="#BBAAFD"/>
<path d="M75.7239 525.892C99.6198 523.833 116.651 495.229 113.807 461.952C110.963 428.707 89.29 403.372 65.394 405.432C41.4981 407.491 24.4669 436.094 27.3109 469.372C30.1548 502.65 51.8279 527.952 75.7239 525.892Z" fill="#292524"/>
<path d="M101.844 358.033C117.862 342.767 139.96 341.655 160.75 346.003C193.832 352.933 190.857 374.083 182.194 380.752C182.456 386.603 191.838 396.214 165.555 393.239C165.555 393.239 159.704 414.585 158.887 415.206C136.723 431.649 125.413 460.22 118.156 478.624C106.093 509.254 83.603 507.129 77.1632 506.868C53.3653 505.952 8.90771 468.163 51.9924 414.193C67.5852 394.612 83.6684 375.358 101.844 358.033Z" fill="#926247"/>
<path d="M108.251 369.245C111.127 361.105 118.973 355.842 126.655 351.887C134.337 347.964 142.673 344.532 148.36 338.027C152.937 332.764 155.389 325.703 155.062 318.74C154.964 316.582 154.604 314.425 155.029 312.333C155.454 310.241 156.958 308.148 159.083 307.854C162.188 307.429 164.378 310.764 165.522 313.706C168.301 320.832 169.739 328.645 168.301 336.163C166.863 343.682 162.253 350.775 155.323 354.044C151.237 355.973 146.628 356.463 142.149 356.921C140.842 357.052 139.502 357.183 138.194 357.313L108.251 369.245Z" fill="#926247"/>
<path d="M155.098 318.347C157.059 315.307 156.798 311.45 154.313 308.802C153.038 307.429 155.098 305.337 156.405 306.71C159.74 310.306 160.295 315.7 157.648 319.851C156.634 321.42 154.084 319.949 155.098 318.347Z" fill="#292524"/>
<path d="M149.836 358.915C162.029 360.321 174.091 362.347 186.056 364.963C187.919 365.355 187.134 368.199 185.271 367.807C173.536 365.257 161.735 363.263 149.803 361.857C147.973 361.628 147.94 358.686 149.836 358.915Z" fill="#292524"/>
<path d="M151.962 374.116C158.238 375.129 164.613 375.456 170.922 376.11C173.112 376.339 175.269 376.633 177.427 376.96C179.225 377.221 181.546 377.875 183.344 377.221C187.332 375.816 187.757 371.141 184.88 368.297C183.54 366.957 185.599 364.897 186.972 366.205C191.908 371.043 189.914 379.313 182.69 380.294C178.113 380.915 172.818 379.183 168.241 378.758C162.521 378.235 156.8 377.842 151.145 376.894C149.314 376.633 150.099 373.822 151.962 374.116Z" fill="#292524"/>
<path d="M154.281 390.362C159.969 391.376 165.755 391.833 171.475 392.225C172.816 392.324 174.123 392.487 175.463 392.618C184.028 393.598 184.845 385.459 179.19 380.948C177.719 379.771 179.811 377.711 181.282 378.855C187.787 384.053 187.624 395.887 177.425 395.756C169.579 395.658 161.178 394.514 153.496 393.141C151.633 392.879 152.417 390.035 154.281 390.362Z" fill="#292524"/>
<path d="M185.071 366.074C187.098 357.444 174.904 353.423 168.791 350.971C162.875 348.585 156.762 346.721 150.551 345.25C148.72 344.825 149.472 341.981 151.335 342.406C160.488 344.564 169.413 347.637 177.847 351.821C183.829 354.796 189.647 359.438 187.882 366.858C187.457 368.721 184.613 367.937 185.071 366.074Z" fill="#292524"/>
<path d="M165.234 394.905C164.09 396.442 164.253 398.73 165.103 400.364C165.953 401.966 167.359 403.078 168.732 404.189C174.06 408.537 178.996 413.473 183.442 418.899C184.455 420.142 185.501 421.482 185.959 423.116C186.449 424.751 186.253 426.81 185.109 428.085C184.129 429.196 182.69 429.556 181.35 429.556C175.368 429.687 170.628 424.849 166.182 420.697C160.625 415.532 154.545 411.021 148.105 407.327L165.234 394.905Z" fill="#926247"/>
<path d="M166.476 395.624C164.057 400.528 173.471 406.216 176.184 408.831C179.094 411.642 181.905 414.649 184.455 417.82C187.266 421.318 189.816 427.529 184.553 430.275C179.257 433.054 172.948 428.673 169.123 425.404C162.063 419.324 155.427 413.342 147.352 408.602C145.718 407.654 147.189 405.104 148.823 406.052C154.675 409.484 160.167 413.407 165.266 417.918C168.11 420.435 170.758 423.345 173.929 425.502C175.433 426.516 177.034 427.431 178.832 427.856C179.649 427.954 180.499 428.019 181.349 428.117C185.207 425.502 185.566 422.756 182.395 419.945C178.309 414.388 172.915 409.681 167.685 405.235C164.122 402.195 161.67 398.86 163.959 394.186C164.776 392.453 167.326 393.924 166.476 395.624Z" fill="#292524"/>
<path d="M172.224 422.234C176.768 420.795 181.802 423.639 182.979 428.216C183.437 430.047 180.626 430.831 180.135 429.001C179.351 425.895 176.016 424.097 173.009 425.078C171.211 425.634 170.426 422.79 172.224 422.234Z" fill="#292524"/>
<path d="M143.754 349.925C143.557 352.409 143.394 354.894 143.198 357.378C143.067 359.241 140.125 359.274 140.256 357.378C140.452 354.894 140.615 352.409 140.812 349.925C140.942 348.029 143.884 348.029 143.754 349.925Z" fill="white"/>
<path d="M143.458 365.681C143.36 367.97 143.262 370.258 143.164 372.546C143.098 374.442 140.156 374.442 140.222 372.546C140.32 370.258 140.418 367.97 140.516 365.681C140.581 363.818 143.523 363.785 143.458 365.681Z" fill="white"/>
<path d="M142.771 380.751C142.804 383.072 142.869 385.426 142.902 387.747C142.935 389.643 139.993 389.643 139.96 387.747C139.927 385.426 139.862 383.072 139.829 380.751C139.797 378.855 142.739 378.855 142.771 380.751Z" fill="white"/>
<path d="M137.283 402.718C138.002 401.639 138.689 400.561 139.408 399.449C140.421 397.88 142.971 399.351 141.958 400.92C141.239 401.999 140.552 403.078 139.833 404.189C138.787 405.791 136.237 404.32 137.283 402.718Z" fill="white"/>
<path d="M242.986 312.528C240.534 312.038 238.279 310.763 236.579 308.9C235.304 307.494 237.363 305.435 238.671 306.808C240.077 308.312 241.776 309.26 243.771 309.685C245.634 310.044 244.849 312.888 242.986 312.528Z" fill="#292524"/>
<path d="M381.066 527.854C401.104 527.854 417.318 502.749 417.318 471.759C417.318 440.77 401.072 415.664 381.066 415.664C361.06 415.664 344.813 440.77 344.813 471.759C344.813 502.749 361.06 527.854 381.066 527.854Z" fill="#292524"/>
<path d="M672.786 311.776C680.729 310.207 693.118 300.106 695.635 293.045C698.153 285.984 696.355 277.681 691.059 271.83C683.671 263.69 671.249 261.107 662.423 254.275C653.401 247.28 648.857 235.708 651.08 225.312C644.444 235.871 640.488 253.818 644.215 265.782C647.974 277.746 651.635 284.448 663.502 290.626L672.786 311.776Z" fill="#292524"/>
<path d="M666.944 359.207L674.07 278.922C674.07 278.922 634.222 288.14 627.815 318.738L644.519 319.98C644.519 319.98 636.608 333.415 628.828 346.622C621.571 358.978 628.828 374.963 642.852 377.415C643.048 377.448 643.211 377.481 643.408 377.513C655.045 379.507 665.865 371.106 666.944 359.207Z" fill="#FDB468"/>
<path d="M681.884 318.378C677.798 320.83 672.47 319.457 670.051 315.305C667.599 311.154 668.939 305.76 673.026 303.308C677.112 300.857 682.44 302.23 684.859 306.381C687.311 310.565 685.971 315.927 681.884 318.378Z" fill="#FDB468"/>
<path d="M672.402 310.369C675.507 309.715 678.613 309.094 681.718 308.506C683.582 308.146 684.366 310.99 682.503 311.35C679.397 311.938 676.292 312.559 673.186 313.213C671.323 313.573 670.539 310.762 672.402 310.369Z" fill="#292524"/>
<path d="M644.523 319.979L628.636 347.275L656.912 320.045L644.523 319.979Z" fill="#292524"/>
<path d="M673.02 303.309C661.513 316.123 656.773 323.216 645.234 336.031C642.553 339.005 639.872 342.013 636.603 344.268C631.242 348.028 624.476 349.662 618.003 348.747C616.173 348.485 614.309 347.995 612.871 346.851C610.615 345.053 609.765 341.849 610.092 338.973C610.419 336.096 611.367 332.696 612.806 330.179C618.134 320.896 625.358 310.958 633.89 304.551C635.296 310.468 642.618 316.09 648.535 315.077C654.452 314.063 659.388 309.977 663.67 305.728C668.181 301.249 668.868 300.334 672.627 295.169C672.856 297.457 673.02 303.309 673.02 303.309Z" fill="#292524"/>
<path d="M658.997 286.801C651.74 290.462 644.516 294.123 637.259 297.785C637.357 297 637.455 296.248 637.553 295.464C638.338 296.51 639.318 297.36 640.462 298.013C642.064 299.027 640.593 301.577 638.991 300.563C637.618 299.681 636.572 298.798 635.461 297.556C634.872 296.902 634.872 295.692 635.755 295.235C643.012 291.574 650.237 287.912 657.494 284.251C659.193 283.401 660.697 285.951 658.997 286.801Z" fill="#292524"/>
<path d="M623.162 314.881C628.817 307.754 638.918 294.94 649.575 299.615C653.955 301.511 654.674 306.087 653.661 310.37C652.223 316.515 647.516 321.092 642.056 323.936C640.389 324.818 638.886 322.268 640.585 321.386C644.998 319.098 648.856 315.731 650.458 310.893C651.569 307.526 651.961 303.537 647.516 302.034C644.508 300.988 641.043 302.328 638.493 303.799C633.23 306.806 628.948 312.298 625.254 317.005C624.044 318.444 621.985 316.352 623.162 314.881Z" fill="#292524"/>
<path d="M687.659 300.204C697.237 300.041 700.571 289.711 697.825 281.833C695.145 274.151 688.411 269.247 682.265 264.442C672.818 257.054 667.13 247.28 668.274 234.989C668.438 233.126 671.38 233.093 671.216 234.989C670.366 244.011 673.406 252.674 680.075 258.885C686.155 264.507 693.412 268.43 697.989 275.589C704.429 285.657 702.337 302.885 687.659 303.146C685.763 303.179 685.763 300.237 687.659 300.204Z" fill="#292524"/>
<path d="M652.881 283.859C643.336 274.379 637.615 262.545 637.811 248.946C637.844 247.05 640.786 247.05 640.753 248.946C640.59 261.826 645.951 272.81 654.973 281.799C656.314 283.107 654.221 285.166 652.881 283.859Z" fill="#292524"/>
<path d="M403.106 352.311L401.57 288.992C405.067 284.775 408.402 280.362 411.605 275.851C423.21 282.094 440.568 294.68 442.66 314.718L426.054 314.13L439.718 344.041C444.752 355.024 438.247 367.806 426.414 370.258C426.217 370.29 426.021 370.356 425.825 370.388C414.286 372.709 403.4 364.112 403.106 352.311Z" fill="#FEC1C9"/>
<path d="M401.57 288.992L401.145 271.078C401.145 271.078 405.624 272.615 411.639 275.851C408.435 280.329 405.101 284.742 401.57 288.992Z" fill="#292524"/>
<path d="M390.13 306.449C393.922 309.293 399.283 308.508 402.127 304.716C404.971 300.924 404.186 295.563 400.394 292.719C396.602 289.875 391.241 290.66 388.397 294.452C385.553 298.244 386.338 303.637 390.13 306.449Z" fill="#FEC1C9"/>
<path d="M398.726 302.067C395.719 301.119 392.744 300.171 389.737 299.256C387.939 298.7 388.691 295.889 390.521 296.412C393.529 297.327 396.536 298.275 399.511 299.223C401.309 299.812 400.524 302.656 398.726 302.067Z" fill="#292524"/>
<path d="M426.087 314.13L438.967 342.374L413.894 312.855L426.087 314.13Z" fill="#292524"/>
<path d="M413.173 298.995C422.196 299.453 433.179 298.047 433.179 298.047L434.389 300.564C428.635 301.054 422.751 301.479 416.867 301.479C414.644 300.041 413.173 298.995 413.173 298.995Z" fill="white"/>
<path d="M422.784 304.094C422.588 304.192 422.424 304.323 422.228 304.421C420.234 303.408 418.404 302.362 416.9 301.447C422.784 301.479 428.635 301.022 434.421 300.531L438.115 308.05C436.808 308.344 435.369 308.377 433.866 308.246C432.035 304.094 426.968 302.296 422.784 304.094Z" fill="#292524"/>
<path d="M422.787 304.094C426.971 302.297 432.038 304.094 433.836 308.246C430.011 307.854 425.827 306.219 422.231 304.389C422.427 304.291 422.591 304.192 422.787 304.094Z" fill="#9E80FA"/>
<path d="M419.97 279.839C424.874 282.291 429.843 285.233 434.19 288.567C435.171 289.319 435.138 290.822 433.831 291.247C431.739 291.934 429.679 292.62 427.587 293.34C425.789 293.928 425.005 291.117 426.803 290.496C428.895 289.809 430.954 289.123 433.046 288.403C432.915 289.286 432.817 290.201 432.687 291.084C428.339 287.717 423.37 284.808 418.467 282.356C416.8 281.506 418.271 278.989 419.97 279.839Z" fill="#292524"/>
<path d="M404.603 273.171C398.425 265.097 387.245 261.828 377.242 263.561C367.239 265.326 358.413 271.504 351.777 279.219C348.508 283.043 345.599 287.326 341.251 289.908C333.667 294.387 324.089 292.327 315.361 293.471C301.109 295.367 288.752 307.168 286.17 321.29C285.091 327.272 285.418 334.006 281.495 338.648C276.853 344.173 268.55 344.14 261.456 345.448C243.085 348.782 227.819 364.963 225.531 383.498C224.583 391.115 225.759 399.189 229.944 405.629C234.128 412.069 241.548 416.58 249.23 416.187C256.389 415.795 262.666 411.415 267.896 406.511C272.44 402.262 276.657 397.326 278.455 391.376C279.501 387.911 279.697 384.217 280.482 380.687C282.541 371.272 288.915 362.904 297.447 358.393C307.548 353.064 320.559 352.77 328.404 344.434C335.073 337.341 335.792 326.684 340.074 317.956C344.226 309.489 351.973 302.853 360.963 300.075C363.447 299.323 366.062 298.8 368.122 297.263C372.6 293.929 372.829 287.424 375.314 282.422C379.857 273.237 398.49 270.066 406.205 276.8L404.603 273.171Z" fill="#292524"/>
<path d="M350.369 288.666C343.929 291.477 337.391 294.256 330.297 294.517C322.583 294.779 315.032 292.229 307.317 292.752C298.556 293.34 292.574 299.159 289.861 307.233C287.736 313.542 288.553 319.786 287.67 326.259C286.036 338.223 274.922 341.034 264.592 337.733C261.192 336.621 256.648 333.908 258.217 329.593C259.427 326.324 263.742 326.095 265.311 329.168C266.161 330.868 263.611 332.339 262.761 330.639C262.075 332.895 262.598 334.17 264.33 334.464C264.886 334.693 265.409 334.889 265.997 335.019C267.076 335.346 268.155 335.575 269.234 335.771C271.947 336.229 274.889 336.294 277.569 335.477C284.467 333.385 284.925 326.259 285.055 320.211C285.219 312.268 286.461 304.193 291.495 297.754C296.987 290.725 305.257 289.156 313.757 289.941C319.248 290.464 324.74 291.706 330.265 291.51C336.835 291.281 342.916 288.666 348.865 286.051C350.598 285.364 352.101 287.914 350.369 288.666Z" fill="#292524"/>
<path d="M393.063 283.958C403.23 279.937 413.363 275.949 423.53 271.928C424.314 271.634 425.099 272.255 425.328 272.942C428.302 281.67 425.622 291.804 416.894 295.857C407.675 300.172 396.594 294.974 392.181 286.116C391.331 284.416 393.88 282.945 394.73 284.645C398.653 292.49 408.623 297.263 416.632 292.752C423.399 288.927 424.87 280.722 422.516 273.759C423.105 274.086 423.726 274.446 424.314 274.772C414.148 278.793 404.014 282.781 393.848 286.802C392.082 287.489 391.331 284.645 393.063 283.958Z" fill="#9E80FA"/>
<path d="M434.807 266.895C444.974 262.874 455.107 258.886 465.274 254.865C466.058 254.571 466.843 255.192 467.072 255.878C470.047 264.606 467.366 274.74 458.638 278.794C449.419 283.109 438.338 277.911 433.925 269.052C433.075 267.352 435.625 265.881 436.474 267.581C440.397 275.427 450.367 280.199 458.376 275.688C465.143 271.863 466.614 263.658 464.26 256.696C464.849 257.022 465.47 257.382 466.058 257.709C455.892 261.73 445.758 265.718 435.592 269.739C433.827 270.425 433.075 267.614 434.807 266.895Z" fill="#9E80FA"/>
<path d="M424.869 276.408C429.086 274.806 433.303 273.204 437.552 271.602C439.318 270.916 440.102 273.76 438.337 274.446C434.12 276.048 429.903 277.65 425.653 279.251C423.888 279.905 423.104 277.061 424.869 276.408Z" fill="#9E80FA"/>
<path d="M410.975 286.181C411.335 287.455 411.694 288.73 412.021 290.005C412.511 291.836 409.7 292.62 409.177 290.79C408.817 289.515 408.458 288.24 408.131 286.965C407.641 285.167 410.452 284.383 410.975 286.181Z" fill="#292524"/>
<path d="M413.166 292.36C411.662 292.491 410.126 292.621 408.622 292.752C406.726 292.915 406.759 289.973 408.622 289.81C410.126 289.679 411.662 289.548 413.166 289.418C415.062 289.254 415.062 292.196 413.166 292.36Z" fill="#292524"/>
<path d="M445.527 340.021C450.169 349.632 449.548 360.648 443.664 369.605C442.618 371.174 440.068 369.703 441.114 368.134C446.41 360.093 447.162 350.22 442.977 341.525C442.193 339.825 444.71 338.321 445.527 340.021Z" fill="#292524"/>
<path d="M438.305 374.345C430.819 380.425 421.208 382.321 412.023 379.249C410.225 378.66 411.009 375.816 412.807 376.405C420.947 379.118 429.544 377.679 436.245 372.253C437.684 371.076 439.776 373.168 438.305 374.345Z" fill="#292524"/>
<path d="M401.136 271.961C397.017 259.964 380.64 257.97 371.062 264.443C363.02 269.902 362.824 282.095 354.129 286.377C352.429 287.227 350.958 284.677 352.658 283.827C358.869 280.755 360.144 272.092 364.164 266.927C367.368 262.808 371.912 259.899 376.979 258.591C387.636 255.878 400.221 260.193 403.98 271.144C404.601 272.974 401.757 273.759 401.136 271.961Z" fill="#292524"/>
<path d="M442.952 314.85C459.1 301.317 492.967 304.128 509.05 315.406C517.189 321.127 526.898 326.259 534.123 333.124C536.999 335.869 533.894 340.544 529.873 339.531C521.897 337.504 513.986 332.601 506.533 330.083C505.487 329.724 504.343 329.43 503.198 330.41C502.25 331.228 501.891 332.47 502.218 333.581C502.839 335.771 505.062 336.883 507.088 337.962C514.149 341.655 520.458 346.494 525.656 352.247C527.192 353.914 527.062 356.529 525.231 358.066C523.172 359.798 520.916 358.719 519.053 357.673C511.73 353.522 504.375 349.403 497.053 345.251C495.68 344.467 494.111 343.682 492.509 344.598C491.561 345.153 489.698 346.494 489.632 347.507C489.502 349.73 491.038 351.332 492.509 352.835L511.175 370.063C512.711 371.632 512.809 374.116 511.207 375.751C508.919 378.072 505.585 376.372 503.264 374.704C497.772 370.716 492.28 366.696 486.788 362.707C484.827 361.269 481.918 359.863 479.989 361.498C479.4 361.988 478.158 363.132 477.831 363.819C475.478 368.624 478.224 378.889 477.112 385.165C476.426 389.055 470.378 389.219 469.757 385.361C468.678 378.562 467.469 369.801 465.05 366.14C461.715 361.008 458.872 356.693 452.399 355.843C452.399 355.81 416.114 337.34 442.952 314.85Z" fill="#926247"/>
<path d="M535.497 339.237C530.822 337.145 526.082 333.451 527.292 327.73C527.684 325.867 530.528 326.652 530.136 328.515C529.22 332.797 533.732 335.249 537 336.72C538.7 337.472 537.229 339.989 535.497 339.237Z" fill="#292524"/>
<path d="M526.961 358.425C522.188 356.954 519.214 352.344 520.162 347.408C520.521 345.545 523.365 346.329 523.006 348.193C522.352 351.527 524.607 354.633 527.746 355.581C529.544 356.169 528.792 358.98 526.961 358.425Z" fill="#292524"/>
<path d="M509.605 375.914C507.218 373.462 505.911 370.324 505.813 366.924C505.78 365.028 508.722 365.028 508.755 366.924C508.82 369.572 509.834 371.925 511.664 373.854C513.005 375.194 510.912 377.286 509.605 375.914Z" fill="#292524"/>
<path d="M470.117 387.258C470.902 385.231 470.411 383.008 468.548 381.733C467.012 380.655 468.483 378.105 470.019 379.183C472.863 381.145 474.203 384.708 472.928 388.042C472.275 389.808 469.431 389.056 470.117 387.258Z" fill="#292524"/>
<path d="M496.466 314.491C495.55 315.929 494.602 317.4 493.687 318.838C492.674 320.44 490.124 318.969 491.137 317.367C492.052 315.929 493 314.458 493.916 313.02C494.929 311.418 497.479 312.889 496.466 314.491Z" fill="white"/>
<path d="M487.308 328.383C485.837 330.672 484.366 332.927 482.895 335.215C481.881 336.784 479.331 335.313 480.345 333.744C481.816 331.456 483.287 329.201 484.758 326.912C485.804 325.31 488.354 326.782 487.308 328.383Z" fill="white"/>
<path d="M392.444 527.232C376.099 540.308 356.78 548.807 336.022 551.815C334.159 552.076 333.374 549.265 335.238 548.971C355.44 546.029 374.399 537.922 390.352 525.14C391.823 523.963 393.915 526.023 392.444 527.232Z" fill="#292524"/>
<path d="M345.73 441.555C334.484 446.131 325.07 453.911 318.434 464.078C317.388 465.647 314.871 464.176 315.884 462.607C322.978 451.721 332.915 443.581 344.945 438.711C346.678 438.024 347.462 440.868 345.73 441.555Z" fill="#292524"/>
<path d="M337.492 439.265C323.73 440.049 312.354 448.32 301.697 456.296C300.193 457.44 298.722 454.89 300.226 453.746C311.373 445.41 323.141 437.14 337.492 436.323C339.388 436.225 339.388 439.167 337.492 439.265Z" fill="#292524"/>
<path d="M565.01 303.996C562.918 305.337 561.022 306.71 559.388 307.985C544.318 319.785 531.7 342.537 531.177 361.824C531.144 362.805 531.471 363.753 532.157 364.406C534.053 366.237 536.57 364.243 538.14 362.445C539.349 361.072 541.637 358.457 543.076 355.09C548.306 342.897 550.987 353.554 550.235 357.869C548.044 370.094 542.455 384.151 542.03 393.99C541.932 396.017 542.03 398.207 543.435 399.776C544.122 400.528 545.102 401.019 546.116 400.953C547.75 400.822 548.502 399.482 549.123 398.207C552.49 391.244 554.942 383.791 556.315 376.175L551.64 401.574C551.51 402.228 551.575 402.947 551.836 403.568C553.079 406.282 558.113 405.628 559.943 403.503C566.612 395.69 569.718 384.707 571.091 374.475C569.521 382.124 567.92 389.773 566.351 397.455C565.958 399.286 566.743 401.247 568.377 402.13C570.764 403.405 572.888 401.247 574.261 399.253C577.988 393.696 580.603 387.354 581.813 380.751C580.832 383.399 581.126 386.439 582.434 388.891C583.284 390.493 585.539 390.558 586.553 389.022C588.481 386.047 589.593 382.484 590.671 379.051C593.875 368.558 597.046 358.097 600.249 347.604C604.466 333.776 613.064 316.582 604.499 303.833C595.575 290.43 576.975 296.282 565.01 303.996Z" fill="#FEC1C9"/>
<path d="M531.795 362.15C533.168 360.712 533.397 358.325 532.089 356.756C530.88 355.318 532.972 353.226 534.181 354.664C536.502 357.475 536.437 361.562 533.887 364.209C532.58 365.582 530.487 363.49 531.795 362.15Z" fill="#292524"/>
<path d="M550.074 390.852C554.748 378.496 558.41 365.812 561.123 352.867C561.515 351.004 564.359 351.788 563.967 353.652C561.254 366.597 557.592 379.28 552.918 391.637C552.231 393.402 549.387 392.65 550.074 390.852Z" fill="#292524"/>
<path d="M566.384 389.871C569.98 380.653 572.497 371.206 574.033 361.432C574.327 359.568 577.171 360.353 576.877 362.216C575.341 371.99 572.791 381.438 569.228 390.656C568.541 392.389 565.697 391.637 566.384 389.871Z" fill="#292524"/>
<path d="M579.722 386.178C582.305 378.79 584.299 371.304 585.737 363.622C586.097 361.759 588.908 362.543 588.581 364.407C587.143 372.089 585.116 379.607 582.566 386.962C581.912 388.728 579.068 387.976 579.722 386.178Z" fill="#292524"/>
<path d="M545.301 337.503C544.32 336.587 543.307 335.705 542.326 334.79C541.738 334.267 541.771 333.253 542.326 332.697C542.915 332.109 543.83 332.174 544.418 332.697C545.399 333.613 546.412 334.495 547.393 335.411C547.982 335.934 547.949 336.947 547.393 337.503C546.805 338.058 545.889 338.026 545.301 337.503Z" fill="white"/>
<path d="M559.191 341.394C561.152 341.753 563.081 342.113 565.042 342.472C566.905 342.832 566.121 345.643 564.257 345.316C562.296 344.957 560.367 344.597 558.406 344.238C556.543 343.878 557.327 341.067 559.191 341.394Z" fill="white"/>
<path d="M572.857 343.91C574.655 344.237 576.42 344.564 578.218 344.891C580.081 345.25 579.297 348.061 577.433 347.735C575.635 347.408 573.87 347.081 572.072 346.754C570.209 346.427 570.993 343.583 572.857 343.91Z" fill="white"/>
<path d="M587.074 346.035C589.46 346.819 591.814 347.604 594.2 348.388C595.998 348.977 595.214 351.821 593.416 351.232C591.029 350.448 588.676 349.663 586.289 348.879C584.492 348.29 585.276 345.446 587.074 346.035Z" fill="white"/>
<path d="M555.66 390.722C558.177 395.037 558.013 400.398 555.104 404.484C554.025 406.02 551.476 404.549 552.554 403.013C554.875 399.744 555.169 395.723 553.11 392.225C552.162 390.591 554.712 389.087 555.66 390.722Z" fill="#292524"/>
<path d="M569.197 391.016C572.793 393.664 573.414 398.763 570.472 402.13C569.23 403.569 567.171 401.477 568.38 400.038C569.982 398.175 569.688 395.004 567.694 393.533C566.223 392.454 567.694 389.904 569.197 391.016Z" fill="#292524"/>
<path d="M585.309 380.424C587.695 383.072 587.662 387.093 585.145 389.643C583.805 390.983 581.745 388.923 583.053 387.551C584.393 386.178 584.491 383.922 583.217 382.484C581.974 381.111 584.034 379.019 585.309 380.424Z" fill="#292524"/>
<path d="M433.958 456.885L421.863 408.537C418.038 392.356 408.166 357.313 396.659 345.283C389.468 337.765 380.511 330.867 370.737 327.173C364.885 324.95 362.466 343.485 356.223 344.302C351.058 344.989 346.22 347.375 341.97 350.383C340.27 351.592 338.603 352.932 337.524 354.73C335.138 358.686 334.386 364.831 335.498 369.31C341.055 391.506 347.331 412.427 349.325 435.212C360.963 566.656 453.179 531.58 433.958 456.885Z" fill="#FEC1C9"/>
<path d="M374.993 408.082C425.008 358.851 400.392 341.363 393.299 336.59C383.59 330.085 370.841 328.581 360.413 323.056C352.437 318.84 346.063 312.367 341.519 305.208C340.571 303.704 338.675 302.789 336.812 303.116C334.621 303.475 334.196 305.371 334.164 307.006C334.066 315.146 340.146 322.043 344.886 329.398C347.174 332.929 344.428 337.178 339.95 337.08C320.467 336.721 301.017 337.309 281.697 338.878C279.932 339.009 278.036 339.238 277.186 340.839C276.532 342.082 276.892 343.585 277.905 344.697C279.932 346.887 283.037 347.214 285.947 347.443C300.494 348.718 315.073 349.96 329.62 351.235C330.666 352.575 329.816 354.504 328.345 355.354C326.874 356.236 324.978 356.302 323.18 356.367C309.679 356.694 296.081 355.68 282.711 353.36C280.39 352.967 278.003 353.85 277.023 355.746C275.355 358.949 279.605 361.565 283.168 361.891C286.437 362.218 290 361.695 292.812 363.297C289.673 363.036 286.274 362.839 283.789 364.637C282.253 365.749 281.501 367.612 282.286 369.312C283.005 370.881 284.672 371.371 286.241 371.731C291.079 372.842 296.048 373.3 300.984 373.039C296.506 373.267 290.491 375.392 292.158 379.315C292.648 380.492 293.76 381.44 295.034 381.963C313.569 389.514 333.902 391.77 353.875 393.993L374.993 408.082Z" fill="#FEC1C9"/>
<path d="M340.832 304.587C339.786 307.3 342.467 309.85 345.082 309.948C346.978 310.013 346.978 312.955 345.082 312.89C340.734 312.759 336.256 308.346 338.021 303.802C338.675 302.07 341.519 302.821 340.832 304.587Z" fill="#292524"/>
<path d="M352.76 336.851C354.558 347.377 362.632 355.223 372.569 358.492C374.367 359.08 373.583 361.924 371.785 361.336C360.965 357.773 351.877 349.175 349.916 337.669C349.589 335.773 352.433 334.988 352.76 336.851Z" fill="#292524"/>
<path d="M373.029 370.194C367.538 370.652 362.503 372.711 358.515 376.568C357.142 377.876 355.083 375.817 356.423 374.476C360.967 370.063 366.753 367.742 372.997 367.219C374.925 367.121 374.925 370.063 373.029 370.194Z" fill="#292524"/>
<path d="M290.357 361.368C303.662 363.624 317.032 365.324 330.467 366.402C332.33 366.566 332.363 369.508 330.467 369.344C316.77 368.2 303.139 366.5 289.573 364.18C287.709 363.885 288.494 361.074 290.357 361.368Z" fill="#292524"/>
<path d="M298.01 371.567C309.909 373.463 321.841 375 333.805 376.242C335.668 376.438 335.701 379.38 333.805 379.184C321.579 377.942 309.353 376.34 297.226 374.411C295.362 374.117 296.147 371.273 298.01 371.567Z" fill="#292524"/>
<path d="M302.649 383.76C317.424 389.285 332.789 392.586 348.545 393.567C350.441 393.698 350.441 396.64 348.545 396.509C332.527 395.496 316.869 392.227 301.864 386.604C300.099 385.95 300.851 383.106 302.649 383.76Z" fill="#292524"/>
<path d="M371.458 398.372C375.839 398.568 380.023 397.816 384.076 396.214C385.842 395.528 386.594 398.372 384.861 399.058C380.546 400.758 376.068 401.51 371.458 401.314C369.595 401.249 369.562 398.307 371.458 398.372Z" fill="#292524"/>
<path d="M508.981 436.193C506.987 422.757 503.358 409.747 498.095 397.227C497.376 395.494 500.22 394.71 500.939 396.442C506.202 408.962 509.831 421.973 511.825 435.408C512.086 437.271 509.275 438.089 508.981 436.193Z" fill="#292524"/>
<path d="M743.756 507.423C723.358 496.929 719.664 463.488 735.519 432.76C751.34 402.032 780.695 385.589 801.094 396.082C821.492 406.576 825.186 440.017 809.331 470.745C793.477 501.473 764.122 517.883 743.756 507.423Z" fill="#292524"/>
<path d="M816.784 364.275C817.83 342.668 810.246 321.844 791.548 312.789C747.875 291.639 729.275 329.298 739.67 330.572C735.159 334.103 735.551 342.439 740.356 345.315C738.951 347.734 737.545 350.252 737.382 353.03C737.218 355.809 738.787 358.882 741.403 359.339C738.657 362.608 738.199 367.74 740.356 371.369C740.978 372.415 741.795 373.396 741.958 374.638C742.089 375.619 741.762 376.599 741.468 377.547C734.93 397.39 725.81 412.884 716.82 430.014C701.881 458.519 718.16 473.098 722.475 477.708C738.362 494.739 794.752 503.434 807.141 437.075C811.619 412.983 815.608 388.76 816.784 364.275Z" fill="#FDB468"/>
<path d="M736.498 331.651C740.421 326.552 745.259 323.348 751.339 321.42C758.858 319.033 766.965 316.974 774.875 317.758C776.739 317.955 776.771 320.897 774.875 320.701C768.109 320.047 761.636 321.649 755.131 323.414C748.658 325.179 743.167 327.729 738.982 333.155C737.904 334.626 735.321 333.155 736.498 331.651Z" fill="#292524"/>
<path d="M738.035 345.055C742.415 339.661 748.299 336.294 754.739 333.842C761.277 331.358 769.057 328.089 776.085 329.887C777.916 330.344 777.131 333.188 775.3 332.731C769.057 331.096 761.407 334.431 755.523 336.686C749.541 338.974 744.18 342.113 740.127 347.147C738.917 348.618 736.858 346.526 738.035 345.055Z" fill="#292524"/>
<path d="M738.915 359.012C743.132 354.599 749.376 351.853 754.835 349.401C760.752 346.754 766.767 345.054 773.272 345.544C775.135 345.675 775.168 348.617 773.272 348.486C766.669 347.963 760.621 349.859 754.704 352.67C750.03 354.893 744.636 357.28 741.007 361.072C739.7 362.445 737.608 360.352 738.915 359.012Z" fill="#292524"/>
<path d="M742.577 374.213C751.436 377.319 764.283 377.842 771.344 370.323C772.684 369.016 773.404 367.414 773.469 365.485C771.606 361.889 769.612 360.941 767.585 362.641C766.114 363.426 764.937 364.897 763.531 365.845C762.06 366.858 760.785 367.806 759.086 367.054C758.497 366.793 758.268 365.975 758.399 365.387C758.432 365.256 758.464 365.158 758.497 365.027C758.726 364.21 759.511 363.883 760.295 364.014C760.393 364.014 760.459 364.047 760.557 364.047C762.42 364.341 761.635 367.185 759.772 366.891C759.674 366.891 759.609 366.858 759.511 366.858C760.099 366.531 760.72 366.172 761.308 365.845C761.276 365.975 761.243 366.073 761.21 366.204C760.982 365.649 760.753 365.093 760.524 364.537C761.014 364.766 765.787 360.091 767.062 359.47C768.827 358.588 770.723 358.293 772.586 359.111C776.117 360.68 777.032 365.354 775.823 368.656C773.828 374.082 767.323 376.926 762.158 378.267C755.294 380.065 748.396 379.345 741.76 377.024C740.028 376.436 740.779 373.592 742.577 374.213Z" fill="#292524"/>
<path d="M773.962 366.465C771.053 367.642 769.418 370.747 769.549 373.82C769.647 375.716 766.705 375.716 766.607 373.82C766.411 369.342 769.059 365.321 773.177 363.654C774.91 362.902 775.695 365.746 773.962 366.465Z" fill="#292524"/>
<path d="M812.699 341.655C812.438 333.221 806.684 325.997 800.702 320.015C794.687 314.065 787.953 308.41 784.586 300.662C781.873 294.419 781.677 287.096 784.063 280.689C784.782 278.728 785.763 276.799 785.992 274.707C786.221 272.615 785.436 270.229 783.54 269.346C780.762 268.038 777.722 270.49 775.793 272.876C771.086 278.695 767.424 285.56 766.542 292.98C765.659 300.401 767.849 308.41 773.308 313.477C776.545 316.484 780.696 318.315 784.75 320.08C785.927 320.603 787.136 321.126 788.313 321.649L812.699 341.655Z" fill="#FDB468"/>
<path d="M781.286 281.015C780.011 276.374 782.07 271.437 786.255 269.084C787.922 268.168 789.393 270.686 787.726 271.634C784.653 273.333 783.182 276.864 784.097 280.231C784.62 282.062 781.776 282.846 781.286 281.015Z" fill="#292524"/>
<path d="M766.477 305.664C770.497 305.043 774.42 305.206 778.343 306.252C780.173 306.742 779.389 309.586 777.558 309.096C774.159 308.181 770.726 307.952 767.228 308.508C765.398 308.802 764.581 305.958 766.477 305.664Z" fill="#292524"/>
<path d="M641.603 302.689C644.741 304.389 647.879 306.089 651.018 307.789C648.076 311.875 642.322 312.889 637.713 310.208L641.603 302.689Z" fill="white"/>
<path d="M663.47 296.478C661.672 295.988 659.907 295.792 658.044 295.923C658.469 295.171 658.894 294.451 659.319 293.7C660.267 295.53 661.215 297.328 662.163 299.159C663.045 300.826 660.496 302.33 659.613 300.63C658.665 298.799 657.717 297.001 656.769 295.171C656.246 294.157 656.9 293.013 658.044 292.948C660.136 292.817 662.228 293.046 664.255 293.634C666.086 294.157 665.301 297.001 663.47 296.478Z" fill="#292524"/>
<path d="M669.483 289.286C668.895 287.553 667.784 286.049 666.247 285.036C664.678 283.99 666.149 281.44 667.718 282.486C669.908 283.957 671.477 285.984 672.295 288.501C672.916 290.299 670.072 291.084 669.483 289.286Z" fill="#292524"/>
<path d="M651.246 309.554C650.363 309.554 649.481 309.554 648.565 309.554C647.781 309.554 647.094 308.868 647.094 308.083C647.094 307.299 647.781 306.612 648.565 306.612C649.448 306.612 650.33 306.612 651.246 306.612C652.03 306.612 652.717 307.299 652.717 308.083C652.717 308.868 652.03 309.554 651.246 309.554Z" fill="#292524"/>
<path d="M257.863 504.709C263.583 547.467 264.106 590.813 259.497 633.702C259.301 635.565 256.359 635.598 256.555 633.702C261.197 590.813 260.641 547.467 254.92 504.709C254.659 502.846 257.601 502.879 257.863 504.709Z" fill="#292524"/>
<path d="M164.104 465.548C149.427 477.709 136.22 491.471 124.681 506.672C123.537 508.175 120.987 506.704 122.131 505.201C133.801 489.771 147.106 475.813 162.012 463.489C163.483 462.279 165.575 464.339 164.104 465.548Z" fill="#292524"/>
<path d="M732.644 533.541C724.57 517.654 719.961 500.459 718.98 482.644C718.882 480.748 721.824 480.748 721.922 482.644C722.87 499.936 727.349 516.641 735.194 532.07C736.044 533.737 733.494 535.241 732.644 533.541Z" fill="#292524"/>
<path d="M713.618 527.101C711.298 515.693 710.807 504.186 712.213 492.646C712.442 490.783 715.384 490.783 715.155 492.646C713.782 503.924 714.174 515.17 716.462 526.349C716.822 528.18 714.011 528.964 713.618 527.101Z" fill="#292524"/>
<path d="M231.257 525.206C231.519 529.978 238.71 530.011 238.71 525.206C238.71 520.4 231.519 520.433 231.257 525.206C231.159 527.102 228.217 527.102 228.315 525.206C228.511 521.61 231.224 518.537 234.984 518.537C238.612 518.537 241.652 521.577 241.652 525.206C241.652 528.736 238.776 531.711 235.278 531.842C231.388 532.005 228.544 528.932 228.348 525.206C228.217 523.31 231.159 523.31 231.257 525.206Z" fill="#292524"/>
<path d="M227.429 592.743C227.691 597.516 234.882 597.548 234.882 592.743C234.882 587.905 227.691 587.97 227.429 592.743C227.331 594.639 224.389 594.639 224.487 592.743C224.683 589.147 227.396 586.074 231.156 586.074C234.784 586.074 237.824 589.114 237.824 592.743C237.824 596.273 234.948 599.248 231.45 599.379C227.56 599.542 224.716 596.469 224.52 592.743C224.389 590.847 227.331 590.847 227.429 592.743Z" fill="#292524"/>
<path d="M561.983 95.7681C564.442 99.8782 567.399 103.603 569.683 106.294C579.857 118.094 593.168 129.15 607.813 134.794C617.672 138.614 638.821 141.534 643.466 128.39C644.596 125.242 644.05 121.666 642.843 118.565C638.721 107.94 628.948 103.023 619.51 98.1739C609.378 92.9726 600.063 86.3111 591.399 78.9262C588.426 76.4129 585.547 73.7795 582.12 71.9151C575.555 68.3567 564.202 68.1312 559.507 74.8764C555.315 80.954 557.917 88.9055 561.983 95.7681Z" fill="#E3DDFE"/>
</svg>
