<svg width="420" height="289" viewBox="0 0 420 289" fill="none" xmlns="http://www.w3.org/2000/svg">
<g style="mix-blend-mode:multiply" opacity="0.24">
<path d="M401.398 270.578C401.255 270.596 401.111 270.614 400.967 270.614C399.692 270.614 398.578 269.698 398.381 268.388C397.59 263.612 400.285 259.25 402.081 256.36L414.529 236.289C415.302 235.068 416.918 234.673 418.158 235.445C419.379 236.217 419.774 237.833 419.002 239.072L406.554 259.16C404.739 262.104 403.141 264.941 403.572 267.562C403.805 268.998 402.835 270.344 401.398 270.578Z" fill="url(#paint0_linear_1024_1904)"/>
<path d="M387.28 279.787C387.747 279.787 388.232 279.661 388.663 279.392C389.902 278.62 390.279 277.004 389.507 275.766C387.513 272.534 386.435 266.484 392.668 255.946C393.081 255.265 393.493 254.566 393.906 253.867L393.907 253.866L393.908 253.864L393.934 253.82C397.772 247.44 402.115 240.22 401.093 232.214C400.542 227.772 398.425 223.946 396.379 220.248L396.315 220.132L396.222 219.964C394.208 216.31 392.306 212.859 392.112 209.181C391.914 205.591 393.333 202.054 394.842 198.302L394.876 198.217C396.267 194.725 397.7 191.125 397.95 187.172C398.488 178.842 393.567 171.392 389.812 166.491C388.986 165.432 388.142 164.355 387.316 163.331L387.303 163.316C383.805 158.923 380.506 154.78 378.819 149.903C376.969 144.607 377.652 137.372 382.555 134.374C383.795 133.621 384.19 132.005 383.436 130.766C382.681 129.527 381.064 129.132 379.825 129.886C376.466 131.933 374.095 135.452 373.125 139.778C372.263 143.602 372.532 147.821 373.861 151.626C375.855 157.353 379.592 162.057 383.22 166.599C384.028 167.604 384.855 168.663 385.645 169.686C392.399 178.483 392.902 183.689 392.704 186.813C392.507 189.972 391.268 193.059 389.957 196.326L389.956 196.327C388.303 200.438 386.615 204.693 386.866 209.432C387.135 214.367 389.452 218.553 391.689 222.595L391.716 222.645C393.638 226.092 395.435 229.359 395.884 232.842C396.671 239.047 393.002 245.146 389.441 251.066L389.399 251.135C389.152 251.537 388.911 251.944 388.672 252.347C388.494 252.647 388.318 252.945 388.142 253.236C382.142 263.379 381.064 272.103 385.034 278.494C385.537 279.338 386.399 279.787 387.28 279.787Z" fill="url(#paint1_linear_1024_1904)"/>
<path d="M379.556 115.201C379.233 115.327 378.909 115.38 378.586 115.38C377.526 115.38 376.538 114.752 376.143 113.711L376.132 113.683C374.085 108.516 371.296 101.473 372.946 94.5919C374.634 87.5546 381.119 81.9715 388.34 81.3253C389.795 81.1996 391.07 82.2588 391.196 83.7129C391.322 85.167 390.262 86.4416 388.807 86.5673C383.849 86.9981 379.233 90.9835 378.065 95.8306C376.898 100.714 378.712 105.956 381.029 111.79C381.568 113.136 380.903 114.662 379.556 115.201Z" fill="url(#paint2_linear_1024_1904)"/>
<path d="M354.982 98.2728C352.593 99.1345 350.115 99.5474 347.69 99.5474C342.534 99.5474 337.594 97.6625 334.217 94.1977C333.212 93.1565 333.23 91.4869 334.271 90.4816C335.313 89.4763 336.984 89.4943 337.99 90.5355C341.492 94.1259 347.743 95.2748 353.186 93.318C358.09 91.5587 362.599 87.4656 365.922 81.8107C368.922 76.6944 370.754 70.9138 372.658 64.433C373.071 63.0507 374.526 62.2429 375.927 62.6558C377.31 63.0687 378.119 64.5228 377.705 65.9231C375.694 72.7449 373.772 78.8486 370.466 84.4856C366.533 91.1997 361.036 96.1006 354.982 98.2728Z" fill="url(#paint3_linear_1024_1904)"/>
<path d="M345.372 78.0408C341.043 79.2795 336.534 79.8898 332.007 79.8898C322.721 79.8898 313.398 77.3227 305.548 72.4218C304.309 71.6498 303.932 70.0341 304.704 68.7954C305.476 67.5567 307.093 67.1797 308.332 67.9517C318.769 74.4683 332.079 76.3532 343.935 72.9782C345.336 72.5833 346.791 73.3912 347.186 74.7914C347.581 76.1917 346.773 77.6458 345.372 78.0408Z" fill="url(#paint4_linear_1024_1904)"/>
<path d="M343.235 58.5447C343.415 58.5447 343.577 58.5268 343.756 58.4909C345.175 58.2036 346.109 56.8213 345.822 55.4031C345.319 52.9077 344.421 50.556 343.145 48.4377C339.589 42.4955 333.104 38.3844 326.224 37.7023C324.787 37.5587 323.494 38.6178 323.35 40.054C323.207 41.4902 324.267 42.7827 325.704 42.9263C330.967 43.4469 335.924 46.5886 338.637 51.1305C339.607 52.7462 340.289 54.5234 340.667 56.4264C340.918 57.683 342.014 58.5447 343.235 58.5447Z" fill="url(#paint5_linear_1024_1904)"/>
<path d="M319.022 60.2144C321.662 60.2144 324.177 59.4245 326.117 57.8627C327.249 56.9471 327.428 55.2955 326.512 54.1645C325.596 53.0335 323.944 52.854 322.812 53.7696C321.249 55.0262 318.231 55.5827 314.98 54.0029C312.034 52.5668 309.663 49.8919 307.508 47.3068C307.391 47.1722 307.279 47.0331 307.166 46.8939C307.054 46.7548 306.942 46.6157 306.825 46.481C304.58 43.7523 302.245 40.9338 299.137 38.8154C295.562 36.3919 291.269 35.0634 285.97 34.7583C281.462 34.489 276.881 34.9916 272.588 35.5302C271.151 35.7097 270.127 37.0202 270.307 38.4564C270.486 39.8926 271.798 40.9158 273.235 40.7363C281.857 39.6592 290.102 39.0309 296.173 43.1599C298.652 44.8474 300.646 47.253 302.748 49.8201C302.864 49.9637 302.981 50.1027 303.098 50.2418C303.214 50.3807 303.332 50.5205 303.448 50.6639C305.855 53.5721 308.765 56.8394 312.663 58.7423C314.747 59.7297 316.938 60.2144 319.022 60.2144Z" fill="url(#paint6_linear_1024_1904)"/>
<path d="M313.578 103.677C314.638 103.677 315.644 103.03 316.039 101.971C316.542 100.607 315.86 99.0989 314.494 98.5962L314.423 98.5694C308.176 96.226 301.721 93.8047 296.657 89.5483C290.334 84.2345 288.772 77.8256 289.418 73.6068C289.544 72.7631 289.76 71.9014 289.993 70.9679C290.424 69.2445 290.873 67.4492 290.837 65.4745C290.765 61.4532 288.466 57.5396 284.999 55.5111C281.533 53.4825 276.988 53.3748 273.449 55.2597C272.174 55.9419 271.689 57.5397 272.372 58.8143C273.054 60.0889 274.653 60.5736 275.928 59.8914C277.868 58.8502 280.455 58.904 282.341 60.035C284.245 61.148 285.538 63.3741 285.574 65.5822C285.592 66.8568 285.251 68.2391 284.874 69.6933C284.851 69.783 284.829 69.8728 284.806 69.9629L284.8 69.9854C284.571 70.8971 284.337 71.8278 284.191 72.8169C283.095 79.9978 286.562 87.9506 293.244 93.5696C299.01 98.4167 306.231 101.127 312.608 103.515C312.967 103.623 313.273 103.677 313.578 103.677Z" fill="url(#paint7_linear_1024_1904)"/>
<path d="M323.619 125.255C326.314 125.255 329.008 124.842 331.595 123.998C335.092 122.851 338.249 121.006 341.316 119.213L341.33 119.205C345.659 116.674 349.737 114.304 354.21 114.16C358.269 114.017 362.329 115.938 364.808 119.151C365.688 120.3 367.34 120.515 368.49 119.618C369.64 118.738 369.855 117.087 368.957 115.938C365.472 111.414 359.742 108.721 354.03 108.9C348.239 109.08 343.396 111.906 338.698 114.648L338.672 114.663L338.621 114.692C335.676 116.405 332.889 118.026 329.942 119.007C326.314 120.21 322.308 120.318 318.392 119.367C314.476 118.415 310.991 116.458 308.315 113.712C307.309 112.67 305.638 112.652 304.597 113.658C303.555 114.663 303.537 116.333 304.543 117.374C309.518 122.454 316.56 125.255 323.619 125.255Z" fill="url(#paint8_linear_1024_1904)"/>
<path d="M273.738 127.373C273.235 128.163 272.373 128.594 271.51 128.594C271.025 128.594 270.54 128.451 270.091 128.199C268.87 127.427 268.511 125.794 269.283 124.573C270.415 122.796 270.217 119.313 267.612 116.387C265.798 114.34 263.373 112.832 260.787 111.252C260.478 111.056 260.162 110.859 259.843 110.66L259.839 110.657C259.287 110.313 258.727 109.964 258.182 109.601C252.452 105.831 249.362 101.54 249.039 96.8368C248.825 93.778 249.863 90.9306 250.773 88.4343L250.799 88.3634C250.823 88.3001 250.846 88.2376 250.868 88.1756C250.883 88.1352 250.897 88.0949 250.912 88.0548L250.952 87.9415C251.001 87.8024 251.051 87.6632 251.105 87.5196C251.877 85.3474 252.596 82.87 251.949 80.9133C251.679 80.1054 250.943 79.3335 250.135 79.0104C249.686 78.8308 249.308 78.8129 249.021 78.9744C247.746 79.6566 246.147 79.1719 245.464 77.8973C244.782 76.6227 245.267 75.025 246.542 74.3428C248.231 73.4452 250.188 73.3734 252.093 74.1273C254.338 75.025 256.188 76.9997 256.942 79.2617C258.092 82.7444 257.14 86.281 256.062 89.2969L255.739 90.1586L255.712 90.2323C254.914 92.4311 254.16 94.5069 254.302 96.4598C254.518 99.4399 256.799 102.384 261.092 105.203C261.81 105.665 262.528 106.113 263.284 106.585L263.571 106.764L263.659 106.819C266.416 108.525 269.272 110.293 271.564 112.886C273.271 114.807 274.474 117.195 274.977 119.618C275.57 122.472 275.139 125.165 273.738 127.373Z" fill="url(#paint9_linear_1024_1904)"/>
<path d="M285.989 109.708C287.066 109.708 288.09 109.026 288.467 107.949C288.952 106.584 288.234 105.076 286.851 104.592C283.582 103.443 280.528 101.396 277.995 98.6496C275.426 95.849 273.397 92.3304 272.121 88.4527C271.672 87.0704 270.181 86.3344 268.798 86.7832C267.415 87.232 266.679 88.7221 267.128 90.1044C268.637 94.6822 271.062 98.865 274.133 102.204C277.241 105.579 281.031 108.128 285.108 109.564C285.414 109.654 285.701 109.708 285.989 109.708Z" fill="url(#paint10_linear_1024_1904)"/>
<path d="M269.461 70.7159C269.048 71.7571 268.06 72.4034 267 72.4034C266.695 72.4034 266.372 72.3496 266.048 72.188L265.919 72.1379C261.748 70.5169 257.046 68.6896 253.259 65.4201C248.714 61.5065 246.433 55.9772 247.277 51.0045C247.331 50.7173 247.385 50.3941 247.439 50.071C247.744 48.3835 248.103 46.301 248.211 44.3442C248.355 41.6873 247.906 40.7718 247.762 40.5563C245.391 36.9659 239.014 36.2658 236.769 36.3017C235.314 36.3376 234.128 35.1887 234.093 33.7345C234.057 32.2804 235.206 31.0956 236.661 31.0597L236.689 31.0596C237.432 31.0569 247.776 31.0194 252.163 37.702C254.211 40.8256 253.528 45.9958 252.63 51.0224C252.576 51.3456 252.522 51.6508 252.468 51.9201C251.822 55.7259 254.229 59.3522 256.708 61.4885C259.851 64.1814 263.965 65.7791 267.952 67.323C269.317 67.8436 269.982 69.3695 269.461 70.7159Z" fill="url(#paint11_linear_1024_1904)"/>
<path d="M313.992 33.9677C315.051 33.9677 316.075 33.878 317.099 33.6805C318.518 33.4112 319.452 32.0289 319.183 30.6107C318.913 29.1925 317.53 28.259 316.111 28.5282C312.267 29.2643 307.759 27.9179 302.316 24.4172C301.473 23.8695 300.619 23.2888 299.779 22.7182L299.773 22.7139L299.448 22.4931C299.326 22.41 299.204 22.3273 299.083 22.245L299.058 22.2282C295.419 19.7382 291.654 17.1614 287.209 15.7822C281.407 13.987 274.958 14.5076 269.516 17.2004C264.073 19.9112 259.78 24.7404 257.714 30.4491C257.229 31.8135 257.93 33.3215 259.295 33.8062C260.66 34.2909 262.169 33.5908 262.654 32.2264C264.271 27.7742 267.612 24.0043 271.851 21.9039C276.09 19.8035 281.12 19.3906 285.646 20.7909C289.336 21.9365 292.597 24.1707 296.07 26.5505L296.101 26.5714C297.196 27.3255 298.328 28.0974 299.46 28.8334C304.813 32.2623 309.609 33.9677 313.992 33.9677Z" fill="url(#paint12_linear_1024_1904)"/>
<path d="M244.835 125.506C244.548 126.727 243.47 127.553 242.267 127.553C242.069 127.553 241.871 127.535 241.692 127.481C240.273 127.158 239.393 125.758 239.716 124.34C241.333 117.302 238.584 109.87 236.016 104.197C235.333 102.689 234.614 101.163 233.896 99.6913C231.309 94.3057 228.651 88.7405 227.555 82.6368C226.801 78.418 227.016 73.9659 228.166 70.1062C229.495 65.654 231.992 62.0636 235.405 59.7478C236.59 58.9399 238.225 59.2451 239.051 60.4479C239.86 61.6328 239.554 63.2664 238.351 64.0922C232.944 67.7724 231.615 75.5816 232.71 81.7033C233.68 87.1069 236.069 92.0975 238.62 97.3934L239.019 98.2296C239.614 99.4747 240.222 100.747 240.794 102.007C243.704 108.434 246.811 116.925 244.835 125.506Z" fill="url(#paint13_linear_1024_1904)"/>
<path d="M270.451 144.213C277.043 144.213 283.761 141.951 289.689 137.678C293.695 134.788 299.012 134.5 303.233 136.96C314.621 143.62 329.405 145.272 341.799 141.25C343.182 140.802 343.937 139.312 343.487 137.947C343.038 136.565 341.565 135.811 340.182 136.26C329.171 139.832 316.022 138.378 305.891 132.436C299.892 128.917 292.312 129.312 286.617 133.423C280.618 137.75 273.738 139.653 267.289 138.755C265.852 138.558 264.523 139.563 264.326 140.999C264.128 142.435 265.134 143.764 266.571 143.961C267.846 144.141 269.14 144.213 270.451 144.213Z" fill="url(#paint14_linear_1024_1904)"/>
<path d="M254.714 153.35C254.624 154.732 253.457 155.792 252.091 155.792L251.948 155.792C250.493 155.702 249.397 154.445 249.505 152.991C249.702 150.137 247.349 147.695 245.032 146.869C243.546 146.321 241.903 146.139 240.154 145.945L240.074 145.936C238.44 145.756 236.769 145.559 235.063 145.092C229.261 143.494 224.213 138.737 221.573 132.364C219.004 126.153 218.806 118.631 221.088 112.258C221.573 110.893 223.081 110.175 224.447 110.66C225.812 111.145 226.53 112.653 226.045 114.017C224.213 119.115 224.357 125.381 226.423 130.353C228.416 135.165 232.26 138.863 236.446 140.03C237.757 140.389 239.158 140.55 240.631 140.712C242.625 140.927 244.691 141.161 246.792 141.915C251.014 143.44 255.091 147.857 254.714 153.35Z" fill="url(#paint15_linear_1024_1904)"/>
<path d="M336.715 164.193C340.9 164.193 345.193 163.781 349.451 162.919C353.241 162.147 357.588 161.142 361.432 158.88C365.886 156.259 368.868 152.273 369.641 147.965C370.593 142.633 367.665 137.086 362.977 135.362C361.611 134.86 360.102 135.56 359.6 136.924C359.097 138.289 359.797 139.797 361.162 140.299C363.497 141.161 364.988 144.195 364.467 147.067C363.982 149.832 361.845 152.561 358.773 154.374C355.63 156.223 351.786 157.102 348.409 157.785C336.463 160.19 324.285 158.88 315.824 154.266C314.549 153.566 312.95 154.033 312.25 155.307C311.549 156.582 312.016 158.18 313.291 158.88C319.74 162.362 328.003 164.193 336.715 164.193Z" fill="url(#paint16_linear_1024_1904)"/>
<path d="M357.929 62.4044C358.306 62.4044 358.701 62.3147 359.078 62.1351C363.281 60.1065 365.527 54.7209 364.287 49.6225C363.425 46.0141 361.09 42.6391 357.156 39.318C356.158 38.4678 355.131 37.6772 354.127 36.9054L354.126 36.9043L353.833 36.679C352.001 35.2787 350.276 33.9503 348.786 32.4244C347.331 30.9343 344.941 27.9363 345.103 24.5613C345.211 22.3173 347.079 19.7322 349.306 19.786C350.761 19.804 351.965 18.673 351.983 17.2189C352.019 15.7647 350.869 14.562 349.414 14.544C346.899 14.4901 344.492 15.5852 342.642 17.6318C340.99 19.4629 339.966 21.9044 339.84 24.3279C339.642 28.3133 341.493 32.4962 345.013 36.1045C346.768 37.8935 348.718 39.3973 350.598 40.8468L350.618 40.8618C351.713 41.7056 352.737 42.4955 353.743 43.3393C356.797 45.9244 358.557 48.3838 359.15 50.8791C359.869 53.8592 358.467 56.6059 356.761 57.4317C355.45 58.06 354.911 59.6398 355.54 60.9323C356.025 61.8658 356.959 62.4044 357.929 62.4044Z" fill="url(#paint17_linear_1024_1904)"/>
<path d="M330.356 27.0389C329.996 27.2184 329.601 27.3082 329.224 27.3082C328.254 27.3082 327.302 26.7696 326.853 25.8002C325.488 22.9996 322.973 20.4863 319.722 18.745C316.398 16.9677 312.572 16.0881 308.908 16.2855C307.453 16.3753 306.214 15.2623 306.142 13.8081C306.052 12.354 307.166 11.1153 308.621 11.0435C313.237 10.8101 318.051 11.9052 322.2 14.1313C326.422 16.4112 329.745 19.7503 331.577 23.5382C332.206 24.8308 331.667 26.4106 330.356 27.0389Z" fill="url(#paint18_linear_1024_1904)"/>
<path d="M194.269 150.639C194.449 150.639 194.61 150.621 194.79 150.585C196.209 150.298 197.143 148.915 196.856 147.497C196.353 145.002 195.455 142.65 194.179 140.532C190.623 134.59 184.138 130.478 177.258 129.796C175.821 129.653 174.528 130.712 174.384 132.148C174.241 133.584 175.3 134.877 176.737 135.02C182.001 135.541 186.958 138.683 189.671 143.224C190.641 144.84 191.323 146.617 191.7 148.52C191.952 149.777 193.048 150.639 194.269 150.639Z" fill="url(#paint19_linear_1024_1904)"/>
<path d="M177.151 149.957C175.211 151.519 172.696 152.309 170.056 152.309C167.954 152.309 165.781 151.824 163.697 150.819C159.799 148.916 156.889 145.648 154.482 142.74C154.365 142.597 154.249 142.458 154.132 142.319C154.015 142.18 153.898 142.04 153.781 141.896C151.68 139.329 149.686 136.924 147.207 135.236C141.136 131.107 132.891 131.736 124.269 132.813C122.832 132.992 121.52 131.969 121.341 130.533C121.161 129.097 122.185 127.786 123.622 127.607C127.915 127.068 132.496 126.565 137.004 126.835C142.303 127.14 146.596 128.468 150.171 130.892C153.278 133.01 155.614 135.829 157.859 138.557C157.976 138.692 158.088 138.831 158.2 138.97C158.313 139.109 158.425 139.249 158.542 139.383C160.697 141.986 163.068 144.661 166.014 146.097C169.265 147.677 172.283 147.121 173.846 145.864C174.977 144.948 176.63 145.128 177.546 146.259C178.462 147.39 178.283 149.041 177.151 149.957Z" fill="url(#paint20_linear_1024_1904)"/>
<path d="M183.025 171.984C187.552 171.984 192.06 171.374 196.389 170.135C197.79 169.74 198.599 168.286 198.204 166.886C197.808 165.486 196.353 164.678 194.952 165.073C183.097 168.448 169.786 166.563 159.35 160.046C158.111 159.274 156.494 159.651 155.722 160.89C154.949 162.129 155.326 163.744 156.566 164.516C164.434 169.417 173.738 171.984 183.025 171.984Z" fill="url(#paint21_linear_1024_1904)"/>
<path d="M167.074 194.066C166.679 195.125 165.673 195.771 164.613 195.771C164.308 195.771 164.002 195.717 163.643 195.61C157.266 193.222 150.045 190.511 144.279 185.664C137.597 180.045 134.13 172.092 135.226 164.911C135.372 163.922 135.606 162.991 135.835 162.079L135.909 161.788C136.286 160.334 136.627 158.951 136.609 157.677C136.573 155.469 135.28 153.243 133.376 152.129C131.49 150.998 128.903 150.945 126.963 151.986C125.688 152.668 124.089 152.183 123.406 150.909C122.724 149.634 123.209 148.036 124.484 147.354C128.023 145.469 132.567 145.577 136.034 147.606C139.501 149.634 141.8 153.548 141.872 157.569C141.908 159.544 141.459 161.339 141.028 163.062L141.028 163.064C140.794 163.997 140.579 164.858 140.453 165.701C139.806 169.92 141.369 176.329 147.692 181.643C152.756 185.899 159.211 188.321 165.458 190.664L165.529 190.691C166.894 191.193 167.577 192.701 167.074 194.066Z" fill="url(#paint22_linear_1024_1904)"/>
<path d="M198.707 191.642C201.132 191.642 203.611 191.229 206 190.368C212.054 188.196 217.55 183.295 221.484 176.581C224.789 170.944 226.711 164.84 228.723 158.018C229.136 156.618 228.328 155.164 226.945 154.751C225.544 154.338 224.089 155.146 223.675 156.528C221.771 163.009 219.939 168.789 216.939 173.906C213.616 179.561 209.108 183.654 204.204 185.413C198.761 187.37 192.51 186.221 189.007 182.63C188.001 181.589 186.331 181.571 185.289 182.577C184.247 183.582 184.229 185.251 185.235 186.293C188.63 189.757 193.552 191.642 198.707 191.642Z" fill="url(#paint23_linear_1024_1904)"/>
<path d="M182.612 216.093C180.026 216.936 177.331 217.349 174.637 217.349C167.595 217.349 160.536 214.549 155.56 209.468C154.554 208.427 154.572 206.758 155.614 205.752C156.656 204.747 158.327 204.765 159.332 205.806C162.009 208.553 165.494 210.51 169.41 211.461C173.325 212.412 177.331 212.305 180.96 211.102C183.907 210.12 186.694 208.5 189.639 206.787L189.69 206.758L189.715 206.742C194.414 204 199.256 201.174 205.048 200.995C210.76 200.815 216.49 203.508 219.975 208.032C220.873 209.181 220.657 210.833 219.508 211.712C218.358 212.61 216.706 212.395 215.825 211.246C213.347 208.032 209.287 206.129 205.227 206.255C200.755 206.399 196.677 208.768 192.348 211.299L192.334 211.308C189.267 213.1 186.11 214.946 182.612 216.093Z" fill="url(#paint24_linear_1024_1904)"/>
<path d="M122.526 220.688C123.389 220.688 124.251 220.257 124.754 219.467C126.155 217.259 126.586 214.566 126.011 211.712C125.508 209.289 124.305 206.901 122.598 204.98C120.306 202.387 117.45 200.62 114.693 198.913L114.605 198.858L114.318 198.679C113.562 198.207 112.844 197.759 112.126 197.297C107.833 194.478 105.551 191.534 105.336 188.554C105.194 186.601 105.948 184.525 106.746 182.327L106.773 182.253L107.096 181.391C108.174 178.375 109.126 174.838 107.976 171.356C107.222 169.094 105.372 167.119 103.126 166.221C101.222 165.467 99.2645 165.539 97.576 166.437C96.3006 167.119 95.8156 168.717 96.4982 169.991C97.1808 171.266 98.7795 171.751 100.055 171.068C100.342 170.907 100.719 170.925 101.169 171.104C101.977 171.427 102.713 172.199 102.983 173.007C103.629 174.964 102.911 177.441 102.139 179.614C102.104 179.705 102.072 179.795 102.04 179.884C102.023 179.932 102.005 179.98 101.988 180.029L101.987 180.031L101.986 180.035C101.962 180.103 101.938 180.17 101.914 180.237C101.888 180.31 101.861 180.383 101.833 180.457L101.807 180.528C100.897 183.024 99.8593 185.872 100.073 188.931C100.396 193.634 103.486 197.925 109.216 201.695C109.84 202.11 110.482 202.507 111.117 202.899L111.123 202.903C111.363 203.051 111.602 203.199 111.838 203.346C114.425 204.926 116.85 206.434 118.664 208.481C121.269 211.407 121.466 214.89 120.335 216.667C119.562 217.888 119.922 219.521 121.143 220.293C121.556 220.545 122.041 220.688 122.526 220.688Z" fill="url(#paint25_linear_1024_1904)"/>
<path d="M139.501 200.044C139.124 201.121 138.1 201.803 137.022 201.803C136.735 201.803 136.448 201.749 136.142 201.659C132.065 200.223 128.275 197.674 125.167 194.299C122.095 190.96 119.67 186.777 118.162 182.199C117.712 180.817 118.449 179.327 119.832 178.878C121.215 178.429 122.706 179.165 123.155 180.548C124.431 184.425 126.46 187.944 129.029 190.745C131.562 193.491 134.615 195.538 137.885 196.687C139.268 197.171 139.986 198.679 139.501 200.044Z" fill="url(#paint26_linear_1024_1904)"/>
<path d="M118.036 164.498C119.096 164.498 120.084 163.852 120.497 162.81C121.018 161.464 120.353 159.938 118.988 159.417C115 157.874 110.887 156.276 107.743 153.583C105.265 151.447 102.858 147.82 103.504 144.015C103.558 143.745 103.612 143.44 103.666 143.117C104.564 138.09 105.247 132.92 103.199 129.796C98.8119 123.114 88.4674 123.151 87.7244 123.154L87.6969 123.154C86.2419 123.19 85.0923 124.375 85.1283 125.829C85.1642 127.283 86.3497 128.432 87.8047 128.396C90.068 128.36 96.4268 129.06 98.7979 132.651C98.9416 132.866 99.3907 133.782 99.247 136.439C99.1392 138.396 98.78 140.478 98.4746 142.165C98.4207 142.489 98.3668 142.812 98.3129 143.099C97.4687 148.072 99.75 153.601 104.295 157.515C108.082 160.784 112.784 162.611 116.955 164.232L117.084 164.282C117.389 164.444 117.713 164.498 118.036 164.498Z" fill="url(#paint27_linear_1024_1904)"/>
<path d="M168.134 125.775C167.11 125.973 166.086 126.063 165.026 126.063C160.626 126.063 155.83 124.357 150.495 120.928C149.363 120.192 148.231 119.42 147.136 118.666L147.105 118.646C143.632 116.266 140.371 114.031 136.681 112.886C132.155 111.486 127.125 111.898 122.886 113.999C118.647 116.099 115.305 119.869 113.689 124.321C113.204 125.686 111.695 126.386 110.33 125.901C108.965 125.416 108.264 123.908 108.749 122.544C110.815 116.835 115.108 112.006 120.551 109.295C125.993 106.603 132.442 106.082 138.244 107.877C142.689 109.256 146.454 111.833 150.093 114.323L150.117 114.34C150.222 114.411 150.327 114.482 150.432 114.553C150.558 114.639 150.684 114.725 150.81 114.811C151.651 115.382 152.506 115.964 153.351 116.512C158.793 120.013 163.302 121.359 167.146 120.623C168.565 120.354 169.948 121.287 170.218 122.706C170.487 124.124 169.553 125.506 168.134 125.775Z" fill="url(#paint28_linear_1024_1904)"/>
<path d="M93.2833 219.647C94.4868 219.647 95.5646 218.822 95.852 217.601C97.8279 209.02 94.7203 200.528 91.8103 194.102C91.2388 192.842 90.6313 191.57 90.0368 190.326L90.034 190.32C89.9008 190.041 89.7682 189.764 89.6369 189.488C87.0861 184.192 84.6971 179.201 83.7271 173.798C82.6314 167.676 83.9606 159.867 89.3674 156.187C90.5709 155.361 90.8762 153.727 90.0679 152.542C89.2416 151.34 87.6071 151.034 86.4215 151.842C83.0086 154.158 80.5118 157.749 79.1825 162.201C78.0329 166.06 77.8173 170.512 78.5717 174.731C79.6675 180.835 82.326 186.4 84.9127 191.786C85.6312 193.258 86.3497 194.784 87.0323 196.292C89.6009 201.965 92.3492 209.397 90.7326 216.434C90.4093 217.852 91.2894 219.253 92.7085 219.576C92.9061 219.63 93.1037 219.647 93.2833 219.647Z" fill="url(#paint29_linear_1024_1904)"/>
<path d="M140.705 229.772C134.777 234.045 128.059 236.307 121.467 236.307C120.155 236.307 118.862 236.235 117.587 236.055C116.15 235.858 115.144 234.529 115.341 233.093C115.539 231.657 116.868 230.652 118.305 230.849C124.754 231.747 131.633 229.844 137.633 225.517C143.327 221.406 150.908 221.011 156.907 224.53C167.038 230.472 180.187 231.926 191.198 228.354C192.563 227.905 194.054 228.659 194.503 230.041C194.952 231.406 194.198 232.896 192.815 233.344C180.42 237.366 165.637 235.714 154.249 229.054C150.027 226.594 144.71 226.882 140.705 229.772Z" fill="url(#paint30_linear_1024_1904)"/>
<path d="M103.127 247.886C104.492 247.886 105.66 246.827 105.75 245.445C106.127 239.951 102.049 235.535 97.8281 234.009C95.7265 233.255 93.6608 233.022 91.6669 232.806C90.194 232.645 88.7928 232.483 87.4816 232.124C83.2962 230.957 79.4522 227.259 77.4583 222.448C75.3926 217.475 75.2489 211.21 77.0811 206.111C77.5661 204.747 76.8476 203.239 75.4824 202.754C74.1172 202.27 72.6084 202.988 72.1234 204.352C69.8421 210.725 70.0397 218.247 72.6084 224.458C75.2489 230.831 80.2965 235.589 86.0985 237.187C87.8049 237.653 89.4754 237.851 91.11 238.03L91.1898 238.039C92.9383 238.233 94.5815 238.416 96.0678 238.964C98.385 239.79 100.738 242.231 100.541 245.085C100.433 246.54 101.528 247.796 102.983 247.886L103.127 247.886Z" fill="url(#paint31_linear_1024_1904)"/>
<path d="M200.484 255.013C196.227 255.875 191.934 256.287 187.749 256.287C179.019 256.287 170.774 254.456 164.325 250.974C163.05 250.274 162.583 248.676 163.284 247.401C163.984 246.127 165.583 245.66 166.858 246.36C175.319 250.974 187.497 252.284 199.443 249.879C202.82 249.196 206.664 248.317 209.807 246.468C212.879 244.655 215.016 241.926 215.501 239.161C216.022 236.289 214.531 233.255 212.196 232.393C210.831 231.891 210.13 230.383 210.633 229.018C211.136 227.654 212.645 226.954 214.01 227.456C218.699 229.18 221.627 234.727 220.675 240.059C219.902 244.367 216.92 248.353 212.466 250.974C208.622 253.236 204.275 254.241 200.484 255.013Z" fill="url(#paint32_linear_1024_1904)"/>
<path d="M229.603 207.475C229.926 207.475 230.249 207.422 230.573 207.296C231.92 206.757 232.585 205.231 232.046 203.885C229.728 198.051 227.914 192.809 229.082 187.926C230.249 183.078 234.866 179.093 239.824 178.662C241.279 178.537 242.338 177.262 242.213 175.808C242.087 174.354 240.811 173.295 239.357 173.42C232.135 174.066 225.651 179.65 223.962 186.687C222.313 193.568 225.102 200.61 227.149 205.778L227.16 205.806C227.573 206.847 228.561 207.475 229.603 207.475Z" fill="url(#paint33_linear_1024_1904)"/>
<path d="M210.113 154.229C209.736 154.409 209.341 154.498 208.963 154.498C207.975 154.498 207.041 153.96 206.556 153.026C205.928 151.734 206.467 150.154 207.778 149.526C209.484 148.7 210.885 145.953 210.167 142.973C209.574 140.478 207.814 138.018 204.76 135.433C203.754 134.59 202.73 133.8 201.635 132.956L201.615 132.941C199.735 131.491 197.784 129.987 196.03 128.199C192.509 124.59 190.659 120.407 190.857 116.422C190.983 113.998 192.007 111.557 193.659 109.726C195.473 107.733 197.809 106.638 200.251 106.638L200.431 106.638C201.886 106.656 203.036 107.859 203 109.313C202.982 110.749 201.796 111.88 200.377 111.88L200.269 111.88C198.06 111.88 196.246 114.429 196.138 116.655C195.976 120.03 198.365 123.028 199.82 124.518C201.311 126.044 203.036 127.373 204.868 128.773L205.16 128.998C206.164 129.77 207.192 130.561 208.191 131.412C212.125 134.733 214.46 138.108 215.322 141.717C216.562 146.815 214.316 152.201 210.113 154.229Z" fill="url(#paint34_linear_1024_1904)"/>
<path d="M180.26 119.402C180.637 119.402 181.032 119.312 181.391 119.133C182.703 118.505 183.241 116.925 182.613 115.632C180.781 111.844 177.457 108.505 173.236 106.225C169.087 103.999 164.273 102.904 159.656 103.138C158.201 103.209 157.088 104.448 157.177 105.902C157.267 107.356 158.489 108.469 159.944 108.38C163.608 108.182 167.452 109.062 170.757 110.839C174.009 112.58 176.523 115.094 177.889 117.894C178.338 118.864 179.272 119.402 180.26 119.402Z" fill="url(#paint35_linear_1024_1904)"/>
<path d="M216.256 104.987C215.95 105.113 215.627 105.167 215.322 105.167C214.262 105.167 213.274 104.539 212.879 103.461C209.717 95.2034 203.412 88.1123 195.581 83.9833C192.11 82.1613 188.4 80.9035 184.483 79.5759L184.192 79.4773L184.185 79.4749C180.613 78.2729 176.933 77.0346 173.433 75.3483C169.247 73.3377 165.619 70.6089 162.924 67.4853C159.727 63.7512 157.985 59.5145 157.895 55.2419C157.859 53.7878 159.008 52.585 160.463 52.5491L160.517 52.5491C161.936 52.5491 163.104 53.6801 163.14 55.1163C163.302 62.1535 169.732 67.7366 175.714 70.6089C178.929 72.1528 182.288 73.2838 185.863 74.4866C189.904 75.851 194.09 77.2692 198.024 79.3337C206.951 84.0551 214.154 92.1695 217.765 101.594C218.286 102.959 217.603 104.467 216.256 104.987Z" fill="url(#paint36_linear_1024_1904)"/>
<path d="M184.946 100.984C185.664 100.984 186.401 100.678 186.922 100.104C187.892 99.0088 187.784 97.3572 186.688 96.3878C175.408 86.4244 159.762 81.5594 144.817 83.3905C143.38 83.57 142.356 84.8805 142.536 86.3167C142.715 87.7529 144.027 88.7761 145.464 88.5966C158.936 86.945 173.055 91.3253 183.221 100.319C183.706 100.768 184.335 100.984 184.946 100.984Z" fill="url(#paint37_linear_1024_1904)"/>
<path d="M125.059 95.903C124.556 96.5851 123.766 96.9442 122.975 96.9442C122.419 96.9442 121.862 96.7826 121.359 96.4236C118.97 94.6104 117.371 91.8278 116.832 88.5964C116.347 85.5805 116.796 82.4568 118.126 79.764C120.425 75.1144 125.185 71.4521 131.167 69.6928C136.218 68.2047 141.358 68.1501 146.343 68.0972L146.543 68.0951L146.561 68.0951C147.998 68.0951 149.165 69.262 149.183 70.6981C149.201 72.1523 148.034 73.3371 146.579 73.3551L146.363 73.3576C141.743 73.4104 136.991 73.4646 132.639 74.7374C128.077 76.0659 124.502 78.7587 122.85 82.0798C121.089 85.6164 121.862 90.1583 124.556 92.2228C125.724 93.1024 125.939 94.754 125.059 95.903Z" fill="url(#paint38_linear_1024_1904)"/>
<path d="M204.202 68.5263C205.388 68.5263 206.448 67.7364 206.753 66.5336C207.112 65.1333 206.25 63.6972 204.849 63.3381C199.478 61.9917 193.927 60.5914 189.365 57.6293C185.701 55.2417 181.767 50.8255 181.785 45.6014C181.785 41.4544 184.605 37.3255 188.467 35.8175C192.329 34.3095 197.197 35.4046 200.035 38.4564C201.023 39.5156 202.693 39.5874 203.753 38.6001C204.813 37.6127 204.885 35.9432 203.897 34.884C199.586 30.2524 192.455 28.6187 186.563 30.9345C180.671 33.2503 176.54 39.2823 176.54 45.6014C176.54 48.8507 177.563 52.136 179.521 55.1519C181.264 57.8268 183.671 60.1965 186.509 62.0456C191.745 65.4517 197.912 67.0171 203.378 68.4049L203.574 68.4545C203.771 68.5084 203.987 68.5263 204.202 68.5263Z" fill="url(#paint39_linear_1024_1904)"/>
<path d="M230.482 45.7627C225.722 52.1537 217.818 56.1211 209.861 56.1211L209.825 56.1211C201.849 56.1032 193.946 52.1178 189.203 45.7089C188.341 44.542 188.593 42.8904 189.76 42.0287C190.928 41.167 192.58 41.4183 193.443 42.5852C197.215 47.6836 203.502 50.8611 209.843 50.8611L209.861 50.8611C216.202 50.8611 222.488 47.7015 226.261 42.6211C227.123 41.4542 228.775 41.2209 229.943 42.0826C231.111 42.9443 231.344 44.5958 230.482 45.7627Z" fill="url(#paint40_linear_1024_1904)"/>
<path d="M217.639 31.419C218.249 31.419 218.86 31.2036 219.345 30.7907C220.441 29.8392 220.584 28.1876 219.632 27.0925C214.908 21.5633 208.082 17.7933 200.43 16.4828C192.778 15.1543 185.09 16.4289 178.767 20.0373C177.51 20.7554 177.079 22.3711 177.797 23.6277C178.516 24.8844 180.132 25.3152 181.39 24.5971C186.635 21.5812 193.083 20.54 199.532 21.653C205.981 22.7661 211.711 25.9077 215.645 30.5034C216.166 31.0958 216.902 31.419 217.639 31.419Z" fill="url(#paint41_linear_1024_1904)"/>
<path d="M136.286 59.2265C136.106 60.5371 134.975 61.5065 133.681 61.5065C133.556 61.5065 133.448 61.4885 133.34 61.4706C131.903 61.2911 130.879 59.9626 131.077 58.5264C132.891 44.7392 145.124 41.1667 148.842 40.3948C150.495 40.0537 152.111 39.8741 153.692 39.7126L153.836 39.6963L153.839 39.6959C155.526 39.5048 157.114 39.325 158.65 38.9586C160.069 38.6175 163.518 37.5224 164.667 34.8296C165.565 32.7471 164.793 30.1979 163.769 28.4925C162.404 26.2125 160.212 24.3096 158.093 22.4785C156.997 21.5271 156.889 19.8754 157.841 18.7804C158.793 17.6853 160.446 17.5776 161.542 18.529C163.859 20.5397 166.481 22.8196 168.278 25.8176C170.451 29.4619 170.918 33.6088 169.499 36.93C168.044 40.3588 164.524 42.9799 159.889 44.0929C158.038 44.5466 156.187 44.7459 154.403 44.938L154.249 44.9546C152.722 45.1162 151.285 45.2777 149.902 45.565C148.159 45.924 144.764 46.8934 141.765 49.2811C138.675 51.7585 136.825 55.0976 136.286 59.2265Z" fill="url(#paint42_linear_1024_1904)"/>
<path d="M237.308 22.4607C237.991 22.4607 238.674 22.4428 239.374 22.4069C247.26 22.0119 254.912 19.2832 260.894 14.7413C262.043 13.8617 262.277 12.2101 261.397 11.0611C260.516 9.91218 258.864 9.67878 257.714 10.5584C252.559 14.472 245.967 16.8058 239.105 17.1649C232.261 17.506 225.453 15.8543 219.92 12.4973C218.681 11.7433 217.064 12.1383 216.31 13.377C215.556 14.6156 215.951 16.2313 217.19 16.9853C223.028 20.5399 230.105 22.4607 237.308 22.4607Z" fill="url(#paint43_linear_1024_1904)"/>
<path d="M245.805 223.794C245.284 224.279 244.637 224.53 243.973 224.53C243.272 224.53 242.589 224.261 242.122 223.74C241.117 222.699 241.152 221.029 242.194 220.024C244.763 217.547 244.26 212.915 243.452 207.996C242.105 199.846 243.685 194.317 248.122 191.552C250.851 189.841 254.058 189.74 256.899 189.651L256.96 189.649C259.744 189.577 262.151 189.488 263.444 188.087C264.899 186.49 264.378 184.012 263.354 180.117C262.331 176.275 261.199 171.912 263.462 168.035C265.312 164.875 268.959 162.972 274.024 162.559C275.012 162.49 276 162.454 276.956 162.419L277.06 162.416C279.269 162.362 281.353 162.29 283.185 161.662C285.61 160.836 286.958 158.789 286.634 157.461C286.293 156.061 287.155 154.642 288.574 154.301C289.975 153.96 291.394 154.822 291.736 156.24C292.867 160.89 289.131 165.18 284.892 166.634C282.305 167.514 279.719 167.604 277.222 167.676C276.252 167.694 275.336 167.73 274.437 167.801C272.569 167.963 269.246 168.537 267.989 170.692C266.821 172.684 267.594 175.646 268.42 178.788C269.534 183.007 270.791 187.818 267.306 191.624C264.522 194.658 260.588 194.783 257.103 194.891C254.696 194.963 252.433 195.035 250.87 196.004C247.799 197.907 247.942 203.113 248.607 207.135C249.397 211.928 250.583 219.198 245.805 223.794Z" fill="url(#paint44_linear_1024_1904)"/>
<path d="M252.145 248.209C254.983 248.209 257.624 247.545 259.815 246.234C264.665 243.344 267.485 237.15 267 230.454C266.587 224.799 264.162 219.593 262.007 215.015C261.396 213.705 259.815 213.131 258.504 213.759C257.193 214.369 256.618 215.949 257.247 217.26L257.346 217.471C259.363 221.785 261.437 226.221 261.755 230.831C262.025 234.709 260.696 239.574 257.103 241.728C254.642 243.2 251.157 243.38 247.529 242.195C244.098 241.082 240.99 238.964 238.529 236.055C236.069 233.147 234.506 229.718 234.003 226.146C233.805 224.71 232.476 223.704 231.039 223.92C229.602 224.117 228.596 225.446 228.812 226.882C230.123 236.163 237.003 244.331 245.93 247.204C248.032 247.886 250.151 248.209 252.145 248.209Z" fill="url(#paint45_linear_1024_1904)"/>
<path d="M283.706 224.872C283.185 225.482 282.431 225.805 281.694 225.805C281.102 225.805 280.491 225.59 280.006 225.195C275.084 221.012 273.36 213.687 275.91 207.763C276.898 205.483 278.353 203.616 279.772 201.803L279.907 201.629C280.917 200.33 281.869 199.106 282.557 197.8C285.107 193.007 283.976 186.4 279.97 182.738C278.91 181.751 278.82 180.099 279.808 179.022C280.796 177.963 282.449 177.873 283.527 178.86C289.293 184.138 290.891 193.348 287.209 200.259C286.281 201.991 285.115 203.484 283.993 204.921L283.904 205.034C282.628 206.632 281.443 208.158 280.724 209.828C279.108 213.616 280.257 218.499 283.401 221.173C284.514 222.107 284.64 223.759 283.706 224.872Z" fill="url(#paint46_linear_1024_1904)"/>
<path d="M302.656 254.833C303.034 254.833 303.429 254.744 303.806 254.564C305.117 253.936 305.656 252.356 305.028 251.045C301.651 244.098 304.686 235.409 307.704 228.623C307.83 228.336 307.955 228.054 308.081 227.771C308.207 227.488 308.333 227.205 308.458 226.918L308.488 226.852C311.768 219.507 315.477 211.202 313.973 202.646C313.219 198.41 311.297 194.676 309.428 191.049C309.141 190.493 308.854 189.936 308.584 189.38C306.698 185.664 304.992 181.696 305.225 177.783C305.405 174.515 307.524 170.817 310.758 170.261C312.195 170.009 313.147 168.663 312.913 167.227C312.662 165.791 311.314 164.839 309.877 165.073C307.111 165.539 304.596 167.173 302.764 169.668C301.13 171.894 300.142 174.659 299.98 177.46C299.693 182.612 301.686 187.369 303.896 191.732C304.04 192.019 304.183 192.302 304.327 192.584C304.471 192.867 304.614 193.15 304.758 193.437L304.771 193.462C306.526 196.863 308.19 200.088 308.8 203.544C310.036 210.527 306.823 217.724 303.705 224.708L303.68 224.764C303.555 225.051 303.424 225.338 303.294 225.625L303.293 225.627C303.163 225.914 303.033 226.2 302.908 226.487C299.441 234.314 295.992 244.439 300.303 253.343C300.734 254.295 301.668 254.833 302.656 254.833Z" fill="url(#paint47_linear_1024_1904)"/>
<path d="M277.329 249.861C277.185 249.878 277.042 249.896 276.898 249.896C275.641 249.896 274.527 248.999 274.293 247.688C274.06 246.252 275.012 244.888 276.449 244.654C280.455 243.99 285.808 240.687 288.843 233.434C291.286 227.6 291.681 220.993 292.059 214.603C292.148 213.166 293.406 212.053 294.843 212.143C296.28 212.233 297.394 213.472 297.304 214.926C296.927 221.442 296.477 228.821 293.693 235.481C292.22 239.035 290.029 242.213 287.388 244.69C284.424 247.473 280.94 249.25 277.329 249.861Z" fill="url(#paint48_linear_1024_1904)"/>
<path d="M108.013 261.152C116.527 261.152 125.078 259.626 132.963 256.611C136.329 255.329 139.589 253.783 142.743 252.287L142.825 252.248C147.064 250.237 151.052 248.353 155.309 247.006C156.692 246.575 157.465 245.085 157.016 243.703C156.584 242.321 155.094 241.549 153.71 241.997C149.135 243.444 144.809 245.495 140.625 247.479L140.562 247.509C137.472 248.981 134.275 250.489 131.077 251.71C119.707 256.036 106.899 257.059 94.9901 254.582C93.571 254.295 92.17 255.192 91.8825 256.611C91.5952 258.029 92.4933 259.429 93.9124 259.716C98.5467 260.668 103.271 261.152 108.013 261.152Z" fill="url(#paint49_linear_1024_1904)"/>
<path d="M346.666 253.792L346.522 253.792C345.139 253.792 343.989 252.697 343.918 251.315C343.109 235.571 338.008 230.078 333.517 225.248L333.474 225.202C330.275 221.755 327.245 218.49 326.512 212.556C325.327 203.086 329.845 197.755 332.826 194.237L332.834 194.227C333.858 193.024 334.739 191.983 335.152 191.103C336.481 188.303 335.87 184.641 333.715 182.415C331.559 180.189 327.931 179.471 325.075 180.691C323.745 181.266 322.201 180.655 321.626 179.327C321.051 177.998 321.662 176.455 322.991 175.88C327.841 173.78 333.804 174.965 337.487 178.77C341.169 182.576 342.157 188.572 339.894 193.348C339.202 194.838 338.071 196.17 336.883 197.57L336.84 197.62C334.02 200.941 330.823 204.711 331.721 211.892C332.259 216.157 334.389 218.454 337.345 221.641L337.361 221.658C342.211 226.864 348.247 233.363 349.163 251.028C349.234 252.482 348.121 253.721 346.666 253.792Z" fill="url(#paint50_linear_1024_1904)"/>
<path d="M332.529 274.258C333.23 274.258 333.912 273.989 334.433 273.432C335.439 272.373 335.385 270.721 334.343 269.716C330.302 265.892 327.068 258.891 325.47 250.543C323.997 242.824 324.428 236.505 325.595 234.476C326.314 233.219 325.883 231.604 324.625 230.885C323.368 230.167 321.751 230.598 321.033 231.855C319.955 233.704 319.38 236.54 319.272 240.257C319.183 243.703 319.542 247.599 320.296 251.53C322.775 264.42 327.877 270.847 330.715 273.54C331.218 274.007 331.864 274.258 332.529 274.258Z" fill="url(#paint51_linear_1024_1904)"/>
<path d="M344.833 215.806C344.331 216.237 343.72 216.434 343.127 216.434C342.391 216.434 341.636 216.129 341.133 215.501C340.199 214.406 340.325 212.736 341.439 211.802C346.594 207.44 350.15 201.39 351.426 194.748C352.701 188.124 351.677 181.176 348.516 175.198C347.833 173.905 348.336 172.326 349.612 171.644C350.905 170.961 352.486 171.464 353.168 172.739C356.869 179.758 358.09 187.926 356.581 195.735C355.072 203.544 350.905 210.671 344.833 215.806Z" fill="url(#paint52_linear_1024_1904)"/>
<path d="M95.4749 102.132C95.7263 102.132 95.9958 102.096 96.2653 102.007C97.6484 101.576 98.4208 100.104 97.9896 98.7214C95.8341 91.8098 95.2773 84.216 96.373 76.8018C97.4687 69.3875 100.181 62.2964 104.259 56.2825C108.318 50.2685 113.887 45.0983 120.371 41.3284C126.856 37.5404 134.095 35.2426 141.316 34.6502C142.771 34.5245 143.849 33.2678 143.723 31.8137C143.597 30.3596 142.34 29.2825 140.885 29.4081C132.873 30.0544 124.862 32.6036 117.713 36.7865C110.564 40.9693 104.402 46.6781 99.8937 53.3383C95.3851 59.9986 92.3853 67.8437 91.1638 76.0298C89.9603 84.216 90.589 92.5997 92.9601 100.265C93.3194 101.414 94.3612 102.132 95.4749 102.132Z" fill="url(#paint53_linear_1024_1904)"/>
<path d="M98.8332 111.468C98.7255 112.832 97.5758 113.892 96.2107 113.892C96.1754 113.892 96.1445 113.892 96.1115 113.894C96.0773 113.896 96.0408 113.9 95.9951 113.91C89.2231 113.407 82.7386 109.852 78.661 104.395C74.5835 98.9374 73.0207 91.7027 74.4757 85.0604C74.7811 83.6422 76.1822 82.7446 77.6012 83.0498C79.0203 83.355 79.9184 84.7552 79.6131 86.1734C78.4814 91.3437 79.7028 96.9807 82.8823 101.235C86.0617 105.472 91.1092 108.255 96.4083 108.65C97.8632 108.757 98.941 110.014 98.8332 111.468Z" fill="url(#paint54_linear_1024_1904)"/>
<path d="M73.9371 139.975C75.1945 139.975 76.3081 139.078 76.5237 137.803C77.799 130.443 75.6435 122.274 69.9673 112.832C68.9205 111.093 67.8078 109.381 66.7195 107.707C66.5379 107.427 66.357 107.149 66.1771 106.871L66.0225 106.634C62.8641 101.785 59.8781 97.2012 58.04 92.061C55.9024 86.1009 55.2557 77.1966 60.5008 71.7032C64.3628 67.664 70.3445 66.3355 77.2062 65.1327C78.6433 64.8814 79.5953 63.517 79.3438 62.0988C79.0923 60.6627 77.7272 59.7112 76.3081 59.9625L76.2459 59.9735C70.2519 61.0317 62.0631 62.4773 56.7107 68.0769C53.675 71.2544 51.8069 75.563 51.3219 80.4998C50.8907 84.8263 51.5195 89.44 53.1002 93.8382C55.1839 99.6368 58.5429 104.771 61.7942 109.726L61.826 109.775L61.8267 109.776L61.8288 109.779L61.8303 109.781C63.0583 111.667 64.3203 113.604 65.4766 115.524C70.4882 123.818 72.4102 130.82 71.3504 136.887C71.0989 138.324 72.0689 139.67 73.488 139.921C73.6317 139.957 73.7754 139.975 73.9371 139.975Z" fill="url(#paint55_linear_1024_1904)"/>
<path d="M365.545 277.812C365.312 277.884 365.06 277.92 364.827 277.92C363.677 277.92 362.617 277.166 362.312 275.981L362.279 275.865C359.308 265.327 356.24 254.451 356.187 243.111C356.169 237.114 357.103 231.208 358.917 226.002C360.965 220.114 364.072 215.159 368.132 211.263C369.174 210.276 370.844 210.312 371.85 211.353C372.838 212.394 372.802 214.064 371.76 215.069C365.15 221.388 361.378 231.603 361.432 243.093C361.486 253.756 364.468 264.33 367.36 274.563C367.755 275.963 366.946 277.417 365.545 277.812Z" fill="url(#paint56_linear_1024_1904)"/>
<path d="M199.3 279.338C200.144 279.338 200.952 278.943 201.473 278.207C206.036 271.583 213.867 267.22 221.915 266.843C223.98 266.754 226.082 266.879 228.309 267.041C231.722 267.274 235.243 267.508 238.818 266.843C243.19 266.02 247.026 263.945 250.735 261.939L250.763 261.925C254.284 260.022 257.607 258.226 261.181 257.562C267.361 256.413 273.935 258.819 278.964 261.045C289.023 265.489 298.527 271.525 307.726 277.367L307.777 277.399C308.998 278.171 310.633 277.812 311.405 276.591C312.178 275.371 311.818 273.737 310.597 272.965L310.451 272.872C301.119 266.959 291.466 260.841 281.084 256.252C275.354 253.72 267.81 250.992 260.193 252.41C255.803 253.234 251.967 255.308 248.257 257.314L248.23 257.329C244.709 259.232 241.386 261.027 237.812 261.691C234.902 262.23 231.848 262.032 228.633 261.817C226.369 261.655 224.016 261.512 221.645 261.619C211.999 262.068 202.587 267.292 197.108 275.263C196.282 276.466 196.587 278.099 197.791 278.925C198.276 279.195 198.797 279.338 199.3 279.338Z" fill="url(#paint57_linear_1024_1904)"/>
<path d="M180.169 274.294C179.702 274.635 179.163 274.797 178.624 274.797C177.815 274.797 177.007 274.42 176.504 273.684C172.337 267.939 165.619 264.205 158.541 263.702C151.446 263.2 144.279 265.964 139.339 271.063C138.333 272.122 136.663 272.14 135.621 271.134C134.561 270.129 134.543 268.46 135.549 267.418C141.549 261.207 150.279 257.868 158.901 258.478C167.523 259.089 175.696 263.63 180.761 270.632C181.606 271.799 181.336 273.45 180.169 274.294Z" fill="url(#paint58_linear_1024_1904)"/>
<path d="M334.505 12.2277C335.008 12.2277 335.511 12.0841 335.96 11.779C337.163 10.9711 337.487 9.33747 336.678 8.13465C333.912 4.02362 329.709 0.738377 324.841 -1.11071C319.973 -2.95974 314.638 -3.30087 309.842 -2.06216C306.627 -1.23635 303.699 0.199834 300.897 1.6001L300.723 1.68516L300.722 1.68586L300.721 1.68659C298.702 2.67786 296.797 3.61356 294.807 4.3288C283.652 8.26032 269.947 3.53889 263.57 -6.42452C262.798 -7.64526 261.163 -8.00433 259.941 -7.23235C258.72 -6.46044 258.361 -4.82681 259.133 -3.60604C262.851 2.21046 268.725 6.73438 275.677 9.12202C282.628 11.5097 290.047 11.5635 296.55 9.26566C298.758 8.4845 300.855 7.46247 302.884 6.47303L302.885 6.47242L303.232 6.30356C305.926 4.97507 308.477 3.71845 311.171 3.01832C318.949 1.00769 327.859 4.40061 332.331 11.0609C332.816 11.8148 333.661 12.2277 334.505 12.2277Z" fill="url(#paint59_linear_1024_1904)"/>
<path d="M247.242 -2.04382C242.446 5.47813 233.159 8.74543 225.758 8.74543C225.471 8.74543 225.166 8.74543 224.878 8.70954C218.394 8.47617 209.807 5.01139 205.981 -1.20006C205.227 -2.4208 205.604 -4.05446 206.844 -4.80843C208.065 -5.56243 209.7 -5.18542 210.454 -3.94674C213.167 0.469461 220.01 3.30592 225.058 3.48545C230.914 3.68293 238.943 1.16962 242.805 -4.8623C243.578 -6.10101 245.212 -6.4421 246.434 -5.67016C247.673 -4.89822 248.014 -3.26458 247.242 -2.04382Z" fill="url(#paint60_linear_1024_1904)"/>
<path d="M142.717 19.8755C143.615 19.8755 144.477 19.4267 144.962 18.6009C149.22 11.5457 156.584 6.46525 164.686 4.97523C172.787 3.48521 181.499 5.63945 187.965 10.7199C189.115 11.6175 190.768 11.42 191.648 10.2711C192.546 9.12214 192.348 7.47056 191.199 6.59092C183.546 0.59492 173.272 -1.93636 163.716 -0.177021C154.159 1.58229 145.447 7.59626 140.436 15.9081C139.681 17.1468 140.095 18.7625 141.334 19.5165C141.783 19.7498 142.25 19.8755 142.717 19.8755Z" fill="url(#paint61_linear_1024_1904)"/>
<path d="M374.329 243.165C373.808 243.883 372.999 244.278 372.173 244.278C371.652 244.278 371.113 244.116 370.664 243.793C369.479 242.949 369.191 241.315 370.036 240.131C376.826 230.49 379.879 218.247 378.442 206.56C376.987 194.855 371.042 183.743 362.114 176.041C361.018 175.108 360.911 173.438 361.845 172.343C362.779 171.248 364.449 171.123 365.545 172.074C375.442 180.619 382.053 192.952 383.651 205.932C385.25 218.911 381.855 232.483 374.329 243.165Z" fill="url(#paint62_linear_1024_1904)"/>
<path d="M392.902 145.99C393.926 145.99 394.896 145.397 395.327 144.392C398.309 137.426 399.369 129.599 398.417 121.772C397.465 113.945 394.537 106.603 389.956 100.571C389.076 99.4218 387.423 99.1884 386.274 100.068C385.124 100.948 384.891 102.599 385.771 103.748C389.759 109.044 392.327 115.507 393.172 122.418C394.016 129.33 393.082 136.224 390.477 142.327C389.902 143.656 390.531 145.2 391.86 145.774C392.202 145.918 392.543 145.99 392.902 145.99Z" fill="url(#paint63_linear_1024_1904)"/>
<path d="M397.86 93.4433C397.339 94.0537 396.603 94.3768 395.848 94.3768C395.256 94.3768 394.645 94.1793 394.142 93.7665C393.028 92.8329 392.884 91.1813 393.819 90.0683C398.13 84.916 401.812 79.2252 404.722 73.1574C405.53 71.4699 406.303 69.567 405.836 68.2026C405.512 67.2332 404.452 65.8329 399.189 64.9173L399.168 64.9137C396.893 64.5198 394.531 64.1108 392.453 64.5224C390.927 64.8276 389.184 65.797 388.753 67.305C388.358 68.7053 386.903 69.5131 385.502 69.1181C384.101 68.7232 383.292 67.2691 383.688 65.8688C384.604 62.6733 387.639 60.1241 391.429 59.3701C394.455 58.7831 397.411 59.2889 400.016 59.7349L400.088 59.7471L400.114 59.7517C402.805 60.2209 409.039 61.308 410.811 66.5151C411.889 69.6567 410.739 72.7983 409.464 75.4373C406.374 81.8821 402.459 87.95 397.86 93.4433Z" fill="url(#paint64_linear_1024_1904)"/>
<path d="M404.147 53.0692C404.362 53.0692 404.578 53.0692 404.811 53.0512C409.033 52.9076 412.697 51.1842 414.853 48.3298C417.637 44.6676 417.349 39.3537 414.224 36.4814C413.038 35.4042 411.368 34.3271 407.075 33.8244C402.925 33.3397 398.722 33.1243 394.555 33.2141C390.01 33.3038 384.765 33.7706 380.346 36.5532C378.029 38.0253 376.107 40.1975 374.975 42.6749C373.7 45.4395 373.502 48.4016 374.4 51.0047C374.885 52.369 376.376 53.1051 377.741 52.6204C379.107 52.1357 379.843 50.6456 379.358 49.2813C378.298 46.2653 380.454 42.6928 383.148 41.0053C386.471 38.9049 390.818 38.5459 394.644 38.4741C398.578 38.4023 402.548 38.5997 406.464 39.0486C408.009 39.2281 409.733 39.4973 410.667 40.359C411.799 41.4003 411.799 43.6802 410.667 45.1702C409.482 46.732 407.218 47.7194 404.614 47.8092C401.937 47.8989 399.117 47.1629 396.387 46.4448C394.986 46.0678 393.549 46.9116 393.171 48.3119C392.794 49.7121 393.638 51.1483 395.04 51.5253C397.824 52.2613 400.931 53.0692 404.147 53.0692Z" fill="url(#paint65_linear_1024_1904)"/>
<path d="M369.227 35.9072C368.922 35.9251 368.598 35.9431 368.293 35.9431C365.491 35.9431 362.671 34.848 360.389 32.8912C357.875 30.6831 356.366 27.6492 356.24 24.5435C356.114 21.3839 357.21 18.5474 358.27 15.8187L358.276 15.8023C359.369 12.9908 360.316 10.5544 359.725 8.31473C359.168 6.21433 357.318 4.79608 356.276 4.13187C354.444 2.97635 352.207 2.24335 350.035 1.53189L349.971 1.51087C348.588 1.0441 347.834 -0.427975 348.283 -1.8103C348.75 -3.19262 350.223 -3.94659 351.606 -3.4978C353.995 -2.72586 356.689 -1.84619 359.096 -0.320249C362.024 1.52881 364.054 4.11392 364.808 6.95035C365.827 10.8254 364.428 14.4519 363.193 17.6529L363.137 17.7993C362.252 20.0978 361.415 22.2738 361.503 24.3101C361.575 25.9796 362.437 27.6671 363.874 28.9238C365.311 30.1804 367.09 30.8088 368.76 30.6652C370.215 30.5395 371.49 31.5986 371.616 33.0528C371.742 34.5069 370.682 35.7815 369.227 35.9072Z" fill="url(#paint66_linear_1024_1904)"/>
<path d="M390.98 24.9919C392.668 24.9919 394.483 24.8124 396.441 24.4713C401.596 23.5737 408.655 21.2759 413.038 15.5132C415.086 12.8025 416.289 9.26587 416.343 5.81906C416.397 2.03116 415.086 -1.3977 412.661 -3.82126C411.637 -4.84451 409.967 -4.84451 408.943 -3.82126C407.919 -2.79797 407.919 -1.12839 408.943 -0.105133C412.122 3.07239 411.457 8.88889 408.853 12.3357C405.494 16.7519 399.764 18.5651 395.542 19.3011C391.555 20.0013 388.393 19.8576 385.878 18.8703C382.879 17.6855 380.184 14.9926 378.28 11.2945C376.466 7.73996 375.496 3.64688 374.562 -0.320555C374.221 -1.73877 372.802 -2.60052 371.4 -2.27737C369.981 -1.93625 369.119 -0.535978 369.443 0.882235C370.448 5.15485 371.49 9.55313 373.61 13.6821C376.089 18.5112 379.753 22.1017 383.956 23.7533C386.022 24.5791 388.357 24.9919 390.98 24.9919Z" fill="url(#paint67_linear_1024_1904)"/>
<path d="M392.112 7.79407C391.591 8.47626 390.818 8.81735 390.028 8.81735C389.471 8.81735 388.914 8.63785 388.429 8.24289C387.28 7.36325 387.064 5.71164 387.962 4.56271C390.387 1.45697 391.968 -2.36682 392.543 -6.47787C393.118 -10.571 392.633 -14.682 391.142 -18.3442C389.651 -22.0065 387.136 -25.2917 383.867 -27.8409C380.597 -30.3901 376.789 -32.0238 372.873 -32.5803C371.436 -32.7777 370.431 -34.1062 370.628 -35.5424C370.826 -36.9786 372.155 -37.9839 373.592 -37.7864C383.454 -36.4041 392.255 -29.5464 395.992 -20.3369C399.746 -11.1095 398.219 -0.0689688 392.112 7.79407Z" fill="url(#paint68_linear_1024_1904)"/>
<path d="M414.691 191.319C415.392 191.319 416.074 191.05 416.595 190.511C417.601 189.47 417.565 187.8 416.506 186.795L416.34 186.636C411.991 182.467 407.504 178.166 404.489 173.026C401.273 167.532 400.267 161.644 401.74 156.869C403.177 152.219 407.147 148.395 411.835 147.121C413.236 146.744 414.063 145.29 413.685 143.889C413.308 142.489 411.853 141.663 410.452 142.04C404.057 143.782 398.669 148.988 396.711 155.307C394.789 161.5 395.974 168.915 399.944 175.683C403.375 181.517 408.189 186.131 412.859 190.601C413.38 191.068 414.027 191.319 414.691 191.319Z" fill="url(#paint69_linear_1024_1904)"/>
<path d="M124.106 22.1193C120.568 23.0528 116.903 23.5196 113.221 23.5196C106.503 23.5196 99.7668 21.9757 93.7853 18.9598C84.5344 14.2922 77.026 6.106 73.1999 -3.51634C72.661 -4.86275 73.3257 -6.38872 74.6729 -6.92726C76.0201 -7.46584 77.5469 -6.80159 78.0858 -5.45519C81.4448 3.00029 88.0372 10.1812 96.1563 14.2742C104.276 18.3493 113.975 19.3726 122.759 17.0388C124.16 16.6618 125.597 17.5056 125.975 18.9059C126.352 20.3061 125.508 21.7423 124.106 22.1193Z" fill="url(#paint70_linear_1024_1904)"/>
<path d="M119.293 10.1102C135.226 10.1102 140.112 1.74452 142.411 -4.55669C142.914 -5.92104 142.195 -7.429 140.83 -7.93166C139.465 -8.43434 137.956 -7.71624 137.453 -6.35189C135.441 -0.804675 131.705 4.85026 119.293 4.85026C108.479 4.85026 101.096 -6.01079 99.1026 -9.3499C98.3481 -10.5886 96.7315 -11.0015 95.4921 -10.2475C94.2526 -9.49352 93.8395 -7.87785 94.594 -6.63915C95.8334 -4.55669 98.5278 -0.553331 102.462 3.00117C107.689 7.72258 113.347 10.1102 119.293 10.1102Z" fill="url(#paint71_linear_1024_1904)"/>
<path d="M57.5728 50.825C57.3572 50.8788 57.1597 50.8968 56.9441 50.8968C55.7586 50.8968 54.6987 50.0889 54.4113 48.8862C51.8606 38.5278 56.5849 26.9127 65.6381 21.2758C70.003 18.547 75.0506 17.3083 79.8287 17.793C85.3073 18.3496 90.3908 21.2578 93.4265 25.5484C96.6957 30.198 97.4322 36.2299 95.3485 41.2744C93.1391 46.6421 87.894 50.3403 82.2716 50.4839C80.8166 50.5377 79.6311 49.3888 79.5772 47.9347C79.5233 46.4806 80.6729 45.2778 82.1279 45.2419C85.6306 45.1521 89.0795 42.6927 90.4806 39.2818C91.8637 35.9426 91.3249 31.7419 89.1154 28.6002C86.9599 25.5304 83.2775 23.4659 79.2898 23.053C75.6613 22.694 71.7993 23.6455 68.4043 25.7638C64.9734 27.9001 62.1712 31.293 60.5366 35.3143C58.902 39.3356 58.5248 43.7159 59.4948 47.6474C59.8541 49.0477 58.9739 50.4839 57.5728 50.825Z" fill="url(#paint72_linear_1024_1904)"/>
<path d="M45.0533 63.7867C46.185 63.7867 47.2987 63.7508 48.4303 63.6611C56.1184 63.0507 62.7646 60.1065 67.1475 55.3851C72.4465 49.6943 74.0272 41.2748 70.9915 34.9017C70.3628 33.5912 68.8001 33.0347 67.4888 33.6631C66.1775 34.2914 65.6207 35.8532 66.2494 37.1637C68.387 41.6338 67.1655 47.6478 63.3035 51.7947C59.8187 55.5467 54.376 57.8985 48.0172 58.4191C41.8739 58.9217 35.4612 57.7189 29.9287 56.552C28.5096 56.2469 27.1085 57.1624 26.8211 58.5806C26.5157 59.9988 27.4318 61.3991 28.8509 61.6863C33.7727 62.7276 39.3591 63.7867 45.0533 63.7867Z" fill="url(#paint73_linear_1024_1904)"/>
<path d="M28.0247 36.7153C27.7733 37.9719 26.6775 38.8157 25.4561 38.8157C25.2764 38.8157 25.0968 38.7977 24.9172 38.7618C23.4981 38.4746 22.6 37.0743 22.8874 35.6561C24.8274 26.3389 30.5216 17.9912 38.4791 12.7491C46.4366 7.5071 56.3521 5.60417 65.6927 7.5071C67.1118 7.79436 68.0279 9.19463 67.7405 10.6128C67.453 12.0311 66.0519 12.9466 64.6329 12.6594C56.6395 11.0257 48.161 12.6594 41.3531 17.1295C34.5452 21.5996 29.6953 28.7445 28.0247 36.7153Z" fill="url(#paint74_linear_1024_1904)"/>
<path d="M21.3597 50.9329C28.2753 50.9329 34.4725 49.3531 39.3044 46.3372C45.4298 42.5313 49.4534 36.1583 49.8307 29.7135C49.9205 28.2594 48.8068 27.0206 47.3518 26.9309C45.8968 26.8411 44.6573 27.9541 44.5675 29.4083C44.2801 34.1835 41.1905 38.9588 36.5022 41.885C32.3708 44.4701 26.9101 45.7806 20.7309 45.6729C14.9828 45.5831 9.14498 44.3624 3.48671 43.1776C2.06765 42.8724 0.666524 43.7879 0.37914 45.2061C0.0737504 46.6244 0.989888 48.0246 2.40896 48.3119C8.30071 49.5506 14.3901 50.8072 20.6411 50.915C20.657 50.915 20.6727 50.915 20.6882 50.9151C20.708 50.9153 20.7275 50.9155 20.7468 50.9158C20.7936 50.9166 20.8389 50.9178 20.8832 50.9192C20.9318 50.9208 20.9792 50.9226 21.026 50.9244C21.1384 50.9287 21.247 50.9329 21.3597 50.9329Z" fill="url(#paint75_linear_1024_1904)"/>
<path d="M10.5824 28.1698C10.1333 28.4749 9.61235 28.6185 9.10939 28.6185C8.26513 28.6185 7.43886 28.2056 6.93593 27.4696C6.10964 26.2668 6.43297 24.6332 7.63649 23.8253C20.0128 15.4596 29.0122 2.31862 32.3353 -12.2406C32.6586 -13.6588 34.0597 -14.5384 35.4787 -14.2153C36.8978 -13.8922 37.778 -12.4919 37.4547 -11.0737C33.8441 4.76012 24.0365 19.068 10.5824 28.1698Z" fill="url(#paint76_linear_1024_1904)"/>
<path d="M-14.9619 127.049L-14.8182 127.049C-5.4416 126.529 4.24035 125.99 13.563 123.262C21.0715 121.071 31.3642 116.44 37.8667 106.871C40.7407 102.635 42.537 97.5002 42.9322 92.4198C43.3633 86.9443 42.1778 81.7741 39.5372 77.5015C38.7828 76.2628 37.1482 75.8858 35.9267 76.6398C34.7053 77.3938 34.31 79.0274 35.0645 80.2482C37.1122 83.5693 38.0283 87.6445 37.6871 92.0068C37.3637 96.1897 35.8728 100.408 33.5197 103.909C27.8974 112.185 18.7723 116.26 12.0901 118.217C3.34225 120.784 -6.03434 121.305 -15.1055 121.807C-16.5605 121.879 -17.6742 123.136 -17.5844 124.572C-17.4946 125.954 -16.345 127.049 -14.9619 127.049Z" fill="url(#paint77_linear_1024_1904)"/>
<path d="M-0.769753 105.741C-3.12287 105.974 -5.38615 106.064 -7.43391 106.064C-12.2068 106.064 -15.8059 105.595 -16.6002 105.491C-16.6843 105.48 -16.7376 105.473 -16.7566 105.472C-18.1936 105.238 -19.1815 103.91 -18.966 102.474C-18.7504 101.037 -17.4032 100.05 -15.9662 100.265C-15.9646 100.265 -15.9597 100.266 -15.9515 100.267C-15.9347 100.269 -15.9044 100.273 -15.861 100.278C-14.9606 100.395 -8.43913 101.236 -1.18284 100.499C11.1576 99.2422 16.259 94.4489 18.3427 90.6431C20.0851 87.4656 19.7258 83.0314 17.3547 78.7588C13.1334 71.165 6.48723 64.9536 -1.38044 61.2554C-2.69172 60.6271 -3.24858 59.0653 -2.63783 57.7548C-2.00913 56.4442 -0.446391 55.8877 0.864889 56.4981C9.72057 60.6451 17.211 67.6464 21.9532 76.2095C25.2403 82.1517 25.5996 88.3452 22.9411 93.1743C20.7317 97.1776 17.1751 100.301 12.3791 102.474C8.69668 104.143 4.27776 105.238 -0.769753 105.741Z" fill="url(#paint78_linear_1024_1904)"/>
<path d="M62.727 161.285C63.5712 161.285 64.3975 160.89 64.9004 160.136C65.7088 158.934 65.4034 157.3 64.1999 156.492C59.0446 152.991 55.1107 147.803 53.1528 141.879C51.1948 135.955 51.2308 129.456 53.2785 123.568C53.7455 122.204 53.0271 120.696 51.6619 120.229C50.2967 119.762 48.7878 120.48 48.3208 121.844C45.8958 128.828 45.8599 136.529 48.1771 143.531C50.5123 150.532 55.1467 156.69 61.272 160.837C61.7031 161.142 62.224 161.285 62.727 161.285Z" fill="url(#paint79_linear_1024_1904)"/>
<path d="M65.2435 179.255C62.0102 181.804 57.6991 183.186 53.2443 183.186C51.969 183.186 50.6577 183.061 49.3644 182.809C44.5144 181.93 39.6645 179.434 35.3354 175.575C28.4557 169.435 23.8034 160.692 22.5999 151.555C21.3964 142.417 23.6058 132.759 28.6533 125.057C29.4616 123.854 31.0783 123.513 32.2997 124.303C33.5033 125.111 33.8445 126.727 33.0542 127.948C28.6713 134.608 26.7672 142.973 27.809 150.872C28.8509 158.789 32.8566 166.365 38.8202 171.661C42.4308 174.856 46.4005 176.939 50.2985 177.639C54.6095 178.429 58.9745 177.478 61.9922 175.108C63.1419 174.21 64.7944 174.408 65.6925 175.557C66.5907 176.706 66.3931 178.357 65.2435 179.255Z" fill="url(#paint80_linear_1024_1904)"/>
<path d="M28.2028 211.515C29.119 211.515 30.0351 211.479 30.9512 211.407C36.2502 211.012 40.2739 209.397 42.9144 206.578C43.9383 205.501 44.6748 204.316 45.3753 203.185C45.7346 202.611 46.0938 202.054 46.4531 201.552C49.6504 197.117 55.6141 194.873 60.9311 196.076C62.3501 196.399 63.7512 195.52 64.0746 194.102C64.3979 192.683 63.5177 191.283 62.0986 190.96C54.7698 189.29 46.5788 192.378 42.1779 198.482C41.7109 199.128 41.2977 199.774 40.9205 200.403C40.3098 201.372 39.735 202.27 39.0703 202.988C37.3639 204.801 34.4898 205.878 30.556 206.165C22.2931 206.776 13.8326 204.173 7.3301 199.02C6.19845 198.123 4.54592 198.302 3.62982 199.451C2.73169 200.582 2.91128 202.234 4.06091 203.149C10.8688 208.535 19.5269 211.515 28.2028 211.515Z" fill="url(#paint81_linear_1024_1904)"/>
<path d="M30.5572 197.404C30.3237 197.476 30.0722 197.512 29.8207 197.512C28.6891 197.512 27.6292 196.758 27.3059 195.627C25.9228 190.924 24.2523 186.166 20.5879 184.353C18.4323 183.294 15.5942 183.294 13.0974 183.312L-12.6613 183.42L-12.6792 183.42C-14.1162 183.42 -15.3018 182.253 -15.3018 180.799C-15.3018 179.345 -14.1342 178.16 -12.6792 178.16L13.0794 178.052L13.1749 178.052C16.0867 178.052 19.707 178.052 22.923 179.65C28.4735 182.414 30.7009 188.572 32.3355 194.137C32.7486 195.537 31.9583 196.992 30.5572 197.404Z" fill="url(#paint82_linear_1024_1904)"/>
<path d="M3.30722 168.771C3.48684 168.771 3.66644 168.753 3.84606 168.717C9.39657 167.55 14.2645 163.367 16.2583 158.053C18.2342 152.74 17.3002 146.385 13.8513 141.879C10.4204 137.373 4.54656 134.77 -1.1117 135.272C-2.56669 135.398 -3.62647 136.672 -3.50071 138.127C-3.37498 139.581 -2.09959 140.64 -0.644629 140.514C3.25332 140.173 7.31289 141.95 9.68398 145.074C12.0551 148.18 12.7017 152.56 11.3365 156.222C9.9714 159.885 6.61227 162.775 2.78622 163.583C1.36718 163.888 0.451105 165.27 0.756434 166.688C1.00793 167.909 2.10369 168.771 3.30722 168.771Z" fill="url(#paint83_linear_1024_1904)"/>
<path d="M56.6746 278.531C56.3513 279.697 55.2915 280.487 54.1239 280.487C53.9358 280.487 53.7476 280.46 53.5356 280.429C53.5049 280.425 53.473 280.42 53.4413 280.416C52.0223 280.039 51.196 278.602 51.5553 277.202C54.07 267.526 58.1835 258.424 63.752 250.13C63.8238 250.023 63.8956 249.919 63.9675 249.816C64.0393 249.713 64.1112 249.61 64.183 249.502C65.6739 247.312 67.075 245.247 67.3445 243.057C67.7038 240.221 66.2129 237.043 62.764 233.309C62.4475 232.96 62.1244 232.624 61.7947 232.282L61.793 232.28L61.7909 232.278C61.5791 232.058 61.3646 231.835 61.1474 231.604L61.134 231.59C58.4078 228.74 55.5946 225.799 54.1778 221.802C52.148 216.003 53.9263 209.128 58.5248 205.07C59.6205 204.119 61.2731 204.209 62.243 205.304C63.1951 206.399 63.1053 208.05 62.0096 209.02C59.0278 211.659 57.8242 216.308 59.1535 220.06C60.1953 222.987 62.5125 225.41 64.9734 227.977L65.3387 228.366C65.5839 228.627 65.8338 228.893 66.0837 229.159C66.2711 229.358 66.4586 229.557 66.6439 229.755C71.2065 234.691 73.1465 239.269 72.5896 243.721C72.1585 247.15 70.2545 249.969 68.566 252.464C68.4941 252.563 68.4268 252.666 68.3594 252.769C68.2921 252.872 68.2247 252.976 68.1528 253.074C62.9077 260.866 59.0457 269.429 56.6746 278.531Z" fill="url(#paint84_linear_1024_1904)"/>
<path d="M77.3676 282.749C77.6549 282.749 77.9603 282.695 78.2477 282.606C79.6129 282.121 80.3314 280.631 79.8464 279.248L79.8127 279.152C78.4938 275.394 77.1321 271.514 76.9005 267.651C76.667 263.648 77.7807 260.094 79.9721 257.903C80.996 256.88 80.996 255.211 79.9721 254.187C78.9483 253.164 77.2777 253.164 76.2538 254.187C73.0026 257.437 71.332 262.463 71.6554 267.957C71.923 272.574 73.4129 276.802 74.8585 280.904L74.8887 280.99C75.2659 282.067 76.2898 282.749 77.3676 282.749Z" fill="url(#paint85_linear_1024_1904)"/>
<path d="M39.9687 287.847C39.4478 288.493 38.6934 288.816 37.921 288.816C37.3462 288.816 36.7534 288.619 36.2325 288.242C35.1188 287.326 34.9392 285.675 35.8553 284.544C39.0168 280.666 41.4597 276.052 42.9326 271.205C44.4235 266.304 44.9265 261.134 44.3876 256.251C43.2918 246.126 37.7593 236.683 29.5862 231.028C21.3054 225.284 10.3481 223.596 0.971555 226.63C-0.411593 227.079 -1.88455 226.325 -2.33365 224.943C-2.78272 223.56 -2.02823 222.088 -0.645084 221.639C4.76172 219.88 10.7073 219.431 16.5632 220.347C22.3472 221.245 27.8978 223.435 32.604 226.702C41.9985 233.219 48.3574 244.062 49.6327 255.677C50.8721 267.04 47.3514 278.763 39.9687 287.847Z" fill="url(#paint86_linear_1024_1904)"/>
<path d="M51.3757 238.927C52.0403 238.927 52.7229 238.676 53.2259 238.173C54.2498 237.15 54.2677 235.481 53.2438 234.457C49.759 230.939 47.6035 226.092 47.3341 221.137C47.2622 219.683 46.0228 218.57 44.5678 218.659C43.1129 218.731 41.9991 219.97 42.0889 221.424C42.4302 227.635 45.1426 233.739 49.5255 238.155C50.0105 238.658 50.6931 238.927 51.3757 238.927Z" fill="url(#paint87_linear_1024_1904)"/>
<path d="M25.9588 272.175C25.5816 273.252 24.5577 273.935 23.4799 273.935C23.1925 273.935 22.9051 273.899 22.5998 273.791C21.2346 273.306 20.5161 271.798 21.0011 270.434L21.0095 270.41C22.7313 265.517 24.5034 260.48 24.2344 255.444C24.0188 251.369 21.8273 246.27 17.5342 244.762C14.5165 243.703 10.9599 244.457 6.93622 245.48C5.51718 245.84 4.09814 244.978 3.73886 243.578C3.37964 242.159 4.24182 240.741 5.64291 240.382C9.37915 239.431 14.5165 238.138 19.2766 239.808C25.869 242.123 29.1562 249.197 29.4795 255.157C29.8029 261.242 27.773 267.059 25.9588 272.175Z" fill="url(#paint88_linear_1024_1904)"/>
</g>
<defs>
<linearGradient id="paint0_linear_1024_1904" x1="183.483" y1="262.5" x2="176.871" y2="22.9587" gradientUnits="userSpaceOnUse">
<stop stop-color="#A22DD4" stop-opacity="0"/>
<stop offset="1" stop-color="#771999"/>
</linearGradient>
<linearGradient id="paint1_linear_1024_1904" x1="183.483" y1="262.5" x2="176.871" y2="22.9587" gradientUnits="userSpaceOnUse">
<stop stop-color="#A22DD4" stop-opacity="0"/>
<stop offset="1" stop-color="#771999"/>
</linearGradient>
<linearGradient id="paint2_linear_1024_1904" x1="183.483" y1="262.5" x2="176.871" y2="22.9587" gradientUnits="userSpaceOnUse">
<stop stop-color="#A22DD4" stop-opacity="0"/>
<stop offset="1" stop-color="#771999"/>
</linearGradient>
<linearGradient id="paint3_linear_1024_1904" x1="183.483" y1="262.5" x2="176.871" y2="22.9587" gradientUnits="userSpaceOnUse">
<stop stop-color="#A22DD4" stop-opacity="0"/>
<stop offset="1" stop-color="#771999"/>
</linearGradient>
<linearGradient id="paint4_linear_1024_1904" x1="183.483" y1="262.5" x2="176.871" y2="22.9587" gradientUnits="userSpaceOnUse">
<stop stop-color="#A22DD4" stop-opacity="0"/>
<stop offset="1" stop-color="#771999"/>
</linearGradient>
<linearGradient id="paint5_linear_1024_1904" x1="183.483" y1="262.5" x2="176.871" y2="22.9587" gradientUnits="userSpaceOnUse">
<stop stop-color="#A22DD4" stop-opacity="0"/>
<stop offset="1" stop-color="#771999"/>
</linearGradient>
<linearGradient id="paint6_linear_1024_1904" x1="183.483" y1="262.5" x2="176.871" y2="22.9587" gradientUnits="userSpaceOnUse">
<stop stop-color="#A22DD4" stop-opacity="0"/>
<stop offset="1" stop-color="#771999"/>
</linearGradient>
<linearGradient id="paint7_linear_1024_1904" x1="183.483" y1="262.5" x2="176.871" y2="22.9587" gradientUnits="userSpaceOnUse">
<stop stop-color="#A22DD4" stop-opacity="0"/>
<stop offset="1" stop-color="#771999"/>
</linearGradient>
<linearGradient id="paint8_linear_1024_1904" x1="183.483" y1="262.5" x2="176.871" y2="22.9587" gradientUnits="userSpaceOnUse">
<stop stop-color="#A22DD4" stop-opacity="0"/>
<stop offset="1" stop-color="#771999"/>
</linearGradient>
<linearGradient id="paint9_linear_1024_1904" x1="183.483" y1="262.5" x2="176.871" y2="22.9587" gradientUnits="userSpaceOnUse">
<stop stop-color="#A22DD4" stop-opacity="0"/>
<stop offset="1" stop-color="#771999"/>
</linearGradient>
<linearGradient id="paint10_linear_1024_1904" x1="183.483" y1="262.5" x2="176.871" y2="22.9587" gradientUnits="userSpaceOnUse">
<stop stop-color="#A22DD4" stop-opacity="0"/>
<stop offset="1" stop-color="#771999"/>
</linearGradient>
<linearGradient id="paint11_linear_1024_1904" x1="183.483" y1="262.5" x2="176.871" y2="22.9587" gradientUnits="userSpaceOnUse">
<stop stop-color="#A22DD4" stop-opacity="0"/>
<stop offset="1" stop-color="#771999"/>
</linearGradient>
<linearGradient id="paint12_linear_1024_1904" x1="183.483" y1="262.5" x2="176.871" y2="22.9587" gradientUnits="userSpaceOnUse">
<stop stop-color="#A22DD4" stop-opacity="0"/>
<stop offset="1" stop-color="#771999"/>
</linearGradient>
<linearGradient id="paint13_linear_1024_1904" x1="183.483" y1="262.5" x2="176.871" y2="22.9587" gradientUnits="userSpaceOnUse">
<stop stop-color="#A22DD4" stop-opacity="0"/>
<stop offset="1" stop-color="#771999"/>
</linearGradient>
<linearGradient id="paint14_linear_1024_1904" x1="183.483" y1="262.5" x2="176.871" y2="22.9587" gradientUnits="userSpaceOnUse">
<stop stop-color="#A22DD4" stop-opacity="0"/>
<stop offset="1" stop-color="#771999"/>
</linearGradient>
<linearGradient id="paint15_linear_1024_1904" x1="183.483" y1="262.5" x2="176.871" y2="22.9587" gradientUnits="userSpaceOnUse">
<stop stop-color="#A22DD4" stop-opacity="0"/>
<stop offset="1" stop-color="#771999"/>
</linearGradient>
<linearGradient id="paint16_linear_1024_1904" x1="183.483" y1="262.5" x2="176.871" y2="22.9587" gradientUnits="userSpaceOnUse">
<stop stop-color="#A22DD4" stop-opacity="0"/>
<stop offset="1" stop-color="#771999"/>
</linearGradient>
<linearGradient id="paint17_linear_1024_1904" x1="183.483" y1="262.5" x2="176.871" y2="22.9587" gradientUnits="userSpaceOnUse">
<stop stop-color="#A22DD4" stop-opacity="0"/>
<stop offset="1" stop-color="#771999"/>
</linearGradient>
<linearGradient id="paint18_linear_1024_1904" x1="183.483" y1="262.5" x2="176.871" y2="22.9587" gradientUnits="userSpaceOnUse">
<stop stop-color="#A22DD4" stop-opacity="0"/>
<stop offset="1" stop-color="#771999"/>
</linearGradient>
<linearGradient id="paint19_linear_1024_1904" x1="183.483" y1="262.5" x2="176.871" y2="22.9587" gradientUnits="userSpaceOnUse">
<stop stop-color="#A22DD4" stop-opacity="0"/>
<stop offset="1" stop-color="#771999"/>
</linearGradient>
<linearGradient id="paint20_linear_1024_1904" x1="183.483" y1="262.5" x2="176.871" y2="22.9587" gradientUnits="userSpaceOnUse">
<stop stop-color="#A22DD4" stop-opacity="0"/>
<stop offset="1" stop-color="#771999"/>
</linearGradient>
<linearGradient id="paint21_linear_1024_1904" x1="183.483" y1="262.5" x2="176.871" y2="22.9587" gradientUnits="userSpaceOnUse">
<stop stop-color="#A22DD4" stop-opacity="0"/>
<stop offset="1" stop-color="#771999"/>
</linearGradient>
<linearGradient id="paint22_linear_1024_1904" x1="183.483" y1="262.5" x2="176.871" y2="22.9587" gradientUnits="userSpaceOnUse">
<stop stop-color="#A22DD4" stop-opacity="0"/>
<stop offset="1" stop-color="#771999"/>
</linearGradient>
<linearGradient id="paint23_linear_1024_1904" x1="183.483" y1="262.5" x2="176.871" y2="22.9587" gradientUnits="userSpaceOnUse">
<stop stop-color="#A22DD4" stop-opacity="0"/>
<stop offset="1" stop-color="#771999"/>
</linearGradient>
<linearGradient id="paint24_linear_1024_1904" x1="183.483" y1="262.5" x2="176.871" y2="22.9587" gradientUnits="userSpaceOnUse">
<stop stop-color="#A22DD4" stop-opacity="0"/>
<stop offset="1" stop-color="#771999"/>
</linearGradient>
<linearGradient id="paint25_linear_1024_1904" x1="183.483" y1="262.5" x2="176.871" y2="22.9587" gradientUnits="userSpaceOnUse">
<stop stop-color="#A22DD4" stop-opacity="0"/>
<stop offset="1" stop-color="#771999"/>
</linearGradient>
<linearGradient id="paint26_linear_1024_1904" x1="183.483" y1="262.5" x2="176.871" y2="22.9587" gradientUnits="userSpaceOnUse">
<stop stop-color="#A22DD4" stop-opacity="0"/>
<stop offset="1" stop-color="#771999"/>
</linearGradient>
<linearGradient id="paint27_linear_1024_1904" x1="183.483" y1="262.5" x2="176.871" y2="22.9587" gradientUnits="userSpaceOnUse">
<stop stop-color="#A22DD4" stop-opacity="0"/>
<stop offset="1" stop-color="#771999"/>
</linearGradient>
<linearGradient id="paint28_linear_1024_1904" x1="183.483" y1="262.5" x2="176.871" y2="22.9587" gradientUnits="userSpaceOnUse">
<stop stop-color="#A22DD4" stop-opacity="0"/>
<stop offset="1" stop-color="#771999"/>
</linearGradient>
<linearGradient id="paint29_linear_1024_1904" x1="183.483" y1="262.5" x2="176.871" y2="22.9587" gradientUnits="userSpaceOnUse">
<stop stop-color="#A22DD4" stop-opacity="0"/>
<stop offset="1" stop-color="#771999"/>
</linearGradient>
<linearGradient id="paint30_linear_1024_1904" x1="183.483" y1="262.5" x2="176.871" y2="22.9587" gradientUnits="userSpaceOnUse">
<stop stop-color="#A22DD4" stop-opacity="0"/>
<stop offset="1" stop-color="#771999"/>
</linearGradient>
<linearGradient id="paint31_linear_1024_1904" x1="183.483" y1="262.5" x2="176.871" y2="22.9587" gradientUnits="userSpaceOnUse">
<stop stop-color="#A22DD4" stop-opacity="0"/>
<stop offset="1" stop-color="#771999"/>
</linearGradient>
<linearGradient id="paint32_linear_1024_1904" x1="183.483" y1="262.5" x2="176.871" y2="22.9587" gradientUnits="userSpaceOnUse">
<stop stop-color="#A22DD4" stop-opacity="0"/>
<stop offset="1" stop-color="#771999"/>
</linearGradient>
<linearGradient id="paint33_linear_1024_1904" x1="183.483" y1="262.5" x2="176.871" y2="22.9587" gradientUnits="userSpaceOnUse">
<stop stop-color="#A22DD4" stop-opacity="0"/>
<stop offset="1" stop-color="#771999"/>
</linearGradient>
<linearGradient id="paint34_linear_1024_1904" x1="183.483" y1="262.5" x2="176.871" y2="22.9587" gradientUnits="userSpaceOnUse">
<stop stop-color="#A22DD4" stop-opacity="0"/>
<stop offset="1" stop-color="#771999"/>
</linearGradient>
<linearGradient id="paint35_linear_1024_1904" x1="183.483" y1="262.5" x2="176.871" y2="22.9587" gradientUnits="userSpaceOnUse">
<stop stop-color="#A22DD4" stop-opacity="0"/>
<stop offset="1" stop-color="#771999"/>
</linearGradient>
<linearGradient id="paint36_linear_1024_1904" x1="183.483" y1="262.5" x2="176.871" y2="22.9587" gradientUnits="userSpaceOnUse">
<stop stop-color="#A22DD4" stop-opacity="0"/>
<stop offset="1" stop-color="#771999"/>
</linearGradient>
<linearGradient id="paint37_linear_1024_1904" x1="183.483" y1="262.5" x2="176.871" y2="22.9587" gradientUnits="userSpaceOnUse">
<stop stop-color="#A22DD4" stop-opacity="0"/>
<stop offset="1" stop-color="#771999"/>
</linearGradient>
<linearGradient id="paint38_linear_1024_1904" x1="183.483" y1="262.5" x2="176.871" y2="22.9587" gradientUnits="userSpaceOnUse">
<stop stop-color="#A22DD4" stop-opacity="0"/>
<stop offset="1" stop-color="#771999"/>
</linearGradient>
<linearGradient id="paint39_linear_1024_1904" x1="183.483" y1="262.5" x2="176.871" y2="22.9587" gradientUnits="userSpaceOnUse">
<stop stop-color="#A22DD4" stop-opacity="0"/>
<stop offset="1" stop-color="#771999"/>
</linearGradient>
<linearGradient id="paint40_linear_1024_1904" x1="183.483" y1="262.5" x2="176.871" y2="22.9587" gradientUnits="userSpaceOnUse">
<stop stop-color="#A22DD4" stop-opacity="0"/>
<stop offset="1" stop-color="#771999"/>
</linearGradient>
<linearGradient id="paint41_linear_1024_1904" x1="183.483" y1="262.5" x2="176.871" y2="22.9587" gradientUnits="userSpaceOnUse">
<stop stop-color="#A22DD4" stop-opacity="0"/>
<stop offset="1" stop-color="#771999"/>
</linearGradient>
<linearGradient id="paint42_linear_1024_1904" x1="183.483" y1="262.5" x2="176.871" y2="22.9587" gradientUnits="userSpaceOnUse">
<stop stop-color="#A22DD4" stop-opacity="0"/>
<stop offset="1" stop-color="#771999"/>
</linearGradient>
<linearGradient id="paint43_linear_1024_1904" x1="183.483" y1="262.5" x2="176.871" y2="22.9587" gradientUnits="userSpaceOnUse">
<stop stop-color="#A22DD4" stop-opacity="0"/>
<stop offset="1" stop-color="#771999"/>
</linearGradient>
<linearGradient id="paint44_linear_1024_1904" x1="183.483" y1="262.5" x2="176.871" y2="22.9587" gradientUnits="userSpaceOnUse">
<stop stop-color="#A22DD4" stop-opacity="0"/>
<stop offset="1" stop-color="#771999"/>
</linearGradient>
<linearGradient id="paint45_linear_1024_1904" x1="183.483" y1="262.5" x2="176.871" y2="22.9587" gradientUnits="userSpaceOnUse">
<stop stop-color="#A22DD4" stop-opacity="0"/>
<stop offset="1" stop-color="#771999"/>
</linearGradient>
<linearGradient id="paint46_linear_1024_1904" x1="183.483" y1="262.5" x2="176.871" y2="22.9587" gradientUnits="userSpaceOnUse">
<stop stop-color="#A22DD4" stop-opacity="0"/>
<stop offset="1" stop-color="#771999"/>
</linearGradient>
<linearGradient id="paint47_linear_1024_1904" x1="183.483" y1="262.5" x2="176.871" y2="22.9587" gradientUnits="userSpaceOnUse">
<stop stop-color="#A22DD4" stop-opacity="0"/>
<stop offset="1" stop-color="#771999"/>
</linearGradient>
<linearGradient id="paint48_linear_1024_1904" x1="183.483" y1="262.5" x2="176.871" y2="22.9587" gradientUnits="userSpaceOnUse">
<stop stop-color="#A22DD4" stop-opacity="0"/>
<stop offset="1" stop-color="#771999"/>
</linearGradient>
<linearGradient id="paint49_linear_1024_1904" x1="183.483" y1="262.5" x2="176.871" y2="22.9587" gradientUnits="userSpaceOnUse">
<stop stop-color="#A22DD4" stop-opacity="0"/>
<stop offset="1" stop-color="#771999"/>
</linearGradient>
<linearGradient id="paint50_linear_1024_1904" x1="183.483" y1="262.5" x2="176.871" y2="22.9587" gradientUnits="userSpaceOnUse">
<stop stop-color="#A22DD4" stop-opacity="0"/>
<stop offset="1" stop-color="#771999"/>
</linearGradient>
<linearGradient id="paint51_linear_1024_1904" x1="183.483" y1="262.5" x2="176.871" y2="22.9587" gradientUnits="userSpaceOnUse">
<stop stop-color="#A22DD4" stop-opacity="0"/>
<stop offset="1" stop-color="#771999"/>
</linearGradient>
<linearGradient id="paint52_linear_1024_1904" x1="183.483" y1="262.5" x2="176.871" y2="22.9587" gradientUnits="userSpaceOnUse">
<stop stop-color="#A22DD4" stop-opacity="0"/>
<stop offset="1" stop-color="#771999"/>
</linearGradient>
<linearGradient id="paint53_linear_1024_1904" x1="183.483" y1="262.5" x2="176.871" y2="22.9587" gradientUnits="userSpaceOnUse">
<stop stop-color="#A22DD4" stop-opacity="0"/>
<stop offset="1" stop-color="#771999"/>
</linearGradient>
<linearGradient id="paint54_linear_1024_1904" x1="183.483" y1="262.5" x2="176.871" y2="22.9587" gradientUnits="userSpaceOnUse">
<stop stop-color="#A22DD4" stop-opacity="0"/>
<stop offset="1" stop-color="#771999"/>
</linearGradient>
<linearGradient id="paint55_linear_1024_1904" x1="183.483" y1="262.5" x2="176.871" y2="22.9587" gradientUnits="userSpaceOnUse">
<stop stop-color="#A22DD4" stop-opacity="0"/>
<stop offset="1" stop-color="#771999"/>
</linearGradient>
<linearGradient id="paint56_linear_1024_1904" x1="183.483" y1="262.5" x2="176.871" y2="22.9587" gradientUnits="userSpaceOnUse">
<stop stop-color="#A22DD4" stop-opacity="0"/>
<stop offset="1" stop-color="#771999"/>
</linearGradient>
<linearGradient id="paint57_linear_1024_1904" x1="183.483" y1="262.5" x2="176.871" y2="22.9587" gradientUnits="userSpaceOnUse">
<stop stop-color="#A22DD4" stop-opacity="0"/>
<stop offset="1" stop-color="#771999"/>
</linearGradient>
<linearGradient id="paint58_linear_1024_1904" x1="183.483" y1="262.5" x2="176.871" y2="22.9587" gradientUnits="userSpaceOnUse">
<stop stop-color="#A22DD4" stop-opacity="0"/>
<stop offset="1" stop-color="#771999"/>
</linearGradient>
<linearGradient id="paint59_linear_1024_1904" x1="183.483" y1="262.5" x2="176.871" y2="22.9587" gradientUnits="userSpaceOnUse">
<stop stop-color="#A22DD4" stop-opacity="0"/>
<stop offset="1" stop-color="#771999"/>
</linearGradient>
<linearGradient id="paint60_linear_1024_1904" x1="183.483" y1="262.5" x2="176.871" y2="22.9587" gradientUnits="userSpaceOnUse">
<stop stop-color="#A22DD4" stop-opacity="0"/>
<stop offset="1" stop-color="#771999"/>
</linearGradient>
<linearGradient id="paint61_linear_1024_1904" x1="183.483" y1="262.5" x2="176.871" y2="22.9587" gradientUnits="userSpaceOnUse">
<stop stop-color="#A22DD4" stop-opacity="0"/>
<stop offset="1" stop-color="#771999"/>
</linearGradient>
<linearGradient id="paint62_linear_1024_1904" x1="183.483" y1="262.5" x2="176.871" y2="22.9587" gradientUnits="userSpaceOnUse">
<stop stop-color="#A22DD4" stop-opacity="0"/>
<stop offset="1" stop-color="#771999"/>
</linearGradient>
<linearGradient id="paint63_linear_1024_1904" x1="183.483" y1="262.5" x2="176.871" y2="22.9587" gradientUnits="userSpaceOnUse">
<stop stop-color="#A22DD4" stop-opacity="0"/>
<stop offset="1" stop-color="#771999"/>
</linearGradient>
<linearGradient id="paint64_linear_1024_1904" x1="183.483" y1="262.5" x2="176.871" y2="22.9587" gradientUnits="userSpaceOnUse">
<stop stop-color="#A22DD4" stop-opacity="0"/>
<stop offset="1" stop-color="#771999"/>
</linearGradient>
<linearGradient id="paint65_linear_1024_1904" x1="183.483" y1="262.5" x2="176.871" y2="22.9587" gradientUnits="userSpaceOnUse">
<stop stop-color="#A22DD4" stop-opacity="0"/>
<stop offset="1" stop-color="#771999"/>
</linearGradient>
<linearGradient id="paint66_linear_1024_1904" x1="183.483" y1="262.5" x2="176.871" y2="22.9587" gradientUnits="userSpaceOnUse">
<stop stop-color="#A22DD4" stop-opacity="0"/>
<stop offset="1" stop-color="#771999"/>
</linearGradient>
<linearGradient id="paint67_linear_1024_1904" x1="183.483" y1="262.5" x2="176.871" y2="22.9587" gradientUnits="userSpaceOnUse">
<stop stop-color="#A22DD4" stop-opacity="0"/>
<stop offset="1" stop-color="#771999"/>
</linearGradient>
<linearGradient id="paint68_linear_1024_1904" x1="183.483" y1="262.5" x2="176.871" y2="22.9587" gradientUnits="userSpaceOnUse">
<stop stop-color="#A22DD4" stop-opacity="0"/>
<stop offset="1" stop-color="#771999"/>
</linearGradient>
<linearGradient id="paint69_linear_1024_1904" x1="183.483" y1="262.5" x2="176.871" y2="22.9587" gradientUnits="userSpaceOnUse">
<stop stop-color="#A22DD4" stop-opacity="0"/>
<stop offset="1" stop-color="#771999"/>
</linearGradient>
<linearGradient id="paint70_linear_1024_1904" x1="183.483" y1="262.5" x2="176.871" y2="22.9587" gradientUnits="userSpaceOnUse">
<stop stop-color="#A22DD4" stop-opacity="0"/>
<stop offset="1" stop-color="#771999"/>
</linearGradient>
<linearGradient id="paint71_linear_1024_1904" x1="183.483" y1="262.5" x2="176.871" y2="22.9587" gradientUnits="userSpaceOnUse">
<stop stop-color="#A22DD4" stop-opacity="0"/>
<stop offset="1" stop-color="#771999"/>
</linearGradient>
<linearGradient id="paint72_linear_1024_1904" x1="183.483" y1="262.5" x2="176.871" y2="22.9587" gradientUnits="userSpaceOnUse">
<stop stop-color="#A22DD4" stop-opacity="0"/>
<stop offset="1" stop-color="#771999"/>
</linearGradient>
<linearGradient id="paint73_linear_1024_1904" x1="183.483" y1="262.5" x2="176.871" y2="22.9587" gradientUnits="userSpaceOnUse">
<stop stop-color="#A22DD4" stop-opacity="0"/>
<stop offset="1" stop-color="#771999"/>
</linearGradient>
<linearGradient id="paint74_linear_1024_1904" x1="183.483" y1="262.5" x2="176.871" y2="22.9587" gradientUnits="userSpaceOnUse">
<stop stop-color="#A22DD4" stop-opacity="0"/>
<stop offset="1" stop-color="#771999"/>
</linearGradient>
<linearGradient id="paint75_linear_1024_1904" x1="183.483" y1="262.5" x2="176.871" y2="22.9587" gradientUnits="userSpaceOnUse">
<stop stop-color="#A22DD4" stop-opacity="0"/>
<stop offset="1" stop-color="#771999"/>
</linearGradient>
<linearGradient id="paint76_linear_1024_1904" x1="183.483" y1="262.5" x2="176.871" y2="22.9587" gradientUnits="userSpaceOnUse">
<stop stop-color="#A22DD4" stop-opacity="0"/>
<stop offset="1" stop-color="#771999"/>
</linearGradient>
<linearGradient id="paint77_linear_1024_1904" x1="183.483" y1="262.5" x2="176.871" y2="22.9587" gradientUnits="userSpaceOnUse">
<stop stop-color="#A22DD4" stop-opacity="0"/>
<stop offset="1" stop-color="#771999"/>
</linearGradient>
<linearGradient id="paint78_linear_1024_1904" x1="183.483" y1="262.5" x2="176.871" y2="22.9587" gradientUnits="userSpaceOnUse">
<stop stop-color="#A22DD4" stop-opacity="0"/>
<stop offset="1" stop-color="#771999"/>
</linearGradient>
<linearGradient id="paint79_linear_1024_1904" x1="183.483" y1="262.5" x2="176.871" y2="22.9587" gradientUnits="userSpaceOnUse">
<stop stop-color="#A22DD4" stop-opacity="0"/>
<stop offset="1" stop-color="#771999"/>
</linearGradient>
<linearGradient id="paint80_linear_1024_1904" x1="183.483" y1="262.5" x2="176.871" y2="22.9587" gradientUnits="userSpaceOnUse">
<stop stop-color="#A22DD4" stop-opacity="0"/>
<stop offset="1" stop-color="#771999"/>
</linearGradient>
<linearGradient id="paint81_linear_1024_1904" x1="183.483" y1="262.5" x2="176.871" y2="22.9587" gradientUnits="userSpaceOnUse">
<stop stop-color="#A22DD4" stop-opacity="0"/>
<stop offset="1" stop-color="#771999"/>
</linearGradient>
<linearGradient id="paint82_linear_1024_1904" x1="183.483" y1="262.5" x2="176.871" y2="22.9587" gradientUnits="userSpaceOnUse">
<stop stop-color="#A22DD4" stop-opacity="0"/>
<stop offset="1" stop-color="#771999"/>
</linearGradient>
<linearGradient id="paint83_linear_1024_1904" x1="183.483" y1="262.5" x2="176.871" y2="22.9587" gradientUnits="userSpaceOnUse">
<stop stop-color="#A22DD4" stop-opacity="0"/>
<stop offset="1" stop-color="#771999"/>
</linearGradient>
<linearGradient id="paint84_linear_1024_1904" x1="183.483" y1="262.5" x2="176.871" y2="22.9587" gradientUnits="userSpaceOnUse">
<stop stop-color="#A22DD4" stop-opacity="0"/>
<stop offset="1" stop-color="#771999"/>
</linearGradient>
<linearGradient id="paint85_linear_1024_1904" x1="183.483" y1="262.5" x2="176.871" y2="22.9587" gradientUnits="userSpaceOnUse">
<stop stop-color="#A22DD4" stop-opacity="0"/>
<stop offset="1" stop-color="#771999"/>
</linearGradient>
<linearGradient id="paint86_linear_1024_1904" x1="183.483" y1="262.5" x2="176.871" y2="22.9587" gradientUnits="userSpaceOnUse">
<stop stop-color="#A22DD4" stop-opacity="0"/>
<stop offset="1" stop-color="#771999"/>
</linearGradient>
<linearGradient id="paint87_linear_1024_1904" x1="183.483" y1="262.5" x2="176.871" y2="22.9587" gradientUnits="userSpaceOnUse">
<stop stop-color="#A22DD4" stop-opacity="0"/>
<stop offset="1" stop-color="#771999"/>
</linearGradient>
<linearGradient id="paint88_linear_1024_1904" x1="183.483" y1="262.5" x2="176.871" y2="22.9587" gradientUnits="userSpaceOnUse">
<stop stop-color="#A22DD4" stop-opacity="0"/>
<stop offset="1" stop-color="#771999"/>
</linearGradient>
</defs>
</svg>
