<svg width="420" height="289" viewBox="0 0 420 289" fill="none" xmlns="http://www.w3.org/2000/svg">
<g style="mix-blend-mode:multiply" opacity="0.24">
<path d="M401.394 270.577C401.251 270.595 401.107 270.613 400.963 270.613C399.688 270.613 398.574 269.697 398.377 268.387C397.586 263.611 400.281 259.249 402.077 256.359L414.525 236.288C415.298 235.067 416.914 234.673 418.154 235.444C419.375 236.216 419.77 237.832 418.998 239.071L406.55 259.159C404.736 262.103 403.137 264.94 403.568 267.561C403.801 268.997 402.831 270.343 401.394 270.577Z" fill="url(#paint0_linear_910_45720)"/>
<path d="M387.276 279.786C387.743 279.786 388.228 279.66 388.659 279.391C389.898 278.619 390.275 277.003 389.503 275.765C387.509 272.533 386.431 266.483 392.665 255.945C393.077 255.264 393.49 254.565 393.902 253.866L393.903 253.865L393.904 253.863L393.93 253.819C397.768 247.439 402.111 240.219 401.089 232.213C400.538 227.771 398.421 223.945 396.375 220.247L396.311 220.131L396.218 219.963C394.205 216.309 392.302 212.858 392.108 209.18C391.91 205.59 393.329 202.053 394.838 198.301L394.872 198.216C396.263 194.724 397.696 191.124 397.946 187.171C398.484 178.841 393.563 171.391 389.808 166.49C388.982 165.431 388.138 164.354 387.312 163.33L387.299 163.315C383.801 158.922 380.502 154.779 378.815 149.902C376.965 144.606 377.648 137.372 382.551 134.374C383.791 133.62 384.186 132.004 383.432 130.765C382.677 129.526 381.061 129.131 379.821 129.885C376.462 131.932 374.091 135.451 373.121 139.777C372.259 143.601 372.528 147.82 373.858 151.626C375.851 157.352 379.588 162.056 383.216 166.598C384.024 167.603 384.851 168.662 385.641 169.685C392.395 178.482 392.898 183.688 392.7 186.812C392.503 189.971 391.264 193.058 389.953 196.325L389.952 196.326C388.3 200.437 386.611 204.692 386.863 209.431C387.131 214.366 389.448 218.552 391.685 222.594L391.713 222.644C393.635 226.091 395.431 229.358 395.88 232.841C396.667 239.046 392.999 245.145 389.437 251.065L389.395 251.134C389.148 251.536 388.907 251.943 388.668 252.346C388.49 252.646 388.314 252.944 388.138 253.235C382.138 263.378 381.061 272.102 385.03 278.493C385.533 279.337 386.396 279.786 387.276 279.786Z" fill="url(#paint1_linear_910_45720)"/>
<path d="M379.552 115.2C379.229 115.326 378.905 115.379 378.582 115.379C377.522 115.379 376.534 114.751 376.139 113.71L376.128 113.682C374.081 108.515 371.292 101.472 372.942 94.5909C374.63 87.5537 381.115 81.9706 388.336 81.3243C389.791 81.1986 391.066 82.2578 391.192 83.7119C391.318 85.166 390.258 86.4406 388.803 86.5663C383.845 86.9971 379.229 90.9825 378.061 95.8296C376.894 100.713 378.708 105.955 381.025 111.789C381.564 113.135 380.899 114.661 379.552 115.2Z" fill="url(#paint2_linear_910_45720)"/>
<path d="M354.979 98.2719C352.589 99.1336 350.111 99.5465 347.686 99.5465C342.53 99.5465 337.591 97.6615 334.214 94.1967C333.208 93.1555 333.226 91.486 334.267 90.4806C335.309 89.4753 336.98 89.4933 337.986 90.5345C341.488 94.1249 347.74 95.2739 353.182 93.3171C358.086 91.5578 362.595 87.4647 365.918 81.8097C368.918 76.6934 370.75 70.9128 372.654 64.4321C373.067 63.0497 374.522 62.2419 375.923 62.6548C377.306 63.0677 378.115 64.5218 377.701 65.9221C375.69 72.7439 373.768 78.8476 370.462 84.4846C366.529 91.1987 361.032 96.0997 354.979 98.2719Z" fill="url(#paint3_linear_910_45720)"/>
<path d="M345.368 78.0398C341.039 79.2785 336.53 79.8889 332.003 79.8889C322.717 79.8889 313.394 77.3217 305.544 72.4208C304.305 71.6488 303.928 70.0331 304.7 68.7945C305.472 67.5557 307.089 67.1787 308.329 67.9507C318.765 74.4673 332.075 76.3523 343.931 72.9773C345.332 72.5823 346.787 73.3902 347.182 74.7905C347.577 76.1907 346.769 77.6448 345.368 78.0398Z" fill="url(#paint4_linear_910_45720)"/>
<path d="M343.231 58.5437C343.411 58.5437 343.573 58.5258 343.752 58.4899C345.171 58.2026 346.105 56.8203 345.818 55.4021C345.315 52.9068 344.417 50.555 343.142 48.4367C339.585 42.4945 333.1 38.3835 326.221 37.7013C324.784 37.5577 323.49 38.6168 323.347 40.053C323.203 41.4892 324.263 42.7817 325.7 42.9254C330.963 43.446 335.92 46.5876 338.633 51.1295C339.603 52.7452 340.285 54.5224 340.663 56.4254C340.914 57.682 342.01 58.5437 343.231 58.5437Z" fill="url(#paint5_linear_910_45720)"/>
<path d="M319.018 60.2134C321.658 60.2134 324.173 59.4235 326.113 57.8617C327.245 56.9461 327.424 55.2945 326.508 54.1635C325.592 53.0326 323.94 52.853 322.808 53.7686C321.245 55.0252 318.228 55.5818 314.976 54.002C312.03 52.5658 309.659 49.8909 307.504 47.3058C307.387 47.1712 307.275 47.0321 307.162 46.8929C307.05 46.7538 306.938 46.6147 306.821 46.48C304.576 43.7513 302.241 40.9328 299.133 38.8145C295.559 36.3909 291.265 35.0624 285.966 34.7573C281.458 34.488 276.877 34.9907 272.584 35.5292C271.147 35.7087 270.123 37.0192 270.303 38.4554C270.482 39.8916 271.794 40.9149 273.231 40.7353C281.853 39.6582 290.098 39.0299 296.169 43.1589C298.648 44.8464 300.642 47.252 302.744 49.8191C302.86 49.9627 302.977 50.1018 303.094 50.2408C303.21 50.3797 303.328 50.5195 303.444 50.6629C305.851 53.5711 308.761 56.8384 312.659 58.7413C314.743 59.7287 316.934 60.2134 319.018 60.2134Z" fill="url(#paint6_linear_910_45720)"/>
<path d="M313.574 103.676C314.634 103.676 315.64 103.029 316.035 101.97C316.538 100.606 315.856 99.0979 314.49 98.5952L314.419 98.5684C308.172 96.2251 301.718 93.8037 296.653 89.5474C290.33 84.2335 288.768 77.8246 289.414 73.6059C289.54 72.7621 289.756 71.9004 289.989 70.9669C290.42 69.2435 290.869 67.4482 290.833 65.4735C290.762 61.4522 288.462 57.5387 284.996 55.5101C281.529 53.4815 276.984 53.3738 273.445 55.2587C272.17 55.9409 271.685 57.5387 272.368 58.8133C273.05 60.0879 274.649 60.5726 275.924 59.8904C277.864 58.8492 280.451 58.903 282.337 60.034C284.241 61.147 285.534 63.3731 285.57 65.5812C285.588 66.8558 285.247 68.2382 284.87 69.6923C284.847 69.782 284.825 69.8718 284.802 69.9619L284.796 69.9844C284.567 70.8961 284.333 71.8268 284.187 72.816C283.091 79.9968 286.558 87.9496 293.24 93.5686C299.007 98.4157 306.228 101.126 312.604 103.514C312.964 103.622 313.269 103.676 313.574 103.676Z" fill="url(#paint7_linear_910_45720)"/>
<path d="M323.615 125.254C326.31 125.254 329.004 124.841 331.591 123.997C335.088 122.85 338.245 121.005 341.312 119.212L341.326 119.204C345.656 116.673 349.733 114.303 354.206 114.159C358.265 114.016 362.325 115.937 364.804 119.15C365.684 120.299 367.337 120.514 368.486 119.617C369.636 118.737 369.851 117.086 368.953 115.937C365.468 111.413 359.738 108.72 354.026 108.899C348.235 109.079 343.392 111.905 338.694 114.647L338.668 114.662L338.617 114.692C335.672 116.404 332.885 118.025 329.938 119.007C326.31 120.209 322.304 120.317 318.388 119.366C314.472 118.414 310.987 116.457 308.311 113.711C307.305 112.669 305.634 112.651 304.593 113.657C303.551 114.662 303.533 116.332 304.539 117.373C309.514 122.453 316.556 125.254 323.615 125.254Z" fill="url(#paint8_linear_910_45720)"/>
<path d="M273.734 127.372C273.231 128.162 272.369 128.593 271.506 128.593C271.021 128.593 270.536 128.45 270.087 128.198C268.866 127.426 268.507 125.793 269.279 124.572C270.411 122.795 270.213 119.312 267.608 116.386C265.794 114.339 263.369 112.831 260.783 111.251C260.474 111.055 260.158 110.858 259.84 110.659L259.835 110.656C259.283 110.312 258.724 109.963 258.178 109.6C252.448 105.83 249.358 101.539 249.035 96.8358C248.821 93.777 249.859 90.9297 250.77 88.4333L250.795 88.3624C250.819 88.2991 250.842 88.2366 250.864 88.1746C250.879 88.1342 250.893 88.0939 250.908 88.0538L250.948 87.9405C250.997 87.8014 251.047 87.6623 251.101 87.5187C251.873 85.3465 252.592 82.8691 251.945 80.9123C251.676 80.1044 250.939 79.3325 250.131 79.0094C249.682 78.8298 249.304 78.8119 249.017 78.9734C247.742 79.6556 246.143 79.1709 245.46 77.8963C244.778 76.6217 245.263 75.024 246.538 74.3418C248.227 73.4442 250.185 73.3724 252.089 74.1264C254.334 75.024 256.184 76.9987 256.939 79.2607C258.088 82.7434 257.136 86.28 256.058 89.296L255.735 90.1576L255.708 90.2313C254.91 92.4301 254.156 94.5059 254.298 96.4589C254.514 99.4389 256.795 102.383 261.088 105.202C261.806 105.664 262.524 106.112 263.28 106.584L263.567 106.763L263.655 106.818C266.412 108.524 269.268 110.292 271.56 112.885C273.267 114.806 274.47 117.194 274.973 119.617C275.566 122.472 275.135 125.164 273.734 127.372Z" fill="url(#paint9_linear_910_45720)"/>
<path d="M285.985 109.707C287.062 109.707 288.086 109.025 288.464 107.948C288.949 106.583 288.23 105.075 286.847 104.591C283.578 103.442 280.524 101.395 277.991 98.6486C275.423 95.8481 273.393 92.3294 272.117 88.4518C271.668 87.0695 270.177 86.3334 268.794 86.7822C267.411 87.2311 266.675 88.7211 267.124 90.1034C268.633 94.6812 271.058 98.864 274.129 102.203C277.237 105.578 281.027 108.127 285.105 109.564C285.41 109.653 285.697 109.707 285.985 109.707Z" fill="url(#paint10_linear_910_45720)"/>
<path d="M269.457 70.715C269.044 71.7562 268.056 72.4025 266.996 72.4025C266.691 72.4025 266.368 72.3486 266.044 72.187L265.916 72.137C261.744 70.5159 257.042 68.6886 253.255 65.4191C248.71 61.5055 246.429 55.9763 247.273 51.0035C247.327 50.7163 247.381 50.3932 247.435 50.07C247.74 48.3825 248.1 46.3001 248.207 44.3433C248.351 41.6863 247.902 40.7708 247.758 40.5554C245.387 36.9649 239.01 36.2648 236.765 36.3007C235.31 36.3366 234.125 35.1877 234.089 33.7336C234.053 32.2794 235.202 31.0946 236.657 31.0587L236.685 31.0586C237.428 31.0559 247.772 31.0184 252.159 37.701C254.207 40.8247 253.524 45.9949 252.626 51.0215C252.572 51.3446 252.518 51.6498 252.464 51.9191C251.818 55.7249 254.225 59.3513 256.704 61.4876C259.847 64.1804 263.961 65.7781 267.948 67.322C269.314 67.8426 269.978 69.3686 269.457 70.715Z" fill="url(#paint11_linear_910_45720)"/>
<path d="M313.988 33.9668C315.048 33.9668 316.071 33.877 317.095 33.6795C318.514 33.4103 319.448 32.028 319.179 30.6097C318.91 29.1915 317.526 28.258 316.107 28.5273C312.263 29.2633 307.755 27.9169 302.312 24.4162C301.469 23.8685 300.615 23.2878 299.775 22.7172L299.769 22.7129L299.444 22.4921C299.322 22.4091 299.2 22.3263 299.079 22.244L299.054 22.2272C295.415 19.7372 291.65 17.1604 287.205 15.7812C281.403 13.986 274.955 14.5067 269.512 17.1995C264.069 19.9103 259.776 24.7394 257.71 30.4482C257.225 31.8125 257.926 33.3205 259.291 33.8052C260.656 34.2899 262.165 33.5898 262.65 32.2254C264.267 27.7733 267.608 24.0033 271.847 21.9029C276.086 19.8025 281.116 19.3897 285.642 20.7899C289.332 21.9355 292.593 24.1697 296.066 26.5496L296.097 26.5705C297.193 27.3245 298.324 28.0964 299.456 28.8325C304.809 32.2613 309.605 33.9668 313.988 33.9668Z" fill="url(#paint12_linear_910_45720)"/>
<path d="M244.831 125.506C244.544 126.726 243.466 127.552 242.263 127.552C242.065 127.552 241.868 127.534 241.688 127.48C240.269 127.157 239.389 125.757 239.712 124.339C241.329 117.301 238.58 109.869 236.012 104.196C235.329 102.688 234.611 101.162 233.892 99.6903C231.305 94.3047 228.647 88.7395 227.551 82.6358C226.797 78.417 227.012 73.9649 228.162 70.1052C229.491 65.6531 231.988 62.0626 235.401 59.7468C236.586 58.939 238.221 59.2441 239.047 60.447C239.856 61.6318 239.55 63.2654 238.347 64.0912C232.94 67.7714 231.611 75.5806 232.707 81.7023C233.676 87.1059 236.066 92.0966 238.616 97.3924L239.015 98.2286C239.61 99.4737 240.218 100.746 240.79 102.006C243.7 108.433 246.807 116.924 244.831 125.506Z" fill="url(#paint13_linear_910_45720)"/>
<path d="M270.447 144.212C277.039 144.212 283.757 141.95 289.685 137.677C293.691 134.787 299.008 134.499 303.229 136.959C314.617 143.619 329.401 145.271 341.795 141.249C343.178 140.801 343.933 139.311 343.484 137.946C343.034 136.564 341.562 135.81 340.178 136.259C329.167 139.831 316.018 138.377 305.887 132.435C299.888 128.916 292.308 129.311 286.613 133.422C280.614 137.749 273.734 139.652 267.285 138.754C265.848 138.557 264.519 139.562 264.322 140.998C264.124 142.434 265.13 143.763 266.567 143.96C267.842 144.14 269.136 144.212 270.447 144.212Z" fill="url(#paint14_linear_910_45720)"/>
<path d="M254.71 153.349C254.62 154.731 253.453 155.791 252.087 155.791L251.944 155.791C250.489 155.701 249.393 154.444 249.501 152.99C249.698 150.136 247.345 147.694 245.028 146.868C243.542 146.32 241.899 146.138 240.15 145.944L240.07 145.935C238.436 145.755 236.765 145.558 235.059 145.091C229.257 143.493 224.209 138.736 221.569 132.363C219 126.152 218.802 118.63 221.084 112.257C221.569 110.892 223.078 110.174 224.443 110.659C225.808 111.144 226.526 112.652 226.041 114.016C224.209 119.114 224.353 125.38 226.419 130.352C228.412 135.164 232.257 138.862 236.442 140.029C237.753 140.388 239.154 140.549 240.627 140.711C242.621 140.926 244.687 141.16 246.788 141.914C251.01 143.439 255.087 147.856 254.71 153.349Z" fill="url(#paint15_linear_910_45720)"/>
<path d="M336.711 164.193C340.896 164.193 345.189 163.78 349.447 162.918C353.237 162.146 357.584 161.141 361.428 158.879C365.883 156.258 368.864 152.272 369.637 147.964C370.589 142.632 367.661 137.085 362.973 135.361C361.607 134.859 360.099 135.559 359.596 136.923C359.093 138.288 359.793 139.796 361.158 140.298C363.494 141.16 364.984 144.194 364.464 147.066C363.979 149.831 361.841 152.56 358.769 154.373C355.626 156.222 351.782 157.101 348.405 157.784C336.46 160.189 324.281 158.879 315.82 154.265C314.545 153.565 312.946 154.032 312.246 155.306C311.545 156.581 312.012 158.179 313.288 158.879C319.736 162.361 327.999 164.193 336.711 164.193Z" fill="url(#paint16_linear_910_45720)"/>
<path d="M357.925 62.4034C358.302 62.4034 358.697 62.3137 359.074 62.1342C363.278 60.1056 365.523 54.7199 364.283 49.6215C363.421 46.0131 361.086 42.6381 357.152 39.317C356.154 38.4668 355.127 37.6762 354.123 36.9044L354.122 36.9034L353.829 36.678C351.997 35.2778 350.273 33.9493 348.782 32.4234C347.327 30.9334 344.938 27.9354 345.099 24.5603C345.207 22.3163 347.075 19.7312 349.303 19.785C350.758 19.803 351.961 18.672 351.979 17.2179C352.015 15.7638 350.865 14.561 349.41 14.5431C346.896 14.4892 344.489 15.5843 342.638 17.6308C340.986 19.4619 339.962 21.9034 339.836 24.3269C339.639 28.3123 341.489 32.4952 345.009 36.1035C346.764 37.8926 348.714 39.3964 350.594 40.8458L350.614 40.8609C351.71 41.7046 352.733 42.4945 353.739 43.3383C356.793 45.9234 358.553 48.3828 359.146 50.8782C359.865 53.8582 358.464 56.6049 356.757 57.4307C355.446 58.059 354.907 59.6388 355.536 60.9314C356.021 61.8649 356.955 62.4034 357.925 62.4034Z" fill="url(#paint17_linear_910_45720)"/>
<path d="M330.352 27.0379C329.992 27.2174 329.597 27.3072 329.22 27.3072C328.25 27.3072 327.298 26.7686 326.849 25.7992C325.484 22.9987 322.969 20.4854 319.718 18.744C316.395 16.9668 312.568 16.0871 308.904 16.2846C307.449 16.3743 306.21 15.2613 306.138 13.8072C306.048 12.3531 307.162 11.1144 308.617 11.0425C313.233 10.8091 318.047 11.9043 322.197 14.1303C326.418 16.4103 329.741 19.7493 331.573 23.5372C332.202 24.8298 331.663 26.4096 330.352 27.0379Z" fill="url(#paint18_linear_910_45720)"/>
<path d="M194.265 150.638C194.445 150.638 194.607 150.62 194.786 150.584C196.205 150.297 197.139 148.914 196.852 147.496C196.349 145.001 195.451 142.649 194.175 140.531C190.619 134.589 184.134 130.477 177.254 129.795C175.817 129.652 174.524 130.711 174.38 132.147C174.237 133.583 175.297 134.876 176.734 135.019C181.997 135.54 186.954 138.682 189.667 143.224C190.637 144.839 191.319 146.616 191.697 148.519C191.948 149.776 193.044 150.638 194.265 150.638Z" fill="url(#paint19_linear_910_45720)"/>
<path d="M177.147 149.956C175.207 151.518 172.692 152.308 170.052 152.308C167.95 152.308 165.777 151.823 163.693 150.818C159.795 148.915 156.885 145.647 154.478 142.739C154.361 142.596 154.245 142.457 154.128 142.318C154.011 142.179 153.894 142.039 153.778 141.895C151.676 139.328 149.682 136.923 147.203 135.235C141.132 131.106 132.887 131.735 124.265 132.812C122.828 132.991 121.516 131.968 121.337 130.532C121.157 129.096 122.181 127.785 123.618 127.606C127.911 127.067 132.492 126.564 137 126.834C142.299 127.139 146.592 128.467 150.167 130.891C153.275 133.009 155.61 135.828 157.855 138.556C157.972 138.691 158.084 138.83 158.196 138.969C158.309 139.108 158.421 139.248 158.538 139.382C160.693 141.985 163.064 144.66 166.01 146.096C169.261 147.676 172.279 147.12 173.842 145.863C174.974 144.947 176.626 145.127 177.542 146.258C178.458 147.389 178.279 149.04 177.147 149.956Z" fill="url(#paint20_linear_910_45720)"/>
<path d="M183.021 171.983C187.548 171.983 192.056 171.373 196.385 170.134C197.787 169.739 198.595 168.285 198.2 166.885C197.804 165.485 196.349 164.677 194.948 165.072C183.093 168.447 169.783 166.562 159.346 160.045C158.107 159.273 156.49 159.65 155.718 160.889C154.945 162.128 155.323 163.743 156.562 164.515C164.43 169.416 173.734 171.983 183.021 171.983Z" fill="url(#paint21_linear_910_45720)"/>
<path d="M167.07 194.065C166.675 195.124 165.669 195.77 164.609 195.77C164.304 195.77 163.998 195.716 163.639 195.609C157.262 193.221 150.041 190.51 144.275 185.663C137.593 180.044 134.126 172.091 135.222 164.91C135.368 163.921 135.602 162.99 135.831 162.078L135.905 161.787C136.282 160.333 136.623 158.95 136.605 157.676C136.569 155.468 135.276 153.242 133.372 152.128C131.486 150.998 128.899 150.944 126.959 151.985C125.684 152.667 124.085 152.182 123.403 150.908C122.72 149.633 123.205 148.035 124.48 147.353C128.019 145.468 132.564 145.576 136.03 147.605C139.497 149.633 141.796 153.547 141.868 157.568C141.904 159.543 141.455 161.338 141.024 163.061L141.024 163.063C140.79 163.996 140.575 164.857 140.449 165.7C139.803 169.919 141.365 176.328 147.688 181.642C152.752 185.898 159.207 188.32 165.454 190.663L165.525 190.69C166.89 191.192 167.573 192.7 167.07 194.065Z" fill="url(#paint22_linear_910_45720)"/>
<path d="M198.703 191.641C201.128 191.641 203.607 191.229 205.996 190.367C212.05 188.195 217.546 183.294 221.48 176.58C224.785 170.943 226.707 164.839 228.719 158.017C229.132 156.617 228.324 155.163 226.941 154.75C225.54 154.337 224.085 155.145 223.672 156.527C221.767 163.008 219.935 168.788 216.936 173.905C213.612 179.56 209.104 183.653 204.2 185.412C198.757 187.369 192.506 186.22 189.003 182.629C187.997 181.588 186.327 181.57 185.285 182.576C184.243 183.581 184.225 185.25 185.231 186.292C188.626 189.756 193.548 191.641 198.703 191.641Z" fill="url(#paint23_linear_910_45720)"/>
<path d="M182.608 216.092C180.022 216.935 177.327 217.348 174.633 217.348C167.591 217.348 160.532 214.548 155.556 209.467C154.55 208.426 154.568 206.757 155.61 205.751C156.652 204.746 158.323 204.764 159.329 205.805C162.005 208.552 165.49 210.509 169.406 211.46C173.322 212.411 177.327 212.304 180.956 211.101C183.903 210.119 186.69 208.499 189.635 206.786L189.686 206.757L189.712 206.741C194.41 203.999 199.253 201.173 205.044 200.994C210.756 200.814 216.486 203.507 219.971 208.031C220.869 209.18 220.653 210.832 219.504 211.711C218.354 212.609 216.702 212.394 215.821 211.245C213.343 208.031 209.283 206.128 205.223 206.254C200.751 206.398 196.673 208.767 192.344 211.298L192.33 211.307C189.263 213.099 186.106 214.945 182.608 216.092Z" fill="url(#paint24_linear_910_45720)"/>
<path d="M122.522 220.687C123.385 220.687 124.247 220.256 124.75 219.466C126.151 217.258 126.582 214.566 126.007 211.711C125.504 209.288 124.301 206.9 122.594 204.979C120.302 202.386 117.446 200.619 114.689 198.912L114.601 198.857L114.314 198.678C113.558 198.206 112.84 197.758 112.122 197.296C107.829 194.477 105.548 191.533 105.332 188.553C105.19 186.6 105.944 184.524 106.742 182.326L106.769 182.252L107.092 181.39C108.17 178.374 109.122 174.837 107.973 171.355C107.218 169.093 105.368 167.118 103.123 166.22C101.219 165.466 99.2606 165.538 97.5721 166.436C96.2967 167.118 95.8117 168.716 96.4943 169.99C97.1769 171.265 98.7756 171.75 100.051 171.067C100.338 170.906 100.716 170.924 101.165 171.103C101.973 171.426 102.709 172.198 102.979 173.006C103.626 174.963 102.907 177.44 102.135 179.613C102.1 179.704 102.068 179.794 102.036 179.883C102.019 179.931 102.002 179.979 101.984 180.028L101.984 180.03L101.982 180.034C101.958 180.102 101.934 180.169 101.91 180.236C101.884 180.309 101.857 180.382 101.829 180.456L101.804 180.527C100.893 183.024 99.8554 185.871 100.069 188.93C100.392 193.633 103.482 197.924 109.212 201.694C109.836 202.109 110.478 202.506 111.113 202.898L111.119 202.902C111.36 203.05 111.598 203.198 111.835 203.345C114.421 204.925 116.846 206.433 118.66 208.48C121.265 211.406 121.463 214.889 120.331 216.666C119.558 217.887 119.918 219.52 121.139 220.292C121.552 220.544 122.037 220.687 122.522 220.687Z" fill="url(#paint25_linear_910_45720)"/>
<path d="M139.497 200.043C139.12 201.12 138.096 201.802 137.019 201.802C136.731 201.802 136.444 201.748 136.138 201.658C132.061 200.222 128.271 197.673 125.163 194.298C122.091 190.959 119.666 186.776 118.158 182.198C117.709 180.816 118.445 179.326 119.828 178.877C121.211 178.428 122.702 179.164 123.151 180.547C124.427 184.424 126.456 187.943 129.025 190.744C131.558 193.49 134.612 195.537 137.881 196.686C139.264 197.17 139.982 198.678 139.497 200.043Z" fill="url(#paint26_linear_910_45720)"/>
<path d="M118.032 164.497C119.092 164.497 120.08 163.851 120.493 162.809C121.014 161.463 120.349 159.937 118.984 159.416C114.996 157.873 110.883 156.275 107.739 153.582C105.261 151.446 102.854 147.819 103.5 144.014C103.554 143.744 103.608 143.439 103.662 143.116C104.56 138.089 105.243 132.919 103.195 129.795C98.808 123.113 88.4635 123.15 87.7205 123.153L87.693 123.153C86.238 123.189 85.0884 124.374 85.1244 125.828C85.1603 127.282 86.3458 128.431 87.8008 128.395C90.0641 128.359 96.4229 129.059 98.794 132.65C98.9377 132.865 99.3868 133.781 99.2431 136.438C99.1353 138.395 98.7761 140.477 98.4707 142.164C98.4168 142.488 98.3629 142.811 98.309 143.098C97.4648 148.071 99.7461 153.6 104.291 157.514C108.078 160.783 112.78 162.61 116.951 164.231L117.08 164.282C117.385 164.443 117.709 164.497 118.032 164.497Z" fill="url(#paint27_linear_910_45720)"/>
<path d="M168.13 125.775C167.106 125.972 166.082 126.062 165.023 126.062C160.622 126.062 155.826 124.356 150.491 120.927C149.359 120.191 148.227 119.419 147.132 118.665L147.101 118.645C143.628 116.265 140.367 114.03 136.677 112.885C132.151 111.485 127.121 111.897 122.882 113.998C118.643 116.098 115.302 119.868 113.685 124.32C113.2 125.685 111.691 126.385 110.326 125.9C108.961 125.415 108.26 123.907 108.745 122.543C110.811 116.834 115.104 112.005 120.547 109.294C125.989 106.602 132.438 106.081 138.24 107.876C142.685 109.255 146.45 111.832 150.089 114.322L150.113 114.339C150.218 114.41 150.323 114.481 150.428 114.552C150.554 114.638 150.68 114.724 150.806 114.81C151.647 115.381 152.502 115.963 153.347 116.511C158.789 120.012 163.298 121.358 167.142 120.622C168.561 120.353 169.944 121.286 170.214 122.705C170.483 124.123 169.549 125.505 168.13 125.775Z" fill="url(#paint28_linear_910_45720)"/>
<path d="M93.2794 219.647C94.4829 219.647 95.5607 218.821 95.8481 217.6C97.824 209.019 94.7164 200.528 91.8064 194.101C91.2349 192.841 90.6274 191.569 90.0329 190.325L90.0301 190.319C89.8969 190.04 89.7643 189.763 89.633 189.487C87.0822 184.191 84.6932 179.2 83.7232 173.797C82.6275 167.675 83.9567 159.866 89.3635 156.186C90.567 155.36 90.8723 153.726 90.064 152.541C89.2377 151.339 87.6032 151.033 86.4176 151.841C83.0047 154.157 80.5079 157.748 79.1786 162.2C78.029 166.059 77.8134 170.512 78.5678 174.73C79.6636 180.834 82.3221 186.399 84.9087 191.785C85.6273 193.257 86.3458 194.783 87.0283 196.291C89.597 201.964 92.3453 209.396 90.7287 216.433C90.4054 217.851 91.2855 219.252 92.7046 219.575C92.9022 219.629 93.0998 219.647 93.2794 219.647Z" fill="url(#paint29_linear_910_45720)"/>
<path d="M140.701 229.771C134.773 234.044 128.055 236.306 121.463 236.306C120.151 236.306 118.858 236.234 117.583 236.054C116.146 235.857 115.14 234.528 115.337 233.092C115.535 231.656 116.864 230.651 118.301 230.848C124.75 231.746 131.63 229.843 137.629 225.516C143.323 221.405 150.904 221.01 156.903 224.529C167.034 230.471 180.183 231.925 191.194 228.353C192.559 227.904 194.05 228.658 194.499 230.04C194.948 231.405 194.194 232.895 192.811 233.343C180.416 237.365 165.633 235.713 154.245 229.053C150.023 226.593 144.706 226.881 140.701 229.771Z" fill="url(#paint30_linear_910_45720)"/>
<path d="M103.123 247.885C104.488 247.885 105.656 246.826 105.746 245.444C106.123 239.95 102.045 235.534 97.8242 234.008C95.7226 233.254 93.6569 233.021 91.663 232.805C90.1901 232.644 88.7889 232.482 87.4777 232.123C83.2923 230.956 79.4483 227.258 77.4544 222.447C75.3887 217.474 75.245 211.209 77.0772 206.11C77.5622 204.746 76.8437 203.238 75.4785 202.753C74.1133 202.269 72.6045 202.987 72.1195 204.351C69.8382 210.724 70.0358 218.246 72.6045 224.457C75.245 230.83 80.2926 235.588 86.0946 237.186C87.801 237.652 89.4715 237.85 91.1061 238.029L91.1859 238.038C92.9344 238.232 94.5776 238.415 96.0639 238.963C98.3811 239.789 100.734 242.23 100.537 245.084C100.429 246.539 101.525 247.795 102.98 247.885L103.123 247.885Z" fill="url(#paint31_linear_910_45720)"/>
<path d="M200.481 255.012C196.223 255.874 191.93 256.287 187.745 256.287C179.015 256.287 170.77 254.455 164.321 250.973C163.046 250.273 162.579 248.675 163.28 247.4C163.98 246.126 165.579 245.659 166.854 246.359C175.315 250.973 187.493 252.283 199.439 249.878C202.816 249.195 206.66 248.316 209.803 246.467C212.875 244.654 215.012 241.925 215.497 239.16C216.018 236.288 214.527 233.254 212.192 232.392C210.827 231.89 210.127 230.382 210.629 229.017C211.132 227.653 212.641 226.953 214.006 227.455C218.695 229.179 221.623 234.726 220.671 240.058C219.898 244.366 216.916 248.352 212.462 250.973C208.618 253.235 204.271 254.24 200.481 255.012Z" fill="url(#paint32_linear_910_45720)"/>
<path d="M229.599 207.474C229.922 207.474 230.245 207.421 230.569 207.295C231.916 206.756 232.581 205.23 232.042 203.884C229.725 198.05 227.91 192.808 229.078 187.925C230.245 183.077 234.862 179.092 239.82 178.661C241.275 178.536 242.334 177.261 242.209 175.807C242.083 174.353 240.808 173.294 239.353 173.419C232.132 174.066 225.647 179.649 223.958 186.686C222.309 193.567 225.098 200.609 227.145 205.777L227.156 205.805C227.569 206.846 228.557 207.474 229.599 207.474Z" fill="url(#paint33_linear_910_45720)"/>
<path d="M210.109 154.228C209.732 154.408 209.337 154.497 208.959 154.497C207.972 154.497 207.037 153.959 206.552 153.025C205.924 151.733 206.463 150.153 207.774 149.525C209.48 148.699 210.882 145.952 210.163 142.972C209.57 140.477 207.81 138.017 204.756 135.432C203.75 134.589 202.726 133.799 201.631 132.955L201.611 132.94C199.731 131.49 197.78 129.986 196.026 128.198C192.506 124.589 190.655 120.406 190.853 116.421C190.979 113.997 192.003 111.556 193.655 109.725C195.469 107.732 197.805 106.637 200.248 106.637L200.427 106.637C201.882 106.655 203.032 107.858 202.996 109.312C202.978 110.748 201.792 111.879 200.373 111.879L200.265 111.879C198.056 111.879 196.242 114.428 196.134 116.654C195.972 120.029 198.361 123.027 199.816 124.517C201.307 126.043 203.032 127.372 204.864 128.772L205.156 128.997C206.16 129.769 207.189 130.56 208.187 131.411C212.121 134.732 214.456 138.107 215.318 141.716C216.558 146.814 214.312 152.2 210.109 154.228Z" fill="url(#paint34_linear_910_45720)"/>
<path d="M180.256 119.401C180.633 119.401 181.028 119.311 181.387 119.132C182.699 118.504 183.238 116.924 182.609 115.631C180.777 111.843 177.454 108.504 173.232 106.224C169.083 103.998 164.269 102.903 159.652 103.137C158.197 103.208 157.084 104.447 157.174 105.901C157.263 107.355 158.485 108.468 159.94 108.379C163.604 108.181 167.448 109.061 170.753 110.838C174.005 112.579 176.52 115.093 177.885 117.893C178.334 118.863 179.268 119.401 180.256 119.401Z" fill="url(#paint35_linear_910_45720)"/>
<path d="M216.252 104.986C215.947 105.112 215.623 105.166 215.318 105.166C214.258 105.166 213.27 104.538 212.875 103.46C209.713 95.2024 203.409 88.1113 195.577 83.9823C192.106 82.1603 188.396 80.9026 184.479 79.5749L184.188 79.4763L184.181 79.4739C180.609 78.2719 176.929 77.0336 173.429 75.3473C169.243 73.3367 165.615 70.608 162.92 67.4843C159.723 63.7502 157.981 59.5135 157.891 55.2409C157.855 53.7868 159.005 52.584 160.46 52.5481L160.513 52.5481C161.932 52.5481 163.1 53.6791 163.136 55.1153C163.298 62.1525 169.728 67.7356 175.71 70.608C178.925 72.1519 182.284 73.2828 185.859 74.4856C189.901 75.85 194.086 77.2682 198.02 79.3327C206.947 84.0541 214.15 92.1685 217.761 101.593C218.282 102.958 217.599 104.466 216.252 104.986Z" fill="url(#paint36_linear_910_45720)"/>
<path d="M184.942 100.983C185.661 100.983 186.397 100.677 186.918 100.103C187.888 99.0079 187.78 97.3563 186.684 96.3869C175.404 86.4234 159.758 81.5584 144.813 83.3895C143.376 83.569 142.352 84.8795 142.532 86.3157C142.712 87.7519 144.023 88.7752 145.46 88.5956C158.932 86.944 173.051 91.3244 183.218 100.318C183.703 100.767 184.331 100.983 184.942 100.983Z" fill="url(#paint37_linear_910_45720)"/>
<path d="M125.055 95.902C124.552 96.5842 123.762 96.9432 122.972 96.9432C122.415 96.9432 121.858 96.7816 121.355 96.4226C118.966 94.6094 117.367 91.8268 116.828 88.5954C116.343 85.5795 116.792 82.4558 118.122 79.763C120.421 75.1134 125.181 71.4512 131.163 69.6918C136.215 68.2037 141.354 68.1492 146.339 68.0962L146.539 68.0941L146.557 68.0941C147.994 68.0941 149.161 69.261 149.179 70.6972C149.197 72.1513 148.03 73.3361 146.575 73.3541L146.36 73.3566C141.739 73.4094 136.987 73.4637 132.636 74.7364C128.073 76.0649 124.498 78.7577 122.846 82.0788C121.085 85.6154 121.858 90.1573 124.552 92.2218C125.72 93.1014 125.935 94.753 125.055 95.902Z" fill="url(#paint38_linear_910_45720)"/>
<path d="M204.198 68.5253C205.384 68.5253 206.444 67.7354 206.749 66.5326C207.108 65.1323 206.246 63.6962 204.845 63.3372C199.474 61.9907 193.924 60.5904 189.361 57.6284C185.697 55.2407 181.763 50.8245 181.781 45.6004C181.781 41.4535 184.601 37.3245 188.463 35.8165C192.325 34.3085 197.193 35.4036 200.031 38.4555C201.019 39.5146 202.689 39.5865 203.749 38.5991C204.809 37.6117 204.881 35.9422 203.893 34.883C199.582 30.2514 192.451 28.6177 186.559 30.9335C180.667 33.2494 176.536 39.2813 176.536 45.6004C176.536 48.8498 177.559 52.135 179.517 55.151C181.26 57.8259 183.667 60.1956 186.505 62.0446C191.741 65.4508 197.908 67.0161 203.374 68.4039L203.57 68.4535C203.767 68.5074 203.983 68.5253 204.198 68.5253Z" fill="url(#paint39_linear_910_45720)"/>
<path d="M230.478 45.7618C225.718 52.1527 217.814 56.1202 209.857 56.1202L209.821 56.1202C201.845 56.1022 193.942 52.1168 189.2 45.7079C188.337 44.541 188.589 42.8894 189.756 42.0277C190.924 41.166 192.577 41.4173 193.439 42.5842C197.211 47.6826 203.498 50.8602 209.839 50.8602L209.857 50.8602C216.198 50.8602 222.485 47.7006 226.257 42.6201C227.119 41.4532 228.772 41.2199 229.939 42.0816C231.107 42.9433 231.34 44.5949 230.478 45.7618Z" fill="url(#paint40_linear_910_45720)"/>
<path d="M217.635 31.418C218.245 31.418 218.856 31.2026 219.341 30.7897C220.437 29.8382 220.581 28.1866 219.629 27.0915C214.904 21.5623 208.078 17.7923 200.426 16.4818C192.774 15.1534 185.086 16.4279 178.763 20.0363C177.506 20.7544 177.075 22.3701 177.793 23.6268C178.512 24.8834 180.128 25.3142 181.386 24.5962C186.631 21.5802 193.08 20.539 199.528 21.652C205.977 22.7651 211.707 25.9067 215.641 30.5025C216.162 31.0949 216.898 31.418 217.635 31.418Z" fill="url(#paint41_linear_910_45720)"/>
<path d="M136.282 59.2256C136.103 60.5361 134.971 61.5055 133.678 61.5055C133.552 61.5055 133.444 61.4876 133.336 61.4696C131.899 61.2901 130.875 59.9616 131.073 58.5254C132.887 44.7382 145.12 41.1657 148.838 40.3938C150.491 40.0527 152.107 39.8732 153.688 39.7116L153.832 39.6953L153.835 39.6949C155.522 39.5038 157.11 39.324 158.646 38.9576C160.065 38.6165 163.514 37.5214 164.663 34.8286C165.561 32.7461 164.789 30.1969 163.765 28.4915C162.4 26.2116 160.209 24.3087 158.089 22.4775C156.993 21.5261 156.885 19.8745 157.837 18.7794C158.79 17.6843 160.442 17.5766 161.538 18.5281C163.855 20.5387 166.478 22.8186 168.274 25.8166C170.447 29.4609 170.914 33.6079 169.495 36.929C168.04 40.3578 164.52 42.9789 159.885 44.0919C158.034 44.5456 156.184 44.7449 154.399 44.9371L154.245 44.9536C152.718 45.1152 151.281 45.2767 149.898 45.564C148.156 45.923 144.761 46.8925 141.761 49.2801C138.671 51.7575 136.821 55.0966 136.282 59.2256Z" fill="url(#paint42_linear_910_45720)"/>
<path d="M237.305 22.4598C237.987 22.4598 238.67 22.4418 239.37 22.4059C247.256 22.0109 254.908 19.2823 260.89 14.7404C262.039 13.8607 262.273 12.2091 261.393 11.0602C260.512 9.9112 258.86 9.6778 257.71 10.5575C252.555 14.471 245.963 16.8048 239.101 17.1639C232.257 17.505 225.449 15.8534 219.917 12.4963C218.677 11.7423 217.061 12.1373 216.306 13.376C215.552 14.6147 215.947 16.2304 217.186 16.9844C223.024 20.5389 230.101 22.4598 237.305 22.4598Z" fill="url(#paint43_linear_910_45720)"/>
<path d="M245.801 223.793C245.28 224.278 244.633 224.529 243.969 224.529C243.268 224.529 242.586 224.26 242.119 223.739C241.113 222.698 241.149 221.028 242.19 220.023C244.759 217.546 244.256 212.914 243.448 207.995C242.101 199.845 243.681 194.316 248.118 191.551C250.847 189.84 254.054 189.739 256.895 189.65L256.956 189.648C259.74 189.576 262.147 189.487 263.44 188.086C264.895 186.489 264.374 184.011 263.351 180.116C262.327 176.274 261.195 171.911 263.458 168.034C265.308 164.874 268.955 162.971 274.02 162.558C275.008 162.489 275.996 162.453 276.952 162.419L277.056 162.415C279.266 162.361 281.349 162.289 283.181 161.661C285.606 160.835 286.954 158.788 286.63 157.46C286.289 156.06 287.151 154.641 288.57 154.3C289.971 153.959 291.39 154.821 291.732 156.239C292.863 160.889 289.127 165.179 284.888 166.633C282.301 167.513 279.715 167.603 277.218 167.675C276.248 167.693 275.332 167.729 274.434 167.8C272.565 167.962 269.242 168.536 267.985 170.691C266.817 172.683 267.59 175.645 268.416 178.787C269.53 183.006 270.787 187.817 267.302 191.623C264.518 194.657 260.584 194.782 257.1 194.89C254.692 194.962 252.429 195.034 250.866 196.003C247.795 197.906 247.939 203.112 248.603 207.134C249.393 211.927 250.579 219.197 245.801 223.793Z" fill="url(#paint44_linear_910_45720)"/>
<path d="M252.141 248.208C254.979 248.208 257.62 247.544 259.811 246.233C264.661 243.343 267.482 237.15 266.997 230.453C266.583 224.798 264.158 219.592 262.003 215.015C261.392 213.704 259.811 213.13 258.5 213.758C257.189 214.368 256.614 215.948 257.243 217.259L257.342 217.47C259.359 221.784 261.433 226.22 261.751 230.83C262.021 234.708 260.692 239.573 257.099 241.727C254.638 243.199 251.153 243.379 247.525 242.194C244.094 241.081 240.986 238.963 238.526 236.054C236.065 233.146 234.502 229.717 233.999 226.145C233.801 224.709 232.472 223.703 231.035 223.919C229.598 224.116 228.592 225.445 228.808 226.881C230.119 236.162 236.999 244.33 245.926 247.203C248.028 247.885 250.147 248.208 252.141 248.208Z" fill="url(#paint45_linear_910_45720)"/>
<path d="M283.702 224.871C283.181 225.481 282.427 225.804 281.69 225.804C281.098 225.804 280.487 225.589 280.002 225.194C275.08 221.011 273.356 213.686 275.906 207.762C276.894 205.482 278.349 203.615 279.768 201.802L279.903 201.628C280.913 200.329 281.865 199.105 282.553 197.799C285.103 193.006 283.972 186.399 279.966 182.737C278.906 181.75 278.816 180.098 279.804 179.021C280.792 177.962 282.445 177.872 283.523 178.859C289.289 184.137 290.887 193.347 287.205 200.258C286.277 201.99 285.111 203.483 283.989 204.92L283.9 205.034C282.624 206.631 281.439 208.157 280.72 209.827C279.104 213.615 280.253 218.498 283.397 221.172C284.511 222.106 284.636 223.758 283.702 224.871Z" fill="url(#paint46_linear_910_45720)"/>
<path d="M302.653 254.832C303.03 254.832 303.425 254.743 303.802 254.563C305.113 253.935 305.652 252.355 305.024 251.044C301.647 244.097 304.682 235.408 307.7 228.622C307.826 228.335 307.951 228.053 308.077 227.77C308.203 227.487 308.329 227.204 308.454 226.917L308.484 226.851C311.764 219.506 315.473 211.201 313.969 202.646C313.215 198.409 311.293 194.675 309.424 191.048C309.137 190.492 308.85 189.935 308.58 189.379C306.694 185.663 304.988 181.695 305.221 177.782C305.401 174.515 307.52 170.816 310.754 170.26C312.191 170.009 313.143 168.662 312.909 167.226C312.658 165.79 311.311 164.838 309.874 165.072C307.107 165.538 304.592 167.172 302.76 169.667C301.126 171.893 300.138 174.658 299.976 177.459C299.689 182.611 301.683 187.368 303.892 191.731C304.036 192.018 304.179 192.301 304.323 192.584C304.467 192.866 304.61 193.149 304.754 193.436L304.767 193.461C306.523 196.862 308.187 200.087 308.796 203.543C310.032 210.526 306.819 217.723 303.701 224.707L303.676 224.763C303.551 225.05 303.42 225.337 303.29 225.624L303.289 225.626C303.159 225.913 303.03 226.199 302.904 226.486C299.437 234.313 295.988 244.438 300.299 253.342C300.73 254.294 301.665 254.832 302.653 254.832Z" fill="url(#paint47_linear_910_45720)"/>
<path d="M277.325 249.86C277.182 249.878 277.038 249.895 276.894 249.895C275.637 249.895 274.523 248.998 274.29 247.687C274.056 246.251 275.008 244.887 276.445 244.653C280.451 243.989 285.804 240.686 288.839 233.433C291.282 227.599 291.678 220.993 292.055 214.602C292.145 213.165 293.402 212.052 294.839 212.142C296.276 212.232 297.39 213.471 297.3 214.925C296.923 221.441 296.474 228.82 293.689 235.48C292.216 239.034 290.025 242.212 287.384 244.689C284.421 247.472 280.936 249.249 277.325 249.86Z" fill="url(#paint48_linear_910_45720)"/>
<path d="M108.009 261.151C116.524 261.151 125.074 259.626 132.96 256.61C136.325 255.328 139.585 253.782 142.739 252.286L142.821 252.247C147.06 250.237 151.048 248.352 155.305 247.005C156.688 246.574 157.461 245.084 157.012 243.702C156.581 242.32 155.09 241.548 153.707 241.996C149.131 243.443 144.805 245.494 140.621 247.478L140.558 247.508C137.468 248.98 134.271 250.488 131.073 251.709C119.703 256.035 106.896 257.058 94.9862 254.581C93.5671 254.294 92.166 255.191 91.8786 256.61C91.5912 258.028 92.4894 259.428 93.9084 259.715C98.5428 260.667 103.267 261.151 108.009 261.151Z" fill="url(#paint49_linear_910_45720)"/>
<path d="M346.662 253.791L346.518 253.791C345.135 253.791 343.985 252.696 343.914 251.314C343.105 235.57 338.004 230.077 333.513 225.248L333.47 225.201C330.271 221.754 327.241 218.489 326.508 212.555C325.323 203.085 329.841 197.754 332.823 194.236L332.831 194.226C333.854 193.023 334.735 191.982 335.148 191.103C336.477 188.302 335.866 184.64 333.711 182.414C331.555 180.188 327.927 179.47 325.071 180.69C323.741 181.265 322.197 180.654 321.622 179.326C321.047 177.997 321.658 176.454 322.987 175.879C327.837 173.779 333.801 174.964 337.483 178.769C341.165 182.575 342.153 188.571 339.89 193.347C339.198 194.837 338.067 196.169 336.879 197.569L336.836 197.619C334.016 200.94 330.819 204.71 331.717 211.891C332.255 216.156 334.386 218.453 337.341 221.64L337.357 221.657C342.207 226.863 348.243 233.362 349.159 251.027C349.231 252.481 348.117 253.72 346.662 253.791Z" fill="url(#paint50_linear_910_45720)"/>
<path d="M332.525 274.257C333.226 274.257 333.908 273.988 334.429 273.431C335.435 272.372 335.381 270.72 334.339 269.715C330.298 265.891 327.064 258.89 325.466 250.542C323.993 242.823 324.424 236.504 325.591 234.475C326.31 233.218 325.879 231.603 324.621 230.885C323.364 230.166 321.747 230.597 321.029 231.854C319.951 233.703 319.376 236.539 319.269 240.256C319.179 243.702 319.538 247.598 320.292 251.529C322.771 264.419 327.873 270.846 330.711 273.539C331.214 274.006 331.86 274.257 332.525 274.257Z" fill="url(#paint51_linear_910_45720)"/>
<path d="M344.83 215.805C344.327 216.236 343.716 216.433 343.123 216.433C342.387 216.433 341.632 216.128 341.129 215.5C340.195 214.405 340.321 212.735 341.435 211.801C346.59 207.439 350.147 201.389 351.422 194.747C352.697 188.123 351.673 181.175 348.512 175.197C347.829 173.905 348.332 172.325 349.608 171.643C350.901 170.96 352.482 171.463 353.164 172.738C356.865 179.757 358.086 187.925 356.577 195.734C355.068 203.544 350.901 210.67 344.83 215.805Z" fill="url(#paint52_linear_910_45720)"/>
<path d="M95.471 102.131C95.7224 102.131 95.9919 102.095 96.2613 102.006C97.6445 101.575 98.4169 100.103 97.9857 98.7204C95.8302 91.8088 95.2734 84.215 96.3691 76.8008C97.4648 69.3866 100.177 62.2955 104.255 56.2815C108.314 50.2675 113.883 45.0973 120.367 41.3274C126.852 37.5395 134.091 35.2416 141.312 34.6492C142.767 34.5235 143.845 33.2669 143.719 31.8127C143.593 30.3586 142.336 29.2815 140.881 29.4071C132.869 30.0534 124.858 32.6026 117.709 36.7855C110.56 40.9683 104.398 46.6771 99.8898 53.3374C95.3812 59.9976 92.3814 67.8427 91.1599 76.0289C89.9564 84.215 90.5851 92.5987 92.9562 100.264C93.3155 101.413 94.3573 102.131 95.471 102.131Z" fill="url(#paint53_linear_910_45720)"/>
<path d="M98.8293 111.467C98.7215 112.831 97.5719 113.891 96.2067 113.891C96.1715 113.891 96.1406 113.891 96.1076 113.893C96.0734 113.895 96.0369 113.899 95.9912 113.909C89.2192 113.406 82.7347 109.851 78.6571 104.394C74.5796 98.9365 73.0168 91.7018 74.4718 85.0595C74.7772 83.6413 76.1783 82.7436 77.5973 83.0488C79.0164 83.354 79.9145 84.7543 79.6092 86.1725C78.4775 91.3427 79.6989 96.9797 82.8784 101.234C86.0578 105.471 91.1053 108.254 96.4044 108.649C97.8593 108.756 98.9371 110.013 98.8293 111.467Z" fill="url(#paint54_linear_910_45720)"/>
<path d="M73.9332 139.974C75.1905 139.974 76.3042 139.077 76.5198 137.802C77.7951 130.442 75.6396 122.273 69.9634 112.831C68.9166 111.092 67.8039 109.38 66.7156 107.706C66.534 107.426 66.353 107.148 66.1732 106.871L66.0186 106.633C62.8602 101.784 59.8742 97.2003 58.0361 92.06C55.8985 86.0999 55.2518 77.1956 60.4969 71.7023C64.3589 67.663 70.3406 66.3346 77.2023 65.1318C78.6394 64.8804 79.5914 63.5161 79.3399 62.0979C79.0884 60.6617 77.7233 59.7102 76.3042 59.9615L76.242 59.9725C70.2479 61.0307 62.0592 62.4763 56.7068 68.0759C53.6711 71.2534 51.803 75.562 51.318 80.4988C50.8868 84.8253 51.5156 89.439 53.0963 93.8373C55.18 99.6358 58.539 104.77 61.7903 109.725L61.822 109.774L61.8227 109.775L61.8249 109.778L61.8263 109.78C63.0544 111.666 64.3164 113.603 65.4726 115.523C70.4843 123.817 72.4063 130.819 71.3465 136.886C71.095 138.323 72.065 139.669 73.4841 139.92C73.6278 139.956 73.7715 139.974 73.9332 139.974Z" fill="url(#paint55_linear_910_45720)"/>
<path d="M365.541 277.811C365.308 277.883 365.056 277.919 364.823 277.919C363.673 277.919 362.613 277.165 362.308 275.98L362.275 275.864C359.304 265.327 356.236 254.45 356.183 243.11C356.165 237.114 357.099 231.207 358.913 226.001C360.961 220.113 364.068 215.158 368.128 211.262C369.17 210.275 370.84 210.311 371.846 211.352C372.834 212.393 372.798 214.063 371.757 215.068C365.146 221.387 361.374 231.602 361.428 243.092C361.482 253.755 364.464 264.329 367.356 274.562C367.751 275.962 366.943 277.416 365.541 277.811Z" fill="url(#paint56_linear_910_45720)"/>
<path d="M199.296 279.337C200.14 279.337 200.948 278.942 201.469 278.206C206.032 271.582 213.863 267.219 221.911 266.842C223.976 266.753 226.078 266.878 228.305 267.04C231.718 267.273 235.239 267.507 238.814 266.842C243.186 266.019 247.022 263.944 250.732 261.938L250.759 261.924C254.28 260.021 257.603 258.225 261.177 257.561C267.357 256.412 273.931 258.818 278.961 261.044C289.019 265.488 298.523 271.524 307.723 277.366L307.773 277.398C308.994 278.17 310.629 277.811 311.401 276.59C312.174 275.37 311.814 273.736 310.593 272.964L310.447 272.871C301.116 266.958 291.462 260.84 281.08 256.251C275.35 253.719 267.806 250.991 260.189 252.409C255.799 253.233 251.963 255.307 248.253 257.313L248.226 257.328C244.706 259.231 241.382 261.026 237.808 261.69C234.898 262.229 231.844 262.031 228.629 261.816C226.366 261.654 224.012 261.511 221.641 261.618C211.995 262.067 202.583 267.291 197.104 275.262C196.278 276.465 196.583 278.098 197.787 278.924C198.272 279.194 198.793 279.337 199.296 279.337Z" fill="url(#paint57_linear_910_45720)"/>
<path d="M180.165 274.293C179.698 274.634 179.159 274.796 178.62 274.796C177.812 274.796 177.003 274.419 176.5 273.683C172.333 267.938 165.615 264.204 158.537 263.701C151.442 263.199 144.275 265.963 139.335 271.062C138.329 272.121 136.659 272.139 135.617 271.134C134.557 270.128 134.539 268.459 135.545 267.417C141.545 261.206 150.275 257.867 158.897 258.477C167.519 259.088 175.692 263.63 180.757 270.631C181.602 271.798 181.332 273.449 180.165 274.293Z" fill="url(#paint58_linear_910_45720)"/>
<path d="M334.501 12.2267C335.004 12.2267 335.507 12.0831 335.956 11.778C337.16 10.9701 337.483 9.33649 336.675 8.13367C333.908 4.02265 329.705 0.7374 324.837 -1.11169C319.969 -2.96072 314.634 -3.30184 309.838 -2.06314C306.623 -1.23733 303.695 0.198858 300.893 1.59913L300.72 1.68418L300.718 1.68488L300.717 1.68561C298.698 2.67689 296.793 3.61258 294.803 4.32783C283.648 8.25934 269.943 3.53791 263.566 -6.4255C262.794 -7.64623 261.159 -8.0053 259.938 -7.23333C258.716 -6.46142 258.357 -4.82778 259.129 -3.60702C262.848 2.20948 268.721 6.73341 275.673 9.12104C282.625 11.5087 290.043 11.5625 296.546 9.26468C298.754 8.48353 300.851 7.46149 302.88 6.47205L302.881 6.47144L303.228 6.30259C305.922 4.9741 308.473 3.71747 311.167 3.01734C318.945 1.00672 327.855 4.39963 332.328 11.0599C332.813 11.8138 333.657 12.2267 334.501 12.2267Z" fill="url(#paint59_linear_910_45720)"/>
<path d="M247.238 -2.04479C242.442 5.47715 233.155 8.74445 225.755 8.74445C225.467 8.74445 225.162 8.74445 224.874 8.70857C218.39 8.4752 209.804 5.01042 205.978 -1.20104C205.223 -2.42177 205.6 -4.05544 206.84 -4.80941C208.061 -5.56341 209.696 -5.18639 210.45 -3.94771C213.163 0.468484 220.006 3.30494 225.054 3.48448C230.91 3.68195 238.939 1.16865 242.801 -4.86327C243.574 -6.10198 245.208 -6.44308 246.43 -5.67114C247.669 -4.89919 248.01 -3.26556 247.238 -2.04479Z" fill="url(#paint60_linear_910_45720)"/>
<path d="M142.713 19.8745C143.611 19.8745 144.473 19.4257 144.958 18.5999C149.216 11.5447 156.58 6.46428 164.682 4.97425C172.783 3.48423 181.495 5.63847 187.961 10.7189C189.111 11.6166 190.764 11.419 191.644 10.2701C192.542 9.12116 192.344 7.46958 191.195 6.58995C183.543 0.593943 173.268 -1.93734 163.712 -0.177998C154.155 1.58131 145.443 7.59529 140.432 15.9071C139.677 17.1458 140.091 18.7615 141.33 19.5155C141.779 19.7489 142.246 19.8745 142.713 19.8745Z" fill="url(#paint61_linear_910_45720)"/>
<path d="M374.325 243.164C373.804 243.882 372.996 244.277 372.169 244.277C371.648 244.277 371.109 244.115 370.66 243.792C369.475 242.948 369.187 241.314 370.032 240.13C376.822 230.489 379.875 218.246 378.438 206.559C376.983 194.854 371.038 183.742 362.11 176.041C361.014 175.107 360.907 173.437 361.841 172.342C362.775 171.247 364.445 171.122 365.541 172.073C375.438 180.618 382.049 192.951 383.647 205.931C385.246 218.91 381.851 232.482 374.325 243.164Z" fill="url(#paint62_linear_910_45720)"/>
<path d="M392.898 145.989C393.922 145.989 394.892 145.396 395.323 144.391C398.305 137.425 399.365 129.598 398.413 121.771C397.461 113.944 394.533 106.602 389.952 100.57C389.072 99.4208 387.42 99.1874 386.27 100.067C385.12 100.947 384.887 102.598 385.767 103.747C389.755 109.043 392.323 115.506 393.168 122.417C394.012 129.329 393.078 136.223 390.473 142.326C389.898 143.655 390.527 145.199 391.856 145.773C392.198 145.917 392.539 145.989 392.898 145.989Z" fill="url(#paint63_linear_910_45720)"/>
<path d="M397.856 93.4423C397.335 94.0527 396.599 94.3758 395.844 94.3758C395.252 94.3758 394.641 94.1784 394.138 93.7655C393.024 92.832 392.881 91.1803 393.815 90.0673C398.126 84.915 401.808 79.2242 404.718 73.1564C405.526 71.4689 406.299 69.566 405.832 68.2016C405.508 67.2322 404.449 65.8319 399.185 64.9164L399.164 64.9127C396.89 64.5189 394.527 64.1098 392.449 64.5214C390.923 64.8266 389.18 65.796 388.749 67.304C388.354 68.7043 386.899 69.5121 385.498 69.1172C384.097 68.7222 383.288 67.2681 383.684 65.8678C384.6 62.6724 387.635 60.1231 391.426 59.3691C394.451 58.7821 397.407 59.288 400.012 59.7339L400.084 59.7462L400.11 59.7507C402.801 60.22 409.035 61.307 410.807 66.5141C411.885 69.6557 410.736 72.7974 409.46 75.4363C406.371 81.8811 402.455 87.949 397.856 93.4423Z" fill="url(#paint64_linear_910_45720)"/>
<path d="M404.143 53.0682C404.358 53.0682 404.574 53.0682 404.807 53.0502C409.029 52.9066 412.693 51.1832 414.849 48.3288C417.633 44.6666 417.345 39.3527 414.22 36.4804C413.034 35.4033 411.364 34.3261 407.071 33.8235C402.921 33.3388 398.718 33.1233 394.551 33.2131C390.006 33.3029 384.761 33.7696 380.342 36.5522C378.025 38.0243 376.103 40.1965 374.971 42.6739C373.696 45.4385 373.498 48.4006 374.396 51.0037C374.881 52.368 376.372 53.1041 377.738 52.6194C379.103 52.1347 379.839 50.6447 379.354 49.2803C378.294 46.2643 380.45 42.6919 383.144 41.0044C386.467 38.9039 390.814 38.5449 394.641 38.4731C398.574 38.4013 402.544 38.5988 406.46 39.0476C408.005 39.2271 409.729 39.4964 410.663 40.358C411.795 41.3993 411.795 43.6792 410.663 45.1692C409.478 46.7311 407.214 47.7184 404.61 47.8082C401.933 47.8979 399.113 47.1619 396.383 46.4439C394.982 46.0668 393.545 46.9106 393.168 48.3109C392.79 49.7112 393.635 51.1473 395.036 51.5243C397.82 52.2603 400.927 53.0682 404.143 53.0682Z" fill="url(#paint65_linear_910_45720)"/>
<path d="M369.223 35.9062C368.918 35.9242 368.595 35.9421 368.289 35.9421C365.487 35.9421 362.667 34.847 360.386 32.8902C357.871 30.6821 356.362 27.6482 356.236 24.5425C356.11 21.3829 357.206 18.5465 358.266 15.8177L358.272 15.8014C359.365 12.9898 360.313 10.5534 359.721 8.31375C359.164 6.21335 357.314 4.79511 356.272 4.13089C354.44 2.97538 352.203 2.24237 350.031 1.53092L349.967 1.50989C348.584 1.04312 347.83 -0.428952 348.279 -1.81128C348.746 -3.1936 350.219 -3.94757 351.602 -3.49878C353.991 -2.72683 356.685 -1.84717 359.092 -0.321225C362.02 1.52783 364.05 4.11295 364.804 6.94937C365.823 10.8245 364.424 14.451 363.189 17.6519L363.133 17.7984C362.248 20.0968 361.411 22.2728 361.499 24.3091C361.571 25.9786 362.433 27.6661 363.87 28.9228C365.307 30.1794 367.086 30.8078 368.756 30.6642C370.211 30.5385 371.487 31.5977 371.612 33.0518C371.738 34.5059 370.678 35.7805 369.223 35.9062Z" fill="url(#paint66_linear_910_45720)"/>
<path d="M390.976 24.991C392.664 24.991 394.479 24.8115 396.437 24.4703C401.592 23.5728 408.651 21.2749 413.034 15.5123C415.082 12.8015 416.286 9.26489 416.339 5.81808C416.393 2.03018 415.082 -1.39868 412.657 -3.82223C411.633 -4.84549 409.963 -4.84549 408.939 -3.82223C407.915 -2.79895 407.915 -1.12936 408.939 -0.106109C412.118 3.07141 411.454 8.88791 408.849 12.3347C405.49 16.7509 399.76 18.5641 395.539 19.3001C391.551 20.0003 388.389 19.8567 385.875 18.8693C382.875 17.6845 380.18 14.9917 378.276 11.2935C376.462 7.73899 375.492 3.64591 374.558 -0.321531C374.217 -1.73974 372.798 -2.6015 371.397 -2.27835C369.977 -1.93722 369.115 -0.536955 369.439 0.881258C370.445 5.15387 371.486 9.55216 373.606 13.6811C376.085 18.5103 379.749 22.1007 383.953 23.7523C386.018 24.5781 388.353 24.991 390.976 24.991Z" fill="url(#paint67_linear_910_45720)"/>
<path d="M392.108 7.79309C391.587 8.47528 390.814 8.81638 390.024 8.81638C389.467 8.81638 388.91 8.63687 388.425 8.24191C387.276 7.36228 387.06 5.71066 387.958 4.56174C390.383 1.45599 391.964 -2.3678 392.539 -6.47885C393.114 -10.5719 392.629 -14.683 391.138 -18.3452C389.647 -22.0074 387.132 -25.2927 383.863 -27.8419C380.594 -30.3911 376.785 -32.0247 372.87 -32.5813C371.433 -32.7787 370.427 -34.1072 370.624 -35.5434C370.822 -36.9796 372.151 -37.9848 373.588 -37.7874C383.45 -36.405 392.251 -29.5473 395.988 -20.3379C399.742 -11.1105 398.215 -0.0699454 392.108 7.79309Z" fill="url(#paint68_linear_910_45720)"/>
<path d="M414.687 191.318C415.388 191.318 416.071 191.049 416.592 190.51C417.597 189.469 417.561 187.799 416.502 186.794L416.336 186.635C411.987 182.466 407.5 178.165 404.485 173.025C401.269 167.531 400.263 161.643 401.736 156.868C403.173 152.218 407.143 148.394 411.831 147.12C413.232 146.743 414.059 145.289 413.682 143.888C413.304 142.488 411.849 141.662 410.448 142.039C404.053 143.781 398.665 148.987 396.707 155.306C394.785 161.499 395.97 168.914 399.94 175.682C403.371 181.516 408.185 186.13 412.855 190.6C413.376 191.067 414.023 191.318 414.687 191.318Z" fill="url(#paint69_linear_910_45720)"/>
<path d="M124.103 22.1183C120.564 23.0518 116.899 23.5186 113.217 23.5186C106.499 23.5186 99.7629 21.9747 93.7814 18.9588C84.5305 14.2912 77.0221 6.10503 73.196 -3.51732C72.6571 -4.86372 73.3218 -6.38969 74.669 -6.92824C76.0162 -7.46681 77.543 -6.80257 78.0819 -5.45616C81.4409 2.99931 88.0333 10.1802 96.1524 14.2733C104.272 18.3484 113.971 19.3716 122.755 17.0379C124.156 16.6609 125.593 17.5047 125.971 18.9049C126.348 20.3052 125.504 21.7413 124.103 22.1183Z" fill="url(#paint70_linear_910_45720)"/>
<path d="M119.289 10.1092C135.222 10.1092 140.108 1.74354 142.407 -4.55767C142.91 -5.92202 142.191 -7.42998 140.826 -7.93264C139.461 -8.43532 137.952 -7.71721 137.449 -6.35286C135.437 -0.805652 131.701 4.84929 119.289 4.84929C108.475 4.84929 101.093 -6.01177 99.0987 -9.35088C98.3442 -10.5896 96.7276 -11.0025 95.4881 -10.2485C94.2487 -9.49449 93.8356 -7.87883 94.59 -6.64012C95.8295 -4.55766 98.5239 -0.554307 102.458 3.0002C107.685 7.7216 113.343 10.1092 119.289 10.1092Z" fill="url(#paint71_linear_910_45720)"/>
<path d="M57.5689 50.824C57.3533 50.8779 57.1558 50.8958 56.9402 50.8958C55.7547 50.8958 54.6948 50.088 54.4074 48.8852C51.8567 38.5268 56.581 26.9118 65.6342 21.2748C69.9991 18.546 75.0467 17.3074 79.8248 17.7921C85.3034 18.3486 90.3869 21.2568 93.4226 25.5474C96.6918 30.197 97.4283 36.2289 95.3446 41.2735C93.1352 46.6411 87.8901 50.3393 82.2677 50.4829C80.8127 50.5368 79.6272 49.3878 79.5733 47.9337C79.5194 46.4796 80.669 45.2768 82.124 45.2409C85.6267 45.1511 89.0756 42.6917 90.4767 39.2808C91.8598 35.9417 91.321 31.7409 89.1115 28.5993C86.956 25.5294 83.2736 23.4649 79.2859 23.052C75.6574 22.693 71.7954 23.6445 68.4004 25.7628C64.9695 27.8991 62.1673 31.2921 60.5327 35.3134C58.8981 39.3346 58.5209 43.715 59.4909 47.6465C59.8501 49.0467 58.97 50.4829 57.5689 50.824Z" fill="url(#paint72_linear_910_45720)"/>
<path d="M45.0494 63.7858C46.1811 63.7858 47.2948 63.7499 48.4264 63.6601C56.1145 63.0497 62.7607 60.1056 67.1436 55.3841C72.4426 49.6933 74.0233 41.2738 70.9876 34.9008C70.3589 33.5903 68.7962 33.0337 67.4849 33.6621C66.1736 34.2904 65.6168 35.8522 66.2455 37.1627C68.383 41.6328 67.1616 47.6468 63.2996 51.7937C59.8148 55.5457 54.3721 57.8975 48.0133 58.4181C41.87 58.9207 35.4573 57.718 29.9248 56.5511C28.5057 56.2459 27.1046 57.1614 26.8172 58.5796C26.5118 59.9979 27.4279 61.3981 28.847 61.6854C33.7688 62.7266 39.3552 63.7858 45.0494 63.7858Z" fill="url(#paint73_linear_910_45720)"/>
<path d="M28.0208 36.7143C27.7694 37.9709 26.6736 38.8147 25.4522 38.8147C25.2725 38.8147 25.0929 38.7967 24.9133 38.7608C23.4942 38.4736 22.5961 37.0733 22.8835 35.6551C24.8235 26.338 30.5177 17.9902 38.4752 12.7482C46.4327 7.50612 56.3482 5.6032 65.6888 7.50612C67.1079 7.79338 68.0239 9.19365 67.7366 10.6118C67.4491 12.0301 66.048 12.9456 64.629 12.6584C56.6355 11.0248 48.1571 12.6584 41.3492 17.1285C34.5413 21.5986 29.6914 28.7435 28.0208 36.7143Z" fill="url(#paint74_linear_910_45720)"/>
<path d="M21.3558 50.9319C28.2714 50.9319 34.4686 49.3521 39.3005 46.3362C45.4259 42.5303 49.4495 36.1573 49.8268 29.7125C49.9166 28.2584 48.8029 27.0197 47.3479 26.9299C45.8929 26.8401 44.6534 27.9532 44.5636 29.4073C44.2762 34.1826 41.1866 38.9578 36.4983 41.884C32.3669 44.4691 26.9062 45.7796 20.727 45.6719C14.9789 45.5822 9.14107 44.3615 3.48281 43.1766C2.06374 42.8714 0.662617 43.7869 0.375233 45.2052C0.0698441 46.6234 0.985982 48.0237 2.40505 48.3109C8.2968 49.5496 14.3862 50.8063 20.6372 50.914C20.6531 50.914 20.6688 50.914 20.6843 50.9141C20.7041 50.9143 20.7236 50.9146 20.7429 50.9149C20.7897 50.9156 20.835 50.9168 20.8793 50.9182C20.9279 50.9198 20.9753 50.9216 21.0221 50.9234C21.1345 50.9277 21.2431 50.9319 21.3558 50.9319Z" fill="url(#paint75_linear_910_45720)"/>
<path d="M10.5785 28.1688C10.1294 28.474 9.60845 28.6175 9.10549 28.6175C8.26122 28.6175 7.43496 28.2047 6.93203 27.4686C6.10573 26.2658 6.42907 24.6322 7.63259 23.8243C20.0089 15.4586 29.0083 2.31764 32.3314 -12.2415C32.6547 -13.6598 34.0558 -14.5394 35.4748 -14.2163C36.8939 -13.8931 37.7741 -12.4928 37.4508 -11.0746C33.8402 4.75914 24.0326 19.067 10.5785 28.1688Z" fill="url(#paint76_linear_910_45720)"/>
<path d="M-14.9658 127.048L-14.8221 127.048C-5.4455 126.528 4.23644 125.989 13.5591 123.261C21.0676 121.07 31.3603 116.439 37.8628 106.87C40.7368 102.634 42.5331 97.4992 42.9283 92.4188C43.3594 86.9434 42.1738 81.7731 39.5333 77.5005C38.7789 76.2618 37.1443 75.8848 35.9228 76.6388C34.7013 77.3928 34.3061 79.0265 35.0606 80.2472C37.1083 83.5684 38.0244 87.6435 37.6832 92.0059C37.3598 96.1887 35.8689 100.407 33.5158 103.908C27.8935 112.184 18.7684 116.259 12.0862 118.216C3.33834 120.783 -6.03825 121.304 -15.1094 121.806C-16.5644 121.878 -17.6781 123.135 -17.5883 124.571C-17.4985 125.953 -16.3489 127.048 -14.9658 127.048Z" fill="url(#paint77_linear_910_45720)"/>
<path d="M-0.773659 105.74C-3.12678 105.973 -5.39005 106.063 -7.43781 106.063C-12.2107 106.063 -15.8099 105.594 -16.6041 105.49C-16.6882 105.479 -16.7415 105.472 -16.7605 105.471C-18.1975 105.237 -19.1854 103.909 -18.9699 102.473C-18.7543 101.036 -17.4071 100.049 -15.9701 100.264C-15.9685 100.264 -15.9636 100.265 -15.9554 100.266C-15.9386 100.268 -15.9083 100.272 -15.8649 100.277C-14.9645 100.394 -8.44303 101.235 -1.18675 100.498C11.1537 99.2412 16.2551 94.448 18.3388 90.6421C20.0812 87.4646 19.7219 83.0304 17.3508 78.7578C13.1295 71.164 6.48333 64.9526 -1.38435 61.2544C-2.69563 60.6261 -3.25248 59.0643 -2.64173 57.7538C-2.01304 56.4433 -0.450297 55.8868 0.860982 56.4971C9.71666 60.6441 17.2071 67.6454 21.9493 76.2086C25.2364 82.1507 25.5957 88.3442 22.9372 93.1733C20.7278 97.1767 17.1712 100.3 12.3751 102.473C8.69277 104.142 4.27386 105.237 -0.773659 105.74Z" fill="url(#paint78_linear_910_45720)"/>
<path d="M62.723 161.284C63.5673 161.284 64.3936 160.889 64.8965 160.135C65.7049 158.933 65.3995 157.299 64.196 156.491C59.0407 152.99 55.1068 147.802 53.1489 141.878C51.1909 135.954 51.2269 129.455 53.2746 123.567C53.7416 122.203 53.0232 120.695 51.658 120.228C50.2928 119.761 48.7839 120.479 48.3169 121.844C45.8919 128.827 45.856 136.528 48.1732 143.53C50.5084 150.531 55.1428 156.689 61.2681 160.836C61.6992 161.141 62.2201 161.284 62.723 161.284Z" fill="url(#paint79_linear_910_45720)"/>
<path d="M65.2396 179.254C62.0063 181.803 57.6952 183.185 53.2404 183.185C51.9651 183.185 50.6538 183.06 49.3605 182.808C44.5105 181.929 39.6605 179.433 35.3315 175.574C28.4518 169.434 23.7995 160.691 22.596 151.554C21.3925 142.416 23.6019 132.758 28.6494 125.056C29.4577 123.853 31.0744 123.512 32.2958 124.302C33.4994 125.11 33.8406 126.726 33.0503 127.947C28.6674 134.607 26.7633 142.973 27.8051 150.871C28.847 158.788 32.8527 166.364 38.8163 171.66C42.4268 174.856 46.3966 176.938 50.2946 177.638C54.6056 178.428 58.9706 177.477 61.9883 175.107C63.138 174.209 64.7905 174.407 65.6886 175.556C66.5868 176.705 66.3892 178.356 65.2396 179.254Z" fill="url(#paint80_linear_910_45720)"/>
<path d="M28.1989 211.514C29.115 211.514 30.0312 211.478 30.9473 211.406C36.2463 211.011 40.27 209.396 42.9105 206.577C43.9344 205.5 44.6709 204.315 45.3714 203.184C45.7306 202.61 46.0899 202.053 46.4492 201.551C49.6465 197.116 55.6102 194.872 60.9272 196.075C62.3462 196.398 63.7473 195.519 64.0706 194.101C64.394 192.682 63.5138 191.282 62.0947 190.959C54.7659 189.289 46.5749 192.377 42.174 198.481C41.707 199.127 41.2938 199.773 40.9166 200.402C40.3059 201.371 39.731 202.269 39.0664 202.987C37.36 204.8 34.4859 205.877 30.5521 206.164C22.2892 206.775 13.8287 204.172 7.3262 199.019C6.19455 198.122 4.54202 198.301 3.62591 199.45C2.72778 200.581 2.90738 202.233 4.057 203.148C10.8649 208.534 19.5229 211.514 28.1989 211.514Z" fill="url(#paint81_linear_910_45720)"/>
<path d="M30.5533 197.403C30.3198 197.475 30.0683 197.511 29.8168 197.511C28.6852 197.511 27.6253 196.757 27.302 195.626C25.9189 190.923 24.2483 186.165 20.5839 184.352C18.4284 183.293 15.5903 183.293 13.0935 183.311L-12.6652 183.419L-12.6831 183.419C-14.1201 183.419 -15.3057 182.252 -15.3057 180.798C-15.3057 179.344 -14.1381 178.159 -12.6831 178.159L13.0755 178.051L13.171 178.051C16.0828 178.051 19.7031 178.051 22.9191 179.649C28.4696 182.413 30.697 188.571 32.3316 194.136C32.7447 195.536 31.9544 196.991 30.5533 197.403Z" fill="url(#paint82_linear_910_45720)"/>
<path d="M3.30331 168.77C3.48294 168.77 3.66253 168.752 3.84216 168.716C9.39266 167.549 14.2606 163.366 16.2544 158.052C18.2303 152.739 17.2963 146.384 13.8474 141.878C10.4165 137.372 4.54266 134.769 -1.11561 135.271C-2.57059 135.397 -3.63038 136.671 -3.50461 138.126C-3.37888 139.58 -2.10349 140.639 -0.648536 140.513C3.24941 140.172 7.30898 141.949 9.68008 145.073C12.0512 148.179 12.6978 152.559 11.3326 156.221C9.96749 159.884 6.60836 162.774 2.78231 163.582C1.36328 163.887 0.447199 165.269 0.752528 166.687C1.00402 167.908 2.09979 168.77 3.30331 168.77Z" fill="url(#paint83_linear_910_45720)"/>
<path d="M56.6707 278.53C56.3474 279.696 55.2876 280.486 54.12 280.486C53.9319 280.486 53.7437 280.459 53.5317 280.428C53.501 280.424 53.4691 280.419 53.4374 280.415C52.0184 280.038 51.1921 278.601 51.5514 277.201C54.0661 267.525 58.1796 258.423 63.7481 250.129C63.8199 250.022 63.8917 249.918 63.9636 249.815C64.0354 249.712 64.1073 249.609 64.1791 249.501C65.67 247.311 67.0711 245.246 67.3406 243.056C67.6999 240.22 66.209 237.042 62.7601 233.308C62.4436 232.959 62.1205 232.623 61.7908 232.281L61.7891 232.279L61.787 232.277C61.5752 232.057 61.3607 231.834 61.1435 231.603L61.1301 231.589C58.4039 228.739 55.5907 225.798 54.1739 221.801C52.1441 216.002 53.9224 209.127 58.5209 205.069C59.6166 204.118 61.2692 204.208 62.2391 205.303C63.1912 206.398 63.1014 208.049 62.0057 209.019C59.0239 211.658 57.8203 216.307 59.1496 220.059C60.1914 222.986 62.5086 225.409 64.9695 227.976L65.3347 228.365C65.58 228.626 65.8299 228.892 66.0798 229.158C66.2672 229.357 66.4546 229.556 66.64 229.754C71.2026 234.69 73.1425 239.268 72.5857 243.72C72.1546 247.149 70.2506 249.968 68.5621 252.463C68.4902 252.562 68.4228 252.665 68.3555 252.768C68.2881 252.872 68.2208 252.975 68.1489 253.073C62.9038 260.865 59.0418 269.428 56.6707 278.53Z" fill="url(#paint84_linear_910_45720)"/>
<path d="M77.3636 282.748C77.651 282.748 77.9564 282.694 78.2438 282.605C79.609 282.12 80.3275 280.63 79.8425 279.248L79.8087 279.151C78.4899 275.393 77.1282 271.513 76.8966 267.65C76.6631 263.647 77.7768 260.093 79.9682 257.902C80.9921 256.879 80.9921 255.21 79.9682 254.186C78.9444 253.163 77.2738 253.163 76.2499 254.186C72.9987 257.436 71.3281 262.462 71.6515 267.956C71.9191 272.573 73.409 276.801 74.8546 280.903L74.8848 280.989C75.262 282.066 76.2859 282.748 77.3636 282.748Z" fill="url(#paint85_linear_910_45720)"/>
<path d="M39.9648 287.846C39.4439 288.492 38.6895 288.815 37.9171 288.815C37.3423 288.815 36.7495 288.618 36.2286 288.241C35.1149 287.325 34.9353 285.674 35.8514 284.543C39.0128 280.665 41.4557 276.051 42.9287 271.204C44.4196 266.303 44.9226 261.133 44.3837 256.25C43.2879 246.125 37.7554 236.682 29.5823 231.027C21.3015 225.283 10.3442 223.595 0.967649 226.629C-0.4155 227.078 -1.88846 226.324 -2.33756 224.942C-2.78662 223.559 -2.03214 222.087 -0.64899 221.639C4.75781 219.879 10.7034 219.43 16.5593 220.346C22.3433 221.244 27.8939 223.434 32.6001 226.701C41.9946 233.218 48.3535 244.061 49.6288 255.676C50.8682 267.039 47.3475 278.762 39.9648 287.846Z" fill="url(#paint86_linear_910_45720)"/>
<path d="M51.3718 238.926C52.0364 238.926 52.719 238.675 53.222 238.172C54.2458 237.149 54.2638 235.48 53.2399 234.456C49.7551 230.938 47.5996 226.091 47.3302 221.136C47.2583 219.682 46.0189 218.569 44.5639 218.658C43.1089 218.73 41.9952 219.969 42.085 221.423C42.4263 227.635 45.1387 233.738 49.5216 238.154C50.0066 238.657 50.6892 238.926 51.3718 238.926Z" fill="url(#paint87_linear_910_45720)"/>
<path d="M25.9549 272.174C25.5777 273.251 24.5538 273.934 23.476 273.934C23.1886 273.934 22.9012 273.898 22.5959 273.79C21.2307 273.305 20.5122 271.797 20.9972 270.433L21.0056 270.409C22.7274 265.516 24.4994 260.479 24.2305 255.443C24.0149 251.368 21.8234 246.269 17.5303 244.761C14.5126 243.702 10.956 244.456 6.93231 245.48C5.51327 245.839 4.09424 244.977 3.73495 243.577C3.37573 242.158 4.23791 240.74 5.63901 240.381C9.37524 239.43 14.5126 238.137 19.2727 239.807C25.8651 242.122 29.1523 249.196 29.4756 255.156C29.7989 261.241 27.7691 267.058 25.9549 272.174Z" fill="url(#paint88_linear_910_45720)"/>
</g>
<defs>
<linearGradient id="paint0_linear_910_45720" x1="183.479" y1="262.499" x2="176.867" y2="22.9578" gradientUnits="userSpaceOnUse">
<stop stop-color="#D4862D" stop-opacity="0"/>
<stop offset="1" stop-color="#994819"/>
</linearGradient>
<linearGradient id="paint1_linear_910_45720" x1="183.479" y1="262.499" x2="176.867" y2="22.9578" gradientUnits="userSpaceOnUse">
<stop stop-color="#D4862D" stop-opacity="0"/>
<stop offset="1" stop-color="#994819"/>
</linearGradient>
<linearGradient id="paint2_linear_910_45720" x1="183.479" y1="262.499" x2="176.867" y2="22.9578" gradientUnits="userSpaceOnUse">
<stop stop-color="#D4862D" stop-opacity="0"/>
<stop offset="1" stop-color="#994819"/>
</linearGradient>
<linearGradient id="paint3_linear_910_45720" x1="183.479" y1="262.499" x2="176.867" y2="22.9578" gradientUnits="userSpaceOnUse">
<stop stop-color="#D4862D" stop-opacity="0"/>
<stop offset="1" stop-color="#994819"/>
</linearGradient>
<linearGradient id="paint4_linear_910_45720" x1="183.479" y1="262.499" x2="176.867" y2="22.9578" gradientUnits="userSpaceOnUse">
<stop stop-color="#D4862D" stop-opacity="0"/>
<stop offset="1" stop-color="#994819"/>
</linearGradient>
<linearGradient id="paint5_linear_910_45720" x1="183.479" y1="262.499" x2="176.867" y2="22.9578" gradientUnits="userSpaceOnUse">
<stop stop-color="#D4862D" stop-opacity="0"/>
<stop offset="1" stop-color="#994819"/>
</linearGradient>
<linearGradient id="paint6_linear_910_45720" x1="183.479" y1="262.499" x2="176.867" y2="22.9578" gradientUnits="userSpaceOnUse">
<stop stop-color="#D4862D" stop-opacity="0"/>
<stop offset="1" stop-color="#994819"/>
</linearGradient>
<linearGradient id="paint7_linear_910_45720" x1="183.479" y1="262.499" x2="176.867" y2="22.9578" gradientUnits="userSpaceOnUse">
<stop stop-color="#D4862D" stop-opacity="0"/>
<stop offset="1" stop-color="#994819"/>
</linearGradient>
<linearGradient id="paint8_linear_910_45720" x1="183.479" y1="262.499" x2="176.867" y2="22.9578" gradientUnits="userSpaceOnUse">
<stop stop-color="#D4862D" stop-opacity="0"/>
<stop offset="1" stop-color="#994819"/>
</linearGradient>
<linearGradient id="paint9_linear_910_45720" x1="183.479" y1="262.499" x2="176.867" y2="22.9578" gradientUnits="userSpaceOnUse">
<stop stop-color="#D4862D" stop-opacity="0"/>
<stop offset="1" stop-color="#994819"/>
</linearGradient>
<linearGradient id="paint10_linear_910_45720" x1="183.479" y1="262.499" x2="176.867" y2="22.9578" gradientUnits="userSpaceOnUse">
<stop stop-color="#D4862D" stop-opacity="0"/>
<stop offset="1" stop-color="#994819"/>
</linearGradient>
<linearGradient id="paint11_linear_910_45720" x1="183.479" y1="262.499" x2="176.867" y2="22.9578" gradientUnits="userSpaceOnUse">
<stop stop-color="#D4862D" stop-opacity="0"/>
<stop offset="1" stop-color="#994819"/>
</linearGradient>
<linearGradient id="paint12_linear_910_45720" x1="183.479" y1="262.499" x2="176.867" y2="22.9578" gradientUnits="userSpaceOnUse">
<stop stop-color="#D4862D" stop-opacity="0"/>
<stop offset="1" stop-color="#994819"/>
</linearGradient>
<linearGradient id="paint13_linear_910_45720" x1="183.479" y1="262.499" x2="176.867" y2="22.9578" gradientUnits="userSpaceOnUse">
<stop stop-color="#D4862D" stop-opacity="0"/>
<stop offset="1" stop-color="#994819"/>
</linearGradient>
<linearGradient id="paint14_linear_910_45720" x1="183.479" y1="262.499" x2="176.867" y2="22.9578" gradientUnits="userSpaceOnUse">
<stop stop-color="#D4862D" stop-opacity="0"/>
<stop offset="1" stop-color="#994819"/>
</linearGradient>
<linearGradient id="paint15_linear_910_45720" x1="183.479" y1="262.499" x2="176.867" y2="22.9578" gradientUnits="userSpaceOnUse">
<stop stop-color="#D4862D" stop-opacity="0"/>
<stop offset="1" stop-color="#994819"/>
</linearGradient>
<linearGradient id="paint16_linear_910_45720" x1="183.479" y1="262.499" x2="176.867" y2="22.9578" gradientUnits="userSpaceOnUse">
<stop stop-color="#D4862D" stop-opacity="0"/>
<stop offset="1" stop-color="#994819"/>
</linearGradient>
<linearGradient id="paint17_linear_910_45720" x1="183.479" y1="262.499" x2="176.867" y2="22.9578" gradientUnits="userSpaceOnUse">
<stop stop-color="#D4862D" stop-opacity="0"/>
<stop offset="1" stop-color="#994819"/>
</linearGradient>
<linearGradient id="paint18_linear_910_45720" x1="183.479" y1="262.499" x2="176.867" y2="22.9578" gradientUnits="userSpaceOnUse">
<stop stop-color="#D4862D" stop-opacity="0"/>
<stop offset="1" stop-color="#994819"/>
</linearGradient>
<linearGradient id="paint19_linear_910_45720" x1="183.479" y1="262.499" x2="176.867" y2="22.9578" gradientUnits="userSpaceOnUse">
<stop stop-color="#D4862D" stop-opacity="0"/>
<stop offset="1" stop-color="#994819"/>
</linearGradient>
<linearGradient id="paint20_linear_910_45720" x1="183.479" y1="262.499" x2="176.867" y2="22.9578" gradientUnits="userSpaceOnUse">
<stop stop-color="#D4862D" stop-opacity="0"/>
<stop offset="1" stop-color="#994819"/>
</linearGradient>
<linearGradient id="paint21_linear_910_45720" x1="183.479" y1="262.499" x2="176.867" y2="22.9578" gradientUnits="userSpaceOnUse">
<stop stop-color="#D4862D" stop-opacity="0"/>
<stop offset="1" stop-color="#994819"/>
</linearGradient>
<linearGradient id="paint22_linear_910_45720" x1="183.479" y1="262.499" x2="176.867" y2="22.9578" gradientUnits="userSpaceOnUse">
<stop stop-color="#D4862D" stop-opacity="0"/>
<stop offset="1" stop-color="#994819"/>
</linearGradient>
<linearGradient id="paint23_linear_910_45720" x1="183.479" y1="262.499" x2="176.867" y2="22.9578" gradientUnits="userSpaceOnUse">
<stop stop-color="#D4862D" stop-opacity="0"/>
<stop offset="1" stop-color="#994819"/>
</linearGradient>
<linearGradient id="paint24_linear_910_45720" x1="183.479" y1="262.499" x2="176.867" y2="22.9578" gradientUnits="userSpaceOnUse">
<stop stop-color="#D4862D" stop-opacity="0"/>
<stop offset="1" stop-color="#994819"/>
</linearGradient>
<linearGradient id="paint25_linear_910_45720" x1="183.479" y1="262.499" x2="176.867" y2="22.9578" gradientUnits="userSpaceOnUse">
<stop stop-color="#D4862D" stop-opacity="0"/>
<stop offset="1" stop-color="#994819"/>
</linearGradient>
<linearGradient id="paint26_linear_910_45720" x1="183.479" y1="262.499" x2="176.867" y2="22.9578" gradientUnits="userSpaceOnUse">
<stop stop-color="#D4862D" stop-opacity="0"/>
<stop offset="1" stop-color="#994819"/>
</linearGradient>
<linearGradient id="paint27_linear_910_45720" x1="183.479" y1="262.499" x2="176.867" y2="22.9578" gradientUnits="userSpaceOnUse">
<stop stop-color="#D4862D" stop-opacity="0"/>
<stop offset="1" stop-color="#994819"/>
</linearGradient>
<linearGradient id="paint28_linear_910_45720" x1="183.479" y1="262.499" x2="176.867" y2="22.9578" gradientUnits="userSpaceOnUse">
<stop stop-color="#D4862D" stop-opacity="0"/>
<stop offset="1" stop-color="#994819"/>
</linearGradient>
<linearGradient id="paint29_linear_910_45720" x1="183.479" y1="262.499" x2="176.867" y2="22.9578" gradientUnits="userSpaceOnUse">
<stop stop-color="#D4862D" stop-opacity="0"/>
<stop offset="1" stop-color="#994819"/>
</linearGradient>
<linearGradient id="paint30_linear_910_45720" x1="183.479" y1="262.499" x2="176.867" y2="22.9578" gradientUnits="userSpaceOnUse">
<stop stop-color="#D4862D" stop-opacity="0"/>
<stop offset="1" stop-color="#994819"/>
</linearGradient>
<linearGradient id="paint31_linear_910_45720" x1="183.479" y1="262.499" x2="176.867" y2="22.9578" gradientUnits="userSpaceOnUse">
<stop stop-color="#D4862D" stop-opacity="0"/>
<stop offset="1" stop-color="#994819"/>
</linearGradient>
<linearGradient id="paint32_linear_910_45720" x1="183.479" y1="262.499" x2="176.867" y2="22.9578" gradientUnits="userSpaceOnUse">
<stop stop-color="#D4862D" stop-opacity="0"/>
<stop offset="1" stop-color="#994819"/>
</linearGradient>
<linearGradient id="paint33_linear_910_45720" x1="183.479" y1="262.499" x2="176.867" y2="22.9578" gradientUnits="userSpaceOnUse">
<stop stop-color="#D4862D" stop-opacity="0"/>
<stop offset="1" stop-color="#994819"/>
</linearGradient>
<linearGradient id="paint34_linear_910_45720" x1="183.479" y1="262.499" x2="176.867" y2="22.9578" gradientUnits="userSpaceOnUse">
<stop stop-color="#D4862D" stop-opacity="0"/>
<stop offset="1" stop-color="#994819"/>
</linearGradient>
<linearGradient id="paint35_linear_910_45720" x1="183.479" y1="262.499" x2="176.867" y2="22.9578" gradientUnits="userSpaceOnUse">
<stop stop-color="#D4862D" stop-opacity="0"/>
<stop offset="1" stop-color="#994819"/>
</linearGradient>
<linearGradient id="paint36_linear_910_45720" x1="183.479" y1="262.499" x2="176.867" y2="22.9578" gradientUnits="userSpaceOnUse">
<stop stop-color="#D4862D" stop-opacity="0"/>
<stop offset="1" stop-color="#994819"/>
</linearGradient>
<linearGradient id="paint37_linear_910_45720" x1="183.479" y1="262.499" x2="176.867" y2="22.9578" gradientUnits="userSpaceOnUse">
<stop stop-color="#D4862D" stop-opacity="0"/>
<stop offset="1" stop-color="#994819"/>
</linearGradient>
<linearGradient id="paint38_linear_910_45720" x1="183.479" y1="262.499" x2="176.867" y2="22.9578" gradientUnits="userSpaceOnUse">
<stop stop-color="#D4862D" stop-opacity="0"/>
<stop offset="1" stop-color="#994819"/>
</linearGradient>
<linearGradient id="paint39_linear_910_45720" x1="183.479" y1="262.499" x2="176.867" y2="22.9578" gradientUnits="userSpaceOnUse">
<stop stop-color="#D4862D" stop-opacity="0"/>
<stop offset="1" stop-color="#994819"/>
</linearGradient>
<linearGradient id="paint40_linear_910_45720" x1="183.479" y1="262.499" x2="176.867" y2="22.9578" gradientUnits="userSpaceOnUse">
<stop stop-color="#D4862D" stop-opacity="0"/>
<stop offset="1" stop-color="#994819"/>
</linearGradient>
<linearGradient id="paint41_linear_910_45720" x1="183.479" y1="262.499" x2="176.867" y2="22.9578" gradientUnits="userSpaceOnUse">
<stop stop-color="#D4862D" stop-opacity="0"/>
<stop offset="1" stop-color="#994819"/>
</linearGradient>
<linearGradient id="paint42_linear_910_45720" x1="183.479" y1="262.499" x2="176.867" y2="22.9578" gradientUnits="userSpaceOnUse">
<stop stop-color="#D4862D" stop-opacity="0"/>
<stop offset="1" stop-color="#994819"/>
</linearGradient>
<linearGradient id="paint43_linear_910_45720" x1="183.479" y1="262.499" x2="176.867" y2="22.9578" gradientUnits="userSpaceOnUse">
<stop stop-color="#D4862D" stop-opacity="0"/>
<stop offset="1" stop-color="#994819"/>
</linearGradient>
<linearGradient id="paint44_linear_910_45720" x1="183.479" y1="262.499" x2="176.867" y2="22.9578" gradientUnits="userSpaceOnUse">
<stop stop-color="#D4862D" stop-opacity="0"/>
<stop offset="1" stop-color="#994819"/>
</linearGradient>
<linearGradient id="paint45_linear_910_45720" x1="183.479" y1="262.499" x2="176.867" y2="22.9578" gradientUnits="userSpaceOnUse">
<stop stop-color="#D4862D" stop-opacity="0"/>
<stop offset="1" stop-color="#994819"/>
</linearGradient>
<linearGradient id="paint46_linear_910_45720" x1="183.479" y1="262.499" x2="176.867" y2="22.9578" gradientUnits="userSpaceOnUse">
<stop stop-color="#D4862D" stop-opacity="0"/>
<stop offset="1" stop-color="#994819"/>
</linearGradient>
<linearGradient id="paint47_linear_910_45720" x1="183.479" y1="262.499" x2="176.867" y2="22.9578" gradientUnits="userSpaceOnUse">
<stop stop-color="#D4862D" stop-opacity="0"/>
<stop offset="1" stop-color="#994819"/>
</linearGradient>
<linearGradient id="paint48_linear_910_45720" x1="183.479" y1="262.499" x2="176.867" y2="22.9578" gradientUnits="userSpaceOnUse">
<stop stop-color="#D4862D" stop-opacity="0"/>
<stop offset="1" stop-color="#994819"/>
</linearGradient>
<linearGradient id="paint49_linear_910_45720" x1="183.479" y1="262.499" x2="176.867" y2="22.9578" gradientUnits="userSpaceOnUse">
<stop stop-color="#D4862D" stop-opacity="0"/>
<stop offset="1" stop-color="#994819"/>
</linearGradient>
<linearGradient id="paint50_linear_910_45720" x1="183.479" y1="262.499" x2="176.867" y2="22.9578" gradientUnits="userSpaceOnUse">
<stop stop-color="#D4862D" stop-opacity="0"/>
<stop offset="1" stop-color="#994819"/>
</linearGradient>
<linearGradient id="paint51_linear_910_45720" x1="183.479" y1="262.499" x2="176.867" y2="22.9578" gradientUnits="userSpaceOnUse">
<stop stop-color="#D4862D" stop-opacity="0"/>
<stop offset="1" stop-color="#994819"/>
</linearGradient>
<linearGradient id="paint52_linear_910_45720" x1="183.479" y1="262.499" x2="176.867" y2="22.9578" gradientUnits="userSpaceOnUse">
<stop stop-color="#D4862D" stop-opacity="0"/>
<stop offset="1" stop-color="#994819"/>
</linearGradient>
<linearGradient id="paint53_linear_910_45720" x1="183.479" y1="262.499" x2="176.867" y2="22.9578" gradientUnits="userSpaceOnUse">
<stop stop-color="#D4862D" stop-opacity="0"/>
<stop offset="1" stop-color="#994819"/>
</linearGradient>
<linearGradient id="paint54_linear_910_45720" x1="183.479" y1="262.499" x2="176.867" y2="22.9578" gradientUnits="userSpaceOnUse">
<stop stop-color="#D4862D" stop-opacity="0"/>
<stop offset="1" stop-color="#994819"/>
</linearGradient>
<linearGradient id="paint55_linear_910_45720" x1="183.479" y1="262.499" x2="176.867" y2="22.9578" gradientUnits="userSpaceOnUse">
<stop stop-color="#D4862D" stop-opacity="0"/>
<stop offset="1" stop-color="#994819"/>
</linearGradient>
<linearGradient id="paint56_linear_910_45720" x1="183.479" y1="262.499" x2="176.867" y2="22.9578" gradientUnits="userSpaceOnUse">
<stop stop-color="#D4862D" stop-opacity="0"/>
<stop offset="1" stop-color="#994819"/>
</linearGradient>
<linearGradient id="paint57_linear_910_45720" x1="183.479" y1="262.499" x2="176.867" y2="22.9578" gradientUnits="userSpaceOnUse">
<stop stop-color="#D4862D" stop-opacity="0"/>
<stop offset="1" stop-color="#994819"/>
</linearGradient>
<linearGradient id="paint58_linear_910_45720" x1="183.479" y1="262.499" x2="176.867" y2="22.9578" gradientUnits="userSpaceOnUse">
<stop stop-color="#D4862D" stop-opacity="0"/>
<stop offset="1" stop-color="#994819"/>
</linearGradient>
<linearGradient id="paint59_linear_910_45720" x1="183.479" y1="262.499" x2="176.867" y2="22.9578" gradientUnits="userSpaceOnUse">
<stop stop-color="#D4862D" stop-opacity="0"/>
<stop offset="1" stop-color="#994819"/>
</linearGradient>
<linearGradient id="paint60_linear_910_45720" x1="183.479" y1="262.499" x2="176.867" y2="22.9578" gradientUnits="userSpaceOnUse">
<stop stop-color="#D4862D" stop-opacity="0"/>
<stop offset="1" stop-color="#994819"/>
</linearGradient>
<linearGradient id="paint61_linear_910_45720" x1="183.479" y1="262.499" x2="176.867" y2="22.9578" gradientUnits="userSpaceOnUse">
<stop stop-color="#D4862D" stop-opacity="0"/>
<stop offset="1" stop-color="#994819"/>
</linearGradient>
<linearGradient id="paint62_linear_910_45720" x1="183.479" y1="262.499" x2="176.867" y2="22.9578" gradientUnits="userSpaceOnUse">
<stop stop-color="#D4862D" stop-opacity="0"/>
<stop offset="1" stop-color="#994819"/>
</linearGradient>
<linearGradient id="paint63_linear_910_45720" x1="183.479" y1="262.499" x2="176.867" y2="22.9578" gradientUnits="userSpaceOnUse">
<stop stop-color="#D4862D" stop-opacity="0"/>
<stop offset="1" stop-color="#994819"/>
</linearGradient>
<linearGradient id="paint64_linear_910_45720" x1="183.479" y1="262.499" x2="176.867" y2="22.9578" gradientUnits="userSpaceOnUse">
<stop stop-color="#D4862D" stop-opacity="0"/>
<stop offset="1" stop-color="#994819"/>
</linearGradient>
<linearGradient id="paint65_linear_910_45720" x1="183.479" y1="262.499" x2="176.867" y2="22.9578" gradientUnits="userSpaceOnUse">
<stop stop-color="#D4862D" stop-opacity="0"/>
<stop offset="1" stop-color="#994819"/>
</linearGradient>
<linearGradient id="paint66_linear_910_45720" x1="183.479" y1="262.499" x2="176.867" y2="22.9578" gradientUnits="userSpaceOnUse">
<stop stop-color="#D4862D" stop-opacity="0"/>
<stop offset="1" stop-color="#994819"/>
</linearGradient>
<linearGradient id="paint67_linear_910_45720" x1="183.479" y1="262.499" x2="176.867" y2="22.9578" gradientUnits="userSpaceOnUse">
<stop stop-color="#D4862D" stop-opacity="0"/>
<stop offset="1" stop-color="#994819"/>
</linearGradient>
<linearGradient id="paint68_linear_910_45720" x1="183.479" y1="262.499" x2="176.867" y2="22.9578" gradientUnits="userSpaceOnUse">
<stop stop-color="#D4862D" stop-opacity="0"/>
<stop offset="1" stop-color="#994819"/>
</linearGradient>
<linearGradient id="paint69_linear_910_45720" x1="183.479" y1="262.499" x2="176.867" y2="22.9578" gradientUnits="userSpaceOnUse">
<stop stop-color="#D4862D" stop-opacity="0"/>
<stop offset="1" stop-color="#994819"/>
</linearGradient>
<linearGradient id="paint70_linear_910_45720" x1="183.479" y1="262.499" x2="176.867" y2="22.9578" gradientUnits="userSpaceOnUse">
<stop stop-color="#D4862D" stop-opacity="0"/>
<stop offset="1" stop-color="#994819"/>
</linearGradient>
<linearGradient id="paint71_linear_910_45720" x1="183.479" y1="262.499" x2="176.867" y2="22.9578" gradientUnits="userSpaceOnUse">
<stop stop-color="#D4862D" stop-opacity="0"/>
<stop offset="1" stop-color="#994819"/>
</linearGradient>
<linearGradient id="paint72_linear_910_45720" x1="183.479" y1="262.499" x2="176.867" y2="22.9578" gradientUnits="userSpaceOnUse">
<stop stop-color="#D4862D" stop-opacity="0"/>
<stop offset="1" stop-color="#994819"/>
</linearGradient>
<linearGradient id="paint73_linear_910_45720" x1="183.479" y1="262.499" x2="176.867" y2="22.9578" gradientUnits="userSpaceOnUse">
<stop stop-color="#D4862D" stop-opacity="0"/>
<stop offset="1" stop-color="#994819"/>
</linearGradient>
<linearGradient id="paint74_linear_910_45720" x1="183.479" y1="262.499" x2="176.867" y2="22.9578" gradientUnits="userSpaceOnUse">
<stop stop-color="#D4862D" stop-opacity="0"/>
<stop offset="1" stop-color="#994819"/>
</linearGradient>
<linearGradient id="paint75_linear_910_45720" x1="183.479" y1="262.499" x2="176.867" y2="22.9578" gradientUnits="userSpaceOnUse">
<stop stop-color="#D4862D" stop-opacity="0"/>
<stop offset="1" stop-color="#994819"/>
</linearGradient>
<linearGradient id="paint76_linear_910_45720" x1="183.479" y1="262.499" x2="176.867" y2="22.9578" gradientUnits="userSpaceOnUse">
<stop stop-color="#D4862D" stop-opacity="0"/>
<stop offset="1" stop-color="#994819"/>
</linearGradient>
<linearGradient id="paint77_linear_910_45720" x1="183.479" y1="262.499" x2="176.867" y2="22.9578" gradientUnits="userSpaceOnUse">
<stop stop-color="#D4862D" stop-opacity="0"/>
<stop offset="1" stop-color="#994819"/>
</linearGradient>
<linearGradient id="paint78_linear_910_45720" x1="183.479" y1="262.499" x2="176.867" y2="22.9578" gradientUnits="userSpaceOnUse">
<stop stop-color="#D4862D" stop-opacity="0"/>
<stop offset="1" stop-color="#994819"/>
</linearGradient>
<linearGradient id="paint79_linear_910_45720" x1="183.479" y1="262.499" x2="176.867" y2="22.9578" gradientUnits="userSpaceOnUse">
<stop stop-color="#D4862D" stop-opacity="0"/>
<stop offset="1" stop-color="#994819"/>
</linearGradient>
<linearGradient id="paint80_linear_910_45720" x1="183.479" y1="262.499" x2="176.867" y2="22.9578" gradientUnits="userSpaceOnUse">
<stop stop-color="#D4862D" stop-opacity="0"/>
<stop offset="1" stop-color="#994819"/>
</linearGradient>
<linearGradient id="paint81_linear_910_45720" x1="183.479" y1="262.499" x2="176.867" y2="22.9578" gradientUnits="userSpaceOnUse">
<stop stop-color="#D4862D" stop-opacity="0"/>
<stop offset="1" stop-color="#994819"/>
</linearGradient>
<linearGradient id="paint82_linear_910_45720" x1="183.479" y1="262.499" x2="176.867" y2="22.9578" gradientUnits="userSpaceOnUse">
<stop stop-color="#D4862D" stop-opacity="0"/>
<stop offset="1" stop-color="#994819"/>
</linearGradient>
<linearGradient id="paint83_linear_910_45720" x1="183.479" y1="262.499" x2="176.867" y2="22.9578" gradientUnits="userSpaceOnUse">
<stop stop-color="#D4862D" stop-opacity="0"/>
<stop offset="1" stop-color="#994819"/>
</linearGradient>
<linearGradient id="paint84_linear_910_45720" x1="183.479" y1="262.499" x2="176.867" y2="22.9578" gradientUnits="userSpaceOnUse">
<stop stop-color="#D4862D" stop-opacity="0"/>
<stop offset="1" stop-color="#994819"/>
</linearGradient>
<linearGradient id="paint85_linear_910_45720" x1="183.479" y1="262.499" x2="176.867" y2="22.9578" gradientUnits="userSpaceOnUse">
<stop stop-color="#D4862D" stop-opacity="0"/>
<stop offset="1" stop-color="#994819"/>
</linearGradient>
<linearGradient id="paint86_linear_910_45720" x1="183.479" y1="262.499" x2="176.867" y2="22.9578" gradientUnits="userSpaceOnUse">
<stop stop-color="#D4862D" stop-opacity="0"/>
<stop offset="1" stop-color="#994819"/>
</linearGradient>
<linearGradient id="paint87_linear_910_45720" x1="183.479" y1="262.499" x2="176.867" y2="22.9578" gradientUnits="userSpaceOnUse">
<stop stop-color="#D4862D" stop-opacity="0"/>
<stop offset="1" stop-color="#994819"/>
</linearGradient>
<linearGradient id="paint88_linear_910_45720" x1="183.479" y1="262.499" x2="176.867" y2="22.9578" gradientUnits="userSpaceOnUse">
<stop stop-color="#D4862D" stop-opacity="0"/>
<stop offset="1" stop-color="#994819"/>
</linearGradient>
</defs>
</svg>
