<svg width="14" height="18" viewBox="0 0 14 18" fill="none" xmlns="http://www.w3.org/2000/svg">
<path d="M7.99976 15.899C8.73868 15.7481 9.43837 15.4312 10.0436 14.9668C10.9168 14.2967 11.5445 13.3573 11.8294 12.2941L13.7612 12.8117C13.3624 14.3002 12.4836 15.6154 11.2611 16.5535C10.0386 17.4915 8.5407 18 6.99976 18C5.45882 18 3.96094 17.4915 2.73843 16.5535C1.51592 15.6154 0.637106 14.3002 0.238281 12.8117L2.17013 12.2941C2.45501 13.3573 3.08273 14.2967 3.95596 14.9668C4.56116 15.4312 5.26084 15.7481 5.99976 15.899L5.99976 0H7.99976L7.99976 15.899Z" fill="currentColor"/>
</svg>
