<svg width="20" height="19" viewBox="0 0 20 19" fill="none" xmlns="http://www.w3.org/2000/svg">
<path d="M15 7H5V5H15V7Z" fill="#FFFFFF"/>
<path d="M5 11H11V9H5V11Z" fill="#FFFFFF"/>
<path fill-rule="evenodd" clip-rule="evenodd" d="M0 9C0 4.02944 4.02944 0 9 0H12C16.4183 0 20 3.58172 20 8C20 12.4183 16.4183 16 12 16H6.65685C5.86121 16 5.09814 16.3161 4.53553 16.8787L3.41421 18C2.15428 19.2599 0 18.3676 0 16.5858V9ZM9 2C5.13401 2 2 5.13401 2 9V16.5858L3.12132 15.4645C4.059 14.5268 5.33077 14 6.65685 14H12C15.3137 14 18 11.3137 18 8C18 4.68629 15.3137 2 12 2H9Z" fill="#FFFFFF"/>
</svg>
