<svg width="20" height="20" viewBox="0 0 20 20" fill="none" xmlns="http://www.w3.org/2000/svg">
<path d="M9.9987 10.8337H6.66536V9.16699H9.9987V10.8337Z" fill="currentColor"/>
<path d="M6.66536 12.5003V14.167H13.332V12.5003H6.66536Z" fill="currentColor"/>
<path fill-rule="evenodd" clip-rule="evenodd" d="M7.4987 1.66699C5.19751 1.66699 3.33203 3.53247 3.33203 5.83366V14.167C3.33203 16.4682 5.19751 18.3337 7.4987 18.3337H12.4987C14.7999 18.3337 16.6654 16.4682 16.6654 14.167V8.0477C16.6654 6.94264 16.2264 5.88283 15.445 5.10143L13.2309 2.88738C12.4495 2.10598 11.3897 1.66699 10.2847 1.66699H7.4987ZM4.9987 5.83366C4.9987 4.45295 6.11799 3.33366 7.4987 3.33366H9.9987V4.16699C9.9987 6.46818 11.8642 8.33366 14.1654 8.33366H14.9987V14.167C14.9987 15.5477 13.8794 16.667 12.4987 16.667H7.4987C6.11799 16.667 4.9987 15.5477 4.9987 14.167V5.83366ZM14.5828 6.66699C14.4913 6.52874 14.3855 6.39895 14.2665 6.27994L12.0524 4.06589C11.9334 3.94688 11.8036 3.8411 11.6654 3.74951V4.16699C11.6654 5.5477 12.7847 6.66699 14.1654 6.66699H14.5828Z" fill="currentColor"/>
</svg>
