<svg width="18" height="15" viewBox="0 0 18 15" fill="none" xmlns="http://www.w3.org/2000/svg">
<path fill-rule="evenodd" clip-rule="evenodd" d="M7.33464 0.833984C3.65274 0.833984 0.667969 3.81875 0.667969 7.50065C0.667969 11.1825 3.65274 14.1673 7.33464 14.1673H10.668C14.3499 14.1673 17.3346 11.1825 17.3346 7.50065C17.3346 3.81875 14.3499 0.833984 10.668 0.833984H7.33464ZM4.33446 3.50042C5.17015 2.87265 6.20895 2.50065 7.33464 2.50065H10.668C11.7937 2.50065 12.8325 2.87265 13.6681 3.50042C13.197 4.12871 12.6022 4.6574 11.918 5.05247C11.0312 5.56445 10.0253 5.83398 9.0013 5.83398C7.97734 5.83398 6.97141 5.56445 6.08464 5.05247C5.40036 4.6574 4.80563 4.12871 4.33446 3.50042ZM3.17569 4.72424C2.64443 5.51847 2.33464 6.47338 2.33464 7.50065C2.33464 10.2621 4.57321 12.5007 7.33464 12.5007H10.668C13.4294 12.5007 15.668 10.2621 15.668 7.50065C15.668 6.47338 15.3582 5.51847 14.8269 4.72424C14.2513 5.43416 13.5486 6.03554 12.7513 6.49584C11.6112 7.1541 10.3178 7.50065 9.0013 7.50065C7.68478 7.50065 6.39145 7.1541 5.2513 6.49584C4.45404 6.03554 3.75132 5.43416 3.17569 4.72424Z" fill="currentColor"/>
</svg>
