<svg width="18" height="19" viewBox="0 0 18 19" fill="none" xmlns="http://www.w3.org/2000/svg">
<path fill-rule="evenodd" clip-rule="evenodd" d="M6.87868 1.70681C8.05025 0.535233 9.94975 0.53523 11.1213 1.7068L16.5355 7.12102C17.4732 8.0587 18 9.33047 18 10.6566V15.9997C18 17.6566 16.6569 18.9997 15 18.9997H3C1.34315 18.9997 0 17.6566 0 15.9997V10.6566C0 9.33047 0.526783 8.0587 1.46446 7.12102L6.87868 1.70681ZM9.70711 3.12102C9.31658 2.73049 8.68342 2.73049 8.29289 3.12102L2.87868 8.53523C2.31607 9.09784 2 9.8609 2 10.6566V15.9997C2 16.552 2.44772 16.9997 3 16.9997H15C15.5523 16.9997 16 16.552 16 15.9997V10.6566C16 9.8609 15.6839 9.09784 15.1213 8.53523L9.70711 3.12102Z" fill="currentColor"/>
</svg>
