<svg width="20" height="21" viewBox="0 0 20 21" fill="none" xmlns="http://www.w3.org/2000/svg">
<path d="M9 6V4H11V6H13V8H11V10H9V8H7V6H9Z" fill="#FFFFFF"/>
<path fill-rule="evenodd" clip-rule="evenodd" d="M7.5 0C5.01472 0 3 2.01472 3 4.5V7.12602C1.27477 7.57006 0 9.13616 0 11V21H20V11C20 9.13616 18.7252 7.57006 17 7.12602V4.5C17 2.01472 14.9853 0 12.5 0H7.5ZM5 4.5C5 3.11929 6.11929 2 7.5 2H12.5C13.8807 2 15 3.11929 15 4.5V9H16C17.1046 9 18 9.89543 18 11V19H14V17C14 14.7909 12.2091 13 10 13C7.79086 13 6 14.7909 6 17V19H2V11C2 9.89543 2.89543 9 4 9H5V4.5ZM12 19V17C12 15.8954 11.1046 15 10 15C8.89543 15 8 15.8954 8 17V19H12Z" fill="#FFFFFF"/>
</svg>
