<svg width="20" height="20" viewBox="0 0 20 20" fill="none" xmlns="http://www.w3.org/2000/svg">
<path d="M8.7513 6.66699C8.7513 5.97664 9.31095 5.41699 10.0013 5.41699C10.6917 5.41699 11.2513 5.97664 11.2513 6.66699C11.2513 7.35735 10.6917 7.91699 10.0013 7.91699C9.31095 7.91699 8.7513 7.35735 8.7513 6.66699Z" fill="currentColor"/>
<path d="M9.16797 14.5837V9.16699H10.8346V14.5837H9.16797Z" fill="currentColor"/>
<path fill-rule="evenodd" clip-rule="evenodd" d="M10.0013 1.66699C5.39893 1.66699 1.66797 5.39795 1.66797 10.0003C1.66797 14.6027 5.39893 18.3337 10.0013 18.3337C14.6037 18.3337 18.3346 14.6027 18.3346 10.0003C18.3346 5.39795 14.6037 1.66699 10.0013 1.66699ZM3.33464 10.0003C3.33464 6.31843 6.3194 3.33366 10.0013 3.33366C13.6832 3.33366 16.668 6.31843 16.668 10.0003C16.668 13.6822 13.6832 16.667 10.0013 16.667C6.3194 16.667 3.33464 13.6822 3.33464 10.0003Z" fill="currentColor"/>
</svg>
