<svg width="20" height="20" viewBox="0 0 20 20" fill="none" xmlns="http://www.w3.org/2000/svg">
<path d="M5.83203 11.6667C6.75251 11.6667 7.4987 10.9205 7.4987 10C7.4987 9.07953 6.75251 8.33333 5.83203 8.33333C4.91156 8.33333 4.16536 9.07953 4.16536 10C4.16536 10.9205 4.91156 11.6667 5.83203 11.6667Z" fill="currentColor"/>
<path fill-rule="evenodd" clip-rule="evenodd" d="M5.83203 5C3.07061 5 0.832031 7.23858 0.832031 10C0.832031 12.7614 3.07061 15 5.83203 15C7.68386 15 9.29907 13.9934 10.1629 12.5H12.4987V15H17.4987V12.5C18.8794 12.5 19.9987 11.3807 19.9987 10C19.9987 8.61929 18.8794 7.5 17.4987 7.5H10.1629C9.29907 6.00661 7.68386 5 5.83203 5ZM2.4987 10C2.4987 8.15905 3.99108 6.66667 5.83203 6.66667C7.19761 6.66667 8.37323 7.48796 8.88837 8.66698L9.10669 9.16667H17.4987C17.9589 9.16667 18.332 9.53976 18.332 10C18.332 10.4602 17.9589 10.8333 17.4987 10.8333H15.832V13.3333H14.1654V10.8333H9.10669L8.88837 11.333C8.37323 12.512 7.19761 13.3333 5.83203 13.3333C3.99108 13.3333 2.4987 11.8409 2.4987 10Z" fill="currentColor"/>
</svg>
