<svg width="12" height="17" viewBox="0 0 12 17" fill="none" xmlns="http://www.w3.org/2000/svg">
<path d="M3.5013 4.33268H8.5013V2.66602H3.5013V4.33268Z" fill="currentColor"/>
<path fill-rule="evenodd" clip-rule="evenodd" d="M4.33464 0.166016C2.03345 0.166016 0.167969 2.0315 0.167969 4.33268V12.666C0.167969 14.9672 2.03345 16.8327 4.33464 16.8327H7.66797C9.96915 16.8327 11.8346 14.9672 11.8346 12.666V4.33268C11.8346 2.0315 9.96916 0.166016 7.66797 0.166016H4.33464ZM1.83464 4.33268C1.83464 2.95197 2.95392 1.83268 4.33464 1.83268H7.66797C9.04868 1.83268 10.168 2.95197 10.168 4.33268V12.666C10.168 14.0467 9.04868 15.166 7.66797 15.166H4.33464C2.95392 15.166 1.83464 14.0467 1.83464 12.666V4.33268Z" fill="currentColor"/>
</svg>
