<svg width="28" height="36" viewBox="0 0 28 36" fill="none" xmlns="http://www.w3.org/2000/svg">
<path fill-rule="evenodd" clip-rule="evenodd" d="M8.75 0.5C3.91751 0.5 0 4.41751 0 9.25V26.75C0 31.5825 3.91751 35.5 8.75 35.5H19.25C24.0825 35.5 28 31.5825 28 26.75V13.8995C28 11.5789 27.0781 9.35326 25.4372 7.71231L20.7877 3.06282C19.1467 1.42187 16.9211 0.5 14.6005 0.5H8.75ZM3.5 9.25C3.5 6.3505 5.85051 4 8.75 4H14V5.75C14 10.5825 17.9175 14.5 22.75 14.5H24.5V26.75C24.5 29.6495 22.1495 32 19.25 32H8.75C5.8505 32 3.5 29.6495 3.5 26.75V9.25ZM23.6267 11C23.4344 10.7097 23.2122 10.4371 22.9623 10.1872L18.3128 5.53769C18.0629 5.28775 17.7903 5.06562 17.5 4.87328V5.75C17.5 8.64949 19.8505 11 22.75 11H23.6267Z" fill="white"/>
</svg>
