<svg width="20" height="20" viewBox="0 0 20 20" fill="none" xmlns="http://www.w3.org/2000/svg">
<path fill-rule="evenodd" clip-rule="evenodd" d="M6.66797 10.8333C6.66797 9.74482 5.9723 8.81878 5.0013 8.47559L5.0013 2.5H3.33464L3.33464 8.47559C2.36364 8.81878 1.66797 9.74482 1.66797 10.8333C1.66797 11.9218 2.36364 12.8479 3.33464 13.1911L3.33464 17.5H5.0013L5.0013 13.1911C5.9723 12.8479 6.66797 11.9218 6.66797 10.8333ZM3.33464 10.8333C3.33464 10.3731 3.70773 10 4.16797 10C4.62821 10 5.0013 10.3731 5.0013 10.8333C5.0013 11.2936 4.62821 11.6667 4.16797 11.6667C3.70773 11.6667 3.33464 11.2936 3.33464 10.8333Z" fill="currentColor"/>
<path fill-rule="evenodd" clip-rule="evenodd" d="M10.8346 4.30892V2.5H9.16797V4.30892C8.19698 4.65212 7.5013 5.57815 7.5013 6.66667C7.5013 7.75518 8.19698 8.68122 9.16797 9.02441L9.16797 17.5H10.8346L10.8346 9.02441C11.8056 8.68121 12.5013 7.75518 12.5013 6.66667C12.5013 5.57815 11.8056 4.65212 10.8346 4.30892ZM10.0013 5.83333C9.54107 5.83333 9.16797 6.20643 9.16797 6.66667C9.16797 7.1269 9.54107 7.5 10.0013 7.5C10.4615 7.5 10.8346 7.1269 10.8346 6.66667C10.8346 6.20643 10.4615 5.83333 10.0013 5.83333Z" fill="currentColor"/>
<path fill-rule="evenodd" clip-rule="evenodd" d="M13.3346 13.3333C13.3346 12.2448 14.0303 11.3188 15.0013 10.9756V2.5H16.668V10.9756C17.639 11.3188 18.3346 12.2448 18.3346 13.3333C18.3346 14.4218 17.639 15.3479 16.668 15.6911V17.5H15.0013V15.6911C14.0303 15.3479 13.3346 14.4218 13.3346 13.3333ZM15.8346 12.5C15.3744 12.5 15.0013 12.8731 15.0013 13.3333C15.0013 13.7936 15.3744 14.1667 15.8346 14.1667C16.2949 14.1667 16.668 13.7936 16.668 13.3333C16.668 12.8731 16.2949 12.5 15.8346 12.5Z" fill="currentColor"/>
</svg>
