<svg width="20" height="20" viewBox="0 0 20 20" fill="none" xmlns="http://www.w3.org/2000/svg">
<path d="M13.7494 6.1686C14.226 5.89343 14.7801 5.78322 15.3257 5.85505C15.588 5.88958 15.8413 5.96525 16.0768 6.07774L10.8327 11.3218L7.49941 7.98849L1.91016 13.5777L3.08867 14.7563L7.49941 10.3455L10.8327 13.6788L17.2553 7.25625C17.3678 7.4918 17.4435 7.74508 17.478 8.00735C17.5499 8.55298 17.4396 9.10706 17.1645 9.58366L18.6079 10.417C19.0665 9.62266 19.2502 8.69918 19.1304 7.78981C19.0107 6.88043 18.5943 6.03596 17.9457 5.38739C17.2971 4.73881 16.4527 4.32237 15.5433 4.20264C14.6339 4.08292 13.7104 4.26661 12.9161 4.72523L13.7494 6.1686Z" fill="currentColor"/>
</svg>
