<svg width="24" height="20" viewBox="0 0 24 20" fill="none" xmlns="http://www.w3.org/2000/svg">
<path d="M4.9423 2.19228C5.46635 1.99505 6.03514 1.94841 6.58432 2.05765C7.1335 2.16688 7.64115 2.42764 8.04983 2.81041C8.45851 3.19318 8.75191 3.68268 8.89683 4.22354L10.8287 3.70591C10.5871 2.80447 10.0981 1.98863 9.41702 1.35068C8.73588 0.712731 7.8898 0.278139 6.9745 0.0960748C6.05921 -0.0859895 5.11122 -0.00825897 4.2378 0.320472C3.36439 0.649203 2.6004 1.21581 2.03229 1.95619C1.46417 2.69658 1.1146 3.58118 1.02313 4.50992C0.931658 5.43865 1.10193 6.37446 1.51469 7.21145C1.78573 7.76106 2.15422 8.25366 2.5997 8.66667C1.9333 8.9385 1.29808 9.29084 0.708984 9.71885L1.88456 11.3369C3.08049 10.468 4.5208 10 5.99906 10L5.99905 8C5.43912 8 4.89035 7.84329 4.41485 7.54761C3.93935 7.25192 3.55609 6.82906 3.30844 6.32687C3.06078 5.82467 2.95862 5.26319 3.0135 4.70595C3.06838 4.14871 3.27812 3.61795 3.61899 3.17372C3.95986 2.72949 4.41825 2.38952 4.9423 2.19228Z" fill="#FFFFFF"/>
<path d="M17.4138 2.05765C17.963 1.94841 18.5318 1.99505 19.0558 2.19228C19.5799 2.38952 20.0382 2.72949 20.3791 3.17372C20.72 3.61795 20.9297 4.14871 20.9846 4.70595C21.0395 5.26319 20.9373 5.82467 20.6897 6.32687C20.442 6.82906 20.0588 7.25192 19.5833 7.54761C19.1078 7.84329 18.559 8 17.9991 8L17.9991 10C19.4773 10 20.9176 10.468 22.1136 11.3369L23.2891 9.71885C22.7 9.29084 22.0648 8.9385 21.3984 8.66667C21.8439 8.25366 22.2124 7.76106 22.4834 7.21145C22.8962 6.37446 23.0665 5.43865 22.975 4.50992C22.8835 3.58118 22.5339 2.69658 21.9658 1.95619C21.3977 1.21581 20.6337 0.649203 19.7603 0.320472C18.8869 -0.00825897 17.9389 -0.0859895 17.0236 0.0960748C16.1083 0.278139 15.2622 0.712731 14.5811 1.35068C13.9 1.98863 13.411 2.80447 13.1694 3.70591L15.1013 4.22354C15.2462 3.68268 15.5396 3.19318 15.9483 2.81041C16.357 2.42764 16.8646 2.16688 17.4138 2.05765Z" fill="#FFFFFF"/>
<path fill-rule="evenodd" clip-rule="evenodd" d="M15.3984 14.6667C16.3829 13.7535 16.9991 12.4487 16.9991 11C16.9991 8.23858 14.7605 6 11.9991 6C9.23763 6 6.99905 8.23858 6.99905 11C6.99905 12.4487 7.61518 13.7535 8.59969 14.6667C8.22223 14.8207 7.85444 15.0006 7.49905 15.2058C6.13088 15.9957 4.99474 17.1318 4.20482 18.5L5.93688 19.5C6.55125 18.4359 7.43492 17.5522 8.49905 16.9378C9.56222 16.324 10.7681 16.0006 11.9957 16L11.9991 16C13.2278 16 14.4349 16.3234 15.4991 16.9378C16.5632 17.5522 17.4469 18.4359 18.0612 19.5L19.7933 18.5C19.0034 17.1318 17.8672 15.9957 16.4991 15.2058C16.1437 15.0006 15.7759 14.8207 15.3984 14.6667ZM8.99905 11C8.99905 9.34315 10.3422 8 11.9991 8C13.6559 8 14.9991 9.34315 14.9991 11C14.9991 12.6569 13.6559 14 11.9991 14C10.3422 14 8.99905 12.6569 8.99905 11Z" fill="#FFFFFF"/>
</svg>
