<svg width="38" height="34" viewBox="0 0 38 34" fill="none" xmlns="http://www.w3.org/2000/svg">
<path fill-rule="evenodd" clip-rule="evenodd" d="M18.999 0.5C12.2335 0.5 6.74904 5.98451 6.74904 12.75C6.74904 16.8701 8.78305 20.5151 11.9017 22.7357C10.7272 23.1575 9.58815 23.6847 8.49903 24.3135C5.30663 26.1566 2.65563 28.8076 0.8125 32L3.84359 33.75C5.37953 31.0897 7.5887 28.8805 10.249 27.3446C12.9094 25.8086 15.9271 25 18.999 25C22.0709 25 25.0887 25.8086 27.749 27.3446C30.4094 28.8805 32.6185 31.0897 34.1545 33.75L37.1856 32C35.3424 28.8076 32.6914 26.1566 29.499 24.3135C28.4099 23.6847 27.2709 23.1575 26.0964 22.7357C29.215 20.5151 31.249 16.8701 31.249 12.75C31.249 5.98451 25.7645 0.5 18.999 0.5ZM10.249 12.75C10.249 7.91751 14.1665 4 18.999 4C23.8315 4 27.749 7.91751 27.749 12.75C27.749 17.5825 23.8315 21.5 18.999 21.5C14.1665 21.5 10.249 17.5825 10.249 12.75Z" fill="currentColor"/>
</svg>
