<svg width="194" height="67" viewBox="0 0 194 67" fill="none" xmlns="http://www.w3.org/2000/svg">
<path d="M16.7395 22.7543C10.817 22.7543 6.01579 27.5555 6.01579 33.478C6.01579 39.4006 10.817 44.2017 16.7395 44.2017C22.6621 44.2017 27.4633 39.4006 27.4633 33.478C27.4633 27.5554 22.6621 22.7543 16.7395 22.7543ZM33.479 39.4938C27.5565 39.4938 22.7553 44.2949 22.7553 50.2175C22.7553 56.1401 27.5565 60.9412 33.479 60.9412C39.4016 60.9412 44.2028 56.1401 44.2028 50.2175C44.2028 44.2949 39.4016 39.4938 33.479 39.4938ZM50.2185 22.7543C44.296 22.7543 39.4948 27.5554 39.4948 33.478C39.4948 39.4006 44.296 44.2017 50.2185 44.2017C56.1411 44.2017 60.9423 39.4006 60.9423 33.478C60.9423 27.5554 56.1411 22.7543 50.2185 22.7543ZM33.479 6.01477C27.5565 6.01477 22.7553 10.816 22.7553 16.7385C22.7553 22.6611 27.5565 27.4622 33.479 27.4622C39.4016 27.4622 44.2028 22.6611 44.2028 16.7385C44.2028 10.816 39.4016 6.01477 33.479 6.01477Z" fill="white" stroke="url(#paint0_linear_411_6085)" stroke-width="0.523109"/>
<path d="M90.6719 50.4986L90.6719 15.3457L96.7985 15.3457L96.7985 50.4986L90.6719 50.4986Z" fill="#F7F3EF"/>
<path d="M124.592 34.6296L124.592 50.4986L118.466 50.4986L118.466 36.2366C118.466 35.249 118.223 34.3534 117.738 33.5499C117.252 32.7297 116.599 32.0852 115.779 31.6165C114.976 31.131 114.08 30.8883 113.092 30.8883C112.105 30.8883 111.201 31.131 110.381 31.6165C109.577 32.0852 108.933 32.7297 108.447 33.5499C107.979 34.3534 107.744 35.249 107.744 36.2366L107.744 50.4986L101.618 50.4986L101.592 25.3894L107.719 25.3894L107.744 27.6241C108.598 26.7202 109.619 26.0088 110.808 25.4898C111.996 24.9542 113.277 24.6863 114.649 24.6863C116.474 24.6863 118.139 25.1383 119.646 26.0422C121.153 26.9294 122.349 28.1263 123.237 29.6329C124.141 31.1227 124.592 32.7883 124.592 34.6296Z" fill="#F7F3EF"/>
<path d="M141.045 31.5161L136.174 31.5161L136.174 50.4986L130.047 50.4986L130.047 31.5161L126.331 31.5161L126.331 25.3894L130.047 25.3894L130.047 17.5051L136.174 17.5051L136.174 25.3894L141.045 25.3894L141.045 31.5161Z" fill="#F7F3EF"/>
<path d="M154.084 51.1515C151.774 51.1515 149.665 50.5572 147.757 49.3687C145.865 48.1802 144.35 46.5816 143.212 44.5729C142.091 42.5641 141.53 40.3461 141.53 37.9189C141.53 36.0943 141.856 34.3869 142.509 32.7966C143.162 31.1896 144.058 29.7835 145.196 28.5783C146.351 27.3563 147.69 26.4021 149.213 25.7158C150.737 25.0295 152.36 24.6863 154.084 24.6863C156.043 24.6863 157.834 25.1048 159.458 25.9418C161.098 26.762 162.488 27.892 163.626 29.3316C164.764 30.7711 165.593 32.4116 166.112 34.253C166.631 36.0943 166.748 38.0194 166.463 40.0281L148.108 40.0281C148.343 40.9655 148.728 41.8108 149.263 42.5641C149.799 43.3007 150.477 43.8949 151.297 44.3469C152.118 44.7821 153.047 45.0081 154.084 45.0248C155.156 45.0416 156.127 44.7905 156.997 44.2716C157.884 43.7359 158.621 43.0161 159.207 42.1122L165.459 43.5685C164.438 45.7948 162.915 47.6195 160.889 49.0423C158.864 50.4484 156.595 51.1515 154.084 51.1515ZM147.908 35.4331L160.261 35.4331C160.077 34.4287 159.684 33.5248 159.081 32.7213C158.495 31.9011 157.767 31.2482 156.897 30.7628C156.026 30.2773 155.089 30.0346 154.084 30.0346C153.08 30.0346 152.151 30.2773 151.297 30.7628C150.444 31.2315 149.715 31.876 149.113 32.6962C148.527 33.4997 148.125 34.412 147.908 35.4331Z" fill="#F7F3EF"/>
<path d="M187.57 25.3894L193.697 25.3894L193.697 50.4986L187.57 50.4986L187.294 47.3851C186.608 48.5066 185.696 49.4189 184.557 50.122C183.436 50.8083 182.105 51.1515 180.565 51.1515C178.707 51.1515 176.966 50.8 175.342 50.0969C173.718 49.3938 172.287 48.4229 171.049 47.1842C169.827 45.9455 168.864 44.5143 168.161 42.8905C167.475 41.2668 167.131 39.5259 167.131 37.6678C167.131 35.8767 167.458 34.1944 168.111 32.6209C168.78 31.0474 169.709 29.6663 170.898 28.4778C172.086 27.2893 173.459 26.3603 175.016 25.6907C176.573 25.0211 178.246 24.6863 180.038 24.6863C181.695 24.6863 183.176 25.0546 184.482 25.7912C185.804 26.5277 186.926 27.4651 187.847 28.6034L187.57 25.3894ZM180.414 45.2508C181.72 45.2508 182.875 44.9244 183.879 44.2716C184.884 43.6187 185.67 42.7399 186.24 41.6351C186.809 40.5135 187.093 39.2832 187.093 37.944C187.093 36.5881 186.809 35.3578 186.24 34.253C185.67 33.1314 184.875 32.2442 183.854 31.5914C182.85 30.9385 181.703 30.6121 180.414 30.6121C179.125 30.6121 177.945 30.9469 176.874 31.6165C175.819 32.2693 174.974 33.1482 174.338 34.253C173.718 35.3578 173.409 36.5881 173.409 37.944C173.409 39.2999 173.727 40.5303 174.363 41.6351C174.999 42.7399 175.844 43.6187 176.899 44.2716C177.97 44.9244 179.142 45.2508 180.414 45.2508Z" fill="#F7F3EF"/>
<defs>
<linearGradient id="paint0_linear_411_6085" x1="6.27734" y1="33.478" x2="60.6807" y2="33.478" gradientUnits="userSpaceOnUse">
<stop stop-color="white"/>
<stop offset="1" stop-color="white" stop-opacity="0"/>
</linearGradient>
</defs>
</svg>
